<svg width="621" height="481" viewBox="0 0 621 481" fill="none" xmlns="http://www.w3.org/2000/svg">
<rect x="0.713135" y="0.472168" width="620" height="480" fill="#F2F7F7"/>
<path d="M133.95 373.106C143.337 373.106 151.206 366.923 153.061 358.266H144.911C143.505 362.707 139.121 365.517 133.95 365.517C126.249 365.517 121.19 360.177 121.19 352.645C121.19 345.057 126.249 339.717 133.95 339.717C139.121 339.717 143.505 342.583 144.911 347.024H153.061C151.206 338.311 143.281 332.185 133.95 332.185C122.033 332.185 113.489 341.122 113.489 352.645C113.489 364.112 122.033 373.106 133.95 373.106ZM176.161 373.106C187.516 373.106 196.622 364.112 196.622 352.645C196.622 341.122 187.516 332.185 176.161 332.185C164.807 332.185 155.757 341.122 155.757 352.645C155.757 364.112 164.807 373.106 176.161 373.106ZM176.161 365.517C169.022 365.517 163.458 360.177 163.458 352.645C163.458 345.057 169.022 339.717 176.161 339.717C183.3 339.717 188.865 345.057 188.865 352.645C188.865 360.177 183.3 365.517 176.161 365.517ZM240.578 332.971H231.753L221.354 357.03L210.899 332.971H209.831H202.074V372.319H209.831V345.9L218.543 366.023H224.164L232.877 345.9V372.319H240.578V332.971ZM247.909 332.971V372.319H255.667V332.971H247.909ZM284.198 332.971V357.254L268.852 332.971H262.95V372.319H270.707V347.98L285.997 372.319H291.899V332.971H284.198ZM318.179 358.041H329.084C328.016 363.213 323.463 365.967 317.785 365.967C310.422 365.967 305.082 360.627 305.082 352.645C305.082 345.057 310.141 339.717 317.785 339.717C322.957 339.717 327.285 342.583 328.746 346.181H336.841C334.986 338.311 327.116 332.185 317.785 332.185C305.925 332.185 297.381 341.122 297.381 352.645C297.381 364.112 305.756 373.106 316.942 373.106C322.507 373.106 326.835 371.026 329.533 367.372V372.319H336.841V358.041V351.184H318.179V358.041ZM369.508 373.106C376.815 373.106 382.998 369.115 382.998 361.583C382.998 353.263 375.579 351.184 369.901 349.16C366.248 347.811 363.55 346.518 363.55 343.651C363.55 341.347 365.404 339.717 368.608 339.717C372.15 339.717 374.173 341.459 374.173 344.888H381.874C381.874 336.175 375.466 332.185 368.608 332.185C362.088 332.185 355.849 336.119 355.849 343.651C355.849 351.971 362.763 354.219 368.384 356.243C372.15 357.535 375.298 358.772 375.298 361.583C375.298 363.831 373.443 365.517 369.508 365.517C365.123 365.517 362.875 363.775 362.875 360.177H355.118C355.118 369.059 361.751 373.106 369.508 373.106ZM406.383 373.106C417.737 373.106 426.843 364.112 426.843 352.645C426.843 341.122 417.737 332.185 406.383 332.185C395.028 332.185 385.978 341.122 385.978 352.645C385.978 364.112 395.028 373.106 406.383 373.106ZM406.383 365.517C399.244 365.517 393.679 360.177 393.679 352.645C393.679 345.057 399.244 339.717 406.383 339.717C413.522 339.717 419.086 345.057 419.086 352.645C419.086 360.177 413.522 365.517 406.383 365.517ZM450.901 373.106C462.256 373.106 471.362 364.112 471.362 352.645C471.362 341.122 462.256 332.185 450.901 332.185C439.547 332.185 430.497 341.122 430.497 352.645C430.497 364.112 439.547 373.106 450.901 373.106ZM450.901 365.517C443.762 365.517 438.198 360.177 438.198 352.645C438.198 345.057 443.762 339.717 450.901 339.717C458.04 339.717 463.605 345.057 463.605 352.645C463.605 360.177 458.04 365.517 450.901 365.517ZM498.061 332.971V357.254L482.716 332.971H476.814V372.319H484.571V347.98L499.86 372.319H505.762V332.971H498.061Z" fill="white"/>
<g clip-path="url(#clip0)">
<path d="M334.31 176.302L299.871 154.387C298.907 153.776 297.686 153.736 296.681 154.284C295.682 154.835 295.059 155.887 295.059 157.029V200.86C295.059 202.002 295.682 203.054 296.684 203.605C297.154 203.862 297.67 203.99 298.19 203.99C298.776 203.99 299.361 203.824 299.871 203.502L334.31 181.587C335.211 181.011 335.759 180.015 335.759 178.944C335.759 177.874 335.211 176.878 334.31 176.302ZM301.321 195.159V162.73L326.796 178.944L301.321 195.159Z" fill="white"/>
<path d="M398.374 106.937H367.066H254.36H223.052C221.324 106.937 219.922 108.337 219.922 110.068V144.506V178.944V213.382V247.821C219.922 249.552 221.324 250.951 223.052 250.951H254.36H367.066H398.374C400.102 250.951 401.505 249.552 401.505 247.821V213.382V178.944V144.506V110.068C401.505 108.337 400.102 106.937 398.374 106.937ZM251.229 175.814H226.183V147.637H251.229V175.814ZM226.183 182.075H251.229V210.252H226.183V182.075ZM257.491 213.382V178.944V144.506V113.199H363.936V144.506V178.944V213.382V244.69H257.491V213.382ZM395.243 175.814H370.197V147.637H395.243V175.814ZM370.197 182.075H395.243V210.252H370.197V182.075ZM395.243 113.199V141.375H370.197V113.199H395.243ZM226.183 113.199H251.229V141.375H226.183V113.199ZM226.183 244.69V216.513H251.229V244.69H226.183ZM395.243 244.69H370.197V216.513H395.243V244.69Z" fill="white"/>
</g>
<defs>
<clipPath id="clip0">
<rect width="181.583" height="181.583" fill="white" transform="translate(219.922 88.1528)"/>
</clipPath>
</defs>
</svg>
