<svg width="117" height="122" viewBox="0 0 117 122" fill="none" xmlns="http://www.w3.org/2000/svg">
<mask id="mask0" mask-type="alpha" maskUnits="userSpaceOnUse" x="0" y="0" width="117" height="122">
<rect x="3.81469" y="4.40111" width="108.846" height="113.549" fill="white" stroke="#F2F7F7" stroke-width="6.85594"/>
</mask>
<g mask="url(#mask0)">
<path d="M112.525 34.3818C112.515 33.503 112.174 32.6419 111.526 31.9957L85.2197 5.7787C85.2186 5.77756 85.2177 5.77728 85.2166 5.77642C84.5954 5.15789 83.7371 4.77563 82.7896 4.77563H9.70957C5.71999 4.77563 2.47461 8.00968 2.47461 11.9857V143.84C2.47461 147.816 5.71971 151.05 9.70928 151.05H105.297C109.287 151.05 112.532 147.816 112.532 143.84V34.4172C112.533 34.4046 112.526 34.394 112.525 34.3818ZM86.2262 16.4694L100.799 30.9923H86.588C86.3888 30.9923 86.2262 30.8303 86.2262 30.6318V16.4694ZM105.659 143.841C105.659 144.039 105.497 144.201 105.298 144.201H9.70957C9.51034 144.201 9.34808 144.039 9.34808 143.841V11.9857C9.34808 11.7871 9.51034 11.6254 9.70957 11.6254H79.353V30.6318C79.353 34.6075 82.5987 37.8424 86.5883 37.8424H105.66V143.841H105.659Z" fill="#F2F7F7"/>
<path d="M87.9153 51.6335H27.0909C25.1931 51.6335 23.6543 53.1668 23.6543 55.0584C23.6543 56.9497 25.1931 58.4833 27.0909 58.4833H87.915C89.8127 58.4833 91.3516 56.9497 91.3516 55.0584C91.3518 53.1668 89.8127 51.6335 87.9153 51.6335Z" fill="#F2F7F7"/>
<path d="M87.9153 72.3H27.0909C25.1931 72.3 23.6543 73.8337 23.6543 75.7249C23.6543 77.6162 25.1931 79.1498 27.0909 79.1498H87.915C89.8127 79.1498 91.3516 77.6162 91.3516 75.7249C91.3518 73.8337 89.8127 72.3 87.9153 72.3Z" fill="#F2F7F7"/>
<path d="M87.9153 92.9666H27.0909C25.1931 92.9666 23.6543 94.5002 23.6543 96.3915C23.6543 98.283 25.1931 99.8164 27.0909 99.8164H87.915C89.8127 99.8164 91.3516 98.283 91.3516 96.3915C91.3518 94.5004 89.8127 92.9666 87.9153 92.9666Z" fill="#F2F7F7"/>
<path d="M57.5031 113.634H27.0909C25.1931 113.634 23.6543 115.167 23.6543 117.058C23.6543 118.95 25.1931 120.483 27.0909 120.483H57.5031C59.4008 120.483 60.9397 118.95 60.9397 117.058C60.9397 115.167 59.4008 113.634 57.5031 113.634Z" fill="#F2F7F7"/>
</g>
</svg>
