<svg width="34" height="33" viewBox="0 0 34 33" fill="none" xmlns="http://www.w3.org/2000/svg">
<path d="M17.0009 7.93355C12.2966 7.93355 8.39876 11.5727 8.39876 16.1056C8.39876 20.6385 12.2294 24.2776 17.0009 24.2776C21.7724 24.2776 25.6031 20.5747 25.6031 16.1056C25.6031 11.6365 21.7052 7.93355 17.0009 7.93355ZM17.0009 21.3408C13.9767 21.3408 11.4902 18.9786 11.4902 16.1056C11.4902 13.2326 13.9767 10.8704 17.0009 10.8704C20.0251 10.8704 22.5117 13.2326 22.5117 16.1056C22.5117 18.9786 20.0251 21.3408 17.0009 21.3408Z" fill="#231F20"/>
<path d="M25.939 9.58665C27.0153 9.58665 27.8879 8.75772 27.8879 7.73517C27.8879 6.71263 27.0153 5.8837 25.939 5.8837C24.8626 5.8837 23.99 6.71263 23.99 7.73517C23.99 8.75772 24.8626 9.58665 25.939 9.58665Z" fill="#231F20"/>
<path d="M30.9791 2.95257C29.2318 1.22878 26.7453 0.334961 23.9227 0.334961H10.0786C4.23183 0.334961 0.333984 4.03792 0.333984 9.59235V22.6804C0.333984 25.4257 1.27484 27.7879 3.15656 29.5117C4.97108 31.1716 7.39044 32.0016 10.1458 32.0016H23.8555C26.7453 32.0016 29.1646 31.1078 30.9119 29.5117C32.7265 27.8518 33.6673 25.4895 33.6673 22.7442V9.59235C33.6673 6.9109 32.7265 4.61251 30.9791 2.95257ZM30.7103 22.7442C30.7103 24.7234 29.9711 26.3195 28.7614 27.4049C27.5517 28.4902 25.8716 29.0648 23.8555 29.0648H10.1458C8.12968 29.0648 6.44958 28.4902 5.2399 27.4049C4.03022 26.2557 3.42538 24.6596 3.42538 22.6804V9.59235C3.42538 7.67703 4.03022 6.08093 5.2399 4.93173C6.38237 3.84639 8.12968 3.27179 10.1458 3.27179H23.9899C26.006 3.27179 27.6861 3.84639 28.8958 4.99558C30.0383 6.14477 30.7103 7.74087 30.7103 9.59235V22.7442Z" fill="#231F20"/>
</svg>
