<svg width="47" height="42" viewBox="0 0 47 42" fill="none" xmlns="http://www.w3.org/2000/svg">
<path d="M25.7478 40.0434C25.5682 40.0434 25.3892 39.9907 25.2349 39.8863C22.0955 37.764 19.3671 35.7298 16.7285 33.7625C14.1735 31.8574 11.5337 29.8893 8.52754 27.8478H1.99769C1.492 27.8478 1.08209 27.4378 1.08209 26.9322V14.1209C1.08209 13.6153 1.492 13.2053 1.99769 13.2053H8.5279C14.7125 9.00628 25.0949 1.26986 25.2004 1.19121C25.4781 0.984099 25.8488 0.951688 26.1583 1.10679C26.4678 1.26217 26.6633 1.57887 26.6633 1.92515V39.1278C26.6633 39.4665 26.4763 39.7776 26.1771 39.9365C26.0423 40.0081 25.8948 40.0434 25.7478 40.0434ZM2.91328 26.0167H8.80853C8.99129 26.0167 9.16992 26.0714 9.32136 26.1738C12.459 28.295 15.1859 30.3282 17.8231 32.2946C20.0349 33.9437 22.3106 35.6404 24.8321 37.3907V3.74471C21.6786 6.0782 14.1392 11.6224 9.32163 14.8795C9.17029 14.9818 8.99165 15.0366 8.80881 15.0366H2.91328V26.0167Z" fill="white" stroke="white" stroke-width="2"/>
<path d="M31.3681 23.2856C30.993 22.9443 31.0359 22.3642 31.3768 21.9908C31.8018 21.5251 31.992 21.0795 31.992 20.5268C31.992 19.9743 31.7733 19.4542 31.3764 19.0626C31.0164 18.7074 31.0125 18.1278 31.3677 17.7678C31.7228 17.4078 32.3026 17.4039 32.6625 17.7591C33.411 18.4974 33.8232 19.4804 33.8232 20.5268C33.8232 21.5733 33.4345 22.5804 32.6629 23.2943C32.2825 23.6463 31.7329 23.6175 31.3681 23.2856Z" fill="white" stroke="white" stroke-width="2"/>
<path d="M36.3059 27.7898C36.0697 27.7898 35.8336 27.699 35.6544 27.5175C35.2991 27.1576 35.3028 26.5779 35.6627 26.2226C37.2043 24.7005 38.0532 22.6777 38.0532 20.5268C38.0532 18.3757 37.2042 16.3529 35.6625 14.8311C35.3026 14.4759 35.2989 13.8961 35.6541 13.5362C36.0095 13.1763 36.589 13.1726 36.949 13.5278C38.842 15.3964 39.8844 17.8821 39.8844 20.5267C39.8844 23.1712 38.842 25.6568 36.9492 27.5256C36.7708 27.7019 36.5383 27.7898 36.3059 27.7898Z" fill="white" stroke="white" stroke-width="2"/>
<path d="M40.5916 32.0212C40.3554 32.0212 40.1191 31.9302 39.9401 31.7488C39.5848 31.3889 39.5885 30.8092 39.9484 30.4539C42.6349 27.8015 44.1145 24.276 44.1145 20.5269C44.1145 16.7778 42.6349 13.2521 39.9481 10.5993C39.5883 10.244 39.5846 9.66432 39.9399 9.3044C40.2951 8.94457 40.8749 8.94091 41.2347 9.29616C44.2727 12.2957 45.9457 16.2842 45.9457 20.5269C45.9457 24.7696 44.2727 28.7579 41.2349 31.7571C41.0565 31.9333 40.824 32.0212 40.5916 32.0212Z" fill="white" stroke="white" stroke-width="2"/>
</svg>
