<?xml version="1.0" encoding="utf-8"?>
<!-- Generator: Adobe Illustrator 22.0.1, SVG Export Plug-In . SVG Version: 6.00 Build 0)  -->
<svg version="1.1" id="Слой_1" xmlns="http://www.w3.org/2000/svg" xmlns:xlink="http://www.w3.org/1999/xlink" x="0px" y="0px"
	 viewBox="0 0 160 159.5" style="enable-background:new 0 0 160 159.5;" xml:space="preserve">
<style type="text/css">
	.st0{fill:#ED1744;}
	.st1{fill:#EC1744;}
	.st2{fill:#231F20;}
</style>
<g>
	<g>
		<g>
			<path class="st0" d="M73.4,159.5c0,0-0.1,0-0.1,0c-19.9-1.7-38.4-10.7-52-25.4C7.5,119.2,0,99.9,0,79.7
				c0-20.2,7.5-39.5,21.2-54.3C34.9,10.7,53.3,1.7,73.3,0c0.8-0.1,1.5,0.5,1.6,1.3c0.1,0.8-0.5,1.5-1.3,1.6
				C33.9,6.2,2.9,40,2.9,79.7c0,39.8,31,73.5,70.6,76.8c0.8,0.1,1.4,0.8,1.3,1.6C74.8,158.9,74.1,159.5,73.4,159.5z"/>
		</g>
		<g>
			<path class="st0" d="M86.2,159.5c-0.8,0-1.4-0.6-1.5-1.3c-0.1-0.8,0.5-1.5,1.3-1.6c39.8-3.1,71-36.9,71-76.8S125.9,6,86.1,2.9
				c-0.8-0.1-1.4-0.8-1.3-1.6c0.1-0.8,0.8-1.4,1.6-1.3c20,1.6,38.6,10.6,52.3,25.3C152.4,40.2,160,59.5,160,79.7
				s-7.6,39.6-21.4,54.4c-13.7,14.8-32.3,23.7-52.3,25.3C86.3,159.5,86.2,159.5,86.2,159.5z"/>
		</g>
	</g>
	<g>
		<g>
			<g>
				<path class="st1" d="M76,81.2H61.3c-0.8,0-1.5-0.7-1.5-1.5c0-0.8,0.7-1.5,1.5-1.5H76c0.8,0,1.5,0.7,1.5,1.5
					C77.5,80.6,76.8,81.2,76,81.2z"/>
			</g>
			<g>
				<path class="st1" d="M56.6,100.6c-13.8,0-25-9.3-25-20.8c0-5.4,2.5-10.5,6.9-14.4c0.6-0.5,1.5-0.5,2.1,0.1
					c0.5,0.6,0.5,1.5-0.1,2.1c-3.8,3.3-5.9,7.6-5.9,12.2c0,9.9,9.9,17.9,22.1,17.9c7.2,0,13.8-2.8,18-7.5v-4.8
					c0-0.8,0.7-1.5,1.5-1.5c0.8,0,1.5,0.7,1.5,1.5v5.3c0,0.3-0.1,0.7-0.3,0.9C72.5,97.2,64.8,100.6,56.6,100.6z"/>
			</g>
			<g>
				<path class="st1" d="M76,70.3c-0.4,0-0.8-0.2-1.1-0.5c-4.1-5-11-7.9-18.3-7.9c-3.7,0-7.4,0.8-10.6,2.2c-0.7,0.3-1.6,0-1.9-0.7
					c-0.3-0.7,0-1.6,0.7-1.9c3.6-1.6,7.7-2.4,11.8-2.4c8.2,0,15.9,3.4,20.6,9c0.5,0.6,0.4,1.5-0.2,2.1C76.7,70.2,76.4,70.3,76,70.3z
					"/>
			</g>
		</g>
		<g>
			<g>
				<path class="st1" d="M103.5,100.4c-9.8,0-15.6-1-15.9-1c-0.8-0.1-1.3-0.9-1.2-1.7c0.1-0.8,0.9-1.3,1.7-1.2c0.1,0,5.9,1,15.4,1
					c12.2,0,22.1-8,22.1-17.8c0-10-9.7-17.8-22.1-17.8c-10,0-15.3,1-15.4,1c-0.8,0.1-1.6-0.4-1.7-1.2c-0.1-0.8,0.4-1.6,1.2-1.7
					c0.2,0,5.6-1,15.9-1c14,0,25,9.1,25,20.7C128.5,91.2,117.2,100.4,103.5,100.4z"/>
			</g>
			<g>
				<path class="st1" d="M87.8,93.2c-0.8,0-1.5-0.7-1.5-1.5V67.7c0-0.8,0.7-1.5,1.5-1.5c0.8,0,1.5,0.7,1.5,1.5v24.1
					C89.3,92.6,88.6,93.2,87.8,93.2z"/>
			</g>
		</g>
	</g>
	<g>
		<g>
			<path class="st2" d="M26,110.4c-0.2,0.3-0.4,0.6-0.8,0.8c-0.6,0.3-1.1,0.3-1.7,0c-0.5-0.3-1-0.9-1.5-1.8l-1.8-3.5l6.5-3.2
				l1.7,3.3c0.4,0.8,0.6,1.5,0.5,2.1c-0.1,0.6-0.4,1-0.9,1.3c-0.3,0.2-0.6,0.2-0.9,0.2c-0.3,0-0.6-0.1-0.9-0.4
				C26.2,109.7,26.1,110.1,26,110.4z M24.4,109.3c0.4-0.2,0.5-0.7,0.2-1.3l-0.8-1.5l-1.3,0.7l0.8,1.5
				C23.6,109.3,24,109.5,24.4,109.3z M26.3,105.2l-1.3,0.6l0.6,1.3c0.3,0.6,0.7,0.8,1.1,0.6c0.4-0.2,0.5-0.6,0.2-1.2L26.3,105.2z"/>
			<path class="st2" d="M31.7,119.5l-2,1.6l-1.3-1.6l2.1-1.6l1.9-5l1.3,1.7l-1.2,3.1l3.3-0.4l1.2,1.6L31.7,119.5z"/>
			<path class="st2" d="M46.8,127.3l2.9,1.8c0.7,0.4,1.2,0.9,1.6,1.5c0.4,0.6,0.6,1.2,0.6,1.8c0,0.6-0.2,1.3-0.6,1.9
				s-0.9,1.1-1.4,1.4c-0.6,0.3-1.2,0.4-1.9,0.3c-0.7-0.1-1.4-0.3-2-0.7l-2.9-1.8L46.8,127.3z M46.7,133.9c0.5,0.3,1,0.4,1.6,0.3
				c0.5-0.1,0.9-0.4,1.2-1c0.3-0.5,0.4-1,0.3-1.5c-0.1-0.5-0.5-0.9-1-1.2l-1.1-0.7l-2.1,3.4L46.7,133.9z"/>
			<path class="st2" d="M59.6,139.7l-1.1-0.4l-0.6,1.8l-1.9-0.7l2.4-6.9l3.1,1.1c0.6,0.2,1.1,0.5,1.5,0.9c0.4,0.4,0.6,0.8,0.8,1.2
				c0.1,0.5,0.1,1-0.1,1.5c-0.2,0.5-0.4,0.9-0.8,1.2c-0.4,0.3-0.8,0.5-1.3,0.5l0.7,2.7l-2.1-0.7L59.6,139.7z M61.6,136.7
				c-0.1-0.2-0.4-0.4-0.8-0.6l-1.1-0.4l-0.7,2l1.1,0.4c0.4,0.1,0.7,0.2,1,0.1c0.3-0.1,0.4-0.3,0.6-0.6
				C61.8,137.3,61.8,137,61.6,136.7z"/>
			<path class="st2" d="M69,143.8c-0.2-0.3-0.3-0.5-0.2-0.9c0.1-0.3,0.2-0.6,0.5-0.8c0.3-0.2,0.6-0.2,0.9-0.2
				c0.3,0.1,0.6,0.2,0.8,0.5c0.2,0.2,0.3,0.5,0.2,0.9c-0.1,0.3-0.2,0.6-0.5,0.8c-0.3,0.2-0.6,0.2-0.9,0.2
				C69.5,144.2,69.2,144.1,69,143.8z"/>
			<path class="st2" d="M77.8,137.8l3.4-0.1c0.8,0,1.5,0.1,2.1,0.4c0.6,0.3,1.1,0.7,1.5,1.2c0.4,0.5,0.5,1.2,0.5,1.9
				c0,0.7-0.1,1.4-0.5,1.9c-0.3,0.6-0.8,1-1.4,1.3c-0.6,0.3-1.3,0.5-2.1,0.5l-3.4,0.1L77.8,137.8z M81.3,143.4
				c0.6,0,1.1-0.2,1.5-0.6c0.4-0.4,0.5-0.9,0.5-1.5c0-0.6-0.2-1.1-0.6-1.5s-0.9-0.5-1.5-0.5l-1.3,0l0.1,4L81.3,143.4z"/>
			<path class="st2" d="M95.3,141.3l-1.1,0.3l0.5,1.9l-2,0.5l-1.7-7.1l3.2-0.8c0.6-0.2,1.2-0.2,1.7-0.1c0.5,0.1,1,0.3,1.3,0.6
				c0.4,0.3,0.6,0.8,0.7,1.3c0.1,0.5,0.1,1,0,1.4c-0.1,0.4-0.4,0.8-0.8,1.1l2.1,1.8l-2.1,0.5L95.3,141.3z M95.4,137.7
				c-0.3-0.1-0.6-0.1-1,0l-1.1,0.3l0.5,2.1l1.1-0.3c0.4-0.1,0.7-0.3,0.9-0.5c0.2-0.2,0.2-0.5,0.1-0.8
				C95.8,138.1,95.7,137.8,95.4,137.7z"/>
			<path class="st2" d="M107.2,138.8c-0.7,0-1.3-0.2-1.9-0.6c-0.6-0.4-1-0.9-1.3-1.5c-0.3-0.6-0.5-1.3-0.4-2
				c0.1-0.7,0.3-1.3,0.7-1.9c0.4-0.6,0.9-1,1.6-1.4c0.7-0.3,1.4-0.5,2.1-0.5c0.7,0,1.3,0.2,1.9,0.6c0.6,0.4,1,0.9,1.3,1.5
				c0.3,0.6,0.5,1.3,0.4,2c-0.1,0.7-0.3,1.3-0.7,1.9c-0.4,0.6-0.9,1-1.6,1.4C108.6,138.7,107.9,138.9,107.2,138.8z M109.3,136.2
				c0.2-0.3,0.3-0.6,0.3-1c0-0.4-0.1-0.7-0.3-1.1c-0.2-0.4-0.4-0.7-0.7-0.9c-0.3-0.2-0.6-0.3-1-0.3c-0.3,0-0.7,0-1,0.2
				c-0.3,0.2-0.6,0.4-0.8,0.7s-0.3,0.6-0.3,1c0,0.4,0.1,0.7,0.3,1.1c0.2,0.4,0.4,0.7,0.7,0.9c0.3,0.2,0.6,0.3,1,0.3
				c0.3,0,0.7,0,1-0.2C108.8,136.7,109.1,136.4,109.3,136.2z"/>
			<path class="st2" d="M122,125.8c0.4,0.1,0.7,0.3,1,0.6c0.4,0.5,0.5,1,0.3,1.6s-0.6,1.2-1.4,1.8l-3,2.5l-4.6-5.6l2.9-2.4
				c0.7-0.6,1.4-0.9,2-0.9c0.6,0,1.1,0.2,1.4,0.6c0.2,0.3,0.3,0.6,0.4,0.9c0,0.3,0,0.6-0.1,1C121.2,125.8,121.6,125.7,122,125.8z
				 M116.8,126.6l0.9,1.1l1.1-0.9c0.5-0.4,0.7-0.8,0.4-1.2c-0.3-0.4-0.7-0.3-1.2,0.1L116.8,126.6z M121.2,127.6
				c-0.3-0.4-0.7-0.3-1.3,0.1l-1.3,1.1l0.9,1.1l1.3-1.1C121.4,128.4,121.5,128,121.2,127.6z"/>
			<path class="st2" d="M130,121.4c-0.6,0.3-1.3,0.4-2,0.3c-0.7-0.1-1.3-0.3-1.9-0.8c-0.6-0.4-1-1-1.2-1.6c-0.2-0.6-0.3-1.3-0.2-2
				s0.4-1.3,0.9-1.9c0.5-0.6,1-1,1.7-1.3c0.6-0.3,1.3-0.4,2-0.3c0.7,0.1,1.3,0.3,1.9,0.8c0.6,0.4,1,1,1.2,1.6c0.2,0.6,0.3,1.3,0.2,2
				c-0.1,0.7-0.4,1.3-0.9,1.9C131.2,120.6,130.7,121.1,130,121.4z M130.8,118c0-0.3,0-0.7-0.1-1c-0.1-0.3-0.4-0.6-0.7-0.9
				c-0.3-0.3-0.7-0.4-1-0.5s-0.7,0-1,0.1c-0.3,0.1-0.6,0.3-0.8,0.6c-0.2,0.3-0.4,0.6-0.4,0.9c0,0.3,0,0.7,0.1,1
				c0.1,0.3,0.4,0.6,0.7,0.9c0.3,0.3,0.7,0.4,1,0.5c0.4,0.1,0.7,0,1-0.1c0.3-0.1,0.6-0.3,0.8-0.6C130.6,118.7,130.7,118.4,130.8,118
				z"/>
			<path class="st2" d="M133.3,106.8l-1,2l-1.5-0.7l2.9-5.8l1.5,0.7l-1,2l5.1,2.5l-0.9,1.8L133.3,106.8z"/>
		</g>
		<g>
			<path class="st2" d="M16.1,74l1.6,0.2l0.3-3.2l1.6,0.2l-0.3,3.2l2.5,0.2l-0.2,2l-7.2-0.7l0.6-5.7l1.6,0.2L16.1,74z"/>
			<path class="st2" d="M23.2,60.4l-0.9,2.9l1.2,1l-0.6,2l-6-5.2l0.6-1.9l7.9-0.9l-0.6,2L23.2,60.4z M21.6,60.5l-2.5,0.2l1.9,1.6
				L21.6,60.5z"/>
			<path class="st2" d="M30.9,47.7l-3.3-2l1.7,3.2l-0.5,0.8l-3.6,0l3.2,1.9l-1,1.6l-6.2-3.7l0.9-1.5l4.9,0l-2.3-4.3l0.9-1.5l6.2,3.7
				L30.9,47.7z"/>
			<path class="st2" d="M30.5,36.3l1.4-1.5l5.4,4.9l-1.4,1.5L30.5,36.3z"/>
			<path class="st2" d="M37.3,29.5l1.6-1.3l3.5,4.4l2.7-2.2l1,1.3l-4.3,3.4L37.3,29.5z"/>
			<path class="st2" d="M52.6,25l1.2,2.3l-1.8,1l-1.2-2.3l-4.6-2.8l1.9-1l2.9,1.8l0.2-3.4l1.8-0.9L52.6,25z"/>
			<path class="st2" d="M68,14.8l3.4-0.4c0.8-0.1,1.5,0,2.2,0.2c0.6,0.2,1.2,0.6,1.6,1.1c0.4,0.5,0.7,1.1,0.8,1.8
				c0.1,0.7,0,1.4-0.3,2c-0.3,0.6-0.7,1.1-1.3,1.4c-0.6,0.4-1.3,0.6-2,0.7L69,22L68,14.8z M72.1,20c0.6-0.1,1.1-0.3,1.4-0.7
				c0.3-0.4,0.5-0.9,0.4-1.5c-0.1-0.6-0.3-1.1-0.8-1.4c-0.4-0.3-0.9-0.4-1.6-0.3l-1.3,0.2l0.5,4L72.1,20z"/>
			<path class="st2" d="M88.2,20l-0.1,1.6l-5.8-0.5l0.6-7.2l5.7,0.5l-0.1,1.6l-3.7-0.3l-0.1,1.2l3.2,0.3l-0.1,1.5l-3.2-0.3l-0.1,1.3
				L88.2,20z"/>
			<path class="st2" d="M102.7,17.7l-2.1,7L99,24.1L97,19.5l-1.1,3.7L94,22.6l2.1-7l1.6,0.5l1.9,4.6l1.1-3.7L102.7,17.7z"/>
			<path class="st2" d="M110.4,23l-2-1.1l0.8-1.4l5.7,3.2l-0.8,1.4l-1.9-1.1l-2.7,4.9l-1.8-1L110.4,23z"/>
			<path class="st2" d="M120.6,27.7l1.6,1.3l-4.5,5.7l-1.6-1.3L120.6,27.7z"/>
			<path class="st2" d="M122.9,39.5c-0.3-0.5-0.4-1-0.5-1.4l1.6-0.5c0.1,0.4,0.2,0.8,0.4,1.2c0.2,0.4,0.4,0.8,0.7,1.1
				c0.5,0.6,0.9,0.8,1.2,0.5c0.2-0.1,0.2-0.3,0.1-0.6c-0.1-0.2-0.2-0.6-0.5-1c-0.3-0.5-0.5-0.9-0.6-1.3c-0.1-0.4-0.2-0.7-0.1-1.1
				c0-0.4,0.3-0.8,0.6-1.1c0.3-0.3,0.7-0.5,1.1-0.5c0.4-0.1,0.9,0,1.4,0.3c0.5,0.2,0.9,0.6,1.4,1.1c0.3,0.4,0.6,0.7,0.8,1.2
				s0.4,0.8,0.5,1.2l-1.6,0.5c-0.2-0.8-0.5-1.4-0.9-1.9c-0.3-0.3-0.5-0.5-0.7-0.5c-0.2-0.1-0.4,0-0.5,0.1c-0.1,0.1-0.2,0.3-0.1,0.5
				c0.1,0.2,0.2,0.6,0.5,1c0.3,0.5,0.5,0.9,0.6,1.3c0.1,0.4,0.2,0.7,0.1,1.1c0,0.4-0.3,0.8-0.6,1.1c-0.3,0.3-0.7,0.5-1.1,0.5
				c-0.4,0.1-0.9,0-1.4-0.3c-0.5-0.2-0.9-0.6-1.4-1.1C123.5,40.5,123.2,40,122.9,39.5z"/>
			<path class="st2" d="M135.1,46.3l-1.1-1.9l1.4-0.8l3.3,5.6l-1.4,0.8l-1.1-1.9l-4.9,2.9l-1-1.8L135.1,46.3z"/>
			<path class="st2" d="M137.6,60.4l-0.4-1.1l-1.8,0.6l-0.7-1.9l6.9-2.3l1.1,3.1c0.2,0.6,0.3,1.2,0.2,1.7c-0.1,0.5-0.2,1-0.5,1.4
				c-0.3,0.4-0.7,0.7-1.2,0.8c-0.5,0.2-1,0.2-1.4,0.1c-0.4-0.1-0.9-0.3-1.2-0.7l-1.7,2.2l-0.7-2.1L137.6,60.4z M141.2,60.2
				c0.1-0.3,0.1-0.6,0-1l-0.4-1.1l-2,0.7l0.4,1.1c0.1,0.4,0.3,0.7,0.6,0.8c0.2,0.1,0.5,0.2,0.8,0.1C140.8,60.6,141,60.5,141.2,60.2z
				"/>
			<path class="st2" d="M141.1,73.5l-2.6,0.3l-0.2-2l2.6-0.3l4.3-3.3l0.3,2.2l-2.7,2.1l3.1,1.4l0.2,2L141.1,73.5z"/>
		</g>
	</g>
</g>
</svg>
