<svg width="256" height="256" viewBox="0 0 256 256" fill="none" xmlns="http://www.w3.org/2000/svg">
<path d="M245.613 136.07H164.906C160.294 136.07 156.835 132.612 156.835 128C156.835 123.388 160.294 119.929 164.906 119.929H245.037C249.648 119.929 253.107 123.388 253.107 128C253.107 132.612 249.648 136.07 245.613 136.07Z" fill="#1F1F23"/>
<path d="M138.953 241.567C63.4342 241.567 2.32724 190.836 2.32724 128C2.32724 98.5993 15.5863 70.9282 40.375 49.5985C43.8338 46.7161 49.0222 47.2925 51.9046 50.1749C54.787 53.6338 54.2105 58.8222 51.3281 61.7046C30.5748 79.5755 19.0452 103.211 19.0452 128C19.0452 181.613 73.2344 225.425 139.53 225.425C178.73 225.425 215.049 210.437 237.531 184.495V170.083C237.531 165.471 240.99 162.012 245.602 162.012C250.214 162.012 253.673 165.471 253.673 170.083V187.377C253.673 189.107 253.096 190.836 251.943 192.566C226.002 223.696 183.919 241.567 138.953 241.567Z" fill="#1F1F23"/>
<path d="M245.591 76.6931C243.286 76.6931 240.98 75.5401 239.25 73.8107C216.767 46.7161 179.296 30.5747 138.943 30.5747C118.766 30.5747 98.5889 34.61 81.2945 42.6807C77.2592 44.4102 72.6473 42.6807 70.3414 38.6454C68.612 34.61 70.3414 29.9982 74.3768 27.6922C94.5536 19.045 116.46 14.4332 138.943 14.4332C183.908 14.4332 225.991 32.8806 251.356 63.434C254.239 66.8929 253.662 72.0813 250.203 74.9637C249.05 76.1166 247.321 76.6931 245.591 76.6931Z" fill="#1F1F23"/>
<path fill-rule="evenodd" clip-rule="evenodd" d="M75.4232 29.7758C72.4252 31.551 71.3133 34.835 72.4303 37.608C74.226 40.6315 77.5581 41.7314 80.3468 40.5548C97.9798 32.3337 118.485 28.2474 138.943 28.2474C179.831 28.2474 217.967 44.5804 240.968 72.2361C242.358 73.5948 244.069 74.3659 245.591 74.3659C246.859 74.3659 247.94 73.9358 248.558 73.3181L248.632 73.2434L248.713 73.1758C251.227 71.0811 251.593 67.3538 249.568 64.9239L249.566 64.9206C224.701 34.9697 183.312 16.7604 138.943 16.7604C116.827 16.7604 95.2784 21.2868 75.4232 29.7758ZM73.46 25.5532C93.9226 16.7835 116.14 12.106 138.943 12.106C184.504 12.106 227.282 30.7915 253.147 61.9475C256.861 66.4087 256.105 73.0035 251.771 76.6859C250.088 78.3193 247.749 79.0203 245.591 79.0203C242.529 79.0203 239.661 77.5124 237.605 75.4563L237.528 75.3799L237.459 75.2968C215.487 48.817 178.718 32.9019 138.943 32.9019C119.061 32.9019 99.2264 36.8807 82.2787 44.7896L82.2452 44.8053L82.2113 44.8198C76.9713 47.0655 71.1477 44.7471 68.3208 39.8L68.2548 39.6845L68.2023 39.5621C65.9566 34.3221 68.275 28.4986 73.2221 25.6716L73.3377 25.6056L73.46 25.5532ZM41.8778 51.3755C17.5587 72.3078 4.65448 99.3512 4.65448 128C4.65448 189.166 64.2973 239.239 138.953 239.239C183.289 239.239 224.632 221.635 250.072 191.175C250.975 189.789 251.346 188.534 251.346 187.377V170.083C251.346 166.756 248.929 164.339 245.602 164.339C242.275 164.339 239.859 166.756 239.859 170.083V185.363L239.29 186.019C216.292 212.555 179.285 227.752 139.53 227.752C72.4353 227.752 16.7179 183.335 16.7179 128C16.7179 102.485 28.578 78.2555 49.7376 60.003C51.7682 57.913 52.1399 54.1865 50.1837 51.7467C48.0702 49.7134 44.3084 49.3624 41.8778 51.3755ZM38.8851 47.8106C43.3436 44.0952 49.8875 44.8666 53.5502 48.5293L53.6248 48.604L53.6924 48.6851C57.4078 53.1436 56.6364 59.6874 52.9737 63.3502L52.9124 63.4115L52.8467 63.4681C32.5447 80.9503 21.3724 103.967 21.3724 128C21.3724 179.89 74.0334 223.098 139.53 223.098C177.844 223.098 213.193 208.571 235.204 183.621V170.083C235.204 164.186 239.705 159.685 245.602 159.685C251.499 159.685 256 164.186 256 170.083V187.377C256 189.652 255.235 191.823 253.88 193.857L253.811 193.96L253.731 194.056C227.282 225.795 184.5 243.894 138.953 243.894C62.571 243.894 0 192.506 0 128C0 97.8534 13.6085 69.5599 38.857 47.8344L38.871 47.8224L38.8851 47.8106ZM164.906 122.256C161.579 122.256 159.162 124.673 159.162 128C159.162 131.326 161.579 133.743 164.906 133.743H245.613C248.252 133.743 250.78 131.44 250.78 128C250.78 124.673 248.363 122.256 245.037 122.256H164.906ZM154.508 128C154.508 122.103 159.009 117.602 164.906 117.602H245.037C250.934 117.602 255.434 122.103 255.434 128C255.434 133.783 251.045 138.398 245.613 138.398H164.906C159.009 138.398 154.508 133.897 154.508 128Z" fill="#1F1F23"/>
</svg>
