<svg width="395" height="145" viewBox="0 0 395 145" fill="none" xmlns="http://www.w3.org/2000/svg">
<line x1="393.712" y1="3.702" x2="255.712" y2="143.702" stroke="#EC1744" stroke-width="2"/>
<path d="M67.0495 91.3601C63.5487 91.3601 62.7582 89.1015 62.7582 87.2946C62.7582 82.4387 79.02 63.2406 90.6518 63.2406C91.4423 63.2406 92.2328 63.4665 92.7974 63.6924C93.2492 61.9984 93.588 60.1915 93.588 58.4976C93.588 51.9477 89.2966 45.1719 82.0691 45.1719C73.7123 45.1719 62.6453 52.6253 57.1117 59.401C54.2885 62.9018 53.0462 66.0639 53.6109 68.3225C53.7238 68.8871 53.385 69.4518 52.8204 69.5647C52.2557 69.6776 51.6911 69.3388 51.5781 68.7742C50.9005 65.838 52.2557 62.1113 55.5307 58.1588C61.2901 50.9313 73.1477 43.1392 82.0691 43.1392C90.6518 43.1392 95.7336 50.9313 95.7336 58.6105C95.7336 60.8691 95.2819 63.0148 94.6043 65.2734C95.169 65.9509 95.5078 66.8544 95.7336 67.419C95.8465 67.9837 95.5078 68.5483 94.9431 68.6613C94.3785 68.7742 93.8138 68.4354 93.7009 67.8708C87.9415 80.5189 72.1313 91.3601 67.0495 91.3601ZM90.6518 65.2734C80.3752 65.2734 64.9038 83.2292 64.9038 87.2946C64.9038 88.8757 65.3556 89.3274 67.0495 89.3274C71.7925 89.3274 87.2639 78.2603 92.1199 65.7251C91.7811 65.3863 91.3294 65.2734 90.6518 65.2734Z" fill="#EC1744"/>
<path d="M67.6171 84.3586C67.5042 84.3586 67.3912 84.3586 67.1654 84.2456C67.0525 84.2456 64.4551 83.0034 64.4551 78.825C64.4551 72.9527 70.3274 58.7236 70.6662 58.046C70.8921 57.4813 71.4567 57.2555 72.0213 57.4813C72.586 57.7072 72.8119 58.2718 72.586 58.8365C72.4731 58.9494 66.6007 73.2915 66.6007 78.7121C66.6007 81.4224 68.0688 82.1 68.0688 82.1C68.6335 82.3258 68.8593 83.0034 68.6335 83.4551C68.4076 84.1327 67.9559 84.3586 67.6171 84.3586Z" fill="#EC1744"/>
<path d="M100.48 76.9055C100.367 76.9055 100.254 76.9055 100.141 76.7925C99.6891 76.6796 99.3504 76.115 99.4633 75.6632L101.383 60.9824C101.496 60.4177 101.948 59.966 102.625 60.0789C103.19 60.1919 103.642 60.6436 103.529 61.3212L102.174 71.3719C104.884 67.4194 108.836 62.4505 111.547 62.4505C112.676 62.4505 113.241 63.0151 113.58 63.4668C114.483 64.7091 113.692 66.7418 113.467 67.0806C113.241 67.6452 112.676 67.8711 112.111 67.6452C111.547 67.4194 111.321 66.7418 111.547 66.2901C111.773 65.6125 111.886 64.822 111.773 64.7091C111.773 64.7091 111.66 64.7091 111.547 64.7091C109.74 64.7091 104.884 70.8073 101.383 76.4537C101.157 76.6796 100.818 76.9055 100.48 76.9055Z" fill="#EC1744"/>
<path d="M122.725 71.4835C122.499 71.4835 122.16 71.3705 121.935 71.1447L120.692 70.0154C120.241 69.5637 120.241 68.8861 120.692 68.5473C121.144 68.0956 121.822 68.0956 122.16 68.5473L123.403 69.6766C123.854 70.1283 123.854 70.8059 123.403 71.1447C123.29 71.3705 123.064 71.4835 122.725 71.4835Z" fill="#EC1744"/>
<path d="M148.699 74.7595C145.198 74.7595 143.166 72.7267 143.166 69.2259C143.166 63.2406 152.652 54.5451 161.121 50.4796C161.686 50.2537 162.251 50.4796 162.477 50.9313C162.702 51.496 162.477 52.0606 162.025 52.2865C153.442 56.3519 145.198 64.5958 145.198 69.113C145.198 71.3716 146.328 72.5009 148.586 72.5009C153.781 72.5009 168.914 53.3028 168.914 39.8642C168.914 32.8626 165.413 29.1359 158.863 29.1359C146.328 29.1359 125.097 49.915 125.097 54.3192C125.097 55.4485 126.226 56.0132 126.226 56.0132C126.791 56.239 127.017 56.9166 126.678 57.4812C126.452 58.0459 125.774 58.2717 125.323 57.933C124.419 57.4812 122.951 56.239 122.951 54.3192C122.951 48.5598 145.424 26.9902 158.863 26.9902C166.542 26.9902 170.946 31.7333 170.946 39.8642C171.059 53.6416 156.152 74.7595 148.699 74.7595Z" fill="#EC1744"/>
<path d="M139.437 76.3407C139.098 76.3407 138.759 76.2277 138.646 75.8889C133.564 69.339 144.744 40.8807 146.099 37.6058C146.325 37.0411 146.89 36.8153 147.455 37.0411C148.019 37.267 148.245 37.8316 148.019 38.3963C143.05 50.5927 136.952 70.3554 140.227 74.5338C140.566 74.9855 140.453 75.6631 140.001 76.0019C139.888 76.3406 139.662 76.3407 139.437 76.3407Z" fill="#EC1744"/>
<path d="M173.093 61.6597C172.98 61.6597 172.867 61.6597 172.754 61.5467C172.302 61.4338 171.964 60.8692 172.077 60.4174L173.996 45.2849C174.109 44.7202 174.561 44.2685 175.126 44.3814C175.69 44.4944 176.142 44.9461 176.029 45.5107L174.674 56.0132C177.384 51.9477 181.45 46.753 184.047 46.753C185.063 46.753 185.628 47.2047 185.854 47.6564C186.757 48.8986 186.08 50.8184 185.967 51.1572C185.741 51.7219 185.176 51.9477 184.612 51.8348C184.047 51.6089 183.821 51.0443 183.934 50.4796C184.16 49.8021 184.16 49.0116 184.047 48.8986C184.047 48.8986 184.047 48.8986 183.934 48.8986C182.353 48.8986 177.384 55.2227 173.883 61.095C173.771 61.4338 173.432 61.6597 173.093 61.6597Z" fill="#EC1744"/>
<path d="M192.177 55.6741C191.386 55.6741 188.789 55.3353 188.789 50.9311C188.789 49.5759 189.241 48.5596 189.805 47.6561C189.467 47.2044 189.241 46.5268 189.241 45.8493C189.241 44.4941 190.709 42.9131 192.967 42.9131C194.661 42.9131 196.468 44.2682 197.033 46.7527C200.308 46.0751 203.922 44.1553 205.164 43.3648C205.616 43.026 206.293 43.1389 206.632 43.5907C206.971 44.0424 206.858 44.72 206.406 45.0588C205.164 45.9622 201.098 48.1078 197.259 48.8984C196.92 52.0604 194.661 55.6741 192.177 55.6741ZM191.612 48.7854C191.274 49.3501 190.935 50.1406 190.935 50.9311C190.935 51.9475 191.048 53.5285 192.177 53.5285C193.193 53.5285 194.661 51.3828 195 49.1242C193.645 49.1242 192.516 49.0113 191.612 48.7854ZM193.306 46.9786C193.758 46.9786 194.323 47.0915 194.887 46.9786C194.549 45.6234 193.645 44.9458 192.967 44.9458C191.838 44.9458 191.386 45.5105 191.386 45.7363V45.8493C191.612 45.6234 191.725 45.6234 191.725 45.5105C192.177 45.1717 192.855 45.2846 193.193 45.8493C193.419 46.301 193.419 46.6398 193.306 46.9786Z" fill="#EC1744"/>
<path d="M206.409 56.239C205.957 56.239 205.618 56.0131 205.392 55.5614C205.279 55.3355 204.376 52.6252 204.376 42.5745C204.376 42.1228 204.376 41.671 204.376 41.1064C204.263 40.8805 204.263 40.5417 204.376 40.3159C204.94 34.2177 207.199 24.6187 209.119 17.73C214.201 -1.07698e-06 216.572 0 217.363 0C218.266 0 220.525 0.564649 220.525 5.98527C220.525 18.1817 208.328 37.9444 206.521 40.9935C206.521 41.5581 206.409 42.1228 206.409 42.5745C206.409 45.1719 206.521 47.2046 206.521 48.7856C206.747 48.221 207.086 47.7692 207.312 47.3175C209.345 44.0426 212.055 41.784 214.652 41.2193C216.685 40.7676 217.701 41.5581 218.266 42.2357C218.605 42.8003 218.831 43.4779 218.831 44.2684C219.282 44.1555 219.847 44.0426 220.299 44.0426C223.461 43.7038 226.058 40.8805 227.3 39.2995C227.3 39.1866 227.413 39.1866 227.413 39.0737C227.188 38.6219 227.075 38.1702 227.075 37.7185C227.075 36.0246 228.769 34.7823 230.801 34.7823C232.608 34.7823 234.189 36.3633 234.528 38.3961C236.899 37.9444 240.287 37.0409 242.998 34.6694C243.449 34.3306 244.127 34.3306 244.466 34.7823C244.805 35.2341 244.805 35.9116 244.353 36.2504C241.191 38.9607 237.351 39.9771 234.641 40.4288C234.302 43.8167 232.382 47.4305 230.011 47.4305C227.978 47.4305 226.736 46.3012 226.397 44.3813C226.397 44.0426 226.284 43.7038 226.397 43.365C224.816 44.7201 222.896 45.8494 220.638 46.0753C219.847 46.1882 219.17 46.3012 218.605 46.527C218.153 47.9951 217.363 49.5761 216.685 50.5925C215.443 52.3994 214.314 53.1899 213.184 52.964C212.168 52.7382 211.49 51.8347 211.49 50.7054C211.603 48.8985 213.41 46.3012 216.798 44.8331C216.911 44.3814 216.911 44.0426 216.798 43.7038C216.685 43.365 216.572 42.9133 215.33 43.1391C213.297 43.5908 211.039 45.5106 209.345 48.3339C207.877 50.7054 207.199 53.3028 207.538 54.658C207.651 55.2226 207.425 55.7873 206.86 55.9002C206.634 56.239 206.521 56.239 206.409 56.239ZM215.782 47.9951C214.991 48.5597 214.314 49.2373 213.975 49.9149C213.636 50.4796 213.523 50.8183 213.523 51.0442C214.201 50.8183 215.104 49.4632 215.782 47.9951ZM229.22 40.5417C228.769 41.671 228.317 43.7038 228.769 44.7201C228.881 45.0589 229.22 45.5106 230.124 45.5106C230.914 45.5106 232.269 43.365 232.608 40.8805C232.156 40.8805 231.705 40.8805 231.479 40.8805C230.575 40.9935 229.785 40.8805 229.22 40.5417ZM230.237 38.7349C230.575 38.8478 231.027 38.9607 231.479 38.9607C231.592 38.9607 232.043 38.9607 232.608 38.9607C232.382 37.8314 231.592 37.1539 230.914 37.1539C230.011 37.1539 229.446 37.6056 229.333 37.8314C229.559 37.8314 229.785 38.0573 230.011 38.1702C230.124 38.2832 230.124 38.509 230.237 38.7349ZM217.588 2.25859C215.217 4.06547 209.232 23.4894 207.199 35.7987C211.264 28.7971 218.492 14.9067 218.492 5.98527C218.492 3.61375 217.927 2.37152 217.588 2.25859Z" fill="#EC1744"/>
<path d="M248.869 46.9782C243.336 46.9782 242.658 40.4283 242.658 34.7818C242.658 27.6672 245.256 19.0846 246.724 14.5674C248.531 9.25972 251.015 3.04858 252.709 3.04858C253.274 3.04858 254.968 3.27445 254.968 6.21062C254.968 12.5347 245.82 31.1681 244.691 33.4267C244.691 33.8784 244.691 34.3301 244.691 34.7818C244.691 43.7033 246.837 44.8326 248.756 44.8326C250.563 44.8326 252.483 42.7998 253.048 42.0093C253.387 41.5576 254.064 41.4447 254.516 41.7835C254.968 42.1222 255.08 42.7998 254.742 43.2515C254.855 43.4774 252.257 46.9782 248.869 46.9782ZM252.935 5.42011C251.354 7.79163 247.401 17.5036 245.707 26.7638C248.756 20.3268 253.048 10.2761 253.048 6.21062C253.048 5.87183 252.935 5.64597 252.935 5.42011Z" fill="#EC1744"/>
<path d="M233.96 25.2956C233.509 25.2956 233.17 25.0697 232.944 24.618C232.718 24.0533 232.944 23.4887 233.509 23.2628C234.299 22.924 253.271 15.4707 263.887 14.6802C264.451 14.6802 265.016 15.019 265.016 15.6965C265.016 16.2612 264.677 16.8258 264 16.8258C253.723 17.6163 234.412 25.1826 234.299 25.1826C234.186 25.2956 234.073 25.2956 233.96 25.2956Z" fill="#EC1744"/>
</svg>
