<svg width="575" height="990" viewBox="0 0 575 990" fill="none" xmlns="http://www.w3.org/2000/svg">
<g clip-path="url(#clip0)">
<path d="M1.55957 0V990" stroke="#F2F7F7" stroke-width="3" stroke-miterlimit="10"/>
<path d="M19.9639 0V990" stroke="#F2F7F7" stroke-width="3" stroke-miterlimit="10"/>
<path d="M38.4717 0V990" stroke="#F2F7F7" stroke-width="3" stroke-miterlimit="10"/>
<path d="M56.876 0V188" stroke="#F2F7F7" stroke-width="3" stroke-miterlimit="10"/>
<path d="M75.3843 0V168" stroke="#F2F7F7" stroke-width="3" stroke-miterlimit="10"/>
<path d="M93.7881 0V146" stroke="#F2F7F7" stroke-width="3" stroke-miterlimit="10"/>
<path d="M112.296 0V124" stroke="#F2F7F7" stroke-width="3" stroke-miterlimit="10"/>
<path d="M130.701 0V103" stroke="#F2F7F7" stroke-width="3" stroke-miterlimit="10"/>
<path d="M149.209 0V48.6C149.209 69.7 141.515 90.1 127.477 106.3L59.6836 184.5C45.6465 200.7 37.9521 221.1 37.9521 242.2V990" stroke="#F2F7F7" stroke-width="3" stroke-miterlimit="10"/>
<path d="M167.613 0V58.5C167.613 79.3 160.126 99.5 146.297 115.7L77.9835 195.6C64.2584 211.7 56.668 231.9 56.668 252.8V990" stroke="#F2F7F7" stroke-width="3" stroke-miterlimit="10"/>
<path d="M186.017 0V68.2C186.017 89.1 178.427 109.3 164.598 125.5L96.6998 204.6C82.8707 220.7 75.2803 241 75.2803 261.9V990" stroke="#F2F7F7" stroke-width="3" stroke-miterlimit="10"/>
<path d="M204.317 0V77.4C204.317 98.3 196.727 118.6 182.897 134.7L115.208 213.6C101.379 229.7 93.7881 250 93.7881 270.9V436.6C93.7881 457.5 101.379 477.8 115.208 493.9L183.209 573.2C197.039 589.3 204.629 609.6 204.629 630.5V990" stroke="#F2F7F7" stroke-width="3" stroke-miterlimit="10"/>
<path d="M222.929 0V526.5" stroke="#F2F7F7" stroke-width="3" stroke-miterlimit="10"/>
<path d="M259.842 0V362.3" stroke="#F2F7F7" stroke-width="3" stroke-miterlimit="10"/>
<path d="M278.246 0V335.6" stroke="#F2F7F7" stroke-width="3" stroke-miterlimit="10"/>
<path d="M296.754 0V314" stroke="#F2F7F7" stroke-width="3" stroke-miterlimit="10"/>
<path d="M315.158 0V292.4" stroke="#F2F7F7" stroke-width="3" stroke-miterlimit="10"/>
<path d="M333.667 0V270.9" stroke="#F2F7F7" stroke-width="3" stroke-miterlimit="10"/>
<path d="M352.07 0V249.3" stroke="#F2F7F7" stroke-width="3" stroke-miterlimit="10"/>
<path d="M370.475 0V195.5C370.475 216.4 362.988 236.6 349.159 252.7L281.053 332.3C267.328 348.4 259.738 368.6 259.738 389.5V990" stroke="#F2F7F7" stroke-width="3" stroke-miterlimit="10"/>
<path d="M388.982 0V205.1C388.982 226.1 381.392 246.4 367.459 262.5L299.769 341C285.836 357.1 278.246 377.5 278.246 398.4V990" stroke="#F2F7F7" stroke-width="3" stroke-miterlimit="10"/>
<path d="M407.387 0V214.4C407.387 235.3 399.9 255.5 386.071 271.6L317.965 351.2C304.24 367.3 296.65 387.5 296.65 408.4V990" stroke="#F2F7F7" stroke-width="3" stroke-miterlimit="10"/>
<path d="M444.299 0V682.3" stroke="#F2F7F7" stroke-width="3" stroke-miterlimit="10"/>
<path d="M462.703 0V705" stroke="#F2F7F7" stroke-width="3" stroke-miterlimit="10"/>
<path d="M481.211 0V726.5" stroke="#F2F7F7" stroke-width="3" stroke-miterlimit="10"/>
<path d="M499.616 0V748.1" stroke="#F2F7F7" stroke-width="3" stroke-miterlimit="10"/>
<path d="M518.124 0V769" stroke="#F2F7F7" stroke-width="3" stroke-miterlimit="10"/>
<path d="M536.528 0V990" stroke="#F2F7F7" stroke-width="3" stroke-miterlimit="10"/>
<path d="M555.036 0V990" stroke="#F2F7F7" stroke-width="3" stroke-miterlimit="10"/>
<path d="M573.44 0V990" stroke="#F2F7F7" stroke-width="3" stroke-miterlimit="10"/>
<path d="M112.296 217V426.8C112.296 447.7 119.887 468 133.716 484.1L201.822 563.4C215.651 579.5 223.241 599.8 223.241 620.7L222.929 990" stroke="#F2F7F7" stroke-width="3" stroke-miterlimit="10"/>
<path d="M130.701 195.6V417.5C130.701 438.4 138.187 458.6 152.016 474.7L220.122 554.3C233.847 570.4 241.438 590.6 241.438 611.5V990" stroke="#F2F7F7" stroke-width="3" stroke-miterlimit="10"/>
<path d="M149.209 174V408C149.209 428.8 156.695 449 170.525 465.1L238.526 544.7C252.251 560.8 259.842 581 259.842 601.8V710.4" stroke="#F2F7F7" stroke-width="3" stroke-miterlimit="10"/>
<path d="M167.613 152.5V461.7" stroke="#F2F7F7" stroke-width="3" stroke-miterlimit="10"/>
<path d="M185.601 131.5V482.8" stroke="#F2F7F7" stroke-width="3" stroke-miterlimit="10"/>
<path d="M204.317 89V504.7" stroke="#F2F7F7" stroke-width="3" stroke-miterlimit="10"/>
<path d="M93.5806 458.3V990" stroke="#F2F7F7" stroke-width="3" stroke-miterlimit="10"/>
<path d="M112.296 490.4V990" stroke="#F2F7F7" stroke-width="3" stroke-miterlimit="10"/>
<path d="M130.701 511.2V990" stroke="#F2F7F7" stroke-width="3" stroke-miterlimit="10"/>
<path d="M149.209 533.5V990" stroke="#F2F7F7" stroke-width="3" stroke-miterlimit="10"/>
<path d="M167.613 554.6V990" stroke="#F2F7F7" stroke-width="3" stroke-miterlimit="10"/>
<path d="M185.601 576.3V990" stroke="#F2F7F7" stroke-width="3" stroke-miterlimit="10"/>
<path d="M333.667 363.9V990" stroke="#F2F7F7" stroke-width="3" stroke-miterlimit="10"/>
<path d="M352.07 342.4V990" stroke="#F2F7F7" stroke-width="3" stroke-miterlimit="10"/>
<path d="M370.475 322V658C370.475 678.9 378.065 699.1 391.894 715.3L459.896 794.6C473.725 810.7 481.315 831 481.315 851.9V990" stroke="#F2F7F7" stroke-width="3" stroke-miterlimit="10"/>
<path d="M388.983 299.3V648.4C388.983 669.3 396.573 689.6 410.506 705.8L478.196 784.5C492.129 800.6 499.72 820.9 499.72 841.9V990" stroke="#F2F7F7" stroke-width="3" stroke-miterlimit="10"/>
<path d="M407.491 277.7V639C407.491 659.8 414.978 680 428.807 696.2L496.913 775.8C510.638 791.9 518.228 812.1 518.228 833V990" stroke="#F2F7F7" stroke-width="3" stroke-miterlimit="10"/>
<path d="M425.895 237.5V629.6C425.895 650.5 433.381 670.7 447.211 686.8L515.316 766.4C529.041 782.5 536.632 802.7 536.632 823.6V990" stroke="#F2F7F7" stroke-width="3" stroke-miterlimit="10"/>
<path d="M370.475 672V990" stroke="#F2F7F7" stroke-width="3" stroke-miterlimit="10"/>
<path d="M388.983 711.8V990" stroke="#F2F7F7" stroke-width="3" stroke-miterlimit="10"/>
<path d="M407.491 733.4V990" stroke="#F2F7F7" stroke-width="3" stroke-miterlimit="10"/>
<path d="M425.895 754.7V990" stroke="#F2F7F7" stroke-width="3" stroke-miterlimit="10"/>
<path d="M444.299 776.4V990" stroke="#F2F7F7" stroke-width="3" stroke-miterlimit="10"/>
<path d="M462.704 797.9V990" stroke="#F2F7F7" stroke-width="3" stroke-miterlimit="10"/>
<path d="M425.895 0V223.9C425.895 244.8 418.305 265 404.58 281.1L336.578 360.6C322.749 376.7 315.262 396.9 315.262 417.8V990" stroke="#EBF2F7" stroke-width="3" stroke-miterlimit="10"/>
<path d="M242 0L242 548" stroke="#F2F7F7" stroke-width="3" stroke-miterlimit="10"/>
</g>
<defs>
<clipPath id="clip0">
<rect width="575" height="990" fill="white"/>
</clipPath>
</defs>
</svg>
