<svg width="31" height="31" viewBox="0 0 31 31" fill="none" xmlns="http://www.w3.org/2000/svg">
<circle cx="15.4106" cy="15.7531" r="15" fill="#EC1744"/>
<g clip-path="url(#clip0)">
<path fill-rule="evenodd" clip-rule="evenodd" d="M21.0785 14.986V21.5059C21.0785 21.6076 21.0358 21.7052 20.9599 21.7771C20.884 21.849 20.781 21.8894 20.6736 21.8894H18.9653C18.8748 21.8893 18.7871 21.8607 18.7159 21.8078C18.6447 21.755 18.5943 21.6811 18.5726 21.5979L18.2447 20.3553H12.5771L12.2491 21.5979C12.2274 21.6811 12.177 21.755 12.1058 21.8078C12.0347 21.8607 11.9469 21.8893 11.8565 21.8894H10.1481C10.0407 21.8894 9.93775 21.849 9.86183 21.7771C9.78591 21.7052 9.74325 21.6076 9.74325 21.5059V14.986L9.15706 14.7083C9.08978 14.6764 9.03323 14.6273 8.99375 14.5666C8.95428 14.5059 8.93345 14.436 8.93359 14.3647V12.6849C8.93359 12.4814 9.0189 12.2863 9.17074 12.1425C9.32258 11.9987 9.52852 11.9178 9.74325 11.9178V11.4484C9.74328 11.1244 9.85154 10.8088 10.0526 10.5467C10.2536 10.2847 10.537 10.0896 10.8622 9.98948C11.6962 9.73329 13.1884 9.6167 15.4109 9.6167C17.6334 9.6167 19.1272 9.73329 19.9595 9.98948C20.2848 10.0896 20.5682 10.2847 20.7692 10.5467C20.9701 10.8088 21.0785 11.1244 21.0785 11.4484V11.9178C21.2932 11.9178 21.4992 11.9987 21.651 12.1425C21.8028 12.2863 21.8881 12.4814 21.8881 12.6849V14.3647C21.8883 14.436 21.8675 14.5059 21.828 14.5666C21.7885 14.6273 21.732 14.6764 21.6647 14.7083L21.0785 14.986ZM15.4109 11.1508C13.5859 11.1508 12.2046 11.3333 11.2654 11.6992C11.1253 11.7539 11.0043 11.8447 10.916 11.9613C10.8276 12.0779 10.7756 12.2157 10.7659 12.3589L10.5529 15.4601C10.553 15.5516 10.5876 15.6402 10.6505 15.7097C10.7135 15.7792 10.8007 15.8251 10.8962 15.839C11.5537 15.9349 13.058 15.9832 15.4109 15.9832C17.7637 15.9832 19.2681 15.9349 19.9255 15.839C20.0211 15.8251 20.1082 15.7792 20.1712 15.7097C20.2342 15.6402 20.2688 15.5516 20.2688 15.4601L20.0559 12.3589C20.0461 12.2157 19.9941 12.0779 19.9058 11.9613C19.8174 11.8447 19.6964 11.7539 19.5563 11.6992C18.6171 11.3333 17.2358 11.1508 15.4109 11.1508ZM19.0543 19.5883C19.3764 19.5883 19.6854 19.4671 19.9131 19.2513C20.1409 19.0356 20.2688 18.7429 20.2688 18.4377C20.2688 18.1326 20.1409 17.8399 19.9131 17.6241C19.6854 17.4083 19.3764 17.2872 19.0543 17.2872C18.7322 17.2872 18.4233 17.4083 18.1955 17.6241C17.9678 17.8399 17.8398 18.1326 17.8398 18.4377C17.8398 18.7429 17.9678 19.0356 18.1955 19.2513C18.4233 19.4671 18.7322 19.5883 19.0543 19.5883ZM11.7674 19.5883C12.0895 19.5883 12.3984 19.4671 12.6262 19.2513C12.8539 19.0356 12.9819 18.7429 12.9819 18.4377C12.9819 18.1326 12.8539 17.8399 12.6262 17.6241C12.3984 17.4083 12.0895 17.2872 11.7674 17.2872C11.4453 17.2872 11.1364 17.4083 10.9086 17.6241C10.6809 17.8399 10.5529 18.1326 10.5529 18.4377C10.5529 18.7429 10.6809 19.0356 10.9086 19.2513C11.1364 19.4671 11.4453 19.5883 11.7674 19.5883Z" fill="white"/>
</g>
<defs>
<clipPath id="clip0">
<rect width="12.9545" height="12.2727" fill="white" transform="translate(8.93359 9.6167)"/>
</clipPath>
</defs>
</svg>
