<svg width="45" height="45" viewBox="0 0 45 45" fill="none" xmlns="http://www.w3.org/2000/svg">
<circle cx="22.5044" cy="22.4055" r="22" fill="#EC1744"/>
<g clip-path="url(#clip0)">
<path fill-rule="evenodd" clip-rule="evenodd" d="M30.8169 21.2805V30.843C30.8169 30.9922 30.7543 31.1353 30.643 31.2408C30.5317 31.3462 30.3806 31.4055 30.2231 31.4055H27.7175C27.5849 31.4054 27.4562 31.3633 27.3518 31.2858C27.2474 31.2083 27.1734 31.1 27.1416 30.978L26.6606 29.1555H18.3481L17.8672 30.978C17.8354 31.1 17.7614 31.2083 17.657 31.2858C17.5526 31.3633 17.4239 31.4054 17.2913 31.4055H14.7856C14.6282 31.4055 14.4772 31.3462 14.3658 31.2408C14.2545 31.1353 14.1919 30.9922 14.1919 30.843V21.2805L13.3321 20.8733C13.2335 20.8264 13.1505 20.7544 13.0926 20.6654C13.0347 20.5764 13.0042 20.4738 13.0044 20.3693V17.9055C13.0044 17.6071 13.1295 17.321 13.3522 17.11C13.5749 16.899 13.877 16.7805 14.1919 16.7805V16.092C14.1919 15.6169 14.3507 15.1539 14.6455 14.7696C14.9404 14.3852 15.356 14.0991 15.833 13.9523C17.0561 13.5765 19.2447 13.4055 22.5044 13.4055C25.7641 13.4055 27.955 13.5765 29.1758 13.9523C29.6528 14.0991 30.0684 14.3852 30.3633 14.7696C30.658 15.1539 30.8169 15.6169 30.8169 16.092V16.7805C31.1318 16.7805 31.4339 16.899 31.6566 17.11C31.8792 17.321 32.0044 17.6071 32.0044 17.9055V20.3693C32.0046 20.4738 31.9741 20.5764 31.9162 20.6654C31.8582 20.7544 31.7753 20.8264 31.6766 20.8733L30.8169 21.2805ZM22.5044 15.6555C19.8278 15.6555 17.8019 15.9233 16.4244 16.4599C16.219 16.5401 16.0414 16.6732 15.9119 16.8443C15.7823 17.0153 15.7061 17.2173 15.6917 17.4274L15.3794 21.9758C15.3795 22.1101 15.4302 22.24 15.5226 22.3419C15.6149 22.4438 15.7427 22.5111 15.8829 22.5315C16.8471 22.6721 19.0535 22.743 22.5044 22.743C25.9553 22.743 28.1616 22.6721 29.1259 22.5315C29.266 22.5111 29.3938 22.4438 29.4862 22.3419C29.5786 22.24 29.6294 22.1101 29.6294 21.9758L29.3171 17.4274C29.3027 17.2173 29.2265 17.0153 29.0969 16.8443C28.9674 16.6732 28.7898 16.5401 28.5844 16.4599C27.2069 15.9233 25.181 15.6555 22.5044 15.6555ZM27.8481 28.0305C28.3205 28.0305 28.7737 27.8528 29.1077 27.5363C29.4418 27.2198 29.6294 26.7905 29.6294 26.343C29.6294 25.8955 29.4418 25.4662 29.1077 25.1497C28.7737 24.8333 28.3205 24.6555 27.8481 24.6555C27.3758 24.6555 26.9226 24.8333 26.5886 25.1497C26.2545 25.4662 26.0669 25.8955 26.0669 26.343C26.0669 26.7905 26.2545 27.2198 26.5886 27.5363C26.9226 27.8528 27.3758 28.0305 27.8481 28.0305ZM17.1606 28.0305C17.6331 28.0305 18.0861 27.8528 18.4202 27.5363C18.7542 27.2198 18.9419 26.7905 18.9419 26.343C18.9419 25.8955 18.7542 25.4662 18.4202 25.1497C18.0861 24.8333 17.6331 24.6555 17.1606 24.6555C16.6882 24.6555 16.2352 24.8333 15.9011 25.1497C15.5671 25.4662 15.3794 25.8955 15.3794 26.343C15.3794 26.7905 15.5671 27.2198 15.9011 27.5363C16.2352 27.8528 16.6882 28.0305 17.1606 28.0305Z" fill="white"/>
</g>
<defs>
<clipPath id="clip0">
<rect width="19" height="18" fill="white" transform="translate(13.0044 13.4055)"/>
</clipPath>
</defs>
</svg>
