<svg width="45" height="45" viewBox="0 0 45 45" fill="none" xmlns="http://www.w3.org/2000/svg">
<circle cx="22.5046" cy="22.4055" r="22" fill="#F2F7F7"/>
<g clip-path="url(#clip0)">
<path fill-rule="evenodd" clip-rule="evenodd" d="M30.8171 21.2805V30.843C30.8171 30.9922 30.7545 31.1353 30.6432 31.2408C30.5318 31.3462 30.3808 31.4055 30.2233 31.4055H27.7177C27.5851 31.4054 27.4563 31.3633 27.352 31.2858C27.2476 31.2083 27.1736 31.1 27.1418 30.978L26.6608 29.1555H18.3483L17.8674 30.978C17.8356 31.1 17.7616 31.2083 17.6572 31.2858C17.5528 31.3633 17.4241 31.4054 17.2915 31.4055H14.7858C14.6284 31.4055 14.4773 31.3462 14.366 31.2408C14.2546 31.1353 14.1921 30.9922 14.1921 30.843V21.2805L13.3323 20.8733C13.2336 20.8264 13.1507 20.7544 13.0928 20.6654C13.0349 20.5764 13.0044 20.4738 13.0046 20.3693V17.9055C13.0046 17.6071 13.1297 17.321 13.3524 17.11C13.5751 16.899 13.8771 16.7805 14.1921 16.7805V16.092C14.1921 15.6169 14.3509 15.1539 14.6457 14.7696C14.9405 14.3852 15.3562 14.0991 15.8332 13.9523C17.0563 13.5765 19.2449 13.4055 22.5046 13.4055C25.7643 13.4055 27.9552 13.5765 29.176 13.9523C29.653 14.0991 30.0686 14.3852 30.3635 14.7696C30.6582 15.1539 30.8171 15.6169 30.8171 16.092V16.7805C31.132 16.7805 31.4341 16.899 31.6568 17.11C31.8794 17.321 32.0046 17.6071 32.0046 17.9055V20.3693C32.0048 20.4738 31.9743 20.5764 31.9163 20.6654C31.8584 20.7544 31.7755 20.8264 31.6768 20.8733L30.8171 21.2805ZM22.5046 15.6555C19.828 15.6555 17.8021 15.9233 16.4246 16.4599C16.2191 16.5401 16.0416 16.6732 15.912 16.8443C15.7825 17.0153 15.7062 17.2173 15.6919 17.4274L15.3796 21.9758C15.3796 22.1101 15.4304 22.24 15.5228 22.3419C15.6151 22.4438 15.7429 22.5111 15.8831 22.5315C16.8473 22.6721 19.0537 22.743 22.5046 22.743C25.9555 22.743 28.1618 22.6721 29.1261 22.5315C29.2662 22.5111 29.394 22.4438 29.4864 22.3419C29.5788 22.24 29.6296 22.1101 29.6296 21.9758L29.3173 17.4274C29.3029 17.2173 29.2267 17.0153 29.0971 16.8443C28.9675 16.6732 28.79 16.5401 28.5846 16.4599C27.2071 15.9233 25.1812 15.6555 22.5046 15.6555ZM27.8483 28.0305C28.3207 28.0305 28.7739 27.8528 29.1079 27.5363C29.442 27.2198 29.6296 26.7905 29.6296 26.343C29.6296 25.8955 29.442 25.4662 29.1079 25.1497C28.7739 24.8333 28.3207 24.6555 27.8483 24.6555C27.3759 24.6555 26.9228 24.8333 26.5887 25.1497C26.2547 25.4662 26.0671 25.8955 26.0671 26.343C26.0671 26.7905 26.2547 27.2198 26.5887 27.5363C26.9228 27.8528 27.3759 28.0305 27.8483 28.0305ZM17.1608 28.0305C17.6333 28.0305 18.0863 27.8528 18.4204 27.5363C18.7544 27.2198 18.9421 26.7905 18.9421 26.343C18.9421 25.8955 18.7544 25.4662 18.4204 25.1497C18.0863 24.8333 17.6333 24.6555 17.1608 24.6555C16.6884 24.6555 16.2353 24.8333 15.9013 25.1497C15.5673 25.4662 15.3796 25.8955 15.3796 26.343C15.3796 26.7905 15.5673 27.2198 15.9013 27.5363C16.2353 27.8528 16.6884 28.0305 17.1608 28.0305Z" fill="#859CA0"/>
</g>
<defs>
<clipPath id="clip0">
<rect width="19" height="18" fill="white" transform="translate(13.0046 13.4055)"/>
</clipPath>
</defs>
</svg>
