<svg width="70" height="70" viewBox="0 0 70 70" fill="none" xmlns="http://www.w3.org/2000/svg">
<g clip-path="url(#clip0)">
<path d="M44.3166 4.72759H44.3166C37.8573 4.72759 32.621 9.96384 32.621 16.4231C32.621 22.8825 37.8573 28.1187 44.3166 28.1187C50.7759 28.1187 56.0121 22.8825 56.0121 16.4231V16.4231C56.005 9.96688 50.7729 4.73475 44.3166 4.72759ZM44.3165 25.6896C39.1989 25.6896 35.0501 21.5408 35.0501 16.4231C35.0501 11.3055 39.1989 7.1567 44.3166 7.1567C49.4343 7.1567 53.583 11.3054 53.583 16.4231C53.5772 21.5385 49.4319 25.6839 44.3165 25.6896Z" fill="#EC1744" stroke="#EC1744" stroke-width="0.1"/>
<path d="M69.631 35.3619L58.6119 24.3428C63.0099 16.4371 60.1803 6.45899 52.2804 2.04091C44.3693 -2.38347 34.3695 0.443074 29.9453 8.35398C25.521 16.2649 28.3474 26.2647 36.2584 30.6889C41.7493 33.7598 48.5111 33.4211 53.667 29.82L64.4199 40.573C64.8942 41.0471 65.663 41.0471 66.1373 40.573L69.631 37.0793C70.1051 36.605 70.1051 35.8362 69.631 35.3619ZM44.3166 30.3478C36.6296 30.3395 30.4002 24.1101 30.3919 16.4231C30.392 8.73278 36.6263 2.49847 44.3166 2.49847C52.0069 2.49847 58.2413 8.73281 58.2413 16.4231C58.2413 24.1135 52.007 30.3478 44.3166 30.3478ZM65.2786 37.9969L55.554 28.2723C56.1625 27.6937 56.7261 27.0697 57.2399 26.4056L67.0549 36.2206L65.2786 37.9969Z" fill="#EC1744" stroke="#EC1744" stroke-width="0.1"/>
<path d="M52.4525 32.6519L52.4042 32.6388L52.3911 32.6871C51.5139 35.9297 50.1632 39.0252 48.3828 41.8736C48.3828 41.8736 48.3828 41.8737 48.3828 41.8737L47.9449 42.5724L47.9448 42.5725C47.8732 42.6878 47.821 42.814 47.7907 42.9464L47.7906 42.9465L42.719 65.2524L42.719 65.2525C42.3496 66.8855 40.7264 67.9097 39.0934 67.5403C37.8915 67.2685 36.9738 66.2962 36.7719 65.0806L33.2782 44.1256L33.2289 44.1338L33.2782 44.1256C32.7927 41.2176 30.0417 39.2537 27.1336 39.7394C24.8849 40.1148 23.1229 41.8768 22.7475 44.1256L19.2538 65.0806L19.3031 65.0888L19.2538 65.0806C18.9793 66.7322 17.418 67.8485 15.7664 67.574C14.5508 67.3719 13.5785 66.4543 13.3067 65.2525L13.3067 65.2524L8.23501 42.9384L8.23499 42.9383C8.20463 42.8059 8.15243 42.6797 8.08083 42.5644L8.08073 42.5642L7.64288 41.8655C4.24182 36.4284 2.43968 30.1439 2.44259 23.7308C2.44332 15.8628 8.8222 9.48527 16.69 9.48599C18.6181 9.48614 20.5261 9.8778 22.2985 10.637C23.5798 11.1864 24.9338 11.5481 26.3184 11.711L26.368 11.7168L26.3739 11.6671L26.6452 9.35433L26.651 9.30468L26.6014 9.29885C25.4496 9.16345 24.3235 8.86221 23.2579 8.40469L23.2578 8.40468C14.7941 4.77596 4.99131 8.69553 1.36259 17.1593C0.47238 19.2358 0.0133329 21.4715 0.0134789 23.7308C0.0110009 30.5988 1.94112 37.3289 5.58299 43.1518C5.58299 43.1518 5.583 43.1518 5.58301 43.1518L5.91158 43.678L10.9383 65.7963C11.6054 68.7374 14.5305 70.5807 17.4715 69.9136C19.6349 69.4229 21.2863 67.6721 21.6501 65.4836L25.1438 44.5287C25.4095 42.9435 26.91 41.874 28.4953 42.1397C29.7196 42.3451 30.6789 43.3044 30.8842 44.5287L34.3779 65.4837C34.8724 68.4585 37.6849 70.4693 40.6598 69.9748C42.8481 69.6111 44.5989 67.9596 45.0897 65.7963L50.1164 43.678L50.445 43.1518C52.3496 40.1033 53.7955 36.7915 54.7364 33.3223L54.7495 33.2741L54.7012 33.261L52.4525 32.6519Z" fill="#EC1744" stroke="#EC1744" stroke-width="0.1"/>
<path d="M12.6897 14.1074L12.6797 14.0586L12.6309 14.0684C10.2846 14.5388 5.83628 17.0982 5.83628 23.4106V23.4606H5.88628H8.21539H8.26539V23.4106C8.26539 20.4738 9.43166 18.7454 10.6189 17.745C11.8081 16.7429 13.0219 16.4684 13.1172 16.4477L13.1654 16.4372L13.1555 16.3888L12.9226 15.2487L12.9226 15.2487L12.6897 14.1074Z" fill="#EC1744" stroke="#EC1744" stroke-width="0.1"/>
<path d="M17.5818 14.094V14.044H17.5318H15.2027H15.1527V14.094V16.4231V16.4731H15.2027H17.5318H17.5818V16.4231V14.094Z" fill="#EC1744" stroke="#EC1744" stroke-width="0.1"/>
<path d="M44.6914 9.73802L44.656 9.70266L44.6206 9.73802L38.2158 16.1429L38.1804 16.1782L38.2158 16.2136L39.8627 17.8605L39.8981 17.8958L39.9334 17.8605L46.3383 11.4556L46.3736 11.4203L46.3383 11.3849L44.6914 9.73802Z" fill="#EC1744" stroke="#EC1744" stroke-width="0.1"/>
<path d="M49.3507 13.2368L49.3154 13.2015L49.28 13.2368L41.1286 21.3882L41.0933 21.4236L41.1286 21.4589L42.7755 23.1059L42.8109 23.1412L42.8463 23.1059L50.9976 14.9544L51.033 14.9191L50.9976 14.8837L49.3507 13.2368Z" fill="#EC1744" stroke="#EC1744" stroke-width="0.1"/>
</g>
<defs>
<clipPath id="clip0">
<rect width="70" height="70" fill="white"/>
</clipPath>
</defs>
</svg>
