<svg width="25" height="27" viewBox="0 0 25 27" fill="none" xmlns="http://www.w3.org/2000/svg">
<g opacity="0.7">
<path d="M22.6315 16.6408L20.6346 14.6439L11.6489 5.65857C9.9928 4.01492 7.31959 4.01988 5.66973 5.66973C4.01988 7.31959 4.01492 9.9928 5.65857 11.6489L14.6439 20.6369C15.0114 21.0046 15.6075 21.0046 15.9752 20.6369C16.3427 20.2692 16.3427 19.6733 15.9752 19.3055L6.98991 10.3175C6.07093 9.39855 6.07093 7.90888 6.98991 6.98991C7.90888 6.07093 9.39855 6.07093 10.3175 6.98991L19.3055 15.9752L21.3024 17.9719C22.9568 19.627 22.9562 22.3097 21.3014 23.9639C19.6464 25.6181 16.9639 25.6177 15.3095 23.9626L13.6458 22.2983L4.32744 12.98L3.66167 12.3144C1.33467 9.91467 1.36423 6.0916 3.72781 3.72781C6.0916 1.36423 9.91467 1.33467 12.3144 3.66167L22.2983 13.6458C22.5362 13.8835 22.8828 13.9763 23.2076 13.8893C23.5325 13.8022 23.7863 13.5486 23.8733 13.2237C23.9604 12.8988 23.8673 12.5523 23.6296 12.3144L13.6458 2.33054C10.5191 -0.781904 5.46304 -0.776117 2.34356 2.34356C-0.776117 5.46304 -0.781904 10.5191 2.33054 13.6458L12.3144 23.6296L13.9806 25.294C16.3835 27.602 20.1914 27.5635 22.547 25.2072C24.9027 22.851 24.9401 19.043 22.6315 16.6408Z" fill="#62868C"/>
</g>
</svg>
