<svg width="191" height="36" viewBox="0 0 191 36" fill="none" xmlns="http://www.w3.org/2000/svg">
<path d="M97.2474 0.183105H76.9813V26.0748H82.2903V19.4142H92.7552V14.5361H82.2903V5.01434H92.6531L92.7552 4.96743L97.2474 0.792873L97.9621 0.183105H97.2474Z" fill="#EC1744"/>
<path d="M99.3668 3.46503L97.7333 5.0129V26.0733H103.042V0.134766L99.3668 3.46503Z" fill="#EC1744"/>
<path d="M149.447 4.92401V26.0313H154.756V0.0927734L149.447 4.92401Z" fill="#EC1744"/>
<path d="M137.981 15.4332V9.85149H141.095L146.404 4.97335H137.981V0.0952148H132.672V15.4332C132.672 18.7635 133.642 21.3433 135.531 23.0787C138.389 25.7054 142.728 26.0338 145.791 26.0338V21.1556C142.524 21.1556 140.38 20.6397 139.308 19.6547C138.389 18.8104 137.981 17.4501 137.981 15.4332Z" fill="#EC1744"/>
<path d="M175.222 16.5575C177.927 14.0715 178.336 11.9608 178.336 9.75624C178.336 4.40905 173.588 0.046875 167.769 0.046875C161.949 0.046875 157.202 4.40905 157.202 9.75624C157.202 13.0396 158.938 15.9946 161.847 17.8239L165.727 14.2591C163.532 13.5087 162.46 11.5855 162.46 9.75624C162.46 7.08265 164.859 4.87811 167.769 4.87811C170.679 4.87811 172.976 7.08265 173.078 9.75624C173.129 11.3041 172.516 12.4767 166.595 17.6832L157.151 26.173H178.234V21.3418H169.862L175.222 16.5575Z" fill="#EC1744"/>
<path d="M185.828 8.1615C188.224 8.1615 190.167 6.33448 190.167 4.08075C190.167 1.82701 188.224 0 185.828 0C183.431 0 181.489 1.82701 181.489 4.08075C181.489 6.33448 183.431 8.1615 185.828 8.1615Z" fill="#EC1744"/>
<path d="M129.474 15.7159C129.474 9.80581 124.267 5.02148 117.835 5.02148C111.403 5.02148 106.196 9.80581 106.196 15.7159C106.196 21.6259 111.403 26.4102 117.835 26.4102C120.183 26.4102 122.378 25.7536 124.165 24.6747V26.0819H129.474V15.9504C129.474 15.8566 129.474 15.8097 129.474 15.7159ZM117.835 21.5321C114.313 21.5321 111.505 18.9054 111.505 15.7159C111.505 12.5263 114.313 9.85272 117.835 9.85272C121.357 9.85272 124.165 12.4794 124.165 15.669C124.165 18.8585 121.306 21.5321 117.835 21.5321Z" fill="#EC1744"/>
<path d="M12.96 12.0328H11.376L7.2 21.0328L3.024 12.0328H2.7H1.44V24.6328H2.7V14.1568L6.57 22.4548H7.83L11.7 14.1568V24.6328H12.96V12.0328ZM18.8965 15.4168C16.8805 15.4168 15.4765 16.6948 15.4765 18.4228H16.6645C16.6645 17.1628 17.7445 16.5688 18.8965 16.5688C20.0485 16.5688 21.1285 17.1628 21.1285 18.7828V20.2228C20.5165 19.4488 19.4905 19.0528 18.3385 19.0528C16.6825 19.0528 15.1165 20.0068 15.1165 21.9508C15.1165 23.8948 16.6825 24.8488 18.3385 24.8488C19.4905 24.8488 20.5165 24.4888 21.1285 23.6248V24.6328H22.3165V18.7828C22.3165 16.6948 20.9125 15.4168 18.8965 15.4168ZM18.6265 23.7328C17.0245 23.7328 16.3045 22.9768 16.3045 21.9508C16.3045 20.9248 17.0245 20.1688 18.6265 20.1688C20.0665 20.1688 21.1285 20.8528 21.1285 21.9508C21.1285 22.9768 20.0665 23.7328 18.6265 23.7328ZM32.3613 12.0328V17.3968C31.6053 16.1908 30.3273 15.4168 28.7253 15.4168C26.1873 15.4168 24.0813 17.4688 24.0813 20.1328C24.0813 22.7968 26.1873 24.8488 28.7253 24.8488C30.3273 24.8488 31.6053 24.0748 32.3613 22.8688V24.6328H33.5493V12.0328H32.3613ZM28.8153 23.6968C26.8173 23.6968 25.2693 22.1308 25.2693 20.1328C25.2693 18.1348 26.8173 16.5688 28.8153 16.5688C30.8133 16.5688 32.3613 18.1348 32.3613 20.1328C32.3613 22.1308 30.8133 23.6968 28.8153 23.6968ZM40.1327 15.4168C37.3427 15.4168 35.5247 17.4868 35.5247 20.1328C35.5247 22.8508 37.3787 24.8488 40.1327 24.8488C42.1307 24.8488 43.6787 23.7328 44.1827 22.1668H42.8687C42.4727 23.0308 41.4827 23.6968 40.1507 23.6968C38.3327 23.6968 36.9827 22.5628 36.7487 20.7268H43.2827H44.4707C44.4887 20.5468 44.5067 20.3488 44.5067 20.1688C44.5067 17.7028 42.8867 15.4168 40.1327 15.4168ZM40.1327 16.5688C41.6807 16.5688 43.0667 17.5948 43.2827 19.5748H36.7487C36.9647 17.8108 38.2427 16.5688 40.1327 16.5688ZM55.6367 15.4168C54.0347 15.4168 52.7567 16.1908 52.0007 17.3968V12.0328H50.8127V24.6328H52.0007V22.8688C52.7567 24.0748 54.0347 24.8488 55.6367 24.8488C58.1747 24.8488 60.2807 22.7968 60.2807 20.1328C60.2807 17.4688 58.1747 15.4168 55.6367 15.4168ZM55.5467 23.6968C53.5487 23.6968 52.0007 22.1308 52.0007 20.1328C52.0007 18.1348 53.5487 16.5688 55.5467 16.5688C57.5447 16.5688 59.0927 18.1348 59.0927 20.1328C59.0927 22.1308 57.5447 23.6968 55.5467 23.6968ZM67.6645 15.6328L65.0725 22.9048L62.0845 15.6328H60.8245L64.4785 24.5608L63.1825 28.2328H64.4425L68.9245 15.6328H67.6645Z" fill="#EC1744"/>
</svg>
