<svg width="21" height="21" viewBox="0 0 21 21" fill="none" xmlns="http://www.w3.org/2000/svg">
<g clip-path="url(#clip0)">
<path d="M1.90266 1.23529H6.02206C6.363 1.23529 6.63971 0.958588 6.63971 0.617647C6.63971 0.276706 6.363 0 6.02206 0H0.772059C0.431118 0 0 0.394059 0 0.735309V5.98531C0 6.32625 0.276706 6.60296 0.617647 6.60296C0.958588 6.60296 1.23529 6.32625 1.23529 5.98531V2.58671L6.18944 7.46334C6.31019 7.58409 6.5066 7.64431 6.66472 7.64431C6.82284 7.64431 7.0001 7.58409 7.12085 7.46334C7.36204 7.22215 7.37162 6.7725 7.13043 6.531L1.90266 1.23529Z" fill="#1F1F23"/>
<path d="M20.5367 0H15.2867C14.9457 0 14.669 0.276706 14.669 0.617647C14.669 0.958588 14.9457 1.23529 15.2867 1.23529H19.1794L13.9424 6.531C13.7012 6.77219 13.7012 7.1925 13.9424 7.43369C14.0628 7.55444 14.2209 7.62918 14.379 7.62918C14.5372 7.62918 14.6181 7.57637 14.7385 7.45562L19.7643 2.36003V5.985C19.7643 6.32594 20.041 6.60265 20.382 6.60265C20.7229 6.60265 20.9996 6.32594 20.9996 5.985V0.735C20.9999 0.394059 20.8776 0 20.5367 0Z" fill="#1F1F23"/>
<path d="M6.18944 13.7309L1.23529 18.6078V15.25C1.23529 14.909 0.958588 14.6323 0.617647 14.6323C0.276706 14.6323 0 14.909 0 15.25V20.5C0 20.8409 0.431118 20.9999 0.772059 20.9999H6.02206C6.363 20.9999 6.63971 20.7232 6.63971 20.3823C6.63971 20.0414 6.363 19.7646 6.02206 19.7646H1.8619L7.14 14.5455C7.38119 14.3043 7.34259 13.943 7.1014 13.7018C6.86052 13.4603 6.43032 13.4897 6.18944 13.7309Z" fill="#1F1F23"/>
<path d="M20.3825 14.6324C20.0415 14.6324 19.7648 14.9091 19.7648 15.25V18.8342L14.739 13.7309C14.4981 13.4898 14.1452 13.4898 13.9043 13.7309C13.6631 13.9721 13.6822 14.3041 13.9234 14.5456L19.2204 19.7647H15.2869C14.9459 19.7647 14.6692 20.0414 14.6692 20.3824C14.6692 20.7233 14.9459 21 15.2869 21H20.5369C20.8778 21 21.0001 20.841 21.0001 20.5V15.25C21.0001 14.9088 20.7234 14.6324 20.3825 14.6324Z" fill="#1F1F23"/>
</g>
<defs>
<clipPath id="clip0">
<rect width="21" height="21" fill="white"/>
</clipPath>
</defs>
</svg>
