<svg width="45" height="45" viewBox="0 0 45 45" fill="none" xmlns="http://www.w3.org/2000/svg">
<circle cx="22.3157" cy="22.9706" r="22" fill="#EC1744"/>
<path d="M32.1971 23.6487H25.4168C25.0294 23.6487 24.7388 23.3581 24.7388 22.9707C24.7388 22.5832 25.0294 22.2927 25.4168 22.2927H32.1487C32.5361 22.2927 32.8267 22.5832 32.8267 22.9707C32.8267 23.3581 32.5361 23.6487 32.1971 23.6487Z" fill="white" stroke="white" stroke-width="1.0671" stroke-miterlimit="10"/>
<path d="M23.2359 32.5115C16.8915 32.5115 11.7578 28.2496 11.7578 22.9707C11.7578 20.5007 12.8717 18.176 14.9542 16.3841C15.2448 16.1419 15.6807 16.1904 15.9229 16.4325C16.165 16.7231 16.1166 17.159 15.8744 17.4011C14.1309 18.9025 13.1623 20.8881 13.1623 22.9707C13.1623 27.4747 17.7148 31.1555 23.2843 31.1555C26.5776 31.1555 29.6288 29.8963 31.5176 27.7169V26.5061C31.5176 26.1187 31.8081 25.8281 32.1956 25.8281C32.583 25.8281 32.8736 26.1187 32.8736 26.5061V27.959C32.8736 28.1043 32.8252 28.2496 32.7283 28.3949C30.5489 31.0102 27.0135 32.5115 23.2359 32.5115Z" fill="white" stroke="white" stroke-width="1.0671" stroke-miterlimit="10"/>
<path d="M32.1946 18.6603C32.0009 18.6603 31.8071 18.5635 31.6618 18.4182C29.773 16.1419 26.625 14.7859 23.2349 14.7859C21.5398 14.7859 19.8447 15.1249 18.3918 15.8029C18.0528 15.9482 17.6654 15.8029 17.4716 15.4639C17.3263 15.1249 17.4716 14.7374 17.8106 14.5437C19.5057 13.8173 21.3461 13.4298 23.2349 13.4298C27.0125 13.4298 30.5479 14.9796 32.6789 17.5464C32.921 17.837 32.8726 18.2729 32.582 18.515C32.4852 18.6119 32.3399 18.6603 32.1946 18.6603Z" fill="white" stroke="white" stroke-width="1.0671" stroke-miterlimit="10"/>
</svg>
