<svg width="65" height="65" viewBox="0 0 65 65" fill="none" xmlns="http://www.w3.org/2000/svg">
<g clip-path="url(#clip0)">
<path d="M52.4567 56.027L41.5126 37.0711C45.5612 33.1458 48.082 27.6532 48.082 21.582C48.082 9.6817 38.4005 0 26.5 0C14.5995 0 4.91797 9.6817 4.91797 21.582C4.91797 27.6532 7.43875 33.1458 11.4875 37.0712L0.543288 56.027C0.286462 56.4719 0.323025 57.0279 0.636091 57.4352C0.94903 57.8425 1.47677 58.021 1.97303 57.8876L10.4096 55.6146L12.6594 64.0574C12.7917 64.5539 13.2102 64.9217 13.7196 64.9891C13.7755 64.9964 13.8312 65.0001 13.8866 65.0001C14.3357 65.0001 14.7568 64.7615 14.9856 64.3654L26.5 44.4217L38.0144 64.3652C38.2432 64.7615 38.6644 65 39.1134 65C39.1688 65 39.2245 64.9963 39.2804 64.989C39.7897 64.9215 40.2083 64.5538 40.3405 64.0572L42.5904 55.6145L51.0271 57.8875C51.5235 58.0213 52.051 57.8425 52.364 57.4351C52.6771 57.0279 52.7137 56.4719 52.4567 56.027ZM7.45703 21.582C7.45703 11.0817 15.9997 2.53906 26.5 2.53906C37.0003 2.53906 45.543 11.0817 45.543 21.582C45.543 32.0823 37.0003 40.625 26.5 40.625C15.9997 40.625 7.45703 32.0823 7.45703 21.582ZM14.3221 60.4363L12.5353 53.7308C12.4484 53.4049 12.2354 53.1268 11.9433 52.9582C11.6512 52.7895 11.3041 52.7441 10.9782 52.8318L4.27761 54.6371L13.4463 38.7566C16.5382 41.1124 20.282 42.6541 24.3558 43.0578L14.3221 60.4363ZM42.0218 52.8317C41.6959 52.7439 41.3488 52.7894 41.0567 52.9581C40.7646 53.1268 40.5515 53.4047 40.4647 53.7306L38.6778 60.4362L28.6442 43.0575C32.718 42.6538 36.4618 41.1121 39.5537 38.7564L48.7222 54.6369L42.0218 52.8317Z" fill="#EC1744"/>
<path d="M18.5466 18.9933C18.2761 19.8268 18.4979 20.7243 19.1256 21.3357L21.1558 23.3138L20.6773 26.1075C20.5294 26.9712 20.878 27.8275 21.587 28.3424C21.9876 28.6333 22.4559 28.7809 22.9275 28.7809C23.2909 28.7809 23.6561 28.6932 23.9936 28.5157L26.502 27.196L29.0113 28.5143C29.7869 28.9218 30.7091 28.8551 31.4178 28.3397C32.1266 27.8246 32.4747 26.968 32.3263 26.1045L31.8464 23.3109L33.8756 21.3318C34.5029 20.72 34.7242 19.8223 34.4532 18.9891C34.1822 18.1559 33.4752 17.5602 32.6081 17.4343L29.8029 17.0275L28.5479 14.486C28.1599 13.7004 27.375 13.2126 26.499 13.2126C26.4989 13.2126 26.4986 13.2126 26.4984 13.2126C25.6223 13.2129 24.8372 13.7012 24.4495 14.487L23.1958 17.0291L20.3909 17.4375C19.5239 17.564 18.8172 18.16 18.5466 18.9933ZM24.2222 19.4457C24.6357 19.3855 24.9931 19.1256 25.1779 18.751L26.4992 16.0718L27.8221 18.7503C28.0072 19.125 28.3647 19.3846 28.7782 19.4445L31.7348 19.8734L29.5961 21.9592C29.297 22.2509 29.1606 22.6712 29.2313 23.083L29.7371 26.0273L27.0924 24.6378C26.7226 24.4434 26.2806 24.4436 25.9108 24.638L23.2669 26.0289L23.7711 23.0844C23.8417 22.6726 23.705 22.2523 23.4058 21.9607L21.266 19.876L24.2222 19.4457Z" fill="#EC1744"/>
<path d="M26.5 37.5782C35.3203 37.5782 42.4961 30.4025 42.4961 21.5821C42.4961 15.081 38.6139 9.27593 32.6057 6.79298C31.9572 6.52486 31.2152 6.83335 30.9475 7.48132C30.6798 8.12929 30.9879 8.87171 31.6359 9.13946C36.6908 11.2285 39.957 16.1126 39.957 21.5821C39.957 29.0024 33.9203 35.0392 26.5 35.0392C19.0797 35.0392 13.043 29.0024 13.043 21.5821C13.043 16.0995 16.3199 11.2111 21.3913 9.12829C22.0399 8.86194 22.3498 8.12015 22.0834 7.47167C21.817 6.82307 21.0754 6.5133 20.4268 6.77953C14.3988 9.25524 10.5039 15.0655 10.5039 21.5821C10.5039 30.4025 17.6798 37.5782 26.5 37.5782Z" fill="#EC1744"/>
<path d="M26.5165 8.125C26.8504 8.125 27.178 7.98916 27.4141 7.75303C27.6502 7.51689 27.7861 7.18936 27.7861 6.85547C27.7861 6.52158 27.6502 6.19404 27.4141 5.95791C27.178 5.72178 26.8504 5.58594 26.5165 5.58594C26.1827 5.58594 25.8551 5.72178 25.619 5.95791C25.3816 6.19404 25.247 6.52158 25.247 6.85547C25.247 7.18936 25.3816 7.51689 25.619 7.75303C25.8551 7.98916 26.1827 8.125 26.5165 8.125Z" fill="#EC1744"/>
</g>
<defs>
<clipPath id="clip0">
<rect width="65" height="65" fill="white"/>
</clipPath>
</defs>
</svg>
