<svg width="22" height="21" viewBox="0 0 22 21" fill="none" xmlns="http://www.w3.org/2000/svg">
<path d="M10.6712 5.59308C7.66042 5.59308 5.16579 7.92211 5.16579 10.8232C5.16579 13.7243 7.61741 16.0533 10.6712 16.0533C13.7249 16.0533 16.1765 13.6834 16.1765 10.8232C16.1765 7.96297 13.6819 5.59308 10.6712 5.59308ZM10.6712 14.1737C8.73569 14.1737 7.14429 12.6619 7.14429 10.8232C7.14429 8.98447 8.73569 7.47265 10.6712 7.47265C12.6067 7.47265 14.1981 8.98447 14.1981 10.8232C14.1981 12.6619 12.6067 14.1737 10.6712 14.1737Z" fill="#231F20"/>
<path d="M16.3915 6.65106C17.0804 6.65106 17.6388 6.12054 17.6388 5.46612C17.6388 4.81169 17.0804 4.28117 16.3915 4.28117C15.7027 4.28117 15.1442 4.81169 15.1442 5.46612C15.1442 6.12054 15.7027 6.65106 16.3915 6.65106Z" fill="#231F20"/>
<path d="M19.6172 2.40525C18.499 1.30202 16.9076 0.72998 15.1011 0.72998H6.24089C2.49896 0.72998 0.0043335 3.09987 0.0043335 6.65471V15.0311C0.0043335 16.788 0.606484 18.2999 1.81079 19.4031C2.97208 20.4655 4.52046 20.9966 6.2839 20.9966H15.0581C16.9076 20.9966 18.4559 20.4246 19.5742 19.4031C20.7355 18.3407 21.3377 16.8289 21.3377 15.0719V6.65471C21.3377 4.93858 20.7355 3.46761 19.6172 2.40525ZM19.4452 15.0719C19.4452 16.3386 18.9721 17.3601 18.1979 18.0547C17.4237 18.7493 16.3484 19.1171 15.0581 19.1171H6.2839C4.99358 19.1171 3.91831 18.7493 3.14412 18.0547C2.36993 17.3192 1.98283 16.2977 1.98283 15.0311V6.65471C1.98283 5.4289 2.36993 4.4074 3.14412 3.67192C3.8753 2.97729 4.99358 2.60955 6.2839 2.60955H15.1441C16.4344 2.60955 17.5097 2.97729 18.2839 3.71278C19.0151 4.44826 19.4452 5.46976 19.4452 6.65471V15.0719Z" fill="#231F20"/>
</svg>
