<svg width="27" height="25" viewBox="0 0 27 25" fill="none" xmlns="http://www.w3.org/2000/svg">
<path d="M13.4424 6.0772C9.87075 6.0772 6.91138 8.84014 6.91138 12.2817C6.91138 15.7232 9.81973 18.4862 13.4424 18.4862C17.0651 18.4862 19.9735 15.6748 19.9735 12.2817C19.9735 8.88861 17.0141 6.0772 13.4424 6.0772ZM13.4424 16.2564C11.1463 16.2564 9.25847 14.463 9.25847 12.2817C9.25847 10.1004 11.1463 8.30694 13.4424 8.30694C15.7385 8.30694 17.6264 10.1004 17.6264 12.2817C17.6264 14.463 15.7385 16.2564 13.4424 16.2564Z" fill="white"/>
<path d="M20.2285 7.33229C21.0457 7.33229 21.7082 6.70294 21.7082 5.92659C21.7082 5.15024 21.0457 4.52089 20.2285 4.52089C19.4113 4.52089 18.7488 5.15024 18.7488 5.92659C18.7488 6.70294 19.4113 7.33229 20.2285 7.33229Z" fill="white"/>
<path d="M24.0552 2.29548C22.7285 0.986721 20.8407 0.308105 18.6977 0.308105H8.18677C3.74771 0.308105 0.78833 3.11951 0.78833 7.33662V17.2735C0.78833 19.3578 1.50266 21.1513 2.93133 22.4601C4.30897 23.7203 6.14582 24.3505 8.2378 24.3505H18.6466C20.8407 24.3505 22.6775 23.6719 24.0041 22.4601C25.3818 21.1998 26.0961 19.4063 26.0961 17.322V7.33662C26.0961 5.30078 25.3818 3.55577 24.0552 2.29548ZM23.8511 17.322C23.8511 18.8246 23.2898 20.0364 22.3714 20.8605C21.4529 21.6845 20.1773 22.1207 18.6466 22.1207H8.2378C6.70708 22.1207 5.43149 21.6845 4.51306 20.8605C3.59464 19.988 3.13542 18.7761 3.13542 17.2735V7.33662C3.13542 5.88245 3.59464 4.67063 4.51306 3.79813C5.38047 2.9741 6.70708 2.53784 8.2378 2.53784H18.7487C20.2794 2.53784 21.555 2.9741 22.4734 3.8466C23.3408 4.71911 23.8511 5.93092 23.8511 7.33662V17.322Z" fill="white"/>
</svg>
