<svg width="110" height="7" viewBox="0 0 110 7" fill="none" xmlns="http://www.w3.org/2000/svg">
<g clip-path="url(#clip0)">
<path d="M1.70323 1.55415V2.80997H4.25806V4.06578H1.70323V6.01927H0V0.29834H4.54194V1.55415H1.70323Z" fill="#1F1F23"/>
<path d="M10.7871 4.90299H8.23224L7.80644 6.01927H6.10321L8.65805 0.29834H10.3613L12.9161 6.01927H11.2129L10.7871 4.90299ZM10.2193 3.64718L9.50966 1.83322L8.79998 3.64718H10.2193Z" fill="#1F1F23"/>
<path d="M20.4387 6.01927V2.9495L18.8774 5.46113H18.1677L16.6065 3.08904V6.01927H15.0452V0.29834H16.4645L18.4516 3.64718L20.4387 0.29834H21.8581V6.01927H20.4387V6.01927Z" fill="#1F1F23"/>
<path d="M24.6968 0.29834H26.4V6.01927H24.6968V0.29834Z" fill="#1F1F23"/>
<path d="M29.2387 0.29834H30.9419V4.76346H33.7806V6.01927H29.3806V0.29834H29.2387Z" fill="#1F1F23"/>
<path d="M38.6065 3.92625V6.01927H36.9032V3.92625L34.6323 0.29834H36.3355L37.7548 2.5309L39.1742 0.29834H40.7355L38.6065 3.92625Z" fill="#1F1F23"/>
<path d="M46.9807 0.29834H49.8194C50.529 0.29834 51.0968 0.437875 51.5226 0.716944C52.0903 0.996014 52.3742 1.27508 52.6581 1.69369C52.9419 2.11229 53.0839 2.67043 53.0839 3.22857C53.0839 3.78671 52.9419 4.34485 52.6581 4.76346C52.3742 5.18206 51.9484 5.60066 51.5226 5.7402C50.9548 6.01927 50.3871 6.1588 49.8194 6.1588H46.9807V0.29834ZM49.6774 4.76346C50.2452 4.76346 50.529 4.62392 50.9548 4.34485C51.2387 4.06578 51.3807 3.64718 51.3807 3.22857C51.3807 2.80997 51.2387 2.39136 50.9548 2.11229C50.671 1.69369 50.2452 1.55415 49.6774 1.55415H48.6839V4.76346H49.6774Z" fill="#1F1F23"/>
<path d="M60.3226 4.76346V6.01927H55.6387V0.29834H60.1807V1.55415H57.2V2.5309H59.7549V3.78671H57.2V4.90299H60.3226V4.76346Z" fill="#1F1F23"/>
<path d="M68.5548 0.29834V6.01927H67.1355L64.5806 2.9495V6.01927H63.0193V0.29834H64.4387L66.9935 3.36811V0.29834H68.5548Z" fill="#1F1F23"/>
<path d="M72.671 1.55415H70.8258V0.29834H76.0774V1.55415H74.2323V6.01927H72.529V1.55415H72.671Z" fill="#1F1F23"/>
<path d="M78.3484 0.29834H80.0516V6.01927H78.3484V0.29834Z" fill="#1F1F23"/>
<path d="M83.6 6.01916C83.1742 5.87962 82.7483 5.74009 82.4645 5.60055L83.0322 4.34474C83.3161 4.48427 83.6 4.62381 83.8838 4.76334C84.1677 4.90288 84.5935 4.90288 84.8774 4.90288C85.4451 4.90288 85.8709 4.76334 85.8709 4.48427C85.8709 4.34474 85.729 4.2052 85.5871 4.06567C85.4451 3.92613 85.1613 3.92613 84.7354 3.7866C84.3096 3.64706 83.8838 3.64706 83.6 3.50753C83.3161 3.36799 83.0322 3.22846 82.8903 2.94939C82.7484 2.67032 82.6064 2.39125 82.6064 1.97264C82.6064 1.55404 82.7484 1.27497 82.8903 0.995901C83.0322 0.716831 83.3161 0.437761 83.7419 0.298226C84.1677 0.298226 84.5935 0.158691 85.1613 0.158691C85.5871 0.158691 85.8709 0.158691 86.2967 0.298226C86.7225 0.437761 87.0064 0.577296 87.2903 0.716831L86.7225 1.97264C86.1548 1.55404 85.729 1.41451 85.1613 1.41451C84.8774 1.41451 84.5935 1.41451 84.4516 1.55404C84.3096 1.69358 84.1677 1.83311 84.1677 1.97264C84.1677 2.11218 84.3096 2.25171 84.4516 2.25171C84.5935 2.39125 84.8774 2.39125 85.3032 2.53078C85.729 2.67032 86.1548 2.67032 86.4387 2.80985C86.7225 2.94939 87.0064 3.08892 87.1484 3.36799C87.4322 3.64706 87.4322 3.92613 87.4322 4.34474C87.4322 4.62381 87.2903 5.04241 87.1484 5.32148C87.0064 5.60055 86.7225 5.74009 86.2967 5.87962C85.8709 6.01916 85.4451 6.15869 84.8774 6.15869C84.4516 6.15869 84.0258 6.15869 83.6 6.01916Z" fill="#1F1F23"/>
<path d="M91.1226 1.55415H89.2774V0.29834H94.529V1.55415H92.6839V6.01927H90.9806V1.55415H91.1226Z" fill="#1F1F23"/>
<path d="M99.4968 4.48439H98.6452V6.01927H96.942V0.29834H99.6387C100.206 0.29834 100.632 0.437875 101.058 0.57741C101.484 0.716944 101.768 0.996014 101.91 1.27508C102.052 1.55415 102.194 1.97276 102.194 2.39136C102.194 2.80997 102.052 3.22857 101.91 3.50764C101.768 3.78671 101.484 4.06578 101.058 4.20532L102.335 6.01927H100.49L99.4968 4.48439ZM100.206 1.83322C100.065 1.69369 99.7807 1.55415 99.4968 1.55415H98.6452V3.22857H99.4968C99.7807 3.22857 100.065 3.08904 100.206 2.9495C100.348 2.80997 100.49 2.5309 100.49 2.39136C100.49 2.11229 100.348 1.97276 100.206 1.83322Z" fill="#1F1F23"/>
<path d="M107.729 3.92625V6.01927H106.026V3.92625L103.755 0.29834H105.458L106.877 2.5309L108.297 0.29834H109.858L107.729 3.92625Z" fill="#1F1F23"/>
</g>
<defs>
<clipPath id="clip0">
<rect width="110" height="6" fill="white" transform="translate(0 0.158691)"/>
</clipPath>
</defs>
</svg>
