<svg width="188" height="27" viewBox="0 0 188 27" fill="none" xmlns="http://www.w3.org/2000/svg">
<path d="M16.3242 9.25619H11.1492C10.8535 9.25619 10.6318 9.0343 10.6318 8.73845C10.6318 8.44259 10.8535 8.2207 11.1492 8.2207H16.3242C16.6199 8.2207 16.8417 8.44259 16.8417 8.73845C16.8417 9.0343 16.6199 9.25619 16.3242 9.25619Z" fill="#1F1F23" stroke="#1F1F23" stroke-miterlimit="10"/>
<path d="M9.48587 16.0979C4.60665 16.0979 0.65152 12.8065 0.65152 8.73848C0.65152 6.85241 1.50169 5.0403 3.09113 3.67197C3.31292 3.48706 3.64559 3.48706 3.83041 3.70895C4.01523 3.93085 4.01523 4.26368 3.79345 4.44859C2.46275 5.63201 1.72347 7.14826 1.72347 8.73848C1.72347 12.2148 5.19807 15.0254 9.48587 15.0254C11.9994 15.0254 14.3651 14.0269 15.8067 12.3997V11.4012C15.8067 11.1053 16.0285 10.8834 16.3242 10.8834C16.6199 10.8834 16.8417 11.1053 16.8417 11.4012V12.6216C16.8417 12.7325 16.8047 12.8804 16.7308 12.9544C15.0674 14.9144 12.3691 16.0979 9.48587 16.0979Z" fill="#1F1F23" stroke="#1F1F23" stroke-miterlimit="10"/>
<path d="M16.3242 5.44703C16.1763 5.44703 16.0285 5.37307 15.9176 5.26212C14.476 3.52398 12.0364 2.48849 9.44891 2.48849C8.15518 2.48849 6.86144 2.74736 5.71557 3.26511C5.45682 3.37605 5.16111 3.26511 5.01325 3.00623C4.90236 2.74736 5.01325 2.45151 5.272 2.30358C6.6027 1.71187 8.00732 1.41602 9.48588 1.41602C12.3691 1.41602 15.0674 2.59943 16.7308 4.55947C16.9156 4.78136 16.8786 5.1142 16.6569 5.29911C16.546 5.41005 16.4351 5.44703 16.3242 5.44703Z" fill="#1F1F23" stroke="#1F1F23" stroke-miterlimit="10"/>
<path d="M24.7889 15.2844C24.4932 15.2844 24.2714 15.0625 24.2714 14.7667V2.71062C24.2714 2.41476 24.4932 2.19287 24.7889 2.19287C25.0846 2.19287 25.3064 2.41476 25.3064 2.71062V14.7667C25.3064 15.0625 25.0846 15.2844 24.7889 15.2844Z" fill="#1F1F23" stroke="#1F1F23" stroke-miterlimit="10"/>
<path d="M35.9889 9.25668H27.8199C27.5242 9.25668 27.3024 9.03479 27.3024 8.73894C27.3024 8.44308 27.5242 8.22119 27.8199 8.22119H35.9889C36.2846 8.22119 36.5064 8.44308 36.5064 8.73894C36.5064 9.03479 36.2846 9.25668 35.9889 9.25668Z" fill="#1F1F23" stroke="#1F1F23" stroke-miterlimit="10"/>
<path d="M37.6523 3.26498H27.8199C27.5242 3.26498 27.3024 3.04309 27.3024 2.74724C27.3024 2.45138 27.5242 2.22949 27.8199 2.22949H37.6523C37.948 2.22949 38.1698 2.45138 38.1698 2.74724C38.1698 3.04309 37.948 3.26498 37.6523 3.26498Z" fill="#1F1F23" stroke="#1F1F23" stroke-miterlimit="10"/>
<path d="M37.6523 15.2845H27.8199C27.5242 15.2845 27.3024 15.0626 27.3024 14.7668C27.3024 14.4709 27.5242 14.249 27.8199 14.249H37.6523C37.948 14.249 38.1698 14.4709 38.1698 14.7668C38.1698 15.0626 37.948 15.2845 37.6523 15.2845Z" fill="#1F1F23" stroke="#1F1F23" stroke-miterlimit="10"/>
<path d="M186.875 15.2844C186.727 15.2844 186.617 15.2475 186.506 15.1365L173.642 3.11742C173.42 2.93251 173.42 2.59967 173.605 2.37778C173.79 2.15589 174.123 2.15589 174.345 2.3408L186.321 13.5833V2.71062C186.321 2.41476 186.543 2.19287 186.838 2.19287C187.134 2.19287 187.356 2.41476 187.356 2.71062V14.7667C187.356 14.9886 187.245 15.1735 187.023 15.2475C187.023 15.2844 186.949 15.2844 186.875 15.2844Z" fill="#1F1F23" stroke="#1F1F23" stroke-miterlimit="10"/>
<path d="M174.012 15.2843C173.716 15.2843 173.494 15.0624 173.494 14.7665V6.48259C173.494 6.18673 173.716 5.96484 174.012 5.96484C174.308 5.96484 174.529 6.18673 174.529 6.48259V14.7665C174.529 15.0624 174.308 15.2843 174.012 15.2843Z" fill="#1F1F23" stroke="#1F1F23" stroke-miterlimit="10"/>
<path d="M88.4036 15.2844C88.1079 15.2844 87.8861 15.0625 87.8861 14.7667V2.71062C87.8861 2.41476 88.1079 2.19287 88.4036 2.19287C88.6994 2.19287 88.9211 2.41476 88.9211 2.71062V14.7667C88.9211 15.0625 88.6624 15.2844 88.4036 15.2844Z" fill="#1F1F23" stroke="#1F1F23" stroke-miterlimit="10"/>
<path d="M98.273 9.25604H91.2499C90.9542 9.25604 90.7324 9.03415 90.7324 8.73829C90.7324 8.44244 90.9542 8.22055 91.2499 8.22055H98.273C99.6407 8.22055 100.75 7.11109 100.75 5.74276C100.75 4.37444 99.6407 3.26498 98.273 3.26498H91.2499C90.9542 3.26498 90.7324 3.04309 90.7324 2.74724C90.7324 2.45138 90.9542 2.22949 91.2499 2.22949H98.273C100.232 2.22949 101.822 3.81971 101.822 5.77975C101.822 7.73978 100.195 9.25604 98.273 9.25604Z" fill="#1F1F23" stroke="#1F1F23" stroke-miterlimit="10"/>
<path d="M101.267 15.2844C101.119 15.2844 101.008 15.2474 100.897 15.1365L97.1641 11.4383C96.9423 11.2534 96.9423 10.9205 97.1641 10.6986C97.3858 10.4768 97.6816 10.4768 97.9033 10.6986L101.637 14.3968C101.858 14.5817 101.858 14.9146 101.637 15.1365C101.526 15.2474 101.415 15.2844 101.267 15.2844Z" fill="#1F1F23" stroke="#1F1F23" stroke-miterlimit="10"/>
<path d="M122.706 14.5082L117.235 4.96685C117.088 4.70797 116.755 4.63401 116.533 4.78194C116.274 4.92986 116.2 5.2627 116.348 5.48459L119.453 10.9209H113.022C112.726 10.9209 112.504 11.1428 112.504 11.4387C112.504 11.7345 112.726 11.9564 113.022 11.9564H120.045L121.819 15.0259C121.93 15.2108 122.078 15.2848 122.262 15.2848C122.336 15.2848 122.447 15.2478 122.521 15.2108C122.78 15.0999 122.854 14.767 122.706 14.5082Z" fill="#1F1F23" stroke="#1F1F23" stroke-miterlimit="10"/>
<path d="M115.387 1.749C115.128 1.60107 114.833 1.71201 114.685 1.93391L107.551 14.5077C107.403 14.7666 107.514 15.0624 107.736 15.2104C107.81 15.2474 107.921 15.2843 107.994 15.2843C108.179 15.2843 108.364 15.1734 108.438 15.0255L115.572 2.45165C115.72 2.22976 115.646 1.89692 115.387 1.749Z" fill="#1F1F23" stroke="#1F1F23" stroke-miterlimit="10"/>
<path d="M138.009 3.26498H125.146C124.85 3.26498 124.628 3.04309 124.628 2.74724C124.628 2.45138 124.85 2.22949 125.146 2.22949H138.009C138.305 2.22949 138.527 2.45138 138.527 2.74724C138.527 3.04309 138.305 3.26498 138.009 3.26498Z" fill="#1F1F23" stroke="#1F1F23" stroke-miterlimit="10"/>
<path d="M131.577 15.2842C131.282 15.2842 131.06 15.0623 131.06 14.7664V5.89079C131.06 5.59494 131.282 5.37305 131.577 5.37305C131.873 5.37305 132.095 5.59494 132.095 5.89079V14.8034C132.095 15.0623 131.873 15.2842 131.577 15.2842Z" fill="#1F1F23" stroke="#1F1F23" stroke-miterlimit="10"/>
<path d="M144.663 15.2844C144.367 15.2844 144.145 15.0625 144.145 14.7667V2.71062C144.145 2.41476 144.367 2.19287 144.663 2.19287C144.958 2.19287 145.18 2.41476 145.18 2.71062V14.7667C145.217 15.0625 144.958 15.2844 144.663 15.2844Z" fill="#1F1F23" stroke="#1F1F23" stroke-miterlimit="10"/>
<path d="M159.411 15.8017C154.717 15.8017 150.909 12.6213 150.909 8.7382C150.909 6.92609 151.501 5.55777 152.979 4.22642C153.201 4.04151 153.534 4.04151 153.719 4.2634C153.904 4.4853 153.904 4.81813 153.682 5.00304C152.425 6.11249 151.944 7.18497 151.944 8.70122C151.944 12.0296 155.308 14.7293 159.411 14.7293C163.514 14.7293 166.878 12.0296 166.878 8.70122C166.878 5.37286 163.514 2.67319 159.411 2.67319C158.191 2.67319 157.009 2.89508 155.937 3.37584C155.678 3.48679 155.382 3.37584 155.234 3.11697C155.123 2.8581 155.234 2.56224 155.53 2.41431C156.75 1.89657 158.043 1.6377 159.411 1.6377C164.106 1.6377 167.913 4.81813 167.913 8.70122C167.913 12.5843 164.106 15.8017 159.411 15.8017Z" fill="#1F1F23" stroke="#1F1F23" stroke-miterlimit="10"/>
<path d="M58.9819 15.2844C58.834 15.2844 58.7231 15.2475 58.6122 15.1365L45.7488 3.11742C45.5271 2.93251 45.5271 2.59967 45.7119 2.37778C45.8967 2.15589 46.2294 2.15589 46.4511 2.3408L58.4274 13.5833V2.71062C58.4274 2.41476 58.6492 2.19287 58.9449 2.19287C59.2406 2.19287 59.4624 2.41476 59.4624 2.71062V14.7667C59.4624 14.9886 59.3515 15.1735 59.1297 15.2475C59.0928 15.2844 59.0188 15.2844 58.9819 15.2844Z" fill="#1F1F23" stroke="#1F1F23" stroke-miterlimit="10"/>
<path d="M46.0801 15.2841C45.7843 15.2841 45.5626 15.0622 45.5626 14.7664V6.44548C45.5626 6.14963 45.7843 5.92773 46.0801 5.92773C46.3758 5.92773 46.5976 6.14963 46.5976 6.44548V14.7664C46.6345 15.0622 46.3758 15.2841 46.0801 15.2841Z" fill="#1F1F23" stroke="#1F1F23" stroke-miterlimit="10"/>
<path d="M67.5191 15.2844C67.2234 15.2844 67.0016 15.0625 67.0016 14.7667V2.71062C67.0016 2.41476 67.2234 2.19287 67.5191 2.19287C67.8148 2.19287 68.0366 2.41476 68.0366 2.71062V14.7667C68.0366 15.0625 67.8148 15.2844 67.5191 15.2844Z" fill="#1F1F23" stroke="#1F1F23" stroke-miterlimit="10"/>
<path d="M78.7561 9.25668H70.5132C70.2174 9.25668 69.9957 9.03479 69.9957 8.73894C69.9957 8.44308 70.2174 8.22119 70.5132 8.22119H78.7191C79.0148 8.22119 79.2366 8.44308 79.2366 8.73894C79.2366 9.03479 79.0518 9.25668 78.7561 9.25668Z" fill="#1F1F23" stroke="#1F1F23" stroke-miterlimit="10"/>
<path d="M80.3825 3.26498H70.5132C70.2174 3.26498 69.9957 3.04309 69.9957 2.74724C69.9957 2.45138 70.2174 2.22949 70.5132 2.22949H80.3825C80.6782 2.22949 80.9 2.45138 80.9 2.74724C80.9 3.04309 80.6782 3.26498 80.3825 3.26498Z" fill="#1F1F23" stroke="#1F1F23" stroke-miterlimit="10"/>
<path d="M80.3825 15.2845H70.5132C70.2174 15.2845 69.9957 15.0626 69.9957 14.7668C69.9957 14.4709 70.2174 14.249 70.5132 14.249H80.3825C80.6782 14.249 80.9 14.4709 80.9 14.7668C80.9 15.0626 80.6782 15.2845 80.3825 15.2845Z" fill="#1F1F23" stroke="#1F1F23" stroke-miterlimit="10"/>
<path d="M187.152 24.4562C187.152 24.4632 187.151 24.4691 187.15 24.474H119.073C119.072 24.4691 119.071 24.4632 119.071 24.4562C119.071 24.4493 119.072 24.4434 119.073 24.4385H187.15C187.151 24.4434 187.152 24.4493 187.152 24.4562Z" fill="#1F1F23" stroke="#1F1F23"/>
<mask id="path-26-inside-1" fill="white">
<path d="M1.90829 23.6439V24.3836H3.34988V25.0862H1.90829V26.1957H0.984193V22.9043H3.57166V23.607H1.90829V23.6439Z"/>
</mask>
<path d="M1.90829 23.6439V24.3836H3.34988V25.0862H1.90829V26.1957H0.984193V22.9043H3.57166V23.607H1.90829V23.6439Z" fill="#1F1F23"/>
<path d="M1.90829 24.3836H0.908289V25.3836H1.90829V24.3836ZM3.34988 24.3836H4.34988V23.3836H3.34988V24.3836ZM3.34988 25.0862V26.0862H4.34988V25.0862H3.34988ZM1.90829 25.0862V24.0862H0.908289V25.0862H1.90829ZM1.90829 26.1957V27.1957H2.90829V26.1957H1.90829ZM0.984193 26.1957H-0.0158067V27.1957H0.984193V26.1957ZM0.984193 22.9043V21.9043H-0.0158067V22.9043H0.984193ZM3.57166 22.9043H4.57166V21.9043H3.57166V22.9043ZM3.57166 23.607V24.607H4.57166V23.607H3.57166ZM1.90829 23.607V22.607H0.908289V23.607H1.90829ZM0.908289 23.6439V24.3836H2.90829V23.6439H0.908289ZM1.90829 25.3836H3.34988V23.3836H1.90829V25.3836ZM2.34988 24.3836V25.0862H4.34988V24.3836H2.34988ZM3.34988 24.0862H1.90829V26.0862H3.34988V24.0862ZM0.908289 25.0862V26.1957H2.90829V25.0862H0.908289ZM1.90829 25.1957H0.984193V27.1957H1.90829V25.1957ZM1.98419 26.1957V22.9043H-0.0158067V26.1957H1.98419ZM0.984193 23.9043H3.57166V21.9043H0.984193V23.9043ZM2.57166 22.9043V23.607H4.57166V22.9043H2.57166ZM3.57166 22.607H1.90829V24.607H3.57166V22.607ZM0.908289 23.607V23.6439H2.90829V23.607H0.908289Z" fill="#1F1F23" mask="url(#path-26-inside-1)"/>
<mask id="path-28-inside-2" fill="white">
<path d="M7.0093 25.5655H5.60467L5.34592 26.1942H4.38486L5.82645 22.9028H6.75055L8.19214 26.1942H7.23108L7.0093 25.5655ZM6.75055 24.8629L6.34395 23.8274L5.93734 24.8629H6.75055Z"/>
</mask>
<path d="M7.0093 25.5655H5.60467L5.34592 26.1942H4.38486L5.82645 22.9028H6.75055L8.19214 26.1942H7.23108L7.0093 25.5655ZM6.75055 24.8629L6.34395 23.8274L5.93734 24.8629H6.75055Z" fill="#1F1F23"/>
<path d="M7.0093 25.5655L7.95234 25.2328L7.71693 24.5655H7.0093V25.5655ZM5.60467 25.5655V24.5655H4.93485L4.67993 25.1849L5.60467 25.5655ZM5.34592 26.1942V27.1942H6.01574L6.27067 26.5748L5.34592 26.1942ZM4.38486 26.1942L3.46887 25.793L2.85516 27.1942H4.38486V26.1942ZM5.82645 22.9028V21.9028H5.17273L4.91046 22.5016L5.82645 22.9028ZM6.75055 22.9028L7.66654 22.5016L7.40427 21.9028H6.75055V22.9028ZM8.19214 26.1942V27.1942H9.72184L9.10813 25.793L8.19214 26.1942ZM7.23108 26.1942L6.28804 26.5269L6.52345 27.1942H7.23108V26.1942ZM6.75055 24.8629V25.8629H8.21755L7.68136 24.4974L6.75055 24.8629ZM6.34395 23.8274L7.27476 23.4619L6.34395 21.0914L5.41313 23.4619L6.34395 23.8274ZM5.93734 24.8629L5.00653 24.4974L4.47035 25.8629H5.93734V24.8629ZM7.0093 24.5655H5.60467V26.5655H7.0093V24.5655ZM4.67993 25.1849L4.42118 25.8136L6.27067 26.5748L6.52941 25.9461L4.67993 25.1849ZM5.34592 25.1942H4.38486V27.1942H5.34592V25.1942ZM5.30086 26.5954L6.74245 23.304L4.91046 22.5016L3.46887 25.793L5.30086 26.5954ZM5.82645 23.9028H6.75055V21.9028H5.82645V23.9028ZM5.83456 23.304L7.27614 26.5954L9.10813 25.793L7.66654 22.5016L5.83456 23.304ZM8.19214 25.1942H7.23108V27.1942H8.19214V25.1942ZM8.17412 25.8615L7.95234 25.2328L6.06625 25.8982L6.28804 26.5269L8.17412 25.8615ZM7.68136 24.4974L7.27476 23.4619L5.41313 24.1929L5.81974 25.2284L7.68136 24.4974ZM5.41313 23.4619L5.00653 24.4974L6.86816 25.2284L7.27476 24.1929L5.41313 23.4619ZM5.93734 25.8629H6.75055V23.8629H5.93734V25.8629Z" fill="#1F1F23" mask="url(#path-28-inside-2)"/>
<mask id="path-30-inside-3" fill="white">
<path d="M12.406 26.1942V24.4561L11.5558 25.8614H11.1492L10.2991 24.4931V26.1942H9.44891V22.9028H10.2251L11.371 24.7889L12.4799 22.9028H13.2562V26.1942H12.406Z"/>
</mask>
<path d="M12.406 26.1942V24.4561L11.5558 25.8614H11.1492L10.2991 24.4931V26.1942H9.44891V22.9028H10.2251L11.371 24.7889L12.4799 22.9028H13.2562V26.1942H12.406Z" fill="#1F1F23"/>
<path d="M12.406 26.1942H11.406V27.1942H12.406V26.1942ZM12.406 24.4561H13.406V20.8712L11.5504 23.9384L12.406 24.4561ZM11.5558 25.8614V26.8614H12.1196L12.4115 26.379L11.5558 25.8614ZM11.1492 25.8614L10.2998 26.3891L10.5933 26.8614H11.1492V25.8614ZM10.2991 24.4931L11.1485 23.9653L9.29908 20.9887V24.4931H10.2991ZM10.2991 26.1942V27.1942H11.2991V26.1942H10.2991ZM9.44891 26.1942H8.44891V27.1942H9.44891V26.1942ZM9.44891 22.9028V21.9028H8.44891V22.9028H9.44891ZM10.2251 22.9028L11.0798 22.3836L10.7877 21.9028H10.2251V22.9028ZM11.371 24.7889L10.5164 25.3081L11.3851 26.738L12.2331 25.2957L11.371 24.7889ZM12.4799 22.9028V21.9028H11.9079L11.6179 22.396L12.4799 22.9028ZM13.2562 22.9028H14.2562V21.9028H13.2562V22.9028ZM13.2562 26.1942V27.1942H14.2562V26.1942H13.2562ZM13.406 26.1942V24.4561H11.406V26.1942H13.406ZM11.5504 23.9384L10.7002 25.3438L12.4115 26.379L13.2616 24.9737L11.5504 23.9384ZM11.5558 24.8614H11.1492V26.8614H11.5558V24.8614ZM11.9986 25.3336L11.1485 23.9653L9.44968 25.0208L10.2998 26.3891L11.9986 25.3336ZM9.29908 24.4931V26.1942H11.2991V24.4931H9.29908ZM10.2991 25.1942H9.44891V27.1942H10.2991V25.1942ZM10.4489 26.1942V22.9028H8.44891V26.1942H10.4489ZM9.44891 23.9028H10.2251V21.9028H9.44891V23.9028ZM9.37051 23.4221L10.5164 25.3081L12.2257 24.2697L11.0798 22.3836L9.37051 23.4221ZM12.2331 25.2957L13.342 23.4097L11.6179 22.396L10.509 24.2821L12.2331 25.2957ZM12.4799 23.9028H13.2562V21.9028H12.4799V23.9028ZM12.2562 22.9028V26.1942H14.2562V22.9028H12.2562ZM13.2562 25.1942H12.406V27.1942H13.2562V25.1942Z" fill="#1F1F23" mask="url(#path-30-inside-3)"/>
<mask id="path-32-inside-4" fill="white">
<path d="M14.8456 22.9028H15.7697V26.1942H14.8456V22.9028Z"/>
</mask>
<path d="M14.8456 22.9028H15.7697V26.1942H14.8456V22.9028Z" fill="#1F1F23"/>
<path d="M14.8456 22.9028V21.9028H13.8456V22.9028H14.8456ZM15.7697 22.9028H16.7697V21.9028H15.7697V22.9028ZM15.7697 26.1942V27.1942H16.7697V26.1942H15.7697ZM14.8456 26.1942H13.8456V27.1942H14.8456V26.1942ZM14.8456 23.9028H15.7697V21.9028H14.8456V23.9028ZM14.7697 22.9028V26.1942H16.7697V22.9028H14.7697ZM15.7697 25.1942H14.8456V27.1942H15.7697V25.1942ZM15.8456 26.1942V22.9028H13.8456V26.1942H15.8456Z" fill="#1F1F23" mask="url(#path-32-inside-4)"/>
<mask id="path-34-inside-5" fill="white">
<path d="M17.3961 22.9028H18.3202V25.4546H19.8727V26.1942H17.3592V22.9028H17.3961Z"/>
</mask>
<path d="M17.3961 22.9028H18.3202V25.4546H19.8727V26.1942H17.3592V22.9028H17.3961Z" fill="#1F1F23"/>
<path d="M18.3202 22.9028H19.3202V21.9028H18.3202V22.9028ZM18.3202 25.4546H17.3202V26.4546H18.3202V25.4546ZM19.8727 25.4546H20.8727V24.4546H19.8727V25.4546ZM19.8727 26.1942V27.1942H20.8727V26.1942H19.8727ZM17.3592 26.1942H16.3592V27.1942H17.3592V26.1942ZM17.3592 22.9028V21.9028H16.3592V22.9028H17.3592ZM17.3961 23.9028H18.3202V21.9028H17.3961V23.9028ZM17.3202 22.9028V25.4546H19.3202V22.9028H17.3202ZM18.3202 26.4546H19.8727V24.4546H18.3202V26.4546ZM18.8727 25.4546V26.1942H20.8727V25.4546H18.8727ZM19.8727 25.1942H17.3592V27.1942H19.8727V25.1942ZM18.3592 26.1942V22.9028H16.3592V26.1942H18.3592ZM17.3592 23.9028H17.3961V21.9028H17.3592V23.9028Z" fill="#1F1F23" mask="url(#path-34-inside-5)"/>
<mask id="path-36-inside-6" fill="white">
<path d="M22.608 25.0108V26.1942H21.6839V25.0108L20.4272 22.9028H21.4252L22.2014 24.1972L22.9777 22.9028H23.8648L22.608 25.0108Z"/>
</mask>
<path d="M22.608 25.0108V26.1942H21.6839V25.0108L20.4272 22.9028H21.4252L22.2014 24.1972L22.9777 22.9028H23.8648L22.608 25.0108Z" fill="#1F1F23"/>
<path d="M22.608 25.0108L21.7491 24.4987L21.608 24.7353V25.0108H22.608ZM22.608 26.1942V27.1942H23.608V26.1942H22.608ZM21.6839 26.1942H20.6839V27.1942H21.6839V26.1942ZM21.6839 25.0108H22.6839V24.7353L22.5429 24.4987L21.6839 25.0108ZM20.4272 22.9028V21.9028H18.6667L19.5682 23.4149L20.4272 22.9028ZM21.4252 22.9028L22.2828 22.3885L21.9915 21.9028H21.4252V22.9028ZM22.2014 24.1972L21.3438 24.7115L22.2014 26.1415L23.059 24.7115L22.2014 24.1972ZM22.9777 22.9028V21.9028H22.4113L22.1201 22.3885L22.9777 22.9028ZM23.8648 22.9028L24.7237 23.4149L25.6252 21.9028H23.8648V22.9028ZM21.608 25.0108V26.1942H23.608V25.0108H21.608ZM22.608 25.1942H21.6839V27.1942H22.608V25.1942ZM22.6839 26.1942V25.0108H20.6839V26.1942H22.6839ZM22.5429 24.4987L21.2861 22.3907L19.5682 23.4149L20.825 25.5229L22.5429 24.4987ZM20.4272 23.9028H21.4252V21.9028H20.4272V23.9028ZM20.5676 23.4171L21.3438 24.7115L23.059 23.6829L22.2828 22.3885L20.5676 23.4171ZM23.059 24.7115L23.8353 23.4171L22.1201 22.3885L21.3438 23.6829L23.059 24.7115ZM22.9777 23.9028H23.8648V21.9028H22.9777V23.9028ZM23.0059 22.3907L21.7491 24.4987L23.467 25.5229L24.7237 23.4149L23.0059 22.3907Z" fill="#1F1F23" mask="url(#path-36-inside-6)"/>
<mask id="path-38-inside-7" fill="white">
<path d="M27.3394 22.9028H28.8919C29.2615 22.9028 29.5572 22.9768 29.8529 23.0877C30.1487 23.2357 30.3335 23.4206 30.5183 23.6425C30.6661 23.9013 30.7401 24.1972 30.7401 24.53C30.7401 24.8629 30.6661 25.1587 30.5183 25.4176C30.3704 25.6765 30.1487 25.8614 29.8529 25.9723C29.5572 26.1203 29.2615 26.1572 28.8919 26.1572H27.3394V22.9028ZM28.8549 25.4546C29.1506 25.4546 29.3724 25.3806 29.5203 25.2327C29.7051 25.0848 29.779 24.8629 29.779 24.567C29.779 24.2712 29.7051 24.0493 29.5203 23.9013C29.3354 23.7534 29.1137 23.6795 28.8549 23.6795H28.2635V25.4546H28.8549Z"/>
</mask>
<path d="M27.3394 22.9028H28.8919C29.2615 22.9028 29.5572 22.9768 29.8529 23.0877C30.1487 23.2357 30.3335 23.4206 30.5183 23.6425C30.6661 23.9013 30.7401 24.1972 30.7401 24.53C30.7401 24.8629 30.6661 25.1587 30.5183 25.4176C30.3704 25.6765 30.1487 25.8614 29.8529 25.9723C29.5572 26.1203 29.2615 26.1572 28.8919 26.1572H27.3394V22.9028ZM28.8549 25.4546C29.1506 25.4546 29.3724 25.3806 29.5203 25.2327C29.7051 25.0848 29.779 24.8629 29.779 24.567C29.779 24.2712 29.7051 24.0493 29.5203 23.9013C29.3354 23.7534 29.1137 23.6795 28.8549 23.6795H28.2635V25.4546H28.8549Z" fill="#1F1F23"/>
<path d="M27.3394 22.9028V21.9028H26.3394V22.9028H27.3394ZM29.8529 23.0877L30.3003 22.1934L30.2534 22.1699L30.2042 22.1515L29.8529 23.0877ZM30.5183 23.6425L31.3866 23.1465L31.343 23.0701L31.2867 23.0025L30.5183 23.6425ZM29.8529 25.9723L29.5017 25.036L29.4525 25.0545L29.4056 25.078L29.8529 25.9723ZM27.3394 26.1572H26.3394V27.1572H27.3394V26.1572ZM29.5203 25.2327L28.8954 24.452L28.8521 24.4866L28.813 24.5258L29.5203 25.2327ZM28.2635 23.6795V22.6795H27.2635V23.6795H28.2635ZM28.2635 25.4546H27.2635V26.4546H28.2635V25.4546ZM27.3394 23.9028H28.8919V21.9028H27.3394V23.9028ZM28.8919 23.9028C29.1116 23.9028 29.2863 23.9432 29.5017 24.024L30.2042 22.1515C29.8282 22.0104 29.4115 21.9028 28.8919 21.9028V23.9028ZM29.4056 23.9821C29.5281 24.0434 29.609 24.1133 29.7499 24.2825L31.2867 23.0025C31.058 22.7279 30.7692 22.428 30.3003 22.1934L29.4056 23.9821ZM29.6499 24.1384C29.7018 24.2292 29.7401 24.3505 29.7401 24.53H31.7401C31.7401 24.0439 31.6305 23.5735 31.3866 23.1465L29.6499 24.1384ZM29.7401 24.53C29.7401 24.7096 29.7018 24.8308 29.6499 24.9216L31.3866 25.9136C31.6305 25.4866 31.7401 25.0161 31.7401 24.53H29.7401ZM29.6499 24.9216C29.625 24.9653 29.593 25.0018 29.5017 25.036L30.2042 26.9086C30.7043 26.721 31.1159 26.3877 31.3866 25.9136L29.6499 24.9216ZM29.4056 25.078C29.3103 25.1256 29.194 25.1572 28.8919 25.1572V27.1572C29.3291 27.1572 29.8042 27.1149 30.3003 26.8667L29.4056 25.078ZM28.8919 25.1572H27.3394V27.1572H28.8919V25.1572ZM28.3394 26.1572V22.9028H26.3394V26.1572H28.3394ZM28.8549 26.4546C29.3049 26.4546 29.826 26.3413 30.2275 25.9396L28.813 24.5258C28.8356 24.5031 28.8591 24.4854 28.8808 24.4724C28.9022 24.4595 28.9187 24.4531 28.9267 24.4505C28.9407 24.4458 28.9224 24.4546 28.8549 24.4546V26.4546ZM30.1451 26.0134C30.6605 25.6009 30.779 25.0224 30.779 24.567H28.779C28.779 24.6371 28.7695 24.6392 28.7826 24.6043C28.7898 24.5849 28.8028 24.5577 28.8241 24.5278C28.8457 24.4975 28.8706 24.4718 28.8954 24.452L30.1451 26.0134ZM30.779 24.567C30.779 24.1116 30.6605 23.5331 30.1451 23.1206L28.8954 24.6821C28.8706 24.6622 28.8457 24.6365 28.8241 24.6062C28.8028 24.5763 28.7898 24.5491 28.7826 24.5297C28.7695 24.4948 28.779 24.4969 28.779 24.567H30.779ZM30.1451 23.1206C29.7662 22.8173 29.3183 22.6795 28.8549 22.6795V24.6795C28.8719 24.6795 28.8833 24.6807 28.8899 24.6817C28.8933 24.6822 28.8956 24.6827 28.8969 24.683C28.8983 24.6833 28.8989 24.6836 28.899 24.6836C28.899 24.6836 28.8986 24.6834 28.8979 24.6831C28.8972 24.6828 28.8964 24.6825 28.8957 24.6821C28.894 24.6812 28.8939 24.6808 28.8954 24.6821L30.1451 23.1206ZM28.8549 22.6795H28.2635V24.6795H28.8549V22.6795ZM27.2635 23.6795V25.4546H29.2635V23.6795H27.2635ZM28.2635 26.4546H28.8549V24.4546H28.2635V26.4546Z" fill="#1F1F23" mask="url(#path-38-inside-7)"/>
<mask id="path-40-inside-8" fill="white">
<path d="M34.8061 25.4916V26.1942H32.1817V22.9028H34.7691V23.6055H33.1058V24.1602H34.5843V24.8629H33.1058V25.4546H34.8061V25.4916Z"/>
</mask>
<path d="M34.8061 25.4916V26.1942H32.1817V22.9028H34.7691V23.6055H33.1058V24.1602H34.5843V24.8629H33.1058V25.4546H34.8061V25.4916Z" fill="#1F1F23"/>
<path d="M34.8061 26.1942V27.1942H35.8061V26.1942H34.8061ZM32.1817 26.1942H31.1817V27.1942H32.1817V26.1942ZM32.1817 22.9028V21.9028H31.1817V22.9028H32.1817ZM34.7691 22.9028H35.7691V21.9028H34.7691V22.9028ZM34.7691 23.6055V24.6055H35.7691V23.6055H34.7691ZM33.1058 23.6055V22.6055H32.1058V23.6055H33.1058ZM33.1058 24.1602H32.1058V25.1602H33.1058V24.1602ZM34.5843 24.1602H35.5843V23.1602H34.5843V24.1602ZM34.5843 24.8629V25.8629H35.5843V24.8629H34.5843ZM33.1058 24.8629V23.8629H32.1058V24.8629H33.1058ZM33.1058 25.4546H32.1058V26.4546H33.1058V25.4546ZM34.8061 25.4546H35.8061V24.4546H34.8061V25.4546ZM33.8061 25.4916V26.1942H35.8061V25.4916H33.8061ZM34.8061 25.1942H32.1817V27.1942H34.8061V25.1942ZM33.1817 26.1942V22.9028H31.1817V26.1942H33.1817ZM32.1817 23.9028H34.7691V21.9028H32.1817V23.9028ZM33.7691 22.9028V23.6055H35.7691V22.9028H33.7691ZM34.7691 22.6055H33.1058V24.6055H34.7691V22.6055ZM32.1058 23.6055V24.1602H34.1058V23.6055H32.1058ZM33.1058 25.1602H34.5843V23.1602H33.1058V25.1602ZM33.5843 24.1602V24.8629H35.5843V24.1602H33.5843ZM34.5843 23.8629H33.1058V25.8629H34.5843V23.8629ZM32.1058 24.8629V25.4546H34.1058V24.8629H32.1058ZM33.1058 26.4546H34.8061V24.4546H33.1058V26.4546ZM33.8061 25.4546V25.4916H35.8061V25.4546H33.8061Z" fill="#1F1F23" mask="url(#path-40-inside-8)"/>
<mask id="path-42-inside-9" fill="white">
<path d="M39.3896 22.9028V26.1942H38.6134L37.1718 24.4561V26.1942H36.2477V22.9028H37.0239L38.4655 24.641V22.9028H39.3896Z"/>
</mask>
<path d="M39.3896 22.9028V26.1942H38.6134L37.1718 24.4561V26.1942H36.2477V22.9028H37.0239L38.4655 24.641V22.9028H39.3896Z" fill="#1F1F23"/>
<path d="M39.3896 22.9028H40.3896V21.9028H39.3896V22.9028ZM39.3896 26.1942V27.1942H40.3896V26.1942H39.3896ZM38.6134 26.1942L37.8437 26.8326L38.1436 27.1942H38.6134V26.1942ZM37.1718 24.4561L37.9415 23.8177L36.1718 21.6839V24.4561H37.1718ZM37.1718 26.1942V27.1942H38.1718V26.1942H37.1718ZM36.2477 26.1942H35.2477V27.1942H36.2477V26.1942ZM36.2477 22.9028V21.9028H35.2477V22.9028H36.2477ZM37.0239 22.9028L37.7936 22.2644L37.4937 21.9028H37.0239V22.9028ZM38.4655 24.641L37.6958 25.2794L39.4655 27.4131V24.641H38.4655ZM38.4655 22.9028V21.9028H37.4655V22.9028H38.4655ZM38.3896 22.9028V26.1942H40.3896V22.9028H38.3896ZM39.3896 25.1942H38.6134V27.1942H39.3896V25.1942ZM39.3831 25.5558L37.9415 23.8177L36.4021 25.0945L37.8437 26.8326L39.3831 25.5558ZM36.1718 24.4561V26.1942H38.1718V24.4561H36.1718ZM37.1718 25.1942H36.2477V27.1942H37.1718V25.1942ZM37.2477 26.1942V22.9028H35.2477V26.1942H37.2477ZM36.2477 23.9028H37.0239V21.9028H36.2477V23.9028ZM36.2542 23.5412L37.6958 25.2794L39.2352 24.0026L37.7936 22.2644L36.2542 23.5412ZM39.4655 24.641V22.9028H37.4655V24.641H39.4655ZM38.4655 23.9028H39.3896V21.9028H38.4655V23.9028Z" fill="#1F1F23" mask="url(#path-42-inside-9)"/>
<mask id="path-44-inside-10" fill="white">
<path d="M41.6814 23.6425H40.6833V22.9028H43.6405V23.6425H42.6424V26.1942H41.6814V23.6425Z"/>
</mask>
<path d="M41.6814 23.6425H40.6833V22.9028H43.6405V23.6425H42.6424V26.1942H41.6814V23.6425Z" fill="#1F1F23"/>
<path d="M41.6814 23.6425H42.6814V22.6425H41.6814V23.6425ZM40.6833 23.6425H39.6833V24.6425H40.6833V23.6425ZM40.6833 22.9028V21.9028H39.6833V22.9028H40.6833ZM43.6405 22.9028H44.6405V21.9028H43.6405V22.9028ZM43.6405 23.6425V24.6425H44.6405V23.6425H43.6405ZM42.6424 23.6425V22.6425H41.6424V23.6425H42.6424ZM42.6424 26.1942V27.1942H43.6424V26.1942H42.6424ZM41.6814 26.1942H40.6814V27.1942H41.6814V26.1942ZM41.6814 22.6425H40.6833V24.6425H41.6814V22.6425ZM41.6833 23.6425V22.9028H39.6833V23.6425H41.6833ZM40.6833 23.9028H43.6405V21.9028H40.6833V23.9028ZM42.6405 22.9028V23.6425H44.6405V22.9028H42.6405ZM43.6405 22.6425H42.6424V24.6425H43.6405V22.6425ZM41.6424 23.6425V26.1942H43.6424V23.6425H41.6424ZM42.6424 25.1942H41.6814V27.1942H42.6424V25.1942ZM42.6814 26.1942V23.6425H40.6814V26.1942H42.6814Z" fill="#1F1F23" mask="url(#path-44-inside-10)"/>
<mask id="path-46-inside-11" fill="white">
<path d="M44.8972 22.9028H45.8213V26.1942H44.8972V22.9028Z"/>
</mask>
<path d="M44.8972 22.9028H45.8213V26.1942H44.8972V22.9028Z" fill="#1F1F23"/>
<path d="M44.8972 22.9028V21.9028H43.8972V22.9028H44.8972ZM45.8213 22.9028H46.8213V21.9028H45.8213V22.9028ZM45.8213 26.1942V27.1942H46.8213V26.1942H45.8213ZM44.8972 26.1942H43.8972V27.1942H44.8972V26.1942ZM44.8972 23.9028H45.8213V21.9028H44.8972V23.9028ZM44.8213 22.9028V26.1942H46.8213V22.9028H44.8213ZM45.8213 25.1942H44.8972V27.1942H45.8213V25.1942ZM45.8972 26.1942V22.9028H43.8972V26.1942H45.8972Z" fill="#1F1F23" mask="url(#path-46-inside-11)"/>
<mask id="path-48-inside-12" fill="white">
<path d="M47.8174 26.1572C47.5586 26.0832 47.3738 26.0093 47.189 25.8983L47.4847 25.1957C47.6325 25.3066 47.8174 25.3806 48.0022 25.4176C48.187 25.4915 48.3718 25.4915 48.5566 25.4915C48.9263 25.4915 49.0741 25.4176 49.0741 25.2327C49.0741 25.1217 49.0372 25.0847 48.9263 25.0108C48.8154 24.9738 48.6675 24.8998 48.4457 24.8628C48.187 24.8259 48.0022 24.7519 47.8174 24.6779C47.6695 24.604 47.5217 24.53 47.3738 24.3821C47.2629 24.2342 47.189 24.0492 47.189 23.8274C47.189 23.6424 47.2259 23.4575 47.3368 23.2726C47.4477 23.1247 47.5956 22.9768 47.8174 22.9028C48.0391 22.7919 48.2979 22.7549 48.6306 22.7549C48.8524 22.7549 49.0741 22.7919 49.259 22.8288C49.4807 22.8658 49.6656 22.9398 49.8134 23.0507L49.5177 23.7534C49.222 23.5685 48.8893 23.4945 48.5936 23.4945C48.4088 23.4945 48.2609 23.5315 48.187 23.5685C48.1131 23.6055 48.0761 23.6794 48.0761 23.7904C48.0761 23.8643 48.1131 23.9383 48.224 23.9753C48.3349 24.0123 48.4827 24.0492 48.7045 24.1232C48.9632 24.1602 49.1481 24.2342 49.3329 24.3081C49.4807 24.3821 49.6286 24.456 49.7764 24.604C49.9243 24.7519 49.9613 24.8998 49.9613 25.1587C49.9613 25.3436 49.9243 25.5285 49.8134 25.6764C49.7025 25.8244 49.5547 25.9723 49.3329 26.0463C49.1111 26.1572 48.8524 26.1942 48.5197 26.1942C48.3349 26.2682 48.0761 26.2312 47.8174 26.1572Z"/>
</mask>
<path d="M47.8174 26.1572C47.5586 26.0832 47.3738 26.0093 47.189 25.8983L47.4847 25.1957C47.6325 25.3066 47.8174 25.3806 48.0022 25.4176C48.187 25.4915 48.3718 25.4915 48.5566 25.4915C48.9263 25.4915 49.0741 25.4176 49.0741 25.2327C49.0741 25.1217 49.0372 25.0847 48.9263 25.0108C48.8154 24.9738 48.6675 24.8998 48.4457 24.8628C48.187 24.8259 48.0022 24.7519 47.8174 24.6779C47.6695 24.604 47.5217 24.53 47.3738 24.3821C47.2629 24.2342 47.189 24.0492 47.189 23.8274C47.189 23.6424 47.2259 23.4575 47.3368 23.2726C47.4477 23.1247 47.5956 22.9768 47.8174 22.9028C48.0391 22.7919 48.2979 22.7549 48.6306 22.7549C48.8524 22.7549 49.0741 22.7919 49.259 22.8288C49.4807 22.8658 49.6656 22.9398 49.8134 23.0507L49.5177 23.7534C49.222 23.5685 48.8893 23.4945 48.5936 23.4945C48.4088 23.4945 48.2609 23.5315 48.187 23.5685C48.1131 23.6055 48.0761 23.6794 48.0761 23.7904C48.0761 23.8643 48.1131 23.9383 48.224 23.9753C48.3349 24.0123 48.4827 24.0492 48.7045 24.1232C48.9632 24.1602 49.1481 24.2342 49.3329 24.3081C49.4807 24.3821 49.6286 24.456 49.7764 24.604C49.9243 24.7519 49.9613 24.8998 49.9613 25.1587C49.9613 25.3436 49.9243 25.5285 49.8134 25.6764C49.7025 25.8244 49.5547 25.9723 49.3329 26.0463C49.1111 26.1572 48.8524 26.1942 48.5197 26.1942C48.3349 26.2682 48.0761 26.2312 47.8174 26.1572Z" fill="#1F1F23"/>
<path d="M47.189 25.8983L46.2673 25.5104L45.931 26.3095L46.6743 26.7557L47.189 25.8983ZM47.4847 25.1957L48.0849 24.3958L47.06 23.6268L46.563 24.8078L47.4847 25.1957ZM48.0022 25.4176L48.3737 24.4892L48.2885 24.455L48.1984 24.437L48.0022 25.4176ZM48.9263 25.0108L49.4812 24.1788L49.3697 24.1045L49.2426 24.0621L48.9263 25.0108ZM48.4457 24.8628L48.6102 23.8765L48.5988 23.8746L48.5872 23.8729L48.4457 24.8628ZM47.8174 24.6779L47.37 25.5723L47.4072 25.5909L47.4458 25.6064L47.8174 24.6779ZM47.3738 24.3821L46.5737 24.9819L46.6163 25.0388L46.6665 25.089L47.3738 24.3821ZM47.3368 23.2726L46.5367 22.6728L46.5058 22.7141L46.4792 22.7583L47.3368 23.2726ZM47.8174 22.9028L48.1337 23.8514L48.2012 23.829L48.2648 23.7971L47.8174 22.9028ZM49.259 22.8288L49.0627 23.8094L49.0786 23.8126L49.0945 23.8152L49.259 22.8288ZM49.8134 23.0507L50.7351 23.4386L51.0379 22.7193L50.4136 22.2509L49.8134 23.0507ZM49.5177 23.7534L48.9875 24.6013L49.9837 25.2242L50.4394 24.1413L49.5177 23.7534ZM48.7045 24.1232L48.3881 25.0718L48.4737 25.1004L48.563 25.1131L48.7045 24.1232ZM49.3329 24.3081L49.7803 23.4138L49.7431 23.3952L49.7044 23.3797L49.3329 24.3081ZM49.3329 26.0463L49.0165 25.0976L48.9491 25.1201L48.8855 25.1519L49.3329 26.0463ZM48.5197 26.1942V25.1942H48.327L48.1481 25.2658L48.5197 26.1942ZM48.0922 25.1957C47.8882 25.1374 47.7911 25.0934 47.7037 25.041L46.6743 26.7557C46.9565 26.9251 47.229 27.0291 47.5425 27.1187L48.0922 25.1957ZM48.1107 26.2862L48.4064 25.5836L46.563 24.8078L46.2673 25.5104L48.1107 26.2862ZM46.8845 25.9955C47.1746 26.2133 47.5055 26.338 47.806 26.3981L48.1984 24.437C48.1678 24.4309 48.14 24.4222 48.1178 24.4128C48.107 24.4083 48.0988 24.4041 48.093 24.4008C48.0871 24.3975 48.0846 24.3956 48.0849 24.3958L46.8845 25.9955ZM47.6306 26.346C48.0209 26.5022 48.3964 26.4915 48.5566 26.4915V24.4915C48.5084 24.4915 48.4747 24.4915 48.443 24.4907C48.4129 24.4899 48.3929 24.4887 48.379 24.4873C48.3531 24.4847 48.3571 24.4825 48.3737 24.4892L47.6306 26.346ZM48.5566 26.4915C48.7617 26.4915 49.095 26.4791 49.4014 26.3258C49.58 26.2364 49.769 26.09 49.9042 25.8632C50.0373 25.6399 50.0741 25.4128 50.0741 25.2327H48.0741C48.0741 25.145 48.0925 24.9965 48.1863 24.839C48.2823 24.6781 48.4112 24.5849 48.5066 24.5371C48.5514 24.5147 48.5877 24.5026 48.6097 24.4964C48.6317 24.4901 48.6449 24.4882 48.6459 24.488C48.6471 24.4879 48.6406 24.4889 48.6246 24.4898C48.6088 24.4908 48.5866 24.4915 48.5566 24.4915V26.4915ZM50.0741 25.2327C50.0741 25.0581 50.043 24.7892 49.8557 24.5268C49.7114 24.3248 49.5219 24.206 49.4812 24.1788L48.3714 25.8427C48.3936 25.8575 48.3831 25.8516 48.3627 25.8349C48.3398 25.816 48.2843 25.7679 48.2279 25.6889C48.1663 25.6026 48.1229 25.5069 48.0981 25.4105C48.0757 25.3234 48.0741 25.2569 48.0741 25.2327H50.0741ZM49.2426 24.0621C49.244 24.0626 49.2415 24.0618 49.2327 24.0585C49.2236 24.0551 49.2129 24.051 49.1958 24.0444C49.165 24.0325 49.1158 24.0134 49.0606 23.9939C48.9448 23.953 48.7943 23.9072 48.6102 23.8765L48.2813 25.8492C48.319 25.8555 48.3533 25.8651 48.3946 25.8797C48.418 25.888 48.4404 25.8966 48.4754 25.9101C48.5037 25.9211 48.5561 25.9415 48.6099 25.9594L49.2426 24.0621ZM48.5872 23.8729C48.4575 23.8544 48.3696 23.8218 48.1889 23.7495L47.4458 25.6064C47.6348 25.682 47.9165 25.7974 48.3043 25.8528L48.5872 23.8729ZM48.2648 23.7836C48.1173 23.7098 48.1028 23.6969 48.0811 23.6751L46.6665 25.089C46.9405 25.3631 47.2217 25.4981 47.37 25.5723L48.2648 23.7836ZM48.1739 23.7823C48.1747 23.7833 48.1795 23.7901 48.1837 23.8022C48.1857 23.8081 48.1872 23.8138 48.1881 23.8189C48.1889 23.824 48.189 23.827 48.189 23.8274H46.189C46.189 24.286 46.3459 24.678 46.5737 24.9819L48.1739 23.7823ZM48.189 23.8274C48.189 23.802 48.1915 23.7925 48.1915 23.7924C48.1916 23.7922 48.1916 23.7921 48.1915 23.7923C48.1915 23.7924 48.1914 23.7925 48.1915 23.7925C48.1915 23.7924 48.1916 23.792 48.192 23.7912C48.1924 23.7904 48.1932 23.789 48.1944 23.7869L46.4792 22.7583C46.258 23.1272 46.189 23.4978 46.189 23.8274H48.189ZM48.137 23.8724C48.1489 23.8566 48.1577 23.8461 48.1638 23.8395C48.1699 23.8329 48.1724 23.8309 48.1714 23.8318C48.1702 23.8327 48.1658 23.8362 48.1583 23.8405C48.1506 23.8448 48.1421 23.8486 48.1337 23.8514L47.501 21.9542C47.0097 22.118 46.7101 22.4415 46.5367 22.6728L48.137 23.8724ZM48.2648 23.7971C48.2825 23.7883 48.3587 23.7549 48.6306 23.7549V21.7549C48.2371 21.7549 47.7958 21.7955 47.37 22.0085L48.2648 23.7971ZM48.6306 23.7549C48.7514 23.7549 48.8954 23.7759 49.0627 23.8094L49.4552 21.8483C49.2529 21.8078 48.9533 21.7549 48.6306 21.7549V23.7549ZM49.0945 23.8152C49.192 23.8315 49.2184 23.8545 49.2132 23.8506L50.4136 22.2509C50.1127 22.0251 49.7695 21.9002 49.4234 21.8425L49.0945 23.8152ZM48.8917 22.6628L48.596 23.3655L50.4394 24.1413L50.7351 23.4386L48.8917 22.6628ZM50.0479 22.9055C49.5699 22.6066 49.0473 22.4945 48.5936 22.4945V24.4945C48.7313 24.4945 48.874 24.5303 48.9875 24.6013L50.0479 22.9055ZM48.5936 22.4945C48.3041 22.4945 47.9915 22.5481 47.7396 22.6741L48.6344 24.4628C48.6144 24.4728 48.5981 24.4798 48.5866 24.4843C48.575 24.4889 48.5659 24.492 48.5599 24.4939C48.5482 24.4977 48.5431 24.4986 48.5449 24.4982C48.5491 24.4974 48.5665 24.4945 48.5936 24.4945V22.4945ZM47.7396 22.6741C47.2102 22.939 47.0761 23.4519 47.0761 23.7904H49.0761C49.0761 23.8395 49.0688 23.9578 48.9983 24.0987C48.9201 24.2552 48.791 24.3845 48.6344 24.4628L47.7396 22.6741ZM47.0761 23.7904C47.0761 23.9954 47.1289 24.2457 47.2946 24.4777C47.4619 24.7121 47.6896 24.8512 47.9076 24.9239L48.5403 23.0266C48.6474 23.0624 48.8012 23.146 48.9223 23.3157C49.0418 23.4829 49.0761 23.6593 49.0761 23.7904H47.0761ZM47.9076 24.9239C47.9851 24.9498 48.0755 24.9756 48.1404 24.9947C48.214 25.0164 48.2935 25.0403 48.3881 25.0718L49.0209 23.1746C48.8937 23.1322 48.7884 23.1006 48.7049 23.076C48.6127 23.0489 48.5737 23.0378 48.5403 23.0266L47.9076 24.9239ZM48.563 25.1131C48.6928 25.1317 48.7806 25.1642 48.9613 25.2365L49.7044 23.3797C49.5155 23.3041 49.2337 23.1887 48.846 23.1333L48.563 25.1131ZM48.8855 25.2025C49.033 25.2762 49.0474 25.2892 49.0692 25.3109L50.4837 23.897C50.2097 23.6229 49.9285 23.4879 49.7803 23.4138L48.8855 25.2025ZM49.0692 25.3109C49.0614 25.3032 49.0419 25.2821 49.0203 25.2476C48.9979 25.2119 48.9814 25.1747 48.9707 25.1407C48.9607 25.1091 48.9589 25.0901 48.9592 25.0928C48.9596 25.097 48.9613 25.1157 48.9613 25.1587H50.9613C50.9613 24.9941 50.9515 24.772 50.8779 24.5387C50.7961 24.2796 50.6569 24.0703 50.4837 23.897L49.0692 25.3109ZM48.9613 25.1587C48.9613 25.187 48.9582 25.1909 48.9618 25.1771C48.966 25.161 48.9793 25.122 49.0133 25.0766L50.6136 26.2763C50.9032 25.8899 50.9613 25.4606 50.9613 25.1587H48.9613ZM49.0133 25.0766C49.0014 25.0925 48.9925 25.1029 48.9864 25.1096C48.9804 25.1162 48.9778 25.1181 48.9788 25.1173C48.98 25.1163 48.9845 25.1129 48.9919 25.1086C48.9996 25.1043 49.0081 25.1004 49.0165 25.0976L49.6492 26.9949C50.1406 26.8311 50.4402 26.5075 50.6136 26.2763L49.0133 25.0766ZM48.8855 25.1519C48.8678 25.1608 48.7915 25.1942 48.5197 25.1942V27.1942C48.9132 27.1942 49.3544 27.1536 49.7803 26.9406L48.8855 25.1519ZM48.1481 25.2658C48.2027 25.244 48.244 25.2376 48.2625 25.2356C48.281 25.2337 48.2857 25.2351 48.273 25.2341C48.2608 25.2332 48.239 25.2305 48.2065 25.224C48.1743 25.2176 48.1363 25.2083 48.0922 25.1957L47.5425 27.1187C47.7085 27.1661 47.9084 27.212 48.1195 27.2282C48.3236 27.2439 48.6041 27.2375 48.8912 27.1226L48.1481 25.2658Z" fill="#1F1F23" mask="url(#path-48-inside-12)"/>
<mask id="path-50-inside-13" fill="white">
<path d="M52.0682 23.6425H51.0702V22.9028H54.0273V23.6425H53.0293V26.1942H52.1052V23.6425H52.0682Z"/>
</mask>
<path d="M52.0682 23.6425H51.0702V22.9028H54.0273V23.6425H53.0293V26.1942H52.1052V23.6425H52.0682Z" fill="#1F1F23"/>
<path d="M51.0702 23.6425H50.0702V24.6425H51.0702V23.6425ZM51.0702 22.9028V21.9028H50.0702V22.9028H51.0702ZM54.0273 22.9028H55.0273V21.9028H54.0273V22.9028ZM54.0273 23.6425V24.6425H55.0273V23.6425H54.0273ZM53.0293 23.6425V22.6425H52.0293V23.6425H53.0293ZM53.0293 26.1942V27.1942H54.0293V26.1942H53.0293ZM52.1052 26.1942H51.1052V27.1942H52.1052V26.1942ZM52.1052 23.6425H53.1052V22.6425H52.1052V23.6425ZM52.0682 22.6425H51.0702V24.6425H52.0682V22.6425ZM52.0702 23.6425V22.9028H50.0702V23.6425H52.0702ZM51.0702 23.9028H54.0273V21.9028H51.0702V23.9028ZM53.0273 22.9028V23.6425H55.0273V22.9028H53.0273ZM54.0273 22.6425H53.0293V24.6425H54.0273V22.6425ZM52.0293 23.6425V26.1942H54.0293V23.6425H52.0293ZM53.0293 25.1942H52.1052V27.1942H53.0293V25.1942ZM53.1052 26.1942V23.6425H51.1052V26.1942H53.1052ZM52.1052 22.6425H52.0682V24.6425H52.1052V22.6425Z" fill="#1F1F23" mask="url(#path-50-inside-13)"/>
<mask id="path-52-inside-14" fill="white">
<path d="M61.6433 24.8628V26.0463H60.7192V24.8628L59.4624 22.7549H60.4604L61.2367 24.0492L62.0129 22.7549H62.9L61.6433 24.8628Z"/>
</mask>
<path d="M61.6433 24.8628V26.0463H60.7192V24.8628L59.4624 22.7549H60.4604L61.2367 24.0492L62.0129 22.7549H62.9L61.6433 24.8628Z" fill="#1F1F23"/>
<path d="M61.6433 24.8628L60.7843 24.3508L60.6433 24.5874V24.8628H61.6433ZM61.6433 26.0463V27.0463H62.6433V26.0463H61.6433ZM60.7192 26.0463H59.7192V27.0463H60.7192V26.0463ZM60.7192 24.8628H61.7192V24.5874L61.5781 24.3508L60.7192 24.8628ZM59.4624 22.7549V21.7549H57.702L58.6035 23.267L59.4624 22.7549ZM60.4604 22.7549L61.318 22.2406L61.0268 21.7549H60.4604V22.7549ZM61.2367 24.0492L60.3791 24.5636L61.2367 25.9936L62.0943 24.5636L61.2367 24.0492ZM62.0129 22.7549V21.7549H61.4466L61.1553 22.2406L62.0129 22.7549ZM62.9 22.7549L63.759 23.267L64.6605 21.7549H62.9V22.7549ZM60.6433 24.8628V26.0463H62.6433V24.8628H60.6433ZM61.6433 25.0463H60.7192V27.0463H61.6433V25.0463ZM61.7192 26.0463V24.8628H59.7192V26.0463H61.7192ZM61.5781 24.3508L60.3213 22.2428L58.6035 23.267L59.8602 25.3749L61.5781 24.3508ZM59.4624 23.7549H60.4604V21.7549H59.4624V23.7549ZM59.6028 23.2692L60.3791 24.5636L62.0943 23.5349L61.318 22.2406L59.6028 23.2692ZM62.0943 24.5636L62.8705 23.2692L61.1553 22.2406L60.3791 23.5349L62.0943 24.5636ZM62.0129 23.7549H62.9V21.7549H62.0129V23.7549ZM62.0411 22.2428L60.7843 24.3508L62.5022 25.3749L63.759 23.267L62.0411 22.2428Z" fill="#1F1F23" mask="url(#path-52-inside-14)"/>
<mask id="path-54-inside-15" fill="white">
<path d="M57.0579 25.1587H56.5404V26.0463H55.6163V22.7549H57.1318C57.4275 22.7549 57.6863 22.7919 57.908 22.9028C58.1298 23.0138 58.2777 23.1247 58.4255 23.3096C58.5364 23.4945 58.6104 23.7164 58.6104 23.9383C58.6104 24.1602 58.5734 24.3821 58.4255 24.567C58.3146 24.7519 58.1668 24.8998 57.945 24.9738L58.6473 26.0093H57.6493L57.0579 25.1587ZM57.5014 23.6055C57.3906 23.5315 57.2427 23.4945 57.0579 23.4945H56.5404V24.456H57.0579C57.2427 24.456 57.3906 24.4191 57.5014 24.3451C57.6123 24.2711 57.6493 24.1602 57.6493 23.9753C57.6493 23.7904 57.5754 23.7164 57.5014 23.6055Z"/>
</mask>
<path d="M57.0579 25.1587H56.5404V26.0463H55.6163V22.7549H57.1318C57.4275 22.7549 57.6863 22.7919 57.908 22.9028C58.1298 23.0138 58.2777 23.1247 58.4255 23.3096C58.5364 23.4945 58.6104 23.7164 58.6104 23.9383C58.6104 24.1602 58.5734 24.3821 58.4255 24.567C58.3146 24.7519 58.1668 24.8998 57.945 24.9738L58.6473 26.0093H57.6493L57.0579 25.1587ZM57.5014 23.6055C57.3906 23.5315 57.2427 23.4945 57.0579 23.4945H56.5404V24.456H57.0579C57.2427 24.456 57.3906 24.4191 57.5014 24.3451C57.6123 24.2711 57.6493 24.1602 57.6493 23.9753C57.6493 23.7904 57.5754 23.7164 57.5014 23.6055Z" fill="#1F1F23"/>
<path d="M57.0579 25.1587L57.8789 24.5878L57.5805 24.1587H57.0579V25.1587ZM56.5404 25.1587V24.1587H55.5404V25.1587H56.5404ZM56.5404 26.0463V27.0463H57.5404V26.0463H56.5404ZM55.6163 26.0463H54.6163V27.0463H55.6163V26.0463ZM55.6163 22.7549V21.7549H54.6163V22.7549H55.6163ZM58.4255 23.3096L59.2831 22.7953L59.2486 22.7376L59.2066 22.6851L58.4255 23.3096ZM58.4255 24.567L57.6445 23.9425L57.6025 23.995L57.5679 24.0527L58.4255 24.567ZM57.945 24.9738L57.6286 24.0252L56.3765 24.4427L57.1174 25.5351L57.945 24.9738ZM58.6473 26.0093V27.0093H60.5339L59.4749 25.448L58.6473 26.0093ZM57.6493 26.0093L56.8283 26.5802L57.1266 27.0093H57.6493V26.0093ZM57.5014 23.6055L58.3336 23.051L58.2227 22.8845L58.0563 22.7735L57.5014 23.6055ZM56.5404 23.4945V22.4945H55.5404V23.4945H56.5404ZM56.5404 24.456H55.5404V25.456H56.5404V24.456ZM57.0579 24.1587H56.5404V26.1587H57.0579V24.1587ZM55.5404 25.1587V26.0463H57.5404V25.1587H55.5404ZM56.5404 25.0463H55.6163V27.0463H56.5404V25.0463ZM56.6163 26.0463V22.7549H54.6163V26.0463H56.6163ZM55.6163 23.7549H57.1318V21.7549H55.6163V23.7549ZM57.1318 23.7549C57.3565 23.7549 57.4374 23.7855 57.4607 23.7972L58.3554 22.0085C57.9351 21.7982 57.4985 21.7549 57.1318 21.7549V23.7549ZM57.4607 23.7972C57.5317 23.8327 57.5637 23.8547 57.5804 23.8677C57.5946 23.8787 57.6137 23.8955 57.6445 23.9341L59.2066 22.6851C58.953 22.368 58.6827 22.1722 58.3554 22.0085L57.4607 23.7972ZM57.5679 23.8239C57.5838 23.8503 57.5956 23.8774 57.6028 23.9011C57.6063 23.9125 57.6082 23.9217 57.6093 23.9283C57.6098 23.9316 57.6101 23.9341 57.6102 23.9358C57.6104 23.9375 57.6104 23.9383 57.6104 23.9383H59.6104C59.6104 23.502 59.4685 23.1043 59.2831 22.7953L57.5679 23.8239ZM57.6104 23.9383C57.6104 23.9665 57.6092 23.9863 57.6078 23.9995C57.6064 24.0126 57.6051 24.0168 57.6057 24.0142C57.6065 24.0113 57.6094 24.0015 57.6162 23.9874C57.6232 23.9729 57.6327 23.9573 57.6445 23.9425L59.2066 25.1915C59.5601 24.7493 59.6104 24.2576 59.6104 23.9383H57.6104ZM57.5679 24.0527C57.5523 24.0787 57.5498 24.0758 57.5651 24.0623C57.5729 24.0554 57.5833 24.0475 57.596 24.0402C57.6087 24.0328 57.6202 24.028 57.6286 24.0252L58.2614 25.9224C58.7689 25.7532 59.086 25.4101 59.2831 25.0813L57.5679 24.0527ZM57.1174 25.5351L57.8197 26.5706L59.4749 25.448L58.7726 24.4125L57.1174 25.5351ZM58.6473 25.0093H57.6493V27.0093H58.6473V25.0093ZM58.4703 25.4384L57.8789 24.5878L56.2368 25.7296L56.8283 26.5802L58.4703 25.4384ZM58.0563 22.7735C57.7289 22.5552 57.3664 22.4945 57.0579 22.4945V24.4945C57.0852 24.4945 57.0848 24.4974 57.0647 24.4924C57.0432 24.487 56.9991 24.4724 56.9466 24.4374L58.0563 22.7735ZM57.0579 22.4945H56.5404V24.4945H57.0579V22.4945ZM55.5404 23.4945V24.456H57.5404V23.4945H55.5404ZM56.5404 25.456H57.0579V23.456H56.5404V25.456ZM57.0579 25.456C57.3664 25.456 57.7289 25.3954 58.0563 25.177L56.9466 23.5132C56.9991 23.4781 57.0432 23.4636 57.0647 23.4582C57.0848 23.4532 57.0852 23.456 57.0579 23.456V25.456ZM58.0563 25.177C58.2807 25.0274 58.4517 24.8172 58.5504 24.5606C58.6371 24.335 58.6493 24.1204 58.6493 23.9753H56.6493C56.6493 24.0151 56.643 23.9484 56.6835 23.843C56.7061 23.7842 56.7411 23.7188 56.7922 23.6553C56.8431 23.592 56.898 23.5456 56.9466 23.5132L58.0563 25.177ZM58.6493 23.9753C58.6493 23.7312 58.5963 23.5131 58.4976 23.3156C58.4546 23.2295 58.4098 23.1616 58.3821 23.1209C58.3314 23.0466 58.359 23.0891 58.3336 23.051L56.6693 24.16C56.6852 24.1839 56.6999 24.2049 56.7097 24.2189C56.7213 24.2355 56.7252 24.2411 56.7294 24.2472C56.7363 24.2573 56.7239 24.2403 56.7086 24.2097C56.6912 24.175 56.6742 24.1315 56.6627 24.0822C56.6516 24.0344 56.6493 23.9968 56.6493 23.9753H58.6493Z" fill="#1F1F23" mask="url(#path-54-inside-15)"/>
<mask id="path-56-inside-16" fill="white">
<path d="M69.3488 24.7889C69.4597 24.9368 69.4967 25.0848 69.4967 25.3066C69.4967 25.6025 69.3858 25.8244 69.164 25.9723C68.9422 26.1202 68.6095 26.1942 68.1659 26.1942H66.3917V22.9028H68.0551C68.4617 22.9028 68.7943 22.9768 69.0161 23.1247C69.2379 23.2727 69.3488 23.4945 69.3488 23.7534C69.3488 23.9013 69.3118 24.0493 69.2379 24.1602C69.164 24.2712 69.0531 24.3821 68.9052 24.4561C69.09 24.567 69.2379 24.641 69.3488 24.7889ZM67.2788 23.5685V24.1972H67.9072C68.2029 24.1972 68.3877 24.0863 68.3877 23.8644C68.3877 23.6425 68.2399 23.5315 67.9072 23.5315H67.2788V23.5685ZM68.5726 25.1957C68.5726 24.9738 68.4247 24.8629 68.092 24.8629H67.3158V25.5285H68.092C68.3877 25.5285 68.5726 25.4176 68.5726 25.1957Z"/>
</mask>
<path d="M69.3488 24.7889C69.4597 24.9368 69.4967 25.0848 69.4967 25.3066C69.4967 25.6025 69.3858 25.8244 69.164 25.9723C68.9422 26.1202 68.6095 26.1942 68.1659 26.1942H66.3917V22.9028H68.0551C68.4617 22.9028 68.7943 22.9768 69.0161 23.1247C69.2379 23.2727 69.3488 23.4945 69.3488 23.7534C69.3488 23.9013 69.3118 24.0493 69.2379 24.1602C69.164 24.2712 69.0531 24.3821 68.9052 24.4561C69.09 24.567 69.2379 24.641 69.3488 24.7889ZM67.2788 23.5685V24.1972H67.9072C68.2029 24.1972 68.3877 24.0863 68.3877 23.8644C68.3877 23.6425 68.2399 23.5315 67.9072 23.5315H67.2788V23.5685ZM68.5726 25.1957C68.5726 24.9738 68.4247 24.8629 68.092 24.8629H67.3158V25.5285H68.092C68.3877 25.5285 68.5726 25.4176 68.5726 25.1957Z" fill="#1F1F23"/>
<path d="M66.3917 26.1942H65.3917V27.1942H66.3917V26.1942ZM66.3917 22.9028V21.9028H65.3917V22.9028H66.3917ZM68.9052 24.4561L68.4578 23.5617L66.8294 24.3763L68.3905 25.3135L68.9052 24.4561ZM67.2788 24.1972H66.2788V25.1972H67.2788V24.1972ZM67.2788 23.5315V22.5315H66.2788V23.5315H67.2788ZM67.3158 24.8629V23.8629H66.3158V24.8629H67.3158ZM67.3158 25.5285H66.3158V26.5285H67.3158V25.5285ZM68.092 25.5285V24.5285V25.5285ZM68.5487 25.3887C68.544 25.3824 68.5344 25.3686 68.5242 25.348C68.5137 25.3271 68.5059 25.3061 68.5008 25.2876C68.4912 25.253 68.4967 25.2476 68.4967 25.3066H70.4967C70.4967 24.9453 70.4291 24.5628 70.1489 24.1891L68.5487 25.3887ZM68.4967 25.3066C68.4967 25.329 68.4929 25.3001 68.519 25.2479C68.5315 25.2228 68.5477 25.1991 68.5661 25.1787C68.5841 25.1586 68.6001 25.1464 68.6091 25.1404L69.7189 26.8042C70.2528 26.4481 70.4967 25.8936 70.4967 25.3066H68.4967ZM68.6091 25.1404C68.6251 25.1297 68.609 25.1453 68.5311 25.1626C68.4536 25.1798 68.3353 25.1942 68.1659 25.1942V27.1942C68.6891 27.1942 69.2564 27.1127 69.7189 26.8042L68.6091 25.1404ZM68.1659 25.1942H66.3917V27.1942H68.1659V25.1942ZM67.3917 26.1942V22.9028H65.3917V26.1942H67.3917ZM66.3917 23.9028H68.0551V21.9028H66.3917V23.9028ZM68.0551 23.9028C68.2004 23.9028 68.3083 23.9163 68.382 23.9331C68.4575 23.9504 68.4757 23.9663 68.4612 23.9566L69.571 22.2928C69.1139 21.9879 68.5517 21.9028 68.0551 21.9028V23.9028ZM68.4612 23.9566C68.4406 23.9429 68.4058 23.9113 68.379 23.8599C68.3528 23.8097 68.3488 23.7688 68.3488 23.7534H70.3488C70.3488 23.1764 70.0841 22.635 69.571 22.2928L68.4612 23.9566ZM68.3488 23.7534C68.3488 23.7459 68.3495 23.7329 68.3548 23.7131C68.3598 23.6943 68.3728 23.6551 68.4057 23.6057L70.0701 24.7147C70.2778 24.403 70.3488 24.0496 70.3488 23.7534H68.3488ZM68.4057 23.6057C68.4108 23.598 68.4164 23.5915 68.4234 23.585C68.4308 23.5782 68.4421 23.5696 68.4578 23.5617L69.3526 25.3504C69.6784 25.1874 69.9145 24.9482 70.0701 24.7147L68.4057 23.6057ZM68.3905 25.3135C68.4175 25.3296 68.4432 25.3448 68.4652 25.3578C68.4883 25.3714 68.5065 25.3821 68.524 25.3925C68.5592 25.4135 68.5772 25.4251 68.588 25.4325C68.6038 25.4434 68.5778 25.4276 68.5487 25.3887L70.1489 24.1891C69.8895 23.843 69.5114 23.6536 69.4199 23.5987L68.3905 25.3135ZM66.2788 23.5685V24.1972H68.2788V23.5685H66.2788ZM67.2788 25.1972H67.9072V23.1972H67.2788V25.1972ZM67.9072 25.1972C68.1559 25.1972 68.5005 25.1545 68.8132 24.9459C69.1818 24.7001 69.3877 24.3007 69.3877 23.8644H67.3877C67.3877 23.778 67.4067 23.663 67.4698 23.5434C67.5332 23.4232 67.6208 23.3372 67.7035 23.2821C67.8499 23.1844 67.9542 23.1972 67.9072 23.1972V25.1972ZM69.3877 23.8644C69.3877 23.5046 69.2495 23.0807 68.8491 22.7979C68.5198 22.5653 68.1496 22.5315 67.9072 22.5315V24.5315C67.9974 24.5315 67.8676 24.5532 67.6954 24.4316C67.5953 24.3609 67.5071 24.2593 67.4503 24.1352C67.3967 24.0183 67.3877 23.9184 67.3877 23.8644H69.3877ZM67.9072 22.5315H67.2788V24.5315H67.9072V22.5315ZM66.2788 23.5315V23.5685H68.2788V23.5315H66.2788ZM69.5726 25.1957C69.5726 24.8359 69.4343 24.412 69.0339 24.1292C68.7046 23.8967 68.3345 23.8629 68.092 23.8629V25.8629C68.1823 25.8629 68.0524 25.8846 67.8802 25.7629C67.7801 25.6922 67.692 25.5906 67.6351 25.4666C67.5815 25.3496 67.5726 25.2497 67.5726 25.1957H69.5726ZM68.092 23.8629H67.3158V25.8629H68.092V23.8629ZM66.3158 24.8629V25.5285H68.3158V24.8629H66.3158ZM67.3158 26.5285H68.092V24.5285H67.3158V26.5285ZM68.092 26.5285C68.3407 26.5285 68.6853 26.4859 68.9981 26.2773C69.3667 26.0314 69.5726 25.632 69.5726 25.1957H67.5726C67.5726 25.1094 67.5915 24.9943 67.6546 24.8747C67.718 24.7545 67.8056 24.6685 67.8883 24.6134C68.0347 24.5157 68.1391 24.5285 68.092 24.5285L68.092 26.5285Z" fill="#1F1F23" mask="url(#path-56-inside-16)"/>
<mask id="path-58-inside-17" fill="white">
<path d="M72.6016 25.0108V26.1942H71.6775V25.0108L70.4207 22.9028H71.4188L72.195 24.1972L72.9712 22.9028H73.8584L72.6016 25.0108Z"/>
</mask>
<path d="M72.6016 25.0108V26.1942H71.6775V25.0108L70.4207 22.9028H71.4188L72.195 24.1972L72.9712 22.9028H73.8584L72.6016 25.0108Z" fill="#1F1F23"/>
<path d="M72.6016 25.0108L71.7427 24.4987L71.6016 24.7353V25.0108H72.6016ZM72.6016 26.1942V27.1942H73.6016V26.1942H72.6016ZM71.6775 26.1942H70.6775V27.1942H71.6775V26.1942ZM71.6775 25.0108H72.6775V24.7353L72.5364 24.4987L71.6775 25.0108ZM70.4207 22.9028V21.9028H68.6603L69.5618 23.4149L70.4207 22.9028ZM71.4188 22.9028L72.2764 22.3885L71.9851 21.9028H71.4188V22.9028ZM72.195 24.1972L71.3374 24.7115L72.195 26.1415L73.0526 24.7115L72.195 24.1972ZM72.9712 22.9028V21.9028H72.4049L72.1136 22.3885L72.9712 22.9028ZM73.8584 22.9028L74.7173 23.4149L75.6188 21.9028H73.8584V22.9028ZM71.6016 25.0108V26.1942H73.6016V25.0108H71.6016ZM72.6016 25.1942H71.6775V27.1942H72.6016V25.1942ZM72.6775 26.1942V25.0108H70.6775V26.1942H72.6775ZM72.5364 24.4987L71.2797 22.3907L69.5618 23.4149L70.8186 25.5229L72.5364 24.4987ZM70.4207 23.9028H71.4188V21.9028H70.4207V23.9028ZM70.5612 23.4171L71.3374 24.7115L73.0526 23.6829L72.2764 22.3885L70.5612 23.4171ZM73.0526 24.7115L73.8288 23.4171L72.1136 22.3885L71.3374 23.6829L73.0526 24.7115ZM72.9712 23.9028H73.8584V21.9028H72.9712V23.9028ZM72.9994 22.3907L71.7427 24.4987L73.4605 25.5229L74.7173 23.4149L72.9994 22.3907Z" fill="#1F1F23" mask="url(#path-58-inside-17)"/>
<mask id="path-60-inside-18" fill="white">
<path d="M77.3699 22.9028H78.9224C79.2921 22.9028 79.5878 22.9768 79.8835 23.0877C80.1792 23.2357 80.364 23.4206 80.5488 23.6425C80.6967 23.9013 80.7706 24.1972 80.7706 24.53C80.7706 24.8629 80.6967 25.1587 80.5488 25.4176C80.401 25.6765 80.1792 25.8614 79.8835 25.9723C79.5878 26.1203 79.2921 26.1572 78.9224 26.1572H77.3699V22.9028ZM78.8854 25.4546C79.1812 25.4546 79.4029 25.3806 79.5508 25.2327C79.7356 25.0848 79.8095 24.8629 79.8095 24.567C79.8095 24.2712 79.7356 24.0493 79.5508 23.9013C79.366 23.7534 79.1442 23.6795 78.8854 23.6795H78.294V25.4546H78.8854Z"/>
</mask>
<path d="M77.3699 22.9028H78.9224C79.2921 22.9028 79.5878 22.9768 79.8835 23.0877C80.1792 23.2357 80.364 23.4206 80.5488 23.6425C80.6967 23.9013 80.7706 24.1972 80.7706 24.53C80.7706 24.8629 80.6967 25.1587 80.5488 25.4176C80.401 25.6765 80.1792 25.8614 79.8835 25.9723C79.5878 26.1203 79.2921 26.1572 78.9224 26.1572H77.3699V22.9028ZM78.8854 25.4546C79.1812 25.4546 79.4029 25.3806 79.5508 25.2327C79.7356 25.0848 79.8095 24.8629 79.8095 24.567C79.8095 24.2712 79.7356 24.0493 79.5508 23.9013C79.366 23.7534 79.1442 23.6795 78.8854 23.6795H78.294V25.4546H78.8854Z" fill="#1F1F23"/>
<path d="M77.3699 22.9028V21.9028H76.3699V22.9028H77.3699ZM79.8835 23.0877L80.3309 22.1934L80.2839 22.1699L80.2347 22.1515L79.8835 23.0877ZM80.5488 23.6425L81.4172 23.1465L81.3735 23.0701L81.3172 23.0025L80.5488 23.6425ZM79.8835 25.9723L79.5322 25.036L79.483 25.0545L79.4361 25.078L79.8835 25.9723ZM77.3699 26.1572H76.3699V27.1572H77.3699V26.1572ZM79.5508 25.2327L78.9259 24.452L78.8827 24.4866L78.8435 24.5258L79.5508 25.2327ZM78.294 23.6795V22.6795H77.294V23.6795H78.294ZM78.294 25.4546H77.294V26.4546H78.294V25.4546ZM77.3699 23.9028H78.9224V21.9028H77.3699V23.9028ZM78.9224 23.9028C79.1421 23.9028 79.3168 23.9432 79.5322 24.024L80.2347 22.1515C79.8587 22.0104 79.442 21.9028 78.9224 21.9028V23.9028ZM79.4361 23.9821C79.5586 24.0434 79.6395 24.1133 79.7804 24.2825L81.3172 23.0025C81.0885 22.7279 80.7998 22.428 80.3309 22.1934L79.4361 23.9821ZM79.6805 24.1384C79.7323 24.2292 79.7706 24.3505 79.7706 24.53H81.7706C81.7706 24.0439 81.661 23.5734 81.4172 23.1465L79.6805 24.1384ZM79.7706 24.53C79.7706 24.7096 79.7323 24.8308 79.6805 24.9216L81.4172 25.9136C81.661 25.4866 81.7706 25.0161 81.7706 24.53H79.7706ZM79.6805 24.9216C79.6555 24.9653 79.6235 25.0018 79.5322 25.036L80.2347 26.9086C80.7349 26.721 81.1464 26.3877 81.4172 25.9136L79.6805 24.9216ZM79.4361 25.078C79.3408 25.1256 79.2245 25.1572 78.9224 25.1572V27.1572C79.3596 27.1572 79.8347 27.1149 80.3309 26.8667L79.4361 25.078ZM78.9224 25.1572H77.3699V27.1572H78.9224V25.1572ZM78.3699 26.1572V22.9028H76.3699V26.1572H78.3699ZM78.8854 26.4546C79.3354 26.4546 79.8566 26.3413 80.2581 25.9396L78.8435 24.5258C78.8661 24.5031 78.8896 24.4854 78.9114 24.4724C78.9328 24.4595 78.9492 24.4531 78.9572 24.4505C78.9712 24.4458 78.9529 24.4546 78.8854 24.4546V26.4546ZM80.1757 26.0134C80.691 25.6009 80.8095 25.0224 80.8095 24.567H78.8095C78.8095 24.6371 78.8 24.6392 78.8131 24.6044C78.8204 24.5849 78.8333 24.5577 78.8546 24.5278C78.8762 24.4975 78.9011 24.4718 78.9259 24.452L80.1757 26.0134ZM80.8095 24.567C80.8095 24.1116 80.691 23.5331 80.1757 23.1206L78.9259 24.6821C78.9011 24.6622 78.8762 24.6365 78.8546 24.6062C78.8333 24.5763 78.8204 24.5491 78.8131 24.5297C78.8 24.4948 78.8095 24.4969 78.8095 24.567H80.8095ZM80.1757 23.1206C79.7967 22.8173 79.3488 22.6795 78.8854 22.6795V24.6795C78.9024 24.6795 78.9138 24.6807 78.9204 24.6817C78.9238 24.6822 78.9261 24.6827 78.9275 24.683C78.9288 24.6833 78.9295 24.6836 78.9295 24.6836C78.9295 24.6836 78.9291 24.6834 78.9284 24.6831C78.9277 24.6828 78.9269 24.6825 78.9262 24.6821C78.9246 24.6812 78.9244 24.6808 78.9259 24.6821L80.1757 23.1206ZM78.8854 22.6795H78.294V24.6795H78.8854V22.6795ZM77.294 23.6795V25.4546H79.294V23.6795H77.294ZM78.294 26.4546H78.8854V24.4546H78.294V26.4546Z" fill="#1F1F23" mask="url(#path-60-inside-18)"/>
<mask id="path-62-inside-19" fill="white">
<path d="M83.6168 25.3066H83.0993V26.1942H82.1752V22.9028H83.6908C83.9865 22.9028 84.2452 22.9398 84.467 23.0508C84.6888 23.1617 84.8366 23.2727 84.9845 23.4576C85.0954 23.6425 85.1693 23.8644 85.1693 24.0862C85.1693 24.3081 85.1323 24.53 84.9845 24.7149C84.8736 24.8998 84.7257 25.0478 84.504 25.1217L85.2063 26.1942H84.2082L83.6168 25.3066ZM84.0604 23.7534C83.9495 23.6795 83.8016 23.6425 83.6168 23.6425H83.0993V24.604H83.6168C83.8016 24.604 83.9495 24.567 84.0604 24.4931C84.1713 24.4191 84.2082 24.3081 84.2082 24.1232C84.2082 23.9383 84.1343 23.8644 84.0604 23.7534Z"/>
</mask>
<path d="M83.6168 25.3066H83.0993V26.1942H82.1752V22.9028H83.6908C83.9865 22.9028 84.2452 22.9398 84.467 23.0508C84.6888 23.1617 84.8366 23.2727 84.9845 23.4576C85.0954 23.6425 85.1693 23.8644 85.1693 24.0862C85.1693 24.3081 85.1323 24.53 84.9845 24.7149C84.8736 24.8998 84.7257 25.0478 84.504 25.1217L85.2063 26.1942H84.2082L83.6168 25.3066ZM84.0604 23.7534C83.9495 23.6795 83.8016 23.6425 83.6168 23.6425H83.0993V24.604H83.6168C83.8016 24.604 83.9495 24.567 84.0604 24.4931C84.1713 24.4191 84.2082 24.3081 84.2082 24.1232C84.2082 23.9383 84.1343 23.8644 84.0604 23.7534Z" fill="#1F1F23"/>
<path d="M83.6168 25.3066L84.449 24.7521L84.1521 24.3066H83.6168V25.3066ZM83.0993 25.3066V24.3066H82.0993V25.3066H83.0993ZM83.0993 26.1942V27.1942H84.0993V26.1942H83.0993ZM82.1752 26.1942H81.1752V27.1942H82.1752V26.1942ZM82.1752 22.9028V21.9028H81.1752V22.9028H82.1752ZM84.9845 23.4576L85.8421 22.9432L85.8075 22.8856L85.7655 22.833L84.9845 23.4576ZM84.9845 24.7149L84.2035 24.0904L84.1615 24.143L84.1269 24.2006L84.9845 24.7149ZM84.504 25.1217L84.1876 24.1731L82.9563 24.5837L83.6674 25.6696L84.504 25.1217ZM85.2063 26.1942V27.1942H87.0565L86.0429 25.6464L85.2063 26.1942ZM84.2082 26.1942L83.3761 26.7487L83.6729 27.1942H84.2082V26.1942ZM84.0604 23.7534L84.8926 23.1989L84.7817 23.0325L84.6153 22.9215L84.0604 23.7534ZM83.0993 23.6425V22.6425H82.0993V23.6425H83.0993ZM83.0993 24.604H82.0993V25.604H83.0993V24.604ZM83.6168 24.3066H83.0993V26.3066H83.6168V24.3066ZM82.0993 25.3066V26.1942H84.0993V25.3066H82.0993ZM83.0993 25.1942H82.1752V27.1942H83.0993V25.1942ZM83.1752 26.1942V22.9028H81.1752V26.1942H83.1752ZM82.1752 23.9028H83.6908V21.9028H82.1752V23.9028ZM83.6908 23.9028C83.9155 23.9028 83.9964 23.9335 84.0196 23.9451L84.9144 22.1564C84.4941 21.9462 84.0575 21.9028 83.6908 21.9028V23.9028ZM84.0196 23.9451C84.0906 23.9806 84.1226 24.0026 84.1393 24.0156C84.1536 24.0267 84.1726 24.0435 84.2035 24.0821L85.7655 22.833C85.5119 22.5159 85.2417 22.3201 84.9144 22.1564L84.0196 23.9451ZM84.1269 23.9719C84.1427 23.9983 84.1546 24.0254 84.1618 24.0491C84.1652 24.0605 84.1672 24.0696 84.1682 24.0763C84.1688 24.0796 84.169 24.0821 84.1692 24.0838C84.1693 24.0854 84.1693 24.0863 84.1693 24.0862H86.1693C86.1693 23.6499 86.0274 23.2523 85.8421 22.9432L84.1269 23.9719ZM84.1693 24.0862C84.1693 24.1145 84.1681 24.1342 84.1667 24.1475C84.1653 24.1605 84.164 24.1647 84.1647 24.1622C84.1655 24.1592 84.1683 24.1494 84.1751 24.1353C84.1821 24.1208 84.1916 24.1052 84.2035 24.0904L85.7655 25.3395C86.1191 24.8973 86.1693 24.4055 86.1693 24.0862H84.1693ZM84.1269 24.2006C84.1113 24.2267 84.1087 24.2237 84.124 24.2103C84.1318 24.2034 84.1423 24.1955 84.155 24.1881C84.1677 24.1808 84.1792 24.1759 84.1876 24.1731L84.8203 26.0704C85.3279 25.9011 85.6449 25.558 85.8421 25.2293L84.1269 24.2006ZM83.6674 25.6696L84.3697 26.7421L86.0429 25.6464L85.3405 24.5739L83.6674 25.6696ZM85.2063 25.1942H84.2082V27.1942H85.2063V25.1942ZM85.0404 25.6397L84.449 24.7521L82.7847 25.8612L83.3761 26.7487L85.0404 25.6397ZM84.6153 22.9215C84.2879 22.7031 83.9254 22.6425 83.6168 22.6425V24.6425C83.6441 24.6425 83.6438 24.6453 83.6237 24.6403C83.6021 24.6349 83.5581 24.6204 83.5055 24.5853L84.6153 22.9215ZM83.6168 22.6425H83.0993V24.6425H83.6168V22.6425ZM82.0993 23.6425V24.604H84.0993V23.6425H82.0993ZM83.0993 25.604H83.6168V23.604H83.0993V25.604ZM83.6168 25.604C83.9254 25.604 84.2879 25.5433 84.6153 25.325L83.5055 23.6611C83.5581 23.6261 83.6021 23.6115 83.6237 23.6061C83.6438 23.6011 83.6441 23.604 83.6168 23.604V25.604ZM84.6153 25.325C84.8396 25.1753 85.0106 24.9652 85.1093 24.7086C85.196 24.483 85.2082 24.2683 85.2082 24.1232H83.2082C83.2082 24.1631 83.202 24.0963 83.2425 23.9909C83.2651 23.9322 83.3 23.8667 83.3511 23.8032C83.402 23.74 83.4569 23.6935 83.5055 23.6611L84.6153 25.325ZM85.2082 24.1232C85.2082 23.8792 85.1552 23.661 85.0566 23.4635C85.0135 23.3774 84.9688 23.3095 84.941 23.2688C84.8904 23.1946 84.9179 23.237 84.8926 23.1989L83.2282 24.3079C83.2441 24.3318 83.2588 24.3529 83.2686 24.3669C83.2802 24.3835 83.2841 24.389 83.2883 24.3952C83.2952 24.4053 83.2829 24.3883 83.2675 24.3576C83.2502 24.3229 83.2332 24.2794 83.2217 24.2302C83.2105 24.1823 83.2082 24.1447 83.2082 24.1232H85.2082Z" fill="#1F1F23" mask="url(#path-62-inside-19)"/>
<path d="M86.8891 25.7135C86.8891 25.7081 86.8892 25.703 86.8894 25.6984L86.8906 25.6972C86.891 25.6968 86.8913 25.6965 86.8917 25.6961C86.8956 25.6959 86.9005 25.6958 86.9066 25.6958C86.912 25.6958 86.917 25.6959 86.9215 25.6961L86.9226 25.6972C86.923 25.6976 86.9234 25.698 86.9237 25.6983C86.9239 25.7023 86.9241 25.7073 86.9241 25.7135C86.9241 25.719 86.924 25.7241 86.9238 25.7287L86.9226 25.7299C86.9222 25.7303 86.9219 25.7306 86.9215 25.7309C86.9176 25.7311 86.9127 25.7313 86.9066 25.7313C86.9005 25.7313 86.8956 25.7311 86.8917 25.7309C86.8913 25.7306 86.891 25.7303 86.8906 25.7299C86.8902 25.7295 86.8898 25.7291 86.8895 25.7287C86.8893 25.7248 86.8891 25.7198 86.8891 25.7135Z" fill="#1F1F23" stroke="#1F1F23"/>
<mask id="path-65-inside-20" fill="white">
<path d="M88.8657 22.9028H90.4182C90.7878 22.9028 91.0835 22.9768 91.3792 23.0877C91.6749 23.2357 91.8598 23.4206 92.0446 23.6425C92.1924 23.9013 92.2664 24.1972 92.2664 24.53C92.2664 24.8629 92.1924 25.1587 92.0446 25.4176C91.8967 25.6765 91.6749 25.8614 91.3792 25.9723C91.0835 26.1203 90.7878 26.1572 90.4182 26.1572H88.8657V22.9028ZM90.3812 25.4546C90.6769 25.4546 90.8987 25.3806 91.0466 25.2327C91.2314 25.0848 91.3053 24.8629 91.3053 24.567C91.3053 24.2712 91.2314 24.0493 91.0466 23.9013C90.8617 23.7534 90.64 23.6795 90.3812 23.6795H89.7898V25.4546H90.3812Z"/>
</mask>
<path d="M88.8657 22.9028H90.4182C90.7878 22.9028 91.0835 22.9768 91.3792 23.0877C91.6749 23.2357 91.8598 23.4206 92.0446 23.6425C92.1924 23.9013 92.2664 24.1972 92.2664 24.53C92.2664 24.8629 92.1924 25.1587 92.0446 25.4176C91.8967 25.6765 91.6749 25.8614 91.3792 25.9723C91.0835 26.1203 90.7878 26.1572 90.4182 26.1572H88.8657V22.9028ZM90.3812 25.4546C90.6769 25.4546 90.8987 25.3806 91.0466 25.2327C91.2314 25.0848 91.3053 24.8629 91.3053 24.567C91.3053 24.2712 91.2314 24.0493 91.0466 23.9013C90.8617 23.7534 90.64 23.6795 90.3812 23.6795H89.7898V25.4546H90.3812Z" fill="#1F1F23"/>
<path d="M88.8657 22.9028V21.9028H87.8657V22.9028H88.8657ZM91.3792 23.0877L91.8266 22.1934L91.7797 22.1699L91.7305 22.1515L91.3792 23.0877ZM92.0446 23.6425L92.9129 23.1465L92.8693 23.0701L92.813 23.0025L92.0446 23.6425ZM91.3792 25.9723L91.028 25.036L90.9788 25.0545L90.9318 25.078L91.3792 25.9723ZM88.8657 26.1572H87.8657V27.1572H88.8657V26.1572ZM91.0466 25.2327L90.4217 24.452L90.3784 24.4866L90.3393 24.5258L91.0466 25.2327ZM89.7898 23.6795V22.6795H88.7898V23.6795H89.7898ZM89.7898 25.4546H88.7898V26.4546H89.7898V25.4546ZM88.8657 23.9028H90.4182V21.9028H88.8657V23.9028ZM90.4182 23.9028C90.6379 23.9028 90.8126 23.9432 91.028 24.024L91.7305 22.1515C91.3545 22.0104 90.9378 21.9028 90.4182 21.9028V23.9028ZM90.9318 23.9821C91.0544 24.0434 91.1353 24.1133 91.2762 24.2825L92.813 23.0025C92.5842 22.7279 92.2955 22.428 91.8266 22.1934L90.9318 23.9821ZM91.1762 24.1384C91.2281 24.2292 91.2664 24.3505 91.2664 24.53H93.2664C93.2664 24.0439 93.1568 23.5734 92.9129 23.1465L91.1762 24.1384ZM91.2664 24.53C91.2664 24.7096 91.2281 24.8308 91.1762 24.9216L92.9129 25.9136C93.1568 25.4866 93.2664 25.0161 93.2664 24.53H91.2664ZM91.1762 24.9216C91.1513 24.9653 91.1193 25.0018 91.028 25.036L91.7305 26.9086C92.2306 26.721 92.6421 26.3877 92.9129 25.9136L91.1762 24.9216ZM90.9318 25.078C90.8366 25.1256 90.7203 25.1572 90.4182 25.1572V27.1572C90.8554 27.1572 91.3305 27.1149 91.8266 26.8667L90.9318 25.078ZM90.4182 25.1572H88.8657V27.1572H90.4182V25.1572ZM89.8657 26.1572V22.9028H87.8657V26.1572H89.8657ZM90.3812 26.4546C90.8312 26.4546 91.3523 26.3413 91.7538 25.9396L90.3393 24.5258C90.3619 24.5031 90.3854 24.4854 90.4071 24.4724C90.4285 24.4595 90.445 24.4531 90.453 24.4505C90.467 24.4458 90.4487 24.4546 90.3812 24.4546V26.4546ZM91.6714 26.0134C92.1868 25.6009 92.3053 25.0224 92.3053 24.567H90.3053C90.3053 24.6371 90.2958 24.6392 90.3089 24.6044C90.3161 24.5849 90.3291 24.5577 90.3504 24.5278C90.372 24.4975 90.3968 24.4718 90.4217 24.452L91.6714 26.0134ZM92.3053 24.567C92.3053 24.1116 92.1868 23.5331 91.6714 23.1206L90.4217 24.6821C90.3968 24.6622 90.372 24.6365 90.3504 24.6062C90.3291 24.5763 90.3161 24.5491 90.3089 24.5297C90.2958 24.4948 90.3053 24.4969 90.3053 24.567H92.3053ZM91.6714 23.1206C91.2925 22.8173 90.8446 22.6795 90.3812 22.6795V24.6795C90.3982 24.6795 90.4096 24.6807 90.4162 24.6817C90.4196 24.6822 90.4218 24.6827 90.4232 24.683C90.4246 24.6833 90.4252 24.6836 90.4252 24.6836C90.4253 24.6836 90.4249 24.6834 90.4242 24.6831C90.4235 24.6828 90.4227 24.6825 90.422 24.6821C90.4203 24.6812 90.4201 24.6808 90.4217 24.6821L91.6714 23.1206ZM90.3812 22.6795H89.7898V24.6795H90.3812V22.6795ZM88.7898 23.6795V25.4546H90.7898V23.6795H88.7898ZM89.7898 26.4546H90.3812V24.4546H89.7898V26.4546Z" fill="#1F1F23" mask="url(#path-65-inside-20)"/>
<mask id="path-67-inside-21" fill="white">
<path d="M95.1126 25.3066H94.5951V26.1942H93.671V22.9028H95.1865C95.4822 22.9028 95.741 22.9398 95.9627 23.0508C96.1845 23.1617 96.3324 23.2727 96.4802 23.4576C96.5911 23.6425 96.6651 23.8644 96.6651 24.0862C96.6651 24.3081 96.6281 24.53 96.4802 24.7149C96.3693 24.8998 96.2215 25.0478 95.9997 25.1217L96.702 26.1572H95.704L95.1126 25.3066ZM95.5561 23.7534C95.4453 23.6795 95.2974 23.6425 95.1126 23.6425H94.5951V24.604H95.1126C95.2974 24.604 95.4453 24.567 95.5561 24.4931C95.667 24.4191 95.704 24.3081 95.704 24.1232C95.704 23.9383 95.6301 23.8644 95.5561 23.7534Z"/>
</mask>
<path d="M95.1126 25.3066H94.5951V26.1942H93.671V22.9028H95.1865C95.4822 22.9028 95.741 22.9398 95.9627 23.0508C96.1845 23.1617 96.3324 23.2727 96.4802 23.4576C96.5911 23.6425 96.6651 23.8644 96.6651 24.0862C96.6651 24.3081 96.6281 24.53 96.4802 24.7149C96.3693 24.8998 96.2215 25.0478 95.9997 25.1217L96.702 26.1572H95.704L95.1126 25.3066ZM95.5561 23.7534C95.4453 23.6795 95.2974 23.6425 95.1126 23.6425H94.5951V24.604H95.1126C95.2974 24.604 95.4453 24.567 95.5561 24.4931C95.667 24.4191 95.704 24.3081 95.704 24.1232C95.704 23.9383 95.6301 23.8644 95.5561 23.7534Z" fill="#1F1F23"/>
<path d="M95.1126 25.3066L95.9336 24.7358L95.6352 24.3066H95.1126V25.3066ZM94.5951 25.3066V24.3066H93.5951V25.3066H94.5951ZM94.5951 26.1942V27.1942H95.5951V26.1942H94.5951ZM93.671 26.1942H92.671V27.1942H93.671V26.1942ZM93.671 22.9028V21.9028H92.671V22.9028H93.671ZM96.4802 23.4576L97.3378 22.9432L97.3033 22.8856L97.2613 22.8331L96.4802 23.4576ZM96.4802 24.7149L95.6992 24.0904L95.6572 24.143L95.6226 24.2006L96.4802 24.7149ZM95.9997 25.1217L95.6833 24.1731L94.4312 24.5907L95.1721 25.6831L95.9997 25.1217ZM96.702 26.1572V27.1572H98.5886L97.5296 25.5959L96.702 26.1572ZM95.704 26.1572L94.883 26.7281L95.1813 27.1572H95.704V26.1572ZM95.5561 23.7534L96.3883 23.1989L96.2774 23.0325L96.111 22.9215L95.5561 23.7534ZM94.5951 23.6425V22.6425H93.5951V23.6425H94.5951ZM94.5951 24.604H93.5951V25.604H94.5951V24.604ZM95.1126 24.3066H94.5951V26.3066H95.1126V24.3066ZM93.5951 25.3066V26.1942H95.5951V25.3066H93.5951ZM94.5951 25.1942H93.671V27.1942H94.5951V25.1942ZM94.671 26.1942V22.9028H92.671V26.1942H94.671ZM93.671 23.9028H95.1865V21.9028H93.671V23.9028ZM95.1865 23.9028C95.4112 23.9028 95.4921 23.9335 95.5154 23.9451L96.4101 22.1564C95.9898 21.9462 95.5532 21.9028 95.1865 21.9028V23.9028ZM95.5154 23.9451C95.5864 23.9806 95.6184 24.0026 95.6351 24.0156C95.6493 24.0267 95.6684 24.0435 95.6992 24.0821L97.2613 22.8331C97.0077 22.5159 96.7374 22.3201 96.4101 22.1564L95.5154 23.9451ZM95.6226 23.9719C95.6385 23.9983 95.6503 24.0254 95.6575 24.0491C95.661 24.0605 95.6629 24.0696 95.664 24.0763C95.6645 24.0796 95.6648 24.0821 95.6649 24.0837C95.6651 24.0854 95.6651 24.0863 95.6651 24.0862H97.6651C97.6651 23.6499 97.5232 23.2523 97.3378 22.9432L95.6226 23.9719ZM95.6651 24.0862C95.6651 24.1145 95.6639 24.1342 95.6625 24.1475C95.6611 24.1606 95.6598 24.1647 95.6604 24.1622C95.6612 24.1592 95.6641 24.1494 95.6709 24.1353C95.6779 24.1208 95.6874 24.1052 95.6992 24.0904L97.2613 25.3394C97.6148 24.8973 97.6651 24.4055 97.6651 24.0862H95.6651ZM95.6226 24.2006C95.607 24.2267 95.6045 24.2237 95.6198 24.2103C95.6276 24.2034 95.638 24.1955 95.6507 24.1881C95.6634 24.1808 95.6749 24.1759 95.6833 24.1731L96.3161 26.0704C96.8236 25.9011 97.1407 25.558 97.3378 25.2293L95.6226 24.2006ZM95.1721 25.6831L95.8744 26.7185L97.5296 25.5959L96.8273 24.5604L95.1721 25.6831ZM96.702 25.1572H95.704V27.1572H96.702V25.1572ZM96.525 25.5864L95.9336 24.7358L94.2915 25.8775L94.883 26.7281L96.525 25.5864ZM96.111 22.9215C95.7836 22.7031 95.4211 22.6425 95.1126 22.6425V24.6425C95.1398 24.6425 95.1395 24.6453 95.1194 24.6403C95.0979 24.6349 95.0538 24.6204 95.0013 24.5853L96.111 22.9215ZM95.1126 22.6425H94.5951V24.6425H95.1126V22.6425ZM93.5951 23.6425V24.604H95.5951V23.6425H93.5951ZM94.5951 25.604H95.1126V23.604H94.5951V25.604ZM95.1126 25.604C95.4211 25.604 95.7836 25.5433 96.111 25.325L95.0013 23.6611C95.0538 23.6261 95.0979 23.6115 95.1194 23.6061C95.1395 23.6011 95.1399 23.604 95.1126 23.604V25.604ZM96.111 25.325C96.3354 25.1753 96.5064 24.9652 96.6051 24.7086C96.6918 24.483 96.704 24.2683 96.704 24.1232H94.704C94.704 24.1631 94.6977 24.0963 94.7382 23.9909C94.7608 23.9322 94.7958 23.8668 94.8469 23.8032C94.8978 23.74 94.9527 23.6935 95.0013 23.6611L96.111 25.325ZM96.704 24.1232C96.704 23.8792 96.651 23.661 96.5523 23.4636C96.5093 23.3774 96.4645 23.3096 96.4368 23.2689C96.3861 23.1945 96.4137 23.237 96.3883 23.1989L94.724 24.3079C94.7399 24.3318 94.7546 24.3529 94.7644 24.3668C94.776 24.3835 94.7799 24.389 94.7841 24.3951C94.791 24.4053 94.7786 24.3883 94.7633 24.3576C94.7459 24.3229 94.7289 24.2794 94.7174 24.2302C94.7063 24.1823 94.704 24.1447 94.704 24.1232H96.704Z" fill="#1F1F23" mask="url(#path-67-inside-21)"/>
<mask id="path-69-inside-22" fill="white">
<path d="M98.809 26.0464C98.5502 25.8985 98.3284 25.7136 98.1436 25.4177C97.9958 25.1588 97.9218 24.863 97.9218 24.5301C97.9218 24.1973 97.9958 23.9014 98.1436 23.6426C98.2915 23.3837 98.5133 23.1618 98.809 23.0139C99.0677 22.866 99.4004 22.792 99.7331 22.792C100.066 22.792 100.398 22.866 100.657 23.0139C100.916 23.1618 101.138 23.3467 101.323 23.6426C101.47 23.9014 101.544 24.1973 101.544 24.5301C101.544 24.863 101.47 25.1588 101.323 25.4177C101.175 25.6766 100.953 25.8985 100.657 26.0464C100.398 26.1943 100.066 26.2683 99.7331 26.2683C99.4004 26.2683 99.0677 26.1943 98.809 26.0464ZM100.177 25.3807C100.324 25.3068 100.435 25.1958 100.509 25.0479C100.583 24.9 100.62 24.752 100.62 24.5671C100.62 24.3822 100.583 24.2343 100.509 24.0864C100.435 23.9384 100.324 23.8275 100.177 23.7535C100.029 23.6796 99.8809 23.6426 99.7331 23.6426C99.5852 23.6426 99.4004 23.6796 99.2895 23.7535C99.1416 23.8275 99.0307 23.9384 98.9568 24.0864C98.8829 24.2343 98.8459 24.3822 98.8459 24.5671C98.8459 24.752 98.8829 24.9 98.9568 25.0479C99.0307 25.1958 99.1416 25.3068 99.2895 25.3807C99.4374 25.4547 99.5852 25.4917 99.7331 25.4917C99.9179 25.4917 100.066 25.4547 100.177 25.3807Z"/>
</mask>
<path d="M98.809 26.0464C98.5502 25.8985 98.3284 25.7136 98.1436 25.4177C97.9958 25.1588 97.9218 24.863 97.9218 24.5301C97.9218 24.1973 97.9958 23.9014 98.1436 23.6426C98.2915 23.3837 98.5133 23.1618 98.809 23.0139C99.0677 22.866 99.4004 22.792 99.7331 22.792C100.066 22.792 100.398 22.866 100.657 23.0139C100.916 23.1618 101.138 23.3467 101.323 23.6426C101.47 23.9014 101.544 24.1973 101.544 24.5301C101.544 24.863 101.47 25.1588 101.323 25.4177C101.175 25.6766 100.953 25.8985 100.657 26.0464C100.398 26.1943 100.066 26.2683 99.7331 26.2683C99.4004 26.2683 99.0677 26.1943 98.809 26.0464ZM100.177 25.3807C100.324 25.3068 100.435 25.1958 100.509 25.0479C100.583 24.9 100.62 24.752 100.62 24.5671C100.62 24.3822 100.583 24.2343 100.509 24.0864C100.435 23.9384 100.324 23.8275 100.177 23.7535C100.029 23.6796 99.8809 23.6426 99.7331 23.6426C99.5852 23.6426 99.4004 23.6796 99.2895 23.7535C99.1416 23.8275 99.0307 23.9384 98.9568 24.0864C98.8829 24.2343 98.8459 24.3822 98.8459 24.5671C98.8459 24.752 98.8829 24.9 98.9568 25.0479C99.0307 25.1958 99.1416 25.3068 99.2895 25.3807C99.4374 25.4547 99.5852 25.4917 99.7331 25.4917C99.9179 25.4917 100.066 25.4547 100.177 25.3807Z" fill="#1F1F23"/>
<path d="M98.1436 25.4177L97.2753 25.9137L97.285 25.9308L97.2955 25.9475L98.1436 25.4177ZM98.809 23.0139L99.2564 23.9082L99.2812 23.8958L99.3053 23.882L98.809 23.0139ZM101.323 23.6426L102.191 23.1466L102.181 23.1295L102.171 23.1128L101.323 23.6426ZM100.657 26.0464L100.21 25.1521L100.185 25.1645L100.161 25.1783L100.657 26.0464ZM99.7331 26.2683L99.7331 25.2683L99.7331 26.2683ZM100.177 25.3807L99.7292 24.4864L99.6735 24.5142L99.6217 24.5488L100.177 25.3807ZM99.2895 23.7535L99.7369 24.6479L99.7926 24.62L99.8444 24.5854L99.2895 23.7535ZM99.3053 25.1783C99.1603 25.0954 99.0726 25.0173 98.9917 24.8879L97.2955 25.9475C97.5843 26.4098 97.9401 26.7016 98.3126 26.9145L99.3053 25.1783ZM99.012 24.9217C98.9601 24.8309 98.9218 24.7097 98.9218 24.5301H96.9218C96.9218 25.0162 97.0314 25.4867 97.2753 25.9137L99.012 24.9217ZM98.9218 24.5301C98.9218 24.3506 98.9601 24.2293 99.012 24.1385L97.2753 23.1466C97.0314 23.5736 96.9218 24.044 96.9218 24.5301H98.9218ZM99.012 24.1385C99.0664 24.0431 99.1452 23.9638 99.2564 23.9082L98.3616 22.1195C97.8813 22.3598 97.5165 22.7243 97.2753 23.1466L99.012 24.1385ZM99.3053 23.882C99.3806 23.839 99.5331 23.792 99.7331 23.792V21.792C99.2677 21.792 98.7548 21.893 98.3126 22.1457L99.3053 23.882ZM99.7331 23.792C99.933 23.792 100.086 23.839 100.161 23.882L101.153 22.1457C100.711 21.893 100.198 21.792 99.7331 21.792V23.792ZM100.161 23.882C100.306 23.9649 100.394 24.043 100.474 24.1724L102.171 23.1128C101.882 22.6505 101.526 22.3587 101.153 22.1457L100.161 23.882ZM100.454 24.1385C100.506 24.2293 100.544 24.3506 100.544 24.5301H102.544C102.544 24.0441 102.435 23.5736 102.191 23.1466L100.454 24.1385ZM100.544 24.5301C100.544 24.7097 100.506 24.8309 100.454 24.9217L102.191 25.9137C102.435 25.4867 102.544 25.0162 102.544 24.5301H100.544ZM100.454 24.9217C100.4 25.0171 100.321 25.0965 100.21 25.1521L101.105 26.9407C101.585 26.7005 101.95 26.336 102.191 25.9137L100.454 24.9217ZM100.161 25.1783C100.086 25.2213 99.933 25.2683 99.7331 25.2683V27.2683C100.198 27.2683 100.711 27.1673 101.153 26.9145L100.161 25.1783ZM99.7331 25.2683C99.5331 25.2683 99.3806 25.2213 99.3053 25.1783L98.3126 26.9145C98.7548 27.1673 99.2677 27.2683 99.7331 27.2683L99.7331 25.2683ZM100.624 26.2751C100.965 26.1043 101.233 25.8363 101.404 25.4949L99.6148 24.6008C99.6232 24.5839 99.6388 24.5597 99.6634 24.5351C99.688 24.5105 99.7122 24.4949 99.7292 24.4864L100.624 26.2751ZM101.404 25.4949C101.548 25.2073 101.62 24.9062 101.62 24.5671H99.6202C99.6202 24.5799 99.6196 24.5874 99.6192 24.5906C99.6189 24.5936 99.6187 24.5939 99.619 24.5924C99.6194 24.5909 99.6197 24.5899 99.6197 24.5901C99.6195 24.5905 99.6183 24.5938 99.6148 24.6008L101.404 25.4949ZM101.62 24.5671C101.62 24.228 101.548 23.927 101.404 23.6393L99.6148 24.5334C99.6183 24.5404 99.6195 24.5438 99.6197 24.5441C99.6197 24.5443 99.6194 24.5433 99.619 24.5418C99.6187 24.5403 99.6189 24.5406 99.6192 24.5437C99.6196 24.5469 99.6202 24.5543 99.6202 24.5671H101.62ZM101.404 23.6393C101.233 23.2979 100.965 23.03 100.624 22.8592L99.7292 24.6479C99.7122 24.6394 99.688 24.6237 99.6634 24.5991C99.6388 24.5746 99.6232 24.5503 99.6148 24.5334L101.404 23.6393ZM100.624 22.8592C100.354 22.724 100.054 22.6426 99.7331 22.6426V24.6426C99.7282 24.6426 99.7237 24.6423 99.7199 24.6418C99.716 24.6413 99.7134 24.6407 99.7122 24.6404C99.7096 24.6398 99.7151 24.6408 99.7292 24.6479L100.624 22.8592ZM99.7331 22.6426C99.4844 22.6426 99.0751 22.6945 98.7346 22.9216L99.8444 24.5854C99.7999 24.6151 99.7657 24.6297 99.7511 24.6355C99.7426 24.6388 99.7364 24.6409 99.7328 24.642C99.7291 24.6431 99.727 24.6436 99.7266 24.6437C99.7261 24.6438 99.7284 24.6433 99.7322 24.6428C99.7361 24.6424 99.7368 24.6426 99.7331 24.6426V22.6426ZM98.8421 22.8592C98.5007 23.03 98.2329 23.2979 98.0623 23.6393L99.8513 24.5334C99.8429 24.5503 99.8273 24.5746 99.8027 24.5991C99.7781 24.6237 99.7539 24.6394 99.7369 24.6479L98.8421 22.8592ZM98.0623 23.6393C97.9186 23.927 97.8459 24.228 97.8459 24.5671H99.8459C99.8459 24.5543 99.8466 24.5469 99.8469 24.5437C99.8472 24.5406 99.8474 24.5403 99.8471 24.5418C99.8467 24.5433 99.8464 24.5443 99.8465 24.5441C99.8466 24.5438 99.8478 24.5404 99.8513 24.5334L98.0623 23.6393ZM97.8459 24.5671C97.8459 24.9062 97.9186 25.2073 98.0623 25.4949L99.8513 24.6008C99.8478 24.5938 99.8466 24.5905 99.8465 24.5901C99.8464 24.5899 99.8467 24.5909 99.8471 24.5924C99.8474 24.5939 99.8472 24.5936 99.8469 24.5906C99.8466 24.5874 99.8459 24.5799 99.8459 24.5671H97.8459ZM98.0623 25.4949C98.2329 25.8363 98.5007 26.1043 98.8421 26.2751L99.7369 24.4864C99.7539 24.4949 99.7781 24.5105 99.8027 24.5351C99.8273 24.5597 99.8429 24.5839 99.8513 24.6008L98.0623 25.4949ZM98.8421 26.2751C99.1123 26.4102 99.4124 26.4917 99.7331 26.4917V24.4917C99.7379 24.4917 99.7424 24.492 99.7463 24.4925C99.7501 24.4929 99.7527 24.4935 99.7539 24.4938C99.7565 24.4945 99.751 24.4934 99.7369 24.4864L98.8421 26.2751ZM99.7331 26.4917C100.042 26.4917 100.404 26.431 100.732 26.2126L99.6217 24.5488C99.6743 24.5137 99.7183 24.4992 99.7399 24.4938C99.76 24.4888 99.7603 24.4917 99.7331 24.4917V26.4917Z" fill="#1F1F23" mask="url(#path-69-inside-22)"/>
<mask id="path-71-inside-23" fill="white">
<path d="M105.98 24.7889C106.091 24.9368 106.128 25.0848 106.128 25.3066C106.128 25.6025 106.017 25.8244 105.795 25.9723C105.573 26.1202 105.241 26.1942 104.797 26.1942H103.023V22.9028H104.686C105.093 22.9028 105.425 22.9768 105.647 23.1247C105.869 23.2727 105.98 23.4945 105.98 23.7534C105.98 23.9013 105.943 24.0493 105.869 24.1602C105.795 24.2712 105.684 24.3821 105.536 24.4561C105.721 24.567 105.869 24.641 105.98 24.7889ZM103.91 23.5685V24.1972H104.538C104.834 24.1972 105.019 24.0863 105.019 23.8644C105.019 23.6425 104.871 23.5315 104.538 23.5315H103.91V23.5685ZM105.167 25.1957C105.167 24.9738 105.019 24.8629 104.686 24.8629H103.91V25.5285H104.686C105.019 25.5285 105.167 25.4176 105.167 25.1957Z"/>
</mask>
<path d="M105.98 24.7889C106.091 24.9368 106.128 25.0848 106.128 25.3066C106.128 25.6025 106.017 25.8244 105.795 25.9723C105.573 26.1202 105.241 26.1942 104.797 26.1942H103.023V22.9028H104.686C105.093 22.9028 105.425 22.9768 105.647 23.1247C105.869 23.2727 105.98 23.4945 105.98 23.7534C105.98 23.9013 105.943 24.0493 105.869 24.1602C105.795 24.2712 105.684 24.3821 105.536 24.4561C105.721 24.567 105.869 24.641 105.98 24.7889ZM103.91 23.5685V24.1972H104.538C104.834 24.1972 105.019 24.0863 105.019 23.8644C105.019 23.6425 104.871 23.5315 104.538 23.5315H103.91V23.5685ZM105.167 25.1957C105.167 24.9738 105.019 24.8629 104.686 24.8629H103.91V25.5285H104.686C105.019 25.5285 105.167 25.4176 105.167 25.1957Z" fill="#1F1F23"/>
<path d="M103.023 26.1942H102.023V27.1942H103.023V26.1942ZM103.023 22.9028V21.9028H102.023V22.9028H103.023ZM105.536 24.4561L105.089 23.5617L103.461 24.3763L105.022 25.3135L105.536 24.4561ZM103.91 24.1972H102.91V25.1972H103.91V24.1972ZM103.91 23.5315V22.5315H102.91V23.5315H103.91ZM103.91 24.8629V23.8629H102.91V24.8629H103.91ZM103.91 25.5285H102.91V26.5285H103.91V25.5285ZM104.686 25.5285V24.5285V25.5285ZM105.18 25.3887C105.175 25.3824 105.166 25.3686 105.155 25.348C105.145 25.3271 105.137 25.3061 105.132 25.2876C105.122 25.253 105.128 25.2476 105.128 25.3066H107.128C107.128 24.9453 107.06 24.5628 106.78 24.1891L105.18 25.3887ZM105.128 25.3066C105.128 25.329 105.124 25.3001 105.15 25.2479C105.163 25.2228 105.179 25.1991 105.197 25.1787C105.215 25.1586 105.231 25.1464 105.24 25.1404L106.35 26.8042C106.884 26.4481 107.128 25.8936 107.128 25.3066H105.128ZM105.24 25.1404C105.256 25.1297 105.24 25.1453 105.162 25.1626C105.085 25.1798 104.966 25.1942 104.797 25.1942V27.1942C105.32 27.1942 105.888 27.1127 106.35 26.8042L105.24 25.1404ZM104.797 25.1942H103.023V27.1942H104.797V25.1942ZM104.023 26.1942V22.9028H102.023V26.1942H104.023ZM103.023 23.9028H104.686V21.9028H103.023V23.9028ZM104.686 23.9028C104.832 23.9028 104.939 23.9163 105.013 23.9331C105.089 23.9504 105.107 23.9663 105.092 23.9567L106.202 22.2928C105.745 21.9879 105.183 21.9028 104.686 21.9028V23.9028ZM105.092 23.9567C105.072 23.9429 105.037 23.9113 105.01 23.8599C104.984 23.8097 104.98 23.7688 104.98 23.7534H106.98C106.98 23.1764 106.715 22.635 106.202 22.2928L105.092 23.9567ZM104.98 23.7534C104.98 23.7459 104.981 23.7329 104.986 23.7131C104.991 23.6942 105.004 23.6551 105.037 23.6057L106.701 24.7147C106.909 24.403 106.98 24.0496 106.98 23.7534H104.98ZM105.037 23.6057C105.042 23.5981 105.047 23.5915 105.055 23.585C105.062 23.5782 105.073 23.5696 105.089 23.5617L105.984 25.3504C106.31 25.1874 106.546 24.9482 106.701 24.7147L105.037 23.6057ZM105.022 25.3135C105.049 25.3296 105.074 25.3448 105.096 25.3578C105.119 25.3714 105.138 25.3821 105.155 25.3925C105.19 25.4135 105.208 25.4251 105.219 25.4325C105.235 25.4434 105.209 25.4276 105.18 25.3887L106.78 24.1891C106.521 23.843 106.143 23.6536 106.051 23.5987L105.022 25.3135ZM102.91 23.5685V24.1972H104.91V23.5685H102.91ZM103.91 25.1972H104.538V23.1972H103.91V25.1972ZM104.538 25.1972C104.787 25.1972 105.132 25.1545 105.444 24.9459C105.813 24.7001 106.019 24.3007 106.019 23.8644H104.019C104.019 23.778 104.038 23.6629 104.101 23.5434C104.164 23.4231 104.252 23.3372 104.335 23.2821C104.481 23.1844 104.585 23.1972 104.538 23.1972V25.1972ZM106.019 23.8644C106.019 23.5046 105.881 23.0807 105.48 22.7979C105.151 22.5653 104.781 22.5315 104.538 22.5315V24.5315C104.629 24.5315 104.499 24.5532 104.327 24.4316C104.226 24.3609 104.138 24.2593 104.081 24.1352C104.028 24.0183 104.019 23.9184 104.019 23.8644H106.019ZM104.538 22.5315H103.91V24.5315H104.538V22.5315ZM102.91 23.5315V23.5685H104.91V23.5315H102.91ZM106.167 25.1957C106.167 24.8359 106.029 24.412 105.628 24.1292C105.299 23.8967 104.929 23.8629 104.686 23.8629V25.8629C104.776 25.8629 104.647 25.8846 104.474 25.7629C104.374 25.6922 104.286 25.5906 104.229 25.4666C104.176 25.3496 104.167 25.2497 104.167 25.1957H106.167ZM104.686 23.8629H103.91V25.8629H104.686V23.8629ZM102.91 24.8629V25.5285H104.91V24.8629H102.91ZM103.91 26.5285H104.686V24.5285H103.91V26.5285ZM104.686 26.5285C104.929 26.5285 105.299 26.4948 105.628 26.2622C106.029 25.9794 106.167 25.5555 106.167 25.1957H104.167C104.167 25.1417 104.176 25.0418 104.229 24.9248C104.286 24.8008 104.374 24.6992 104.474 24.6285C104.647 24.5069 104.776 24.5285 104.686 24.5285L104.686 26.5285Z" fill="#1F1F23" mask="url(#path-71-inside-23)"/>
<mask id="path-73-inside-24" fill="white">
<path d="M108.272 26.0464C108.013 25.8985 107.791 25.7136 107.606 25.4177C107.459 25.1588 107.385 24.863 107.385 24.5301C107.385 24.1973 107.459 23.9014 107.606 23.6426C107.754 23.3837 107.976 23.1618 108.272 23.0139C108.53 22.866 108.863 22.792 109.196 22.792C109.528 22.792 109.861 22.866 110.12 23.0139C110.379 23.1618 110.6 23.3467 110.785 23.6426C110.97 23.9384 111.007 24.1973 111.007 24.5301C111.007 24.863 110.933 25.1588 110.785 25.4177C110.637 25.6766 110.416 25.8985 110.12 26.0464C109.861 26.1943 109.528 26.2683 109.196 26.2683C108.863 26.2683 108.53 26.1943 108.272 26.0464ZM109.639 25.3807C109.787 25.3068 109.898 25.1958 109.972 25.0479C110.046 24.9 110.083 24.752 110.083 24.5671C110.083 24.3822 110.046 24.2343 109.972 24.0864C109.898 23.9384 109.787 23.8275 109.639 23.7535C109.492 23.6796 109.344 23.6426 109.196 23.6426C109.048 23.6426 108.863 23.6796 108.752 23.7535C108.641 23.8275 108.493 23.9384 108.42 24.0864C108.346 24.2343 108.309 24.3822 108.309 24.5671C108.309 24.752 108.346 24.9 108.42 25.0479C108.493 25.1958 108.604 25.3068 108.752 25.3807C108.9 25.4547 109.048 25.4917 109.196 25.4917C109.344 25.4917 109.528 25.4547 109.639 25.3807Z"/>
</mask>
<path d="M108.272 26.0464C108.013 25.8985 107.791 25.7136 107.606 25.4177C107.459 25.1588 107.385 24.863 107.385 24.5301C107.385 24.1973 107.459 23.9014 107.606 23.6426C107.754 23.3837 107.976 23.1618 108.272 23.0139C108.53 22.866 108.863 22.792 109.196 22.792C109.528 22.792 109.861 22.866 110.12 23.0139C110.379 23.1618 110.6 23.3467 110.785 23.6426C110.97 23.9384 111.007 24.1973 111.007 24.5301C111.007 24.863 110.933 25.1588 110.785 25.4177C110.637 25.6766 110.416 25.8985 110.12 26.0464C109.861 26.1943 109.528 26.2683 109.196 26.2683C108.863 26.2683 108.53 26.1943 108.272 26.0464ZM109.639 25.3807C109.787 25.3068 109.898 25.1958 109.972 25.0479C110.046 24.9 110.083 24.752 110.083 24.5671C110.083 24.3822 110.046 24.2343 109.972 24.0864C109.898 23.9384 109.787 23.8275 109.639 23.7535C109.492 23.6796 109.344 23.6426 109.196 23.6426C109.048 23.6426 108.863 23.6796 108.752 23.7535C108.641 23.8275 108.493 23.9384 108.42 24.0864C108.346 24.2343 108.309 24.3822 108.309 24.5671C108.309 24.752 108.346 24.9 108.42 25.0479C108.493 25.1958 108.604 25.3068 108.752 25.3807C108.9 25.4547 109.048 25.4917 109.196 25.4917C109.344 25.4917 109.528 25.4547 109.639 25.3807Z" fill="#1F1F23"/>
<path d="M107.606 25.4177L106.738 25.9137L106.748 25.9308L106.758 25.9475L107.606 25.4177ZM108.272 23.0139L108.719 23.9082L108.744 23.8958L108.768 23.882L108.272 23.0139ZM110.12 26.0464L109.673 25.1521L109.648 25.1645L109.624 25.1783L110.12 26.0464ZM109.196 26.2683L109.196 25.2683L109.196 26.2683ZM109.639 25.3807L109.192 24.4864L109.136 24.5142L109.084 24.5488L109.639 25.3807ZM108.768 25.1783C108.623 25.0954 108.535 25.0173 108.454 24.8879L106.758 25.9475C107.047 26.4098 107.403 26.7015 107.775 26.9145L108.768 25.1783ZM108.475 24.9217C108.423 24.8309 108.385 24.7097 108.385 24.5301H106.385C106.385 25.0162 106.494 25.4867 106.738 25.9137L108.475 24.9217ZM108.385 24.5301C108.385 24.3506 108.423 24.2293 108.475 24.1385L106.738 23.1466C106.494 23.5736 106.385 24.044 106.385 24.5301H108.385ZM108.475 24.1385C108.529 24.0431 108.608 23.9638 108.719 23.9082L107.824 22.1195C107.344 22.3598 106.979 22.7243 106.738 23.1466L108.475 24.1385ZM108.768 23.882C108.843 23.839 108.996 23.792 109.196 23.792V21.792C108.73 21.792 108.218 21.893 107.775 22.1457L108.768 23.882ZM109.196 23.792C109.396 23.792 109.548 23.839 109.624 23.882L110.616 22.1457C110.174 21.893 109.661 21.792 109.196 21.792V23.792ZM109.624 23.882C109.769 23.9649 109.856 24.043 109.937 24.1724L111.633 23.1128C111.345 22.6505 110.989 22.3587 110.616 22.1457L109.624 23.882ZM109.937 24.1724C109.972 24.2281 109.983 24.2625 109.99 24.2926C109.999 24.3324 110.007 24.3967 110.007 24.5301H112.007C112.007 24.0972 111.955 23.6281 111.633 23.1128L109.937 24.1724ZM110.007 24.5301C110.007 24.7097 109.969 24.831 109.917 24.9217L111.654 25.9137C111.897 25.4867 112.007 25.0162 112.007 24.5301H110.007ZM109.917 24.9217C109.862 25.0171 109.784 25.0965 109.673 25.1521L110.567 26.9407C111.048 26.7005 111.412 26.336 111.654 25.9137L109.917 24.9217ZM109.624 25.1783C109.548 25.2213 109.396 25.2683 109.196 25.2683V27.2683C109.661 27.2683 110.174 27.1673 110.616 26.9145L109.624 25.1783ZM109.196 25.2683C108.996 25.2683 108.843 25.2213 108.768 25.1783L107.775 26.9145C108.218 27.1673 108.73 27.2683 109.196 27.2683L109.196 25.2683ZM110.087 26.2751C110.428 26.1043 110.696 25.8363 110.867 25.4949L109.078 24.6008C109.086 24.5839 109.102 24.5597 109.126 24.5351C109.151 24.5105 109.175 24.4949 109.192 24.4864L110.087 26.2751ZM110.867 25.4949C111.01 25.2073 111.083 24.9062 111.083 24.5671H109.083C109.083 24.5799 109.082 24.5874 109.082 24.5906C109.082 24.5936 109.081 24.5939 109.082 24.5925C109.082 24.5909 109.082 24.5899 109.082 24.5901C109.082 24.5905 109.081 24.5938 109.078 24.6008L110.867 25.4949ZM111.083 24.5671C111.083 24.2281 111.01 23.927 110.867 23.6393L109.078 24.5334C109.081 24.5404 109.082 24.5437 109.082 24.5441C109.082 24.5443 109.082 24.5433 109.082 24.5418C109.081 24.5403 109.082 24.5406 109.082 24.5437C109.082 24.5469 109.083 24.5543 109.083 24.5671H111.083ZM110.867 23.6393C110.696 23.2979 110.428 23.03 110.087 22.8592L109.192 24.6479C109.175 24.6394 109.151 24.6237 109.126 24.5991C109.102 24.5746 109.086 24.5503 109.078 24.5334L110.867 23.6393ZM110.087 22.8592C109.817 22.724 109.517 22.6426 109.196 22.6426V24.6426C109.191 24.6426 109.186 24.6423 109.183 24.6418C109.179 24.6413 109.176 24.6407 109.175 24.6404C109.172 24.6398 109.178 24.6408 109.192 24.6479L110.087 22.8592ZM109.196 22.6426C108.947 22.6426 108.538 22.6945 108.197 22.9216L109.307 24.5854C109.263 24.6151 109.228 24.6297 109.214 24.6355C109.205 24.6388 109.199 24.6409 109.196 24.642C109.192 24.6431 109.19 24.6436 109.189 24.6437C109.189 24.6438 109.191 24.6433 109.195 24.6428C109.199 24.6424 109.2 24.6426 109.196 24.6426V22.6426ZM108.197 22.9216C108.081 22.999 107.728 23.2341 107.525 23.6393L109.314 24.5334C109.296 24.5704 109.277 24.5953 109.267 24.6086C109.256 24.6219 109.25 24.6277 109.25 24.6269C109.251 24.6261 109.256 24.6218 109.266 24.614C109.277 24.6062 109.29 24.597 109.307 24.5854L108.197 22.9216ZM107.525 23.6393C107.381 23.927 107.309 24.2281 107.309 24.5671H109.309C109.309 24.5543 109.309 24.5469 109.31 24.5437C109.31 24.5406 109.31 24.5403 109.31 24.5418C109.309 24.5433 109.309 24.5443 109.309 24.5441C109.309 24.5437 109.311 24.5404 109.314 24.5334L107.525 23.6393ZM107.309 24.5671C107.309 24.9062 107.381 25.2073 107.525 25.4949L109.314 24.6008C109.311 24.5938 109.309 24.5905 109.309 24.5901C109.309 24.5899 109.309 24.5909 109.31 24.5925C109.31 24.5939 109.31 24.5936 109.31 24.5906C109.309 24.5874 109.309 24.5799 109.309 24.5671H107.309ZM107.525 25.4949C107.696 25.8364 107.963 26.1043 108.305 26.2751L109.2 24.4864C109.217 24.4949 109.241 24.5105 109.265 24.5351C109.29 24.5597 109.306 24.5839 109.314 24.6008L107.525 25.4949ZM108.305 26.2751C108.575 26.4102 108.875 26.4917 109.196 26.4917V24.4917C109.201 24.4917 109.205 24.492 109.209 24.4925C109.213 24.4929 109.215 24.4935 109.217 24.4938C109.219 24.4945 109.214 24.4934 109.2 24.4864L108.305 26.2751ZM109.196 26.4917C109.444 26.4917 109.854 26.4398 110.194 26.2126L109.084 24.5488C109.129 24.5191 109.163 24.5045 109.178 24.4988C109.186 24.4954 109.192 24.4934 109.196 24.4923C109.2 24.4911 109.202 24.4906 109.202 24.4905C109.203 24.4904 109.2 24.491 109.197 24.4914C109.193 24.4918 109.192 24.4917 109.196 24.4917V26.4917Z" fill="#1F1F23" mask="url(#path-73-inside-24)"/>
<mask id="path-75-inside-25" fill="white">
<path d="M113.114 23.6425H112.116V22.9028H115.073V23.6425H114.038V26.1942H113.114V23.6425Z"/>
</mask>
<path d="M113.114 23.6425H112.116V22.9028H115.073V23.6425H114.038V26.1942H113.114V23.6425Z" fill="#1F1F23"/>
<path d="M113.114 23.6425H114.114V22.6425H113.114V23.6425ZM112.116 23.6425H111.116V24.6425H112.116V23.6425ZM112.116 22.9028V21.9028H111.116V22.9028H112.116ZM115.073 22.9028H116.073V21.9028H115.073V22.9028ZM115.073 23.6425V24.6425H116.073V23.6425H115.073ZM114.038 23.6425V22.6425H113.038V23.6425H114.038ZM114.038 26.1942V27.1942H115.038V26.1942H114.038ZM113.114 26.1942H112.114V27.1942H113.114V26.1942ZM113.114 22.6425H112.116V24.6425H113.114V22.6425ZM113.116 23.6425V22.9028H111.116V23.6425H113.116ZM112.116 23.9028H115.073V21.9028H112.116V23.9028ZM114.073 22.9028V23.6425H116.073V22.9028H114.073ZM115.073 22.6425H114.038V24.6425H115.073V22.6425ZM113.038 23.6425V26.1942H115.038V23.6425H113.038ZM114.038 25.1942H113.114V27.1942H114.038V25.1942ZM114.114 26.1942V23.6425H112.114V26.1942H114.114Z" fill="#1F1F23" mask="url(#path-75-inside-25)"/>
</svg>
