<svg width="340" height="29" viewBox="0 0 340 29" fill="none" xmlns="http://www.w3.org/2000/svg">
<path d="M29.4204 15.2091H19.9926C19.4538 15.2091 19.0498 14.805 19.0498 14.2663C19.0498 13.7275 19.4538 13.3235 19.9926 13.3235H29.353C29.8918 13.3235 30.2958 13.7275 30.2958 14.2663C30.2958 14.805 29.8918 15.2091 29.4204 15.2091Z" fill="#231F20" stroke="#231F20" stroke-width="1.0671" stroke-miterlimit="10"/>
<path d="M16.96 27.5326C8.13821 27.5326 1 21.6065 1 14.2663C1 10.8319 2.54886 7.59948 5.44454 5.10784C5.84859 4.77114 6.45467 4.83848 6.79137 5.17518C7.12808 5.57923 7.06074 6.18531 6.72403 6.52202C4.29974 8.60961 2.95291 11.3706 2.95291 14.2663C2.95291 20.5291 9.28301 25.647 17.0273 25.647C21.6065 25.647 25.849 23.8961 28.4754 20.8658V19.1822C28.4754 18.6435 28.8794 18.2395 29.4181 18.2395C29.9569 18.2395 30.3609 18.6435 30.3609 19.1822V21.2025C30.3609 21.4045 30.2936 21.6065 30.1589 21.8086C27.1285 25.445 22.2126 27.5326 16.96 27.5326Z" fill="#231F20" stroke="#231F20" stroke-width="1.0671" stroke-miterlimit="10"/>
<path d="M29.4167 8.27289C29.1473 8.27289 28.878 8.13821 28.6759 7.93618C26.0496 4.77113 21.6724 2.88556 16.9585 2.88556C14.6016 2.88556 12.2446 3.35695 10.2243 4.29974C9.75296 4.50176 9.21423 4.29974 8.94486 3.82835C8.74283 3.35695 8.94486 2.81822 9.41625 2.54886C11.7732 1.53873 14.3322 1 16.9585 1C22.2111 1 27.1271 3.15493 30.0901 6.72403C30.4268 7.12808 30.3595 7.73416 29.9554 8.07086C29.8207 8.20555 29.6187 8.27289 29.4167 8.27289Z" fill="#231F20" stroke="#231F20" stroke-width="1.0671" stroke-miterlimit="10"/>
<path d="M29.4204 15.2091H19.9926C19.4538 15.2091 19.0498 14.805 19.0498 14.2663C19.0498 13.7275 19.4538 13.3235 19.9926 13.3235H29.353C29.8918 13.3235 30.2958 13.7275 30.2958 14.2663C30.2958 14.805 29.8918 15.2091 29.4204 15.2091Z" fill="#231F20" stroke="#231F20" stroke-width="1.0671" stroke-miterlimit="10"/>
<path d="M16.96 27.5326C8.13821 27.5326 1 21.6065 1 14.2663C1 10.8319 2.54886 7.59948 5.44454 5.10784C5.84859 4.77114 6.45467 4.83848 6.79137 5.17518C7.12808 5.57923 7.06074 6.18531 6.72403 6.52202C4.29974 8.60961 2.95291 11.3706 2.95291 14.2663C2.95291 20.5291 9.28301 25.647 17.0273 25.647C21.6065 25.647 25.849 23.8961 28.4754 20.8658V19.1822C28.4754 18.6435 28.8794 18.2395 29.4181 18.2395C29.9569 18.2395 30.3609 18.6435 30.3609 19.1822V21.2025C30.3609 21.4045 30.2936 21.6065 30.1589 21.8086C27.1285 25.445 22.2126 27.5326 16.96 27.5326Z" fill="#231F20" stroke="#231F20" stroke-width="1.0671" stroke-miterlimit="10"/>
<path d="M29.4167 8.27289C29.1473 8.27289 28.878 8.13821 28.6759 7.93618C26.0496 4.77113 21.6724 2.88556 16.9585 2.88556C14.6016 2.88556 12.2446 3.35695 10.2243 4.29974C9.75296 4.50176 9.21423 4.29974 8.94486 3.82835C8.74283 3.35695 8.94486 2.81822 9.41625 2.54886C11.7732 1.53873 14.3322 1 16.9585 1C22.2111 1 27.1271 3.15493 30.0901 6.72403C30.4268 7.12808 30.3595 7.73416 29.9554 8.07086C29.8207 8.20555 29.6187 8.27289 29.4167 8.27289Z" fill="#231F20" stroke="#231F20" stroke-width="1.0671" stroke-miterlimit="10"/>
<path d="M44.7062 26.1183C44.1675 26.1183 43.7635 25.7142 43.7635 25.1755V3.35684C43.7635 2.81811 44.1675 2.41406 44.7062 2.41406C45.245 2.41406 45.649 2.81811 45.649 3.35684V25.1755C45.649 25.7142 45.245 26.1183 44.7062 26.1183Z" fill="#231F20" stroke="#231F20" stroke-width="1.0671" stroke-miterlimit="10"/>
<path d="M65.0425 15.2086H50.0253C49.4866 15.2086 49.0826 14.8045 49.0826 14.2658C49.0826 13.727 49.4866 13.323 50.0253 13.323H64.9752C65.5139 13.323 65.9179 13.727 65.9179 14.2658C65.9179 14.8045 65.5812 15.2086 65.0425 15.2086Z" fill="#231F20" stroke="#231F20" stroke-width="1.0671" stroke-miterlimit="10"/>
<path d="M68.0055 4.29963H50.0253C49.4866 4.29963 49.0826 3.89558 49.0826 3.35684C49.0826 2.81811 49.4866 2.41406 50.0253 2.41406H67.9382C68.4769 2.41406 68.881 2.81811 68.881 3.35684C68.881 3.89558 68.5443 4.29963 68.0055 4.29963Z" fill="#231F20" stroke="#231F20" stroke-width="1.0671" stroke-miterlimit="10"/>
<path d="M68.0055 26.1182H50.0253C49.4866 26.1182 49.0826 25.7142 49.0826 25.1754C49.0826 24.6367 49.4866 24.2327 50.0253 24.2327H67.9382C68.4769 24.2327 68.881 24.6367 68.881 25.1754C68.881 25.7142 68.5443 26.1182 68.0055 26.1182Z" fill="#231F20" stroke="#231F20" stroke-width="1.0671" stroke-miterlimit="10"/>
<path d="M338.312 26.1182C338.043 26.1182 337.841 26.0509 337.639 25.8489L314.339 4.0302C313.935 3.69349 313.935 3.08742 314.271 2.68337C314.608 2.27932 315.214 2.27932 315.618 2.61603L337.302 22.9532V3.35678C337.302 2.81805 337.706 2.414 338.245 2.414C338.784 2.414 339.188 2.81805 339.188 3.35678V25.1755C339.188 25.5795 338.986 25.9162 338.649 26.0509C338.582 26.1182 338.447 26.1182 338.312 26.1182Z" fill="#231F20" stroke="#231F20" stroke-width="1.0671" stroke-miterlimit="10"/>
<path d="M315.014 26.1182C314.475 26.1182 314.071 25.7142 314.071 25.1755V10.8317C314.071 10.293 314.475 9.88892 315.014 9.88892C315.552 9.88892 315.957 10.293 315.957 10.8317V25.1755C315.957 25.7142 315.485 26.1182 315.014 26.1182Z" fill="#231F20" stroke="#231F20" stroke-width="1.0671" stroke-miterlimit="10"/>
<path d="M159.321 26.1183C158.782 26.1183 158.378 25.7142 158.378 25.1755V3.35684C158.378 2.81811 158.782 2.41406 159.321 2.41406C159.86 2.41406 160.264 2.81811 160.264 3.35684V25.1755C160.264 25.7142 159.792 26.1183 159.321 26.1183Z" fill="#231F20" stroke="#231F20" stroke-width="1.0671" stroke-miterlimit="10"/>
<path d="M177.165 15.209H164.707C164.168 15.209 163.764 14.8049 163.764 14.2662C163.764 13.7274 164.168 13.3234 164.707 13.3234H177.165C179.657 13.3234 181.677 11.3032 181.677 8.81151C181.677 6.31987 179.657 4.29963 177.165 4.29963H164.707C164.168 4.29963 163.764 3.89558 163.764 3.35684C163.764 2.81811 164.168 2.41406 164.707 2.41406H177.165C180.667 2.41406 183.563 5.30975 183.563 8.81151C183.563 12.3806 180.667 15.209 177.165 15.209Z" fill="#231F20" stroke="#231F20" stroke-width="1.0671" stroke-miterlimit="10"/>
<path d="M182.619 26.1179C182.35 26.1179 182.148 26.0505 181.946 25.8485L175.751 19.7204C175.347 19.3837 175.347 18.7776 175.751 18.3736C176.087 17.9695 176.693 17.9695 177.097 18.3736L183.293 24.5017C183.697 24.8384 183.697 25.4445 183.293 25.8485C183.091 26.0505 182.889 26.1179 182.619 26.1179Z" fill="#231F20" stroke="#231F20" stroke-width="1.0671" stroke-miterlimit="10"/>
<path d="M220.601 26.1181C220.264 26.1181 219.928 25.9161 219.793 25.6467L209.692 8.07059C209.422 7.59919 209.557 7.06046 210.028 6.7911C210.5 6.52173 211.038 6.65641 211.308 7.1278L221.409 24.704C221.678 25.1753 221.544 25.7141 221.072 25.9834C220.938 26.1181 220.803 26.1181 220.601 26.1181Z" fill="#231F20" stroke="#231F20" stroke-width="1.0671" stroke-miterlimit="10"/>
<path d="M194.811 26.1184C194.676 26.1184 194.474 26.051 194.339 25.9837C193.868 25.7143 193.733 25.1756 194.003 24.7042L206.932 1.94275C207.202 1.47135 207.74 1.33667 208.212 1.60604C208.683 1.8754 208.818 2.41414 208.548 2.88553L195.619 25.647C195.417 25.9837 195.08 26.1184 194.811 26.1184Z" fill="#231F20" stroke="#231F20" stroke-width="1.0671" stroke-miterlimit="10"/>
<path d="M216.964 20.0572H204.371C203.832 20.0572 203.428 19.6531 203.428 19.1144C203.428 18.5757 203.832 18.1716 204.371 18.1716H217.031C217.57 18.1716 217.974 18.5757 217.974 19.1144C217.974 19.6531 217.503 20.0572 216.964 20.0572Z" fill="#231F20" stroke="#231F20" stroke-width="1.0671" stroke-miterlimit="10"/>
<path d="M249.154 4.29963H225.853C225.315 4.29963 224.911 3.89558 224.911 3.35684C224.911 2.81811 225.315 2.41406 225.853 2.41406H249.154C249.692 2.41406 250.096 2.81811 250.096 3.35684C250.096 3.89558 249.692 4.29963 249.154 4.29963Z" fill="#231F20" stroke="#231F20" stroke-width="1.0671" stroke-miterlimit="10"/>
<path d="M237.502 26.1181C236.963 26.1181 236.559 25.7141 236.559 25.1754V8.67667C236.559 8.13794 236.963 7.73389 237.502 7.73389C238.041 7.73389 238.445 8.13794 238.445 8.67667V25.1754C238.445 25.7141 238.041 26.1181 237.502 26.1181Z" fill="#231F20" stroke="#231F20" stroke-width="1.0671" stroke-miterlimit="10"/>
<path d="M261.881 26.1183C261.342 26.1183 260.938 25.7142 260.938 25.1755V3.35684C260.938 2.81811 261.342 2.41406 261.881 2.41406C262.419 2.41406 262.824 2.81811 262.824 3.35684V25.1755C262.824 25.7142 262.419 26.1183 261.881 26.1183Z" fill="#231F20" stroke="#231F20" stroke-width="1.0671" stroke-miterlimit="10"/>
<path d="M288.55 27.0615C280.065 27.0615 273.129 21.3375 273.129 14.2666C273.129 10.9669 273.735 9.01398 276.428 6.58968C276.832 6.25297 277.438 6.25297 277.775 6.65702C278.112 7.06107 278.112 7.66714 277.708 8.00385C275.418 10.0241 275.014 11.5056 275.014 14.2666C275.014 20.26 281.075 25.176 288.55 25.176C296.025 25.176 302.085 20.3274 302.085 14.2666C302.085 8.20588 295.957 3.42463 288.55 3.42463C286.395 3.42463 284.173 3.82868 282.287 4.63677C281.816 4.8388 281.277 4.63677 281.075 4.16538C280.873 3.69399 281.075 3.15526 281.546 2.95324C283.701 2.01045 286.126 1.53906 288.55 1.53906C297.035 1.53906 303.971 7.2631 303.971 14.334C303.971 21.4048 297.035 27.0615 288.55 27.0615Z" fill="#231F20" stroke="#231F20" stroke-width="1.0671" stroke-miterlimit="10"/>
<path d="M105.986 26.1182C105.716 26.1182 105.514 26.0509 105.312 25.8489L82.0122 4.0302C81.6081 3.69349 81.6081 3.08742 81.9448 2.68337C82.2815 2.27932 82.8876 2.27932 83.2917 2.61603L104.976 22.9532V3.35678C104.976 2.81805 105.38 2.414 105.918 2.414C106.457 2.414 106.861 2.81805 106.861 3.35678V25.1755C106.861 25.5795 106.659 25.9162 106.322 26.0509C106.255 26.1182 106.12 26.1182 105.986 26.1182Z" fill="#231F20" stroke="#231F20" stroke-width="1.0671" stroke-miterlimit="10"/>
<path d="M82.6868 26.1182C82.148 26.1182 81.744 25.7141 81.744 25.1754V10.6969C81.744 10.1582 82.148 9.75415 82.6868 9.75415C83.2255 9.75415 83.6295 10.1582 83.6295 10.6969V25.1754C83.6295 25.7141 83.2255 26.1182 82.6868 26.1182Z" fill="#231F20" stroke="#231F20" stroke-width="1.0671" stroke-miterlimit="10"/>
<path d="M122.148 26.1183C121.609 26.1183 121.205 25.7142 121.205 25.1755V3.35684C121.205 2.81811 121.609 2.41406 122.148 2.41406C122.686 2.41406 123.09 2.81811 123.09 3.35684V25.1755C123.09 25.7142 122.686 26.1183 122.148 26.1183Z" fill="#231F20" stroke="#231F20" stroke-width="1.0671" stroke-miterlimit="10"/>
<path d="M142.487 15.2086H127.537C126.998 15.2086 126.594 14.8045 126.594 14.2658C126.594 13.727 126.998 13.323 127.537 13.323H142.487C143.025 13.323 143.43 13.727 143.43 14.2658C143.43 14.8045 142.958 15.2086 142.487 15.2086Z" fill="#231F20" stroke="#231F20" stroke-width="1.0671" stroke-miterlimit="10"/>
<path d="M145.45 4.29963H127.537C126.998 4.29963 126.594 3.89558 126.594 3.35684C126.594 2.81811 126.998 2.41406 127.537 2.41406H145.45C145.989 2.41406 146.393 2.81811 146.393 3.35684C146.393 3.89558 145.989 4.29963 145.45 4.29963Z" fill="#231F20" stroke="#231F20" stroke-width="1.0671" stroke-miterlimit="10"/>
<path d="M145.45 26.1182H127.537C126.998 26.1182 126.594 25.7142 126.594 25.1754C126.594 24.6367 126.998 24.2327 127.537 24.2327H145.45C145.989 24.2327 146.393 24.6367 146.393 25.1754C146.393 25.7142 145.989 26.1182 145.45 26.1182Z" fill="#231F20" stroke="#231F20" stroke-width="1.0671" stroke-miterlimit="10"/>
</svg>
