<svg width="391" height="96" viewBox="0 0 391 96" fill="none" xmlns="http://www.w3.org/2000/svg">
<path d="M29.0951 14.9832H19.6673C19.1285 14.9832 18.7245 14.5792 18.7245 14.0404C18.7245 13.5017 19.1285 13.0977 19.6673 13.0977H29.0277C29.5665 13.0977 29.9705 13.5017 29.9705 14.0404C29.9705 14.5792 29.5665 14.9832 29.0951 14.9832Z" fill="#231F20" stroke="#231F20" stroke-width="1.0671" stroke-miterlimit="10"/>
<path d="M16.6346 27.3068C7.81289 27.3068 0.674683 21.3807 0.674683 14.0405C0.674683 10.606 2.22354 7.37365 5.11923 4.88201C5.52328 4.54531 6.12935 4.61265 6.46606 4.94935C6.80277 5.3534 6.73542 5.95948 6.39872 6.29619C3.97442 8.38377 2.62759 11.1448 2.62759 14.0405C2.62759 20.3032 8.9577 25.4212 16.702 25.4212C21.2812 25.4212 25.5237 23.6703 28.15 20.6399V18.9564C28.15 18.4177 28.5541 18.0136 29.0928 18.0136C29.6316 18.0136 30.0356 18.4177 30.0356 18.9564V20.9766C30.0356 21.1787 29.9683 21.3807 29.8336 21.5827C26.8032 25.2192 21.8873 27.3068 16.6346 27.3068Z" fill="#231F20" stroke="#231F20" stroke-width="1.0671" stroke-miterlimit="10"/>
<path d="M29.0913 8.04706C28.822 8.04706 28.5526 7.91238 28.3506 7.71035C25.7243 4.5453 21.3471 2.65973 16.6332 2.65973C14.2762 2.65973 11.9192 3.13112 9.899 4.07391C9.42761 4.27593 8.88888 4.07391 8.61951 3.60252C8.41749 3.13112 8.61951 2.59239 9.0909 2.32303C11.4479 1.3129 14.0068 0.77417 16.6332 0.77417C21.8858 0.77417 26.8017 2.9291 29.7648 6.4982C30.1015 6.90225 30.0341 7.50833 29.6301 7.84503C29.4954 7.97972 29.2934 8.04706 29.0913 8.04706Z" fill="#231F20" stroke="#231F20" stroke-width="1.0671" stroke-miterlimit="10"/>
<path d="M29.0951 14.9832H19.6673C19.1285 14.9832 18.7245 14.5792 18.7245 14.0404C18.7245 13.5017 19.1285 13.0977 19.6673 13.0977H29.0277C29.5665 13.0977 29.9705 13.5017 29.9705 14.0404C29.9705 14.5792 29.5665 14.9832 29.0951 14.9832Z" fill="#231F20" stroke="#231F20" stroke-width="1.0671" stroke-miterlimit="10"/>
<path d="M16.6346 27.3068C7.81289 27.3068 0.674683 21.3807 0.674683 14.0405C0.674683 10.606 2.22354 7.37365 5.11923 4.88201C5.52328 4.54531 6.12935 4.61265 6.46606 4.94935C6.80277 5.3534 6.73542 5.95948 6.39872 6.29619C3.97442 8.38377 2.62759 11.1448 2.62759 14.0405C2.62759 20.3032 8.9577 25.4212 16.702 25.4212C21.2812 25.4212 25.5237 23.6703 28.15 20.6399V18.9564C28.15 18.4177 28.5541 18.0136 29.0928 18.0136C29.6316 18.0136 30.0356 18.4177 30.0356 18.9564V20.9766C30.0356 21.1787 29.9683 21.3807 29.8336 21.5827C26.8032 25.2192 21.8873 27.3068 16.6346 27.3068Z" fill="#231F20" stroke="#231F20" stroke-width="1.0671" stroke-miterlimit="10"/>
<path d="M29.0913 8.04706C28.822 8.04706 28.5526 7.91238 28.3506 7.71035C25.7243 4.5453 21.3471 2.65973 16.6332 2.65973C14.2762 2.65973 11.9192 3.13112 9.899 4.07391C9.42761 4.27593 8.88888 4.07391 8.61951 3.60252C8.41749 3.13112 8.61951 2.59239 9.0909 2.32303C11.4479 1.3129 14.0068 0.77417 16.6332 0.77417C21.8858 0.77417 26.8017 2.9291 29.7648 6.4982C30.1015 6.90225 30.0341 7.50833 29.6301 7.84503C29.4954 7.97972 29.2934 8.04706 29.0913 8.04706Z" fill="#231F20" stroke="#231F20" stroke-width="1.0671" stroke-miterlimit="10"/>
<path d="M44.3809 25.8925C43.8422 25.8925 43.4381 25.4884 43.4381 24.9497V3.13101C43.4381 2.59228 43.8422 2.18823 44.3809 2.18823C44.9196 2.18823 45.3237 2.59228 45.3237 3.13101V24.9497C45.3237 25.4884 44.9196 25.8925 44.3809 25.8925Z" fill="#231F20" stroke="#231F20" stroke-width="1.0671" stroke-miterlimit="10"/>
<path d="M64.7172 14.9827H49.7C49.1613 14.9827 48.7572 14.5787 48.7572 14.04C48.7572 13.5012 49.1613 13.0972 49.7 13.0972H64.6498C65.1885 13.0972 65.5926 13.5012 65.5926 14.04C65.5926 14.5787 65.2559 14.9827 64.7172 14.9827Z" fill="#231F20" stroke="#231F20" stroke-width="1.0671" stroke-miterlimit="10"/>
<path d="M67.6802 4.0738H49.7C49.1613 4.0738 48.7572 3.66975 48.7572 3.13101C48.7572 2.59228 49.1613 2.18823 49.7 2.18823H67.6128C68.1516 2.18823 68.5556 2.59228 68.5556 3.13101C68.5556 3.66975 68.2189 4.0738 67.6802 4.0738Z" fill="#231F20" stroke="#231F20" stroke-width="1.0671" stroke-miterlimit="10"/>
<path d="M67.6802 25.8924H49.7C49.1613 25.8924 48.7572 25.4884 48.7572 24.9496C48.7572 24.4109 49.1613 24.0068 49.7 24.0068H67.6128C68.1516 24.0068 68.5556 24.4109 68.5556 24.9496C68.5556 25.4884 68.2189 25.8924 67.6802 25.8924Z" fill="#231F20" stroke="#231F20" stroke-width="1.0671" stroke-miterlimit="10"/>
<path d="M337.987 25.8924C337.717 25.8924 337.515 25.8251 337.313 25.623L314.013 3.80437C313.609 3.46766 313.609 2.86159 313.946 2.45754C314.283 2.05349 314.889 2.05349 315.293 2.3902L336.977 22.7274V3.13095C336.977 2.59222 337.381 2.18817 337.92 2.18817C338.458 2.18817 338.862 2.59222 338.862 3.13095V24.9496C338.862 25.3537 338.66 25.6904 338.324 25.8251C338.256 25.8924 338.122 25.8924 337.987 25.8924Z" fill="#231F20" stroke="#231F20" stroke-width="1.0671" stroke-miterlimit="10"/>
<path d="M314.688 25.8924C314.15 25.8924 313.746 25.4884 313.746 24.9496V10.6059C313.746 10.0671 314.15 9.66309 314.688 9.66309C315.227 9.66309 315.631 10.0671 315.631 10.6059V24.9496C315.631 25.4884 315.16 25.8924 314.688 25.8924Z" fill="#231F20" stroke="#231F20" stroke-width="1.0671" stroke-miterlimit="10"/>
<path d="M158.996 25.8925C158.457 25.8925 158.053 25.4884 158.053 24.9497V3.13101C158.053 2.59228 158.457 2.18823 158.996 2.18823C159.534 2.18823 159.938 2.59228 159.938 3.13101V24.9497C159.938 25.4884 159.467 25.8925 158.996 25.8925Z" fill="#231F20" stroke="#231F20" stroke-width="1.0671" stroke-miterlimit="10"/>
<path d="M176.84 14.9831H164.382C163.843 14.9831 163.439 14.5791 163.439 14.0403C163.439 13.5016 163.843 13.0976 164.382 13.0976H176.84C179.332 13.0976 181.352 11.0773 181.352 8.58568C181.352 6.09404 179.332 4.0738 176.84 4.0738H164.382C163.843 4.0738 163.439 3.66975 163.439 3.13101C163.439 2.59228 163.843 2.18823 164.382 2.18823H176.84C180.342 2.18823 183.237 5.08392 183.237 8.58568C183.237 12.1548 180.342 14.9831 176.84 14.9831Z" fill="#231F20" stroke="#231F20" stroke-width="1.0671" stroke-miterlimit="10"/>
<path d="M182.294 25.892C182.025 25.892 181.823 25.8247 181.621 25.6227L175.425 19.4946C175.021 19.1579 175.021 18.5518 175.425 18.1478C175.762 17.7437 176.368 17.7437 176.772 18.1478L182.968 24.2758C183.372 24.6126 183.372 25.2186 182.968 25.6227C182.766 25.8247 182.564 25.892 182.294 25.892Z" fill="#231F20" stroke="#231F20" stroke-width="1.0671" stroke-miterlimit="10"/>
<path d="M220.276 25.8923C219.939 25.8923 219.602 25.6903 219.468 25.4209L209.366 7.84476C209.097 7.37336 209.232 6.83463 209.703 6.56527C210.174 6.2959 210.713 6.43058 210.983 6.90197L221.084 24.4781C221.353 24.9495 221.218 25.4882 220.747 25.7576C220.612 25.8923 220.478 25.8923 220.276 25.8923Z" fill="#231F20" stroke="#231F20" stroke-width="1.0671" stroke-miterlimit="10"/>
<path d="M194.485 25.8925C194.351 25.8925 194.149 25.8252 194.014 25.7579C193.543 25.4885 193.408 24.9498 193.677 24.4784L206.607 1.71692C206.876 1.24552 207.415 1.11084 207.886 1.38021C208.358 1.64957 208.493 2.18831 208.223 2.6597L195.294 25.4211C195.092 25.7579 194.755 25.8925 194.485 25.8925Z" fill="#231F20" stroke="#231F20" stroke-width="1.0671" stroke-miterlimit="10"/>
<path d="M216.639 19.8314H204.046C203.507 19.8314 203.103 19.4273 203.103 18.8886C203.103 18.3498 203.507 17.9458 204.046 17.9458H216.706C217.245 17.9458 217.649 18.3498 217.649 18.8886C217.649 19.4273 217.177 19.8314 216.639 19.8314Z" fill="#231F20" stroke="#231F20" stroke-width="1.0671" stroke-miterlimit="10"/>
<path d="M248.828 4.0738H225.528C224.989 4.0738 224.585 3.66975 224.585 3.13101C224.585 2.59228 224.989 2.18823 225.528 2.18823H248.828C249.367 2.18823 249.771 2.59228 249.771 3.13101C249.771 3.66975 249.367 4.0738 248.828 4.0738Z" fill="#231F20" stroke="#231F20" stroke-width="1.0671" stroke-miterlimit="10"/>
<path d="M237.177 25.8923C236.638 25.8923 236.234 25.4883 236.234 24.9495V8.45084C236.234 7.91211 236.638 7.50806 237.177 7.50806C237.715 7.50806 238.119 7.91211 238.119 8.45084V24.9495C238.119 25.4883 237.715 25.8923 237.177 25.8923Z" fill="#231F20" stroke="#231F20" stroke-width="1.0671" stroke-miterlimit="10"/>
<path d="M261.555 25.8925C261.017 25.8925 260.613 25.4884 260.613 24.9497V3.13101C260.613 2.59228 261.017 2.18823 261.555 2.18823C262.094 2.18823 262.498 2.59228 262.498 3.13101V24.9497C262.498 25.4884 262.094 25.8925 261.555 25.8925Z" fill="#231F20" stroke="#231F20" stroke-width="1.0671" stroke-miterlimit="10"/>
<path d="M288.224 26.8357C279.739 26.8357 272.803 21.1117 272.803 14.0408C272.803 10.7411 273.409 8.78815 276.103 6.36385C276.507 6.02714 277.113 6.02714 277.45 6.43119C277.787 6.83524 277.787 7.44131 277.383 7.77802C275.093 9.79827 274.689 11.2798 274.689 14.0408C274.689 20.0342 280.75 24.9501 288.224 24.9501C295.699 24.9501 301.76 20.1015 301.76 14.0408C301.76 7.98005 295.632 3.1988 288.224 3.1988C286.07 3.1988 283.847 3.60285 281.962 4.41094C281.49 4.61297 280.952 4.41094 280.75 3.93955C280.548 3.46816 280.75 2.92943 281.221 2.72741C283.376 1.78462 285.8 1.31323 288.224 1.31323C296.71 1.31323 303.646 7.03727 303.646 14.1081C303.646 21.179 296.71 26.8357 288.224 26.8357Z" fill="#231F20" stroke="#231F20" stroke-width="1.0671" stroke-miterlimit="10"/>
<path d="M105.66 25.8924C105.391 25.8924 105.189 25.8251 104.987 25.623L81.6868 3.80437C81.2828 3.46766 81.2828 2.86159 81.6195 2.45754C81.9562 2.05349 82.5623 2.05349 82.9663 2.3902L104.65 22.7274V3.13095C104.65 2.59222 105.054 2.18817 105.593 2.18817C106.132 2.18817 106.536 2.59222 106.536 3.13095V24.9496C106.536 25.3537 106.334 25.6904 105.997 25.8251C105.93 25.8924 105.795 25.8924 105.66 25.8924Z" fill="#231F20" stroke="#231F20" stroke-width="1.0671" stroke-miterlimit="10"/>
<path d="M82.3615 25.8923C81.8228 25.8923 81.4187 25.4883 81.4187 24.9495V10.4711C81.4187 9.93237 81.8228 9.52832 82.3615 9.52832C82.9002 9.52832 83.3043 9.93237 83.3043 10.4711V24.9495C83.3043 25.4883 82.9002 25.8923 82.3615 25.8923Z" fill="#231F20" stroke="#231F20" stroke-width="1.0671" stroke-miterlimit="10"/>
<path d="M121.822 25.8925C121.284 25.8925 120.88 25.4884 120.88 24.9497V3.13101C120.88 2.59228 121.284 2.18823 121.822 2.18823C122.361 2.18823 122.765 2.59228 122.765 3.13101V24.9497C122.765 25.4884 122.361 25.8925 121.822 25.8925Z" fill="#231F20" stroke="#231F20" stroke-width="1.0671" stroke-miterlimit="10"/>
<path d="M142.161 14.9827H127.212C126.673 14.9827 126.269 14.5787 126.269 14.04C126.269 13.5012 126.673 13.0972 127.212 13.0972H142.161C142.7 13.0972 143.104 13.5012 143.104 14.04C143.104 14.5787 142.633 14.9827 142.161 14.9827Z" fill="#231F20" stroke="#231F20" stroke-width="1.0671" stroke-miterlimit="10"/>
<path d="M145.124 4.0738H127.212C126.673 4.0738 126.269 3.66975 126.269 3.13101C126.269 2.59228 126.673 2.18823 127.212 2.18823H145.124C145.663 2.18823 146.067 2.59228 146.067 3.13101C146.067 3.66975 145.663 4.0738 145.124 4.0738Z" fill="#231F20" stroke="#231F20" stroke-width="1.0671" stroke-miterlimit="10"/>
<path d="M145.124 25.8924H127.212C126.673 25.8924 126.269 25.4884 126.269 24.9496C126.269 24.4109 126.673 24.0068 127.212 24.0068H145.124C145.663 24.0068 146.067 24.4109 146.067 24.9496C146.067 25.4884 145.663 25.8924 145.124 25.8924Z" fill="#231F20" stroke="#231F20" stroke-width="1.0671" stroke-miterlimit="10"/>
<path d="M338.044 43.4012H119.924C119.417 43.4012 119.036 42.9971 119.036 42.4584C119.036 41.9197 119.417 41.5156 119.924 41.5156H338.044C338.551 41.5156 338.931 41.9197 338.931 42.4584C338.931 42.9971 338.488 43.4012 338.044 43.4012Z" fill="#231F20"/>
<g clip-path="url(#clip0)">
<path d="M2.70323 40.5542V41.81H5.25806V43.0658H2.70323V45.0193H1V39.2983H5.54194V40.5542H2.70323Z" fill="#1F1F23"/>
<path d="M11.7871 43.903H9.23224L8.80644 45.0193H7.10321L9.65805 39.2983H11.3613L13.9161 45.0193H12.2129L11.7871 43.903ZM11.2193 42.6472L10.5097 40.8332L9.79998 42.6472H11.2193Z" fill="#1F1F23"/>
<path d="M21.4387 45.0193V41.9495L19.8774 44.4611H19.1677L17.6065 42.089V45.0193H16.0452V39.2983H17.4645L19.4516 42.6472L21.4387 39.2983H22.8581V45.0193H21.4387Z" fill="#1F1F23"/>
<path d="M25.6968 39.2983H27.4V45.0193H25.6968V39.2983Z" fill="#1F1F23"/>
<path d="M30.2387 39.2983H31.9419V43.7635H34.7806V45.0193H30.3806V39.2983H30.2387Z" fill="#1F1F23"/>
<path d="M39.6065 42.9262V45.0193H37.9032V42.9262L35.6323 39.2983H37.3355L38.7548 41.5309L40.1742 39.2983H41.7355L39.6065 42.9262Z" fill="#1F1F23"/>
<path d="M47.9807 39.2983H50.8194C51.529 39.2983 52.0968 39.4379 52.5226 39.7169C53.0903 39.996 53.3742 40.2751 53.6581 40.6937C53.9419 41.1123 54.0839 41.6704 54.0839 42.2286C54.0839 42.7867 53.9419 43.3449 53.6581 43.7635C53.3742 44.1821 52.9484 44.6007 52.5226 44.7402C51.9548 45.0193 51.3871 45.1588 50.8194 45.1588H47.9807V39.2983ZM50.6774 43.7635C51.2452 43.7635 51.529 43.6239 51.9548 43.3449C52.2387 43.0658 52.3807 42.6472 52.3807 42.2286C52.3807 41.81 52.2387 41.3914 51.9548 41.1123C51.671 40.6937 51.2452 40.5542 50.6774 40.5542H49.6839V43.7635H50.6774Z" fill="#1F1F23"/>
<path d="M61.3226 43.7635V45.0193H56.6387V39.2983H61.1807V40.5542H58.2V41.5309H60.7549V42.7867H58.2V43.903H61.3226V43.7635Z" fill="#1F1F23"/>
<path d="M69.5548 39.2983V45.0193H68.1355L65.5806 41.9495V45.0193H64.0193V39.2983H65.4387L67.9935 42.3681V39.2983H69.5548Z" fill="#1F1F23"/>
<path d="M73.671 40.5542H71.8258V39.2983H77.0774V40.5542H75.2323V45.0193H73.529V40.5542H73.671Z" fill="#1F1F23"/>
<path d="M79.3484 39.2983H81.0516V45.0193H79.3484V39.2983Z" fill="#1F1F23"/>
<path d="M84.6 45.0192C84.1742 44.8796 83.7483 44.7401 83.4645 44.6006L84.0322 43.3447C84.3161 43.4843 84.6 43.6238 84.8838 43.7633C85.1677 43.9029 85.5935 43.9029 85.8774 43.9029C86.4451 43.9029 86.8709 43.7633 86.8709 43.4843C86.8709 43.3447 86.729 43.2052 86.5871 43.0657C86.4451 42.9261 86.1613 42.9261 85.7354 42.7866C85.3096 42.6471 84.8838 42.6471 84.6 42.5075C84.3161 42.368 84.0322 42.2285 83.8903 41.9494C83.7484 41.6703 83.6064 41.3912 83.6064 40.9726C83.6064 40.554 83.7484 40.275 83.8903 39.9959C84.0322 39.7168 84.3161 39.4378 84.7419 39.2982C85.1677 39.2982 85.5935 39.1587 86.1613 39.1587C86.5871 39.1587 86.8709 39.1587 87.2967 39.2982C87.7225 39.4378 88.0064 39.5773 88.2903 39.7168L87.7225 40.9726C87.1548 40.554 86.729 40.4145 86.1613 40.4145C85.8774 40.4145 85.5935 40.4145 85.4516 40.554C85.3096 40.6936 85.1677 40.8331 85.1677 40.9726C85.1677 41.1122 85.3096 41.2517 85.4516 41.2517C85.5935 41.3912 85.8774 41.3912 86.3032 41.5308C86.729 41.6703 87.1548 41.6703 87.4387 41.8099C87.7225 41.9494 88.0064 42.0889 88.1484 42.368C88.4322 42.6471 88.4322 42.9261 88.4322 43.3447C88.4322 43.6238 88.2903 44.0424 88.1484 44.3215C88.0064 44.6006 87.7225 44.7401 87.2967 44.8796C86.8709 45.0192 86.4451 45.1587 85.8774 45.1587C85.4516 45.1587 85.0258 45.1587 84.6 45.0192Z" fill="#1F1F23"/>
<path d="M92.1226 40.5542H90.2774V39.2983H95.529V40.5542H93.6839V45.0193H91.9806V40.5542H92.1226Z" fill="#1F1F23"/>
<path d="M100.497 43.4844H99.6452V45.0193H97.942V39.2983H100.639C101.206 39.2983 101.632 39.4379 102.058 39.5774C102.484 39.7169 102.768 39.996 102.91 40.2751C103.052 40.5542 103.194 40.9728 103.194 41.3914C103.194 41.81 103.052 42.2286 102.91 42.5076C102.768 42.7867 102.484 43.0658 102.058 43.2053L103.335 45.0193H101.49L100.497 43.4844ZM101.206 40.8332C101.065 40.6937 100.781 40.5542 100.497 40.5542H99.6452V42.2286H100.497C100.781 42.2286 101.065 42.089 101.206 41.9495C101.348 41.81 101.49 41.5309 101.49 41.3914C101.49 41.1123 101.348 40.9728 101.206 40.8332Z" fill="#1F1F23"/>
<path d="M108.729 42.9262V45.0193H107.026V42.9262L104.755 39.2983H106.458L107.877 41.5309L109.297 39.2983H110.858L108.729 42.9262Z" fill="#1F1F23"/>
</g>
<path d="M245.664 95.9275C243.913 95.9275 243.038 94.7827 243.038 92.4931C243.038 87.1058 249.166 79.4288 253.678 75.0516C253.678 73.1661 253.61 71.1458 253.543 69.7316C252.398 71.4152 250.647 73.3007 249.031 73.3007C248.358 73.3007 247.953 72.964 247.751 72.6947C247.549 72.4253 247.482 72.0886 247.415 71.6845C246.539 72.358 245.26 72.8967 243.374 73.3007C243.24 73.3007 243.172 73.3681 243.038 73.3681C242.633 75.0516 240.95 77.2739 239.603 77.2739C239.064 77.2739 238.66 76.9372 238.593 76.3311C238.458 75.1863 239.67 73.3681 241.758 72.4253C241.691 72.0212 241.489 71.4152 240.613 71.4152C239.334 71.4152 236.169 74.2435 235.967 78.0146C235.967 78.3513 235.697 78.5534 235.428 78.6207C235.091 78.6881 234.822 78.486 234.755 78.1493C234.35 76.6005 234.148 75.1863 234.485 71.5499C233.677 72.4253 233.138 72.8293 233.071 72.8967C232.802 73.0987 232.398 73.0314 232.196 72.762C231.994 72.4926 232.061 72.0886 232.33 71.8866C232.398 71.8866 233.34 71.0785 234.755 69.2602C235.024 67.3747 235.361 64.9504 235.899 61.9874C237.179 54.4451 239.872 47.0375 241.758 45.8254C242.162 45.556 242.499 45.556 242.701 45.6233C243.846 45.9601 244.519 48.3844 243.711 51.8188C241.421 61.1119 238.256 66.7013 235.967 69.7316C235.697 72.0212 235.563 73.5701 235.563 74.7149C236.775 72.0886 239.132 70.203 240.681 70.203C242.095 70.203 242.768 71.1458 243.038 72.0212C246.135 71.3478 247.078 70.5397 247.617 69.1929C247.684 68.8562 247.751 68.6542 247.819 68.5195C247.953 68.1828 248.29 68.0481 248.627 68.1154C248.964 68.1828 249.166 68.5195 249.031 68.8562C248.964 69.0582 248.896 69.3276 248.829 69.5296C248.627 70.405 248.425 71.5499 248.762 71.8866C248.762 71.9539 248.829 72.0212 249.031 72.0212C250.512 72.0212 253.071 68.5195 253.475 67.3073C253.543 67.038 253.88 66.8359 254.149 66.8359C254.486 66.8359 254.688 67.1053 254.688 67.442C254.688 67.5094 254.89 70.6744 254.957 73.9741C259.334 70.1357 260.344 66.0952 260.344 66.0952C260.412 65.7585 260.748 65.5565 261.085 65.6238C261.422 65.6911 261.624 66.0278 261.556 66.3646C261.489 66.5666 260.412 70.8091 255.698 74.9843C255.428 75.1863 255.159 75.4557 254.89 75.725C254.688 81.7184 249.772 95.9275 245.664 95.9275ZM253.543 76.9372C249.166 81.3817 244.25 88.0485 244.25 92.4931C244.25 94.5133 244.99 94.648 245.597 94.648C248.29 94.648 252.802 83.4693 253.543 76.9372ZM241.354 74.1088C240.546 74.7149 240.074 75.3883 239.94 75.8597C240.344 75.5903 240.95 74.8496 241.354 74.1088ZM242.431 46.8355C241.489 47.5089 238.66 53.1656 237.179 62.122C236.909 63.9403 236.64 65.4891 236.438 66.8359C238.391 63.6709 240.748 58.6876 242.499 51.4821C243.172 48.8557 242.701 47.2395 242.431 46.8355Z" fill="#EC1744"/>
<path d="M272.061 74.7151C269.974 74.7151 269.502 73.3682 269.502 72.2908C269.502 69.3951 279.199 57.947 286.136 57.947C286.607 57.947 287.078 58.0817 287.415 58.2164C287.684 57.2062 287.886 56.1288 287.886 55.1187C287.886 51.2128 285.327 47.1724 281.018 47.1724C276.034 47.1724 269.435 51.6169 266.135 55.6574C264.452 57.745 263.711 59.6305 264.048 60.9774C264.115 61.3141 263.913 61.6508 263.576 61.7181C263.239 61.7855 262.903 61.5835 262.835 61.2467C262.431 59.4959 263.239 57.2736 265.192 54.9166C268.627 50.6068 275.698 45.9602 281.018 45.9602C286.136 45.9602 289.166 50.6068 289.166 55.186C289.166 56.5328 288.897 57.8123 288.493 59.1592C288.829 59.5632 289.031 60.1019 289.166 60.4386C289.233 60.7753 289.031 61.1121 288.695 61.1794C288.358 61.2467 288.021 61.0447 287.954 60.708C284.519 68.2503 275.092 74.7151 272.061 74.7151ZM286.136 59.1592C280.007 59.1592 270.782 69.8665 270.782 72.2908C270.782 73.2335 271.051 73.5029 272.061 73.5029C274.89 73.5029 284.115 66.9034 287.011 59.4285C286.809 59.2265 286.54 59.1592 286.136 59.1592Z" fill="#EC1744"/>
<path d="M272.399 70.5398C272.332 70.5398 272.264 70.5398 272.13 70.4725C272.062 70.4725 270.513 69.7317 270.513 67.2401C270.513 63.7383 274.015 55.2533 274.217 54.8493C274.352 54.5125 274.689 54.3779 275.025 54.5125C275.362 54.6472 275.497 54.9839 275.362 55.3206C275.295 55.388 271.793 63.9404 271.793 67.1728C271.793 68.789 272.668 69.193 272.668 69.193C273.005 69.3277 273.14 69.7317 273.005 70.0011C272.87 70.4052 272.601 70.5398 272.399 70.5398Z" fill="#EC1744"/>
<path d="M291.995 66.0956C291.927 66.0956 291.86 66.0956 291.793 66.0282C291.523 65.9609 291.321 65.6242 291.389 65.3548L292.534 56.6004C292.601 56.2637 292.87 55.9943 293.274 56.0617C293.611 56.129 293.88 56.3984 293.813 56.8024L293.005 62.7958C294.621 60.4389 296.978 57.4758 298.594 57.4758C299.268 57.4758 299.604 57.8125 299.806 58.0819C300.345 58.8227 299.874 60.0348 299.739 60.2368C299.604 60.5735 299.268 60.7082 298.931 60.5735C298.594 60.4389 298.46 60.0348 298.594 59.7654C298.729 59.3614 298.796 58.89 298.729 58.8227C298.729 58.8227 298.662 58.8227 298.594 58.8227C297.517 58.8227 294.621 62.4591 292.534 65.8262C292.399 65.9609 292.197 66.0956 291.995 66.0956Z" fill="#EC1744"/>
<path d="M305.261 62.8626C305.126 62.8626 304.924 62.7952 304.789 62.6606L304.048 61.9871C303.779 61.7178 303.779 61.3137 304.048 61.1117C304.318 60.8423 304.722 60.8423 304.924 61.1117L305.665 61.7851C305.934 62.0545 305.934 62.4585 305.665 62.6606C305.597 62.7952 305.463 62.8626 305.261 62.8626Z" fill="#EC1744"/>
<path d="M320.751 64.816C318.663 64.816 317.451 63.6039 317.451 61.5163C317.451 57.9472 323.108 52.7619 328.158 50.3376C328.495 50.2029 328.832 50.3376 328.966 50.607C329.101 50.9437 328.966 51.2804 328.697 51.4151C323.579 53.8394 318.663 58.7553 318.663 61.449C318.663 62.7958 319.337 63.4692 320.683 63.4692C323.781 63.4692 332.805 52.0211 332.805 44.0075C332.805 39.8323 330.717 37.6101 326.811 37.6101C319.336 37.6101 306.676 50.0009 306.676 52.6272C306.676 53.3006 307.35 53.6374 307.35 53.6374C307.686 53.772 307.821 54.1761 307.619 54.5128C307.484 54.8495 307.08 54.9842 306.811 54.7822C306.272 54.5128 305.397 53.772 305.397 52.6272C305.397 49.1928 318.798 36.3306 326.811 36.3306C331.391 36.3306 334.017 39.1589 334.017 44.0075C334.084 52.2232 325.195 64.816 320.751 64.816Z" fill="#EC1744"/>
<path d="M315.226 65.7587C315.024 65.7587 314.822 65.6914 314.755 65.4893C311.725 61.5835 318.391 44.6134 319.199 42.6605C319.334 42.3238 319.671 42.1891 320.008 42.3238C320.344 42.4585 320.479 42.7952 320.344 43.1319C317.381 50.4048 313.745 62.1896 315.698 64.6812C315.9 64.9506 315.832 65.3546 315.563 65.5567C315.496 65.7587 315.361 65.7587 315.226 65.7587Z" fill="#EC1744"/>
<path d="M335.296 57.0041C335.229 57.0041 335.162 57.0041 335.094 56.9367C334.825 56.8694 334.623 56.5327 334.69 56.2633L335.835 47.2396C335.902 46.9028 336.172 46.6335 336.508 46.7008C336.845 46.7682 337.115 47.0375 337.047 47.3742L336.239 53.637C337.855 51.2127 340.28 48.115 341.828 48.115C342.435 48.115 342.771 48.3844 342.906 48.6537C343.445 49.3945 343.041 50.5393 342.973 50.7413C342.839 51.078 342.502 51.2127 342.165 51.1454C341.828 51.0107 341.694 50.674 341.761 50.3373C341.896 49.9332 341.896 49.4618 341.828 49.3945C341.828 49.3945 341.828 49.3945 341.761 49.3945C340.818 49.3945 337.855 53.1656 335.768 56.6674C335.7 56.8694 335.498 57.0041 335.296 57.0041Z" fill="#EC1744"/>
<path d="M346.677 53.435C346.206 53.435 344.657 53.233 344.657 50.6067C344.657 49.7986 344.926 49.1925 345.263 48.6538C345.061 48.3844 344.926 47.9804 344.926 47.5763C344.926 46.7682 345.801 45.8254 347.148 45.8254C348.158 45.8254 349.236 46.6335 349.573 48.1151C351.526 47.711 353.68 46.5662 354.421 46.0948C354.691 45.8928 355.095 45.9601 355.297 46.2295C355.499 46.4989 355.431 46.9029 355.162 47.1049C354.421 47.6437 351.997 48.9231 349.707 49.3945C349.505 51.2801 348.158 53.435 346.677 53.435ZM346.34 49.3272C346.138 49.6639 345.936 50.1353 345.936 50.6067C345.936 51.2128 346.004 52.1555 346.677 52.1555C347.283 52.1555 348.158 50.8761 348.36 49.5292C347.552 49.5292 346.879 49.4619 346.34 49.3272ZM347.35 48.2497C347.62 48.2497 347.956 48.3171 348.293 48.2497C348.091 47.4416 347.552 47.0376 347.148 47.0376C346.475 47.0376 346.206 47.3743 346.206 47.509V47.5763C346.34 47.4416 346.408 47.4416 346.408 47.3743C346.677 47.1723 347.081 47.2396 347.283 47.5763C347.418 47.8457 347.418 48.0477 347.35 48.2497Z" fill="#EC1744"/>
<path d="M355.162 53.7717C354.893 53.7717 354.691 53.637 354.556 53.3676C354.488 53.233 353.95 51.6168 353.95 45.6234C353.95 45.354 353.95 45.0846 353.95 44.7479C353.882 44.6132 353.882 44.4112 353.95 44.2765C354.286 40.6401 355.633 34.9161 356.778 30.8082C359.808 20.2356 361.223 20.2356 361.694 20.2356C362.233 20.2356 363.58 20.5723 363.58 23.8047C363.58 31.0776 356.307 42.8624 355.229 44.6806C355.229 45.0173 355.162 45.354 355.162 45.6234C355.162 47.1722 355.229 48.3844 355.229 49.3272C355.364 48.9904 355.566 48.7211 355.701 48.4517C356.913 46.4988 358.529 45.152 360.078 44.8153C361.29 44.5459 361.896 45.0173 362.233 45.4213C362.435 45.7581 362.569 46.1621 362.569 46.6335C362.839 46.5661 363.176 46.4988 363.445 46.4988C365.33 46.2968 366.879 44.6132 367.62 43.6705C367.62 43.6031 367.687 43.6031 367.687 43.5358C367.553 43.2664 367.485 42.997 367.485 42.7277C367.485 41.7176 368.496 40.9768 369.708 40.9768C370.785 40.9768 371.728 41.9196 371.93 43.1317C373.344 42.8624 375.364 42.3236 376.981 40.9095C377.25 40.7074 377.654 40.7074 377.856 40.9768C378.058 41.2462 378.058 41.6502 377.789 41.8522C375.903 43.4684 373.614 44.0745 371.997 44.3439C371.795 46.3641 370.65 48.5191 369.236 48.5191C368.024 48.5191 367.283 47.8456 367.081 46.7008C367.081 46.4988 367.014 46.2968 367.081 46.0948C366.139 46.9029 364.994 47.5763 363.647 47.711C363.176 47.7783 362.772 47.8456 362.435 47.9803C362.165 48.8558 361.694 49.7985 361.29 50.4046C360.549 51.4821 359.876 51.9535 359.202 51.8188C358.596 51.6841 358.192 51.1454 358.192 50.472C358.26 49.3945 359.337 47.8456 361.357 46.9702C361.425 46.7008 361.425 46.4988 361.357 46.2968C361.29 46.0948 361.223 45.8254 360.482 45.9601C359.27 46.2294 357.923 47.3742 356.913 49.0578C356.037 50.472 355.633 52.0208 355.835 52.8289C355.903 53.1656 355.768 53.5023 355.431 53.5697C355.297 53.7717 355.229 53.7717 355.162 53.7717ZM360.751 48.8558C360.28 49.1925 359.876 49.5965 359.674 50.0006C359.472 50.3373 359.404 50.5393 359.404 50.674C359.808 50.5393 360.347 49.7312 360.751 48.8558ZM368.765 44.4112C368.496 45.0846 368.226 46.2968 368.496 46.9029C368.563 47.1049 368.765 47.3742 369.304 47.3742C369.775 47.3742 370.583 46.0948 370.785 44.6132C370.516 44.6132 370.246 44.6132 370.112 44.6132C369.573 44.6806 369.102 44.6132 368.765 44.4112ZM369.371 43.3338C369.573 43.4011 369.842 43.4684 370.112 43.4684C370.179 43.4684 370.448 43.4684 370.785 43.4684C370.65 42.795 370.179 42.391 369.775 42.391C369.236 42.391 368.9 42.6603 368.832 42.795C368.967 42.795 369.102 42.9297 369.236 42.997C369.304 43.0644 369.304 43.1991 369.371 43.3338ZM361.829 21.5824C360.415 22.6599 356.845 34.2426 355.633 41.5829C358.058 37.4077 362.367 29.1247 362.367 23.8047C362.367 22.3905 362.031 21.6498 361.829 21.5824Z" fill="#EC1744"/>
<path d="M380.482 48.2496C377.182 48.2496 376.778 44.3438 376.778 40.9767C376.778 36.7342 378.327 31.6162 379.202 28.9226C380.28 25.7575 381.761 22.0537 382.771 22.0537C383.108 22.0537 384.118 22.1884 384.118 23.9393C384.118 27.7104 378.664 38.8218 377.99 40.1686C377.99 40.438 377.99 40.7073 377.99 40.9767C377.99 46.2967 379.27 46.9701 380.414 46.9701C381.492 46.9701 382.637 45.7579 382.973 45.2866C383.175 45.0172 383.579 44.9498 383.849 45.1519C384.118 45.3539 384.186 45.7579 383.984 46.0273C384.051 46.162 382.502 48.2496 380.482 48.2496ZM382.906 23.4679C381.963 24.8821 379.606 30.6734 378.596 36.1954C380.414 32.357 382.973 26.3636 382.973 23.9393C382.973 23.7373 382.906 23.6026 382.906 23.4679Z" fill="#EC1744"/>
<path d="M371.592 35.3199C371.322 35.3199 371.12 35.1852 370.986 34.9158C370.851 34.5791 370.986 34.2424 371.322 34.1077C371.794 33.9057 383.107 29.4611 389.437 28.9897C389.774 28.9897 390.111 29.1918 390.111 29.5958C390.111 29.9325 389.909 30.2692 389.505 30.2692C383.377 30.7406 371.861 35.2525 371.794 35.2525C371.726 35.3199 371.659 35.3199 371.592 35.3199Z" fill="#EC1744"/>
<defs>
<clipPath id="clip0">
<rect width="110" height="6" fill="white" transform="translate(1 39.1587)"/>
</clipPath>
</defs>
</svg>
