<svg width="70" height="70" viewBox="0 0 70 70" fill="none" xmlns="http://www.w3.org/2000/svg">
<path d="M41.8359 11.3477C41.0813 11.3477 40.4688 11.9602 40.4688 12.7148C40.4688 13.4695 41.0813 14.082 41.8359 14.082C42.5906 14.082 43.2031 13.4695 43.2031 12.7148C43.2031 11.9602 42.5906 11.3477 41.8359 11.3477Z" fill="#EC1744"/>
<path d="M28.1641 11.3477C27.4094 11.3477 26.7969 11.9602 26.7969 12.7148C26.7969 13.4695 27.4094 14.082 28.1641 14.082C28.9188 14.082 29.5312 13.4695 29.5312 12.7148C29.5312 11.9602 28.9188 11.3477 28.1641 11.3477Z" fill="#EC1744"/>
<path d="M64.6848 40.8628C65.8582 39.1016 66.4453 36.9041 66.4453 35C66.4453 32.1295 65.1701 29.4625 62.982 27.654C63.4662 26.4968 63.7109 25.2932 63.7109 24.0625C63.7109 20.2542 61.4884 16.7066 58.1841 15.05C58.6854 10.8918 55.9759 7.08039 51.9606 6.10818C50.3891 2.47516 46.8911 0 43.2031 0C39.7701 0 36.6911 2.00238 35 4.92406C33.3088 2.00238 30.2297 0 26.7969 0C23.1086 0 19.6107 2.47516 18.0394 6.10832C14 7.08668 11.3159 10.9171 11.8159 15.05C8.5117 16.7065 6.28906 20.2542 6.28906 24.0625C6.28906 25.2932 6.53379 26.4968 7.01805 27.654C4.82986 29.4626 3.55469 32.1295 3.55469 35C3.55469 36.9141 4.14668 39.1087 5.31521 40.8626C4.17334 42.4746 3.55469 44.3849 3.55469 46.3477C3.55469 48.8928 4.58664 51.3174 6.41197 53.1177C5.47353 58.7904 9.99756 64.5312 15.8594 64.5312C15.9018 64.5312 15.9435 64.5306 15.9843 64.5293C17.9278 67.882 21.5353 70 25.4297 70C29.4886 70 33.1155 67.5637 35 64.0536C36.8845 67.5637 40.5114 70 44.5703 70C48.4647 70 52.0722 67.882 54.0157 64.5293C54.0567 64.5306 54.0982 64.5312 54.1406 64.5312C59.3283 64.5312 63.7109 59.9607 63.7109 54.5508C63.7109 54.0902 63.6705 53.6164 63.588 53.1177C65.4134 51.3174 66.4453 48.8929 66.4453 46.3477C66.4453 44.3849 65.8267 42.4745 64.6848 40.8628ZM33.6328 20.6966C32.8278 20.2297 31.8942 19.9609 30.8984 19.9609C30.1433 19.9609 29.5312 20.573 29.5312 21.3281C29.5312 22.0832 30.1433 22.6953 30.8984 22.6953C32.4062 22.6953 33.6328 23.922 33.6328 25.4297V51.4294C31.627 49.1542 28.6941 47.7148 25.4297 47.7148C24.6746 47.7148 24.0625 48.3269 24.0625 49.082C24.0625 49.8371 24.6746 50.4492 25.4297 50.4492C29.9529 50.4492 33.6328 54.1291 33.6328 58.6523C33.6328 63.3212 29.8762 67.2656 25.4297 67.2656C22.2644 67.2656 19.3505 65.3938 18.006 62.4969C17.7581 61.963 17.1968 61.6481 16.6115 61.714C16.5148 61.7251 16.4187 61.7379 16.3226 61.7511C12.4316 62.2832 8.04973 57.8772 9.2359 52.9482C9.35772 52.4419 9.18135 51.9106 8.78117 51.5776C7.19742 50.2597 6.28906 48.3535 6.28906 46.3477C6.28906 45.1075 6.63975 43.8938 7.2923 42.8296C8.93211 44.1736 10.9718 44.9805 13.125 44.9805C13.8801 44.9805 14.4922 44.3684 14.4922 43.6133C14.4922 42.8582 13.8801 42.2461 13.125 42.2461C9.41459 42.2461 6.28906 38.8596 6.28906 35C6.28906 32.6587 7.48248 30.5048 9.48172 29.2384C10.0976 28.8482 10.299 28.0433 9.93932 27.4091C9.3316 26.3374 9.02344 25.2113 9.02344 24.0625C9.02344 20.3725 12.0315 16.8164 15.8594 16.8164C19.501 16.8164 22.6953 20.2025 22.6953 24.0625C22.6953 24.8176 23.3074 25.4297 24.0625 25.4297C24.8176 25.4297 25.4297 24.8176 25.4297 24.0625C25.4297 18.6525 21.047 14.082 15.8594 14.082C15.4016 14.082 14.9464 14.1191 14.4956 14.1892C14.4949 14.1533 14.4922 14.1183 14.4922 14.082C14.4922 11.0309 16.9691 8.61328 19.9609 8.61328C21.4214 8.61328 22.7951 9.18217 23.829 10.2149C24.3631 10.7486 25.2287 10.748 25.7625 10.214C26.2961 9.67969 26.2957 8.81412 25.7615 8.28051C24.5142 7.03459 22.9366 6.23998 21.227 5.97666C22.4327 4.18687 24.4377 2.73438 26.7969 2.73438C30.4385 2.73438 33.6328 6.12035 33.6328 9.98047V20.6966ZM56.875 44.9805C59.0283 44.9805 61.068 44.1734 62.7078 42.83C63.3603 43.8941 63.7109 45.1076 63.7109 46.3477C63.7109 48.3535 62.8026 50.2597 61.219 51.5776C60.8187 51.9106 60.6424 52.442 60.7642 52.9482C60.9092 53.5501 60.9766 54.0594 60.9766 54.5506C60.9766 58.7944 57.1382 62.2241 53.6776 61.7511C53.5814 61.7379 53.4852 61.725 53.3885 61.714C52.8024 61.6477 52.2417 61.963 51.9941 62.4969C50.6496 65.3938 47.7355 67.2656 44.5703 67.2656C40.1238 67.2656 36.3672 63.3212 36.3672 58.6523C36.3672 54.1291 40.0471 50.4492 44.5703 50.4492C45.3253 50.4492 45.9375 49.8371 45.9375 49.082C45.9375 48.3269 45.3253 47.7148 44.5703 47.7148C41.3059 47.7148 38.373 49.1542 36.3672 51.4294V25.4297C36.3672 23.922 37.5938 22.6953 39.1016 22.6953C39.8565 22.6953 40.4688 22.0832 40.4688 21.3281C40.4688 20.573 39.8565 19.9609 39.1016 19.9609C38.1058 19.9609 37.1722 20.2297 36.3672 20.6966V9.98047C36.3672 6.12035 39.5615 2.73438 43.2031 2.73438C45.5623 2.73438 47.5672 4.18687 48.7729 5.97652C47.0634 6.23984 45.4859 7.03445 44.2385 8.28037C43.7042 8.81398 43.7037 9.67955 44.2373 10.2138C44.7709 10.7481 45.6367 10.7486 46.1707 10.2149C47.205 9.18217 48.5786 8.61328 50.0391 8.61328C53.0459 8.61328 55.5078 11.0451 55.5078 14.082C55.5078 14.1181 55.5051 14.1533 55.5044 14.1892C55.0536 14.1191 54.5984 14.082 54.1406 14.082C48.953 14.082 44.5703 18.6525 44.5703 24.0625C44.5703 24.8176 45.1825 25.4297 45.9375 25.4297C46.6925 25.4297 47.3047 24.8176 47.3047 24.0625C47.3047 20.2025 50.499 16.8164 54.1406 16.8164C57.9663 16.8164 60.9766 20.3707 60.9766 24.0625C60.9766 25.2113 60.6684 26.3374 60.0607 27.4091C59.7011 28.0433 59.9025 28.8482 60.5184 29.2384C62.5175 30.5048 63.7109 32.6587 63.7109 35C63.7109 38.8734 60.5745 42.2461 56.875 42.2461C56.12 42.2461 55.5078 42.8582 55.5078 43.6133C55.5078 44.3684 56.12 44.9805 56.875 44.9805Z" fill="#EC1744"/>
<path d="M30.5502 29.2651C30.0468 28.7023 29.1826 28.6542 28.6197 29.1576C24.2354 33.0794 17.2266 29.9451 17.2266 24.0625C17.2266 23.3074 16.6145 22.6953 15.8594 22.6953C15.1043 22.6953 14.4922 23.3074 14.4922 24.0625C14.4922 28.8087 17.9658 32.7571 22.5039 33.5039C21.9775 35.162 20.4239 36.3672 18.5937 36.3672C17.8387 36.3672 17.2266 36.9793 17.2266 37.7344C17.2266 38.4895 17.8387 39.1016 18.5937 39.1016C21.9238 39.1016 24.7037 36.7076 25.3069 33.5505C27.2083 33.3018 28.9978 32.4882 30.4427 31.1955C31.0055 30.6921 31.0536 29.8278 30.5502 29.2651Z" fill="#EC1744"/>
<path d="M15.8594 53.1836C15.1043 53.1836 14.4922 53.7957 14.4922 54.5508C14.4922 55.3059 15.1043 55.918 15.8594 55.918C19.501 55.918 22.6953 59.3041 22.6953 63.1641C22.6953 63.9192 23.3074 64.5312 24.0625 64.5312C24.8176 64.5312 25.4297 63.9192 25.4297 63.1641C25.4297 57.7541 21.047 53.1836 15.8594 53.1836Z" fill="#EC1744"/>
<path d="M26.7969 42.2461C22.164 42.2461 18.1863 44.787 16.0918 48.4816C15.7195 49.1385 15.9502 49.9729 16.607 50.3452C17.2639 50.7175 18.0981 50.4869 18.4706 49.83C20.1023 46.9513 23.1984 44.9805 26.7969 44.9805C27.552 44.9805 28.1641 44.3684 28.1641 43.6133C28.1641 42.8582 27.552 42.2461 26.7969 42.2461Z" fill="#EC1744"/>
<path d="M51.4062 36.3672C49.5761 36.3672 48.0225 35.162 47.4961 33.5039C52.0342 32.7571 55.5078 28.8087 55.5078 24.0625C55.5078 23.3074 54.8956 22.6953 54.1406 22.6953C53.3857 22.6953 52.7734 23.3074 52.7734 24.0625C52.7734 27.8318 49.7068 30.8984 45.9375 30.8984C44.2537 30.8984 42.6353 30.2802 41.3802 29.1576C40.8177 28.6542 39.9532 28.7022 39.4498 29.2651C38.9462 29.8278 38.9945 30.6921 39.5572 31.1955C41.0022 32.4882 42.7919 33.3018 44.6931 33.5505C45.2963 36.7076 48.0762 39.1016 51.4062 39.1016C52.1612 39.1016 52.7734 38.4895 52.7734 37.7344C52.7734 36.9793 52.1612 36.3672 51.4062 36.3672Z" fill="#EC1744"/>
<path d="M54.1406 53.1836C48.953 53.1836 44.5703 57.7541 44.5703 63.1641C44.5703 63.9192 45.1825 64.5312 45.9375 64.5312C46.6925 64.5312 47.3047 63.9192 47.3047 63.1641C47.3047 59.3041 50.499 55.918 54.1406 55.918C54.8956 55.918 55.5078 55.3059 55.5078 54.5508C55.5078 53.7957 54.8956 53.1836 54.1406 53.1836Z" fill="#EC1744"/>
<path d="M53.9082 48.4817C51.8189 44.7959 47.8466 42.2461 43.2031 42.2461C42.4482 42.2461 41.8359 42.8582 41.8359 43.6133C41.8359 44.3684 42.4482 44.9805 43.2031 44.9805C46.799 44.9805 49.8974 46.9507 51.5292 49.83C51.902 50.4878 52.7369 50.7172 53.3928 50.3453C54.0497 49.973 54.2804 49.1386 53.9082 48.4817Z" fill="#EC1744"/>
</svg>
