<svg width="66" height="60" viewBox="0 0 66 60" fill="none" xmlns="http://www.w3.org/2000/svg">
<path d="M18.2537 35.9833C18.2046 35.9503 18.1525 35.9216 18.0986 35.8975C16.8031 35.3218 16.007 34.4275 15.7182 33.24L15.4798 32.2623C15.3444 31.7066 14.8518 31.3187 14.2825 31.3181C13.7125 31.3181 13.2204 31.7066 13.0846 32.2622L12.8466 33.24C12.5573 34.4275 11.7614 35.3218 10.4659 35.8974C10.4126 35.9214 10.3603 35.9502 10.3109 35.9831C9.95589 36.2209 9.74414 36.6188 9.74414 37.0469C9.74414 37.4755 9.95562 37.873 10.3105 38.1105C10.3601 38.1441 10.4123 38.1727 10.4659 38.1965C11.7614 38.7721 12.5573 39.6669 12.8466 40.8538L13.0845 41.8315C13.2203 42.3876 13.7124 42.7758 14.2824 42.7758C14.8525 42.7758 15.3444 42.3872 15.4798 41.8315L15.7182 40.8538C16.0069 39.6669 16.8028 38.7722 18.0981 38.1965C18.1528 38.1725 18.205 38.1433 18.2537 38.1105C18.6086 37.8731 18.8207 37.4756 18.8207 37.0469C18.8207 36.6188 18.6088 36.2207 18.2537 35.9833ZM15.9431 37.0469C15.2441 37.5556 14.6857 38.1748 14.2824 38.8905C13.8787 38.1749 13.3207 37.556 12.6216 37.0469C13.3203 36.5383 13.8787 35.9191 14.2824 35.2037C14.6856 35.9191 15.2441 36.5383 15.9431 37.0469Z" fill="#EC1744"/>
<path d="M58.9263 5.77117C58.8771 5.73811 58.8251 5.70947 58.7711 5.68535C57.4757 5.10969 56.6795 4.2153 56.3908 3.02789L56.1524 2.05016C56.017 1.49439 55.5244 1.10651 54.955 1.10596C54.385 1.10596 53.893 1.49449 53.7571 2.05007L53.5191 3.02789C53.2298 4.2153 52.4339 5.1096 51.1385 5.68525C51.0851 5.70929 51.0329 5.73802 50.9835 5.7709C50.6284 6.00877 50.4167 6.4066 50.4167 6.83473C50.4167 7.26332 50.6282 7.66087 50.9831 7.89837C51.0327 7.93189 51.0848 7.96054 51.1385 7.9843C52.4339 8.55996 53.2298 9.45471 53.5191 10.6417L53.757 11.6194C53.8929 12.1754 54.3849 12.5636 54.9549 12.5636C55.525 12.5636 56.017 12.1751 56.1524 11.6194L56.3907 10.6417C56.6794 9.45471 57.4754 8.56005 58.7706 7.98439C58.8254 7.96035 58.8775 7.93116 58.9262 7.89837C59.2811 7.66096 59.4932 7.26341 59.4932 6.83473C59.4932 6.4066 59.2813 6.00858 58.9263 5.77117ZM56.6156 6.83473C55.9166 7.34344 55.3583 7.96265 54.9549 8.67838C54.5512 7.96274 53.9932 7.3438 53.2941 6.83473C53.9929 6.32611 54.5512 5.7069 54.9549 4.99154C55.3582 5.7069 55.9166 6.32611 56.6156 6.83473Z" fill="#EC1744"/>
<path d="M27.615 48.9201C27.5456 48.8749 27.4719 48.8358 27.3956 48.8028C25.564 48.0162 24.4383 46.7942 24.0301 45.1717L23.693 43.8358C23.5015 43.0764 22.805 42.5464 22 42.5457C21.1941 42.5457 20.4984 43.0765 20.3063 43.8357L19.9699 45.1717C19.5608 46.7942 18.4355 48.0161 16.6038 48.8027C16.5284 48.8355 16.4545 48.8748 16.3847 48.9197C15.8827 49.2447 15.5833 49.7883 15.5833 50.3733C15.5833 50.9589 15.8823 51.5021 16.3842 51.8266C16.4543 51.8724 16.528 51.9116 16.6038 51.944C18.4355 52.7306 19.5608 53.9532 19.9699 55.575L20.3062 56.9109C20.4983 57.6707 21.194 58.2011 21.9999 58.2011C22.8059 58.2011 23.5015 57.6702 23.693 56.9109L24.03 55.575C24.4382 53.9532 25.5636 52.7307 27.395 51.9442C27.4723 51.9113 27.5461 51.8714 27.6149 51.8266C28.1167 51.5022 28.4166 50.959 28.4166 50.3733C28.4166 49.7883 28.117 49.2445 27.615 48.9201ZM25.2647 50.3733C24.2763 51.0684 22.5702 52.8354 21.9999 53.8133C21.4291 52.8355 19.7235 51.0689 18.735 50.3733C19.723 49.6783 21.4291 47.9113 21.9999 46.9339C22.5701 47.9113 24.2763 49.6783 25.2647 50.3733Z" fill="#EC1744"/>
<path d="M63.7796 18.47L64.5007 15.7651C64.6763 15.2106 64.7544 13.8612 63.6623 12.8989C62.9402 12.2384 61.9565 11.9962 61.0046 12.2528L57.0187 13.3255C55.9385 13.6166 54.8278 13.6191 53.8065 13.3351C52.4619 12.961 51.0669 12.7715 49.6604 12.7715H48.4845C47.2797 10.651 45.6303 8.77207 43.6787 7.30757C43.2205 6.96328 42.5717 7.05779 42.2291 7.51851C41.8864 7.97884 41.981 8.63114 42.439 8.97482C46.3342 11.8983 48.6795 16.5348 48.7126 21.3766C48.7413 25.5675 47.1388 29.5123 44.2 32.4851C41.2614 35.458 37.3463 37.0948 33.1763 37.0948C31.7013 37.0948 30.2523 36.8895 28.8547 36.4837C33.9815 33.2586 37.1202 27.6174 37.1202 21.4867C37.1202 15.3554 33.9819 9.7137 28.8551 6.489C30.3164 6.06451 31.8342 5.85927 33.3773 5.87893C35.3639 5.90436 37.2978 6.30575 39.1247 7.07283C39.6533 7.29512 40.2596 7.04413 40.4803 6.51387C40.7005 5.98349 40.4513 5.37429 39.9239 5.15254C37.8505 4.28239 35.6564 3.8265 33.4031 3.79782C31.2114 3.77014 29.0667 4.14241 27.0307 4.9043C26.4547 5.12 26.07 5.63611 26.0284 6.25078C25.9872 6.86486 26.2985 7.42824 26.8397 7.7197C29.1219 8.94827 31.0127 10.6956 32.4031 12.7715H16.3396C14.9568 12.7715 13.5848 12.955 12.2615 13.3162C11.2435 13.5946 10.1394 13.59 9.06944 13.3019L5.17161 12.2528C4.17508 11.9847 3.14362 12.2622 2.41451 12.9947C1.68493 13.7276 1.40859 14.7639 1.67555 15.7651L2.34232 18.265C2.69078 19.5727 2.58359 21.0081 2.03848 22.3071C1.23327 24.2248 0.825012 26.2608 0.825012 28.3578C0.825012 28.9325 1.28857 29.3982 1.86103 29.3982C2.43303 29.3982 2.89655 28.9325 2.89655 28.3578C2.89655 26.5399 3.25004 24.7767 3.94727 23.1159C4.67066 21.3945 4.81155 19.48 4.34348 17.7265L3.67672 15.2261C3.57133 14.8314 3.7812 14.5656 3.87916 14.4666C3.97681 14.3685 4.2416 14.1573 4.63559 14.2632C7.29219 14.9782 10.0394 16.0805 12.8056 15.325C13.9515 15.0119 15.1403 14.8531 16.3396 14.8531H33.5783C34.5306 16.8919 35.0482 19.149 35.0482 21.4867C35.0482 27.2522 31.9029 32.5272 26.8397 35.2531C26.3058 35.5406 25.9868 36.1187 26.0278 36.7259C26.0665 37.3014 26.4834 37.8634 27.0204 38.0645C28.9875 38.8022 31.0589 39.1764 33.1763 39.1764C37.9023 39.1764 42.34 37.3208 45.6701 33.9517C49.0006 30.5831 50.8166 26.1114 50.7841 21.3621C50.7691 19.1356 50.3247 16.9141 49.4912 14.8526H49.6604C50.8801 14.8526 52.0889 15.0173 53.2533 15.3411C54.6322 15.7248 56.1194 15.7226 57.5548 15.3359L61.5412 14.2632C61.9341 14.1573 62.1994 14.3685 62.2971 14.4666C62.3948 14.5648 62.605 14.8313 62.4995 15.2261L61.7784 17.9316C61.307 19.6975 61.4307 21.5598 62.1349 23.3157C62.7772 24.9178 63.1034 26.6142 63.1034 28.3578V38.0545C63.1034 39.8611 62.7538 41.6146 62.0654 43.2661C61.3509 44.9796 61.213 46.8831 61.6781 48.6268L62.36 51.1826C62.4651 51.578 62.2548 51.844 62.1571 51.9422C62.0594 52.0403 61.7941 52.2515 61.4011 52.146L57.4911 51.093C56.0651 50.7093 54.5849 50.7056 53.2105 51.0829C52.0597 51.3989 50.865 51.5597 49.6604 51.5597H30.3144C29.7419 51.5597 29.2783 52.0253 29.2783 52.5999C29.2783 53.1746 29.7418 53.6407 30.3144 53.6407H49.6604C51.0491 53.6407 52.4275 53.4557 53.7567 53.0906C54.7757 52.8108 55.8817 52.8149 56.9546 53.1035L60.8647 54.156C61.1146 54.2235 61.3669 54.2565 61.6163 54.2565C62.3604 54.2565 63.0759 53.963 63.6223 53.4141C64.3518 52.6811 64.6281 51.6449 64.3612 50.6437L63.6792 48.0883C63.3327 46.7887 63.438 45.3617 63.9763 44.07C64.7717 42.1627 65.175 40.1386 65.175 38.0545V28.3578C65.175 26.3464 64.7988 24.3886 64.0566 22.5381C63.5213 21.2023 63.4256 19.7959 63.7796 18.47Z" fill="#EC1744"/>
<path d="M8.68922 51.1274C10.1024 50.7467 11.5717 50.7405 12.9395 51.1088C13.8208 51.3241 15.7667 51.7548 16.5 51.7548C17.0812 51.8095 18.5755 53.0055 19.25 53.5966C17.4167 54.5175 14.0738 53.5853 12.4024 53.1191C11.3867 52.8456 10.2884 52.8517 9.22523 53.1378L5.40336 54.1662C4.86312 54.2808 3.50521 54.2356 2.39549 53.1378C1.85635 52.4345 1.67343 51.5308 1.90724 50.654L2.51477 48.3769C2.87148 47.0379 2.75512 45.5705 2.18481 44.2456C1.34365 42.2907 0.916687 40.2112 0.916687 38.0647V32.5357C0.916687 31.961 1.3807 31.4949 1.9527 31.4949C2.52519 31.4949 2.98871 31.9606 2.98871 32.5357V38.0647C2.98871 39.9256 3.35826 41.727 4.08659 43.4194C4.8411 45.1721 4.99387 47.1237 4.51593 48.9159L3.90839 51.1931C3.80294 51.5882 4.01357 51.8543 4.11133 51.9524C4.83372 52.4789 7.46425 51.6218 8.68922 51.1274Z" fill="#EC1744"/>
</svg>
