<svg width="59" height="70" viewBox="0 0 59 70" fill="none" xmlns="http://www.w3.org/2000/svg">
<path d="M50.9505 0.243164H7.20053C3.4308 0.243164 0.364594 2.51287 0.364594 5.30336V64.2715C0.364594 67.062 3.4308 69.3317 7.20053 69.3317H50.9505C54.7203 69.3317 57.7865 67.062 57.7865 64.2715V5.30336C57.7865 2.51287 54.7203 0.243164 50.9505 0.243164ZM55.0521 64.2715C55.0521 65.9456 53.2121 67.3076 50.9505 67.3076H7.20053C4.93898 67.3076 3.09897 65.9456 3.09897 64.2715V5.30336C3.09897 3.62928 4.93898 2.26724 7.20053 2.26724H50.9505C53.2121 2.26724 55.0521 3.62928 55.0521 5.30336V64.2715Z" fill="#EC1744"/>
<path d="M19.8527 38.7294H17.4516L18.9476 34.7211C19.2118 34.0133 18.8529 33.2265 18.1451 32.9623C17.438 32.6981 16.6505 33.057 16.3863 33.7648L14.2009 39.6188C14.0443 40.0382 14.1034 40.5082 14.359 40.8763C14.6139 41.2445 15.0341 41.4638 15.482 41.4638H19.8527C20.6082 41.4638 21.2199 40.8521 21.2199 40.0966C21.2199 39.3411 20.6082 38.7294 19.8527 38.7294Z" fill="#EC1744"/>
<path d="M35.9115 16.1017H39.3821C39.3821 16.8572 39.9945 17.4689 40.7493 17.4689C41.5048 17.4689 42.1165 16.8572 42.1165 16.1017H42.291C43.0465 16.1017 43.6581 15.49 43.6581 14.7345C43.6581 13.9797 43.0465 13.3673 42.291 13.3673H42.1165V7.89929C42.1165 7.30399 41.7313 6.77777 41.1637 6.5969C40.5962 6.41603 39.9781 6.62325 39.6335 7.10959L34.7956 13.9448C34.5008 14.3614 34.4624 14.9083 34.6974 15.3626C34.9323 15.8169 35.4002 16.1017 35.9115 16.1017ZM39.3828 12.1967V13.3673H38.554L39.3828 12.1967Z" fill="#EC1744"/>
<path d="M46.3135 9.26638H48.5814L46.9899 15.7769C46.8112 16.5103 47.2605 17.2502 47.994 17.4296C48.1029 17.456 48.2119 17.4688 48.3194 17.4688C48.9346 17.4688 49.4936 17.0501 49.646 16.4263L51.6512 8.2239C51.7509 7.81659 51.6576 7.38507 51.3984 7.05538C51.1392 6.72498 50.7426 6.53271 50.3232 6.53271H46.3135C45.5587 6.53271 44.9463 7.14439 44.9463 7.89919C44.9463 8.6547 45.5587 9.26638 46.3135 9.26638Z" fill="#EC1744"/>
<path d="M48.2162 28.4756C47.111 28.4756 46.0728 28.9235 45.3166 29.6797C43.6674 28.8886 41.8566 28.4756 40.013 28.4756C33.2284 28.4756 27.7084 33.9956 27.7084 40.7803C27.7084 41.0879 27.724 41.3927 27.7461 41.6953L21.5097 24.9907C20.9144 23.3949 19.3699 22.3232 17.6674 22.3232C15.9641 22.3232 14.4203 23.3949 13.825 24.9907L6.16874 45.4985C5.37763 47.6169 6.45785 49.9839 8.57627 50.775C9.0434 50.9494 9.52903 51.0363 10.0132 51.0363C10.5929 51.0363 11.1704 50.9117 11.7137 50.6639C12.7106 50.2096 13.4704 49.3936 13.8535 48.3667L14.389 46.9326H20.945L21.4812 48.3667C22.0765 49.9625 23.6203 51.0349 25.3229 51.0349H25.3236C25.8135 51.0349 26.2963 50.9473 26.7577 50.775C27.7845 50.3919 28.5999 49.6321 29.0549 48.6352C29.2877 48.1239 29.4102 47.582 29.4237 47.0373C31.5692 50.6539 35.512 53.085 40.013 53.085C42.1706 53.085 44.2983 52.5125 46.1654 51.4308C46.8184 51.052 47.0412 50.2153 46.6624 49.5623C46.2836 48.9093 45.4476 48.6865 44.7939 49.0646C43.3427 49.9062 41.69 50.3506 40.013 50.3506C34.7366 50.3506 30.4427 46.0575 30.4427 40.7803C30.4427 35.5031 34.7366 31.21 40.013 31.21C41.779 31.21 43.5058 31.6977 45.0075 32.6213C45.3429 32.8271 45.7502 32.8791 46.1255 32.763C46.5015 32.6476 46.8091 32.3763 46.97 32.0182C47.1915 31.5268 47.6807 31.21 48.2162 31.21C48.9703 31.21 49.5834 31.8231 49.5834 32.5771V50.1541C49.5834 54.7854 45.8122 58.5537 41.1766 58.5537H40.013C39.2589 58.5537 38.6459 57.9406 38.6459 57.1865V56.8447C38.6459 56.0892 38.0335 55.4775 37.2787 55.4775C36.5232 55.4775 35.9115 56.0892 35.9115 56.8447V57.1865C35.9115 59.4481 37.7515 61.2881 40.013 61.2881H41.1766C47.3197 61.2881 52.3177 56.2936 52.3177 50.1541V32.5771C52.3177 30.3156 50.4777 28.4756 48.2162 28.4756ZM26.5669 47.5001C26.4159 47.8327 26.1439 48.0855 25.8014 48.2136C25.6469 48.2713 25.486 48.3005 25.3236 48.3005C24.7561 48.3005 24.2413 47.9431 24.0426 47.4104L23.1753 45.0876C22.9752 44.5529 22.4646 44.1982 21.8942 44.1982H13.4405C12.8694 44.1982 12.3588 44.5529 12.1594 45.0876L11.2921 47.4104C11.1647 47.7529 10.9112 48.0249 10.5786 48.1766C10.2461 48.3276 9.8751 48.3411 9.53331 48.2136C9.1908 48.0855 8.9195 47.8327 8.76782 47.5001C8.61615 47.1676 8.60262 46.7966 8.7308 46.4548L16.3863 25.947C16.585 25.4151 17.0998 25.0576 17.6674 25.0576C18.2349 25.0576 18.7497 25.4151 18.9484 25.947L26.6046 46.4548C26.7321 46.7966 26.7186 47.1676 26.5669 47.5001Z" fill="#EC1744"/>
<path d="M40.013 33.9443C36.244 33.9443 33.1771 37.0105 33.1771 40.7803C33.1771 44.55 36.244 47.6162 40.013 47.6162C43.7828 47.6162 46.849 44.55 46.849 40.7803C46.849 37.0105 43.7828 33.9443 40.013 33.9443ZM40.013 44.8818C37.7515 44.8818 35.9115 43.0418 35.9115 40.7803C35.9115 38.5187 37.7515 36.6787 40.013 36.6787C42.2746 36.6787 44.1146 38.5187 44.1146 40.7803C44.1146 43.0418 42.2746 44.8818 40.013 44.8818Z" fill="#EC1744"/>
</svg>
