<svg width="93" height="66" viewBox="0 0 93 66" fill="none" xmlns="http://www.w3.org/2000/svg">
<path d="M92.2884 11.0448C86.0548 12.6431 81.2598 15.0407 77.9032 18.2374C74.7065 21.2742 73.268 24.9504 73.5877 29.266C75.6655 31.8234 78.2229 33.9012 81.2598 35.4996C84.4565 36.9381 87.813 38.2168 91.3294 39.3356C92.1286 42.2127 92.2085 45.1696 91.5691 48.2065C91.0896 51.0835 90.0507 53.8007 88.4524 56.3581C86.854 58.7556 84.936 60.8335 82.6983 62.5917C80.6204 64.3499 78.4626 65.3888 76.2249 65.7085C72.8684 65.5487 69.5918 64.9093 66.3951 63.7905C63.1984 62.5118 60.4012 60.7536 58.0037 58.5159C55.6062 56.2782 53.6082 53.6409 52.0099 50.604C50.5714 47.4073 49.8521 43.811 49.8521 39.8151C49.8521 35.0201 50.8111 30.4648 52.7291 26.1492C54.6472 21.6738 57.2844 17.6779 60.641 14.1616C64.1574 10.6452 68.3131 7.68822 73.1082 5.29069C77.9032 2.73332 83.1778 0.975133 88.9319 0.0161133L92.2884 11.0448ZM43.139 11.0448C36.9054 12.6431 32.1104 15.0407 28.7538 18.2374C25.5571 21.2742 24.1186 24.9504 24.4383 29.266C26.5161 31.8234 29.0735 33.9012 32.1104 35.4996C35.3071 36.9381 38.6636 38.2168 42.18 39.3356C42.9792 42.2127 43.0591 45.1696 42.4197 48.2065C41.9402 51.0835 40.9013 53.8007 39.303 56.3581C37.7046 58.7556 35.7866 60.8335 33.5489 62.5917C31.471 64.3499 29.3132 65.3888 27.0755 65.7085C23.719 65.5487 20.4424 64.9093 17.2457 63.7905C14.049 62.5118 11.2518 60.7536 8.85431 58.5159C6.45677 56.2782 4.45883 53.6409 2.86048 50.604C1.42196 47.4073 0.702698 43.811 0.702698 39.8151C0.702698 35.0201 1.66171 30.4648 3.57974 26.1492C5.49776 21.6738 8.13505 17.6779 11.4916 14.1616C15.008 10.6452 19.1637 7.68822 23.9588 5.29069C28.7538 2.73332 34.0284 0.975133 39.7825 0.0161133L43.139 11.0448Z" fill="#F2F7F7"/>
</svg>
