<svg width="70" height="70" viewBox="0 0 70 70" fill="none" xmlns="http://www.w3.org/2000/svg">
<g clip-path="url(#clip0)">
<path d="M1.71639 43.6228C2.09997 43.8893 2.50503 44.1234 2.92739 44.3228C3.43139 44.5807 4.27722 45.0123 4.33672 45.3145C4.41005 45.7133 4.36209 46.125 4.19905 46.4963C4.02522 46.8697 3.84322 47.1905 3.68572 47.467C3.25872 48.2218 2.54356 49.4865 3.62155 50.3673C3.87355 50.6007 4.30872 50.9378 4.70539 51.2423C4.41338 51.7529 4.28129 52.3394 4.32622 52.9258C4.38813 53.3877 4.63859 53.8033 5.01805 54.0738C5.27706 54.2558 5.55356 54.4145 5.82539 54.5697C6.51606 54.9617 6.78556 55.1448 6.87539 55.5112C6.94021 55.9807 6.90037 56.4588 6.75872 56.9112C6.68989 57.2227 6.62339 57.5353 6.58372 57.8445C6.46787 58.9077 6.59923 59.9834 6.96756 60.9875C7.49234 62.8412 9.16901 64.1325 11.0952 64.1667C11.4167 64.1657 11.7373 64.1317 12.0519 64.0652C15.3848 63.2751 18.669 62.2923 21.8881 61.1217C24.5166 62.664 26.1767 67.354 26.6096 69.1145C26.7388 69.6349 27.2061 70.0003 27.7424 70L57.0257 69.9183C57.3968 69.9176 57.7455 69.7404 57.9647 69.441C58.184 69.1415 58.2477 68.7557 58.1364 68.4017C57.8479 67.6112 57.4501 66.865 56.9546 66.185C56.6748 65.7817 56.4226 65.36 56.1997 64.9227C55.6713 63.8535 55.2308 62.743 54.8826 61.6023C54.2163 59.3485 53.7544 57.0393 53.5024 54.7027C53.1979 52.0004 53.456 49.2643 54.2607 46.6667H57.1657C59.0987 46.6667 60.6657 45.0997 60.6657 43.1667V28C60.6657 27.3557 60.1434 26.8333 59.4991 26.8333H54.7904C54.8178 26.6401 54.8318 26.4452 54.8324 26.25C54.8324 23.9948 53.0042 22.1667 50.7491 22.1667C48.4939 22.1667 46.6657 23.9948 46.6657 26.25C46.6663 26.4452 46.6803 26.6401 46.7077 26.8333H43.1657V23.2925C43.8104 23.3843 44.4676 23.3223 45.0837 23.1117C46.4156 22.6581 47.4168 21.546 47.7286 20.174C48.0339 18.8601 47.6706 17.4801 46.7578 16.4869C45.8451 15.4936 44.5007 15.0153 43.1657 15.2087V10.5C43.1657 9.85567 42.6434 9.33333 41.9991 9.33333H26.8324C24.8994 9.33333 23.3324 10.9003 23.3324 12.8333V43.1667C23.3324 45.0997 24.8994 46.6667 26.8324 46.6667H51.8107C51.0765 49.3747 50.8654 52.1979 51.1889 54.985C51.458 57.4624 51.9492 59.9106 52.6566 62.3C53.0404 63.5541 53.5246 64.7752 54.1044 65.9517C54.3706 66.48 54.6727 66.9895 55.0086 67.4765L55.0867 67.5932L28.6244 67.6667C27.8499 64.8991 26.4442 62.3489 24.5177 60.2163L25.5677 59.8488C26.3494 59.5758 26.9386 59.3705 27.2407 59.2737C32.2387 57.6928 34.7377 55.4167 34.6701 52.507C34.6549 51.8627 34.1203 51.3526 33.476 51.3677C32.8316 51.3829 32.3216 51.9175 32.3367 52.5618C32.3647 53.7623 31.3812 55.5135 26.5314 57.0477C26.2152 57.1492 25.6062 57.3615 24.7977 57.6438C23.9309 57.9472 22.8284 58.3322 21.6127 58.7452H21.6046C18.3213 59.9487 14.9713 60.9615 11.5712 61.7785C10.4856 61.9846 9.43019 61.299 9.17722 60.2233C8.92798 59.5596 8.83419 58.8476 8.90306 58.142C8.93339 57.897 8.98939 57.6543 9.04305 57.4105C9.28078 56.6039 9.31565 55.7511 9.14456 54.9278C8.80523 53.8561 8.01663 52.9849 6.98389 52.5408L6.74239 52.4032C6.86836 52.1488 7.01879 51.9074 7.19156 51.6822C7.38727 51.4342 7.47405 51.1174 7.43206 50.8043C7.39006 50.4912 7.22287 50.2085 6.96872 50.0208C6.68872 49.8155 6.02839 49.3208 5.54539 48.9312C5.60139 48.8297 5.66206 48.7177 5.72039 48.6162C5.90355 48.2953 6.11239 47.922 6.31656 47.4903C6.68574 46.6726 6.79449 45.761 6.62806 44.8793C6.34806 43.456 4.98422 42.7583 3.99022 42.2497C3.65457 42.0902 3.33265 41.9033 3.02772 41.6908C2.77965 41.5232 2.54696 41.3338 2.33239 41.125C2.33239 40.9477 2.52255 40.5183 3.41155 39.4368C5.50114 36.7468 7.29273 33.838 8.75489 30.7615C9.02829 30.2795 9.1823 29.739 9.20406 29.1853C9.08355 28.0126 8.46211 26.9493 7.49956 26.2687C7.03289 25.8358 6.58372 25.4275 6.53122 25.0472C6.53896 24.7718 6.6008 24.5007 6.71322 24.2492C6.90339 23.7487 7.12272 23.2587 7.34322 22.7675C7.82161 21.7811 8.20372 20.7508 8.48422 19.691L8.60089 19.194C8.84716 18.0276 9.16469 16.8775 9.55172 15.75C10.4714 13.2116 11.8953 10.8857 13.7377 8.91217C15.9696 6.55083 19.4824 4.88017 24.1957 3.94333C27.7998 3.15197 31.457 2.62517 35.1379 2.36717C40.4538 2.10162 45.7165 3.53281 50.1657 6.454V7.58333C50.1657 8.02523 50.4154 8.42921 50.8106 8.62683C51.2059 8.82446 51.6789 8.78181 52.0324 8.51667C52.7948 7.97878 53.8419 8.11302 54.4439 8.82583C54.783 9.24972 54.9074 9.80641 54.7811 10.3343C54.6441 10.9088 54.2236 11.3737 53.6657 11.5675C53.1113 11.7628 52.4961 11.6687 52.0254 11.3167C51.6719 11.0557 51.2018 11.0154 50.8091 11.2125C50.4163 11.4096 50.1677 11.8106 50.1657 12.25V17.5C50.1657 18.7887 51.2104 19.8333 52.4991 19.8333H57.7491C58.191 19.8333 58.5949 19.5837 58.7926 19.1884C58.9902 18.7932 58.9475 18.3202 58.6824 17.9667C58.1409 17.2447 58.2372 16.2294 58.9048 15.6221C59.5724 15.0149 60.5923 15.0149 61.2599 15.6221C61.9275 16.2294 62.0239 17.2447 61.4824 17.9667C61.2172 18.3202 61.1746 18.7932 61.3722 19.1884C61.5698 19.5837 61.9738 19.8333 62.4157 19.8333H68.8324C69.4767 19.8333 69.9991 19.311 69.9991 18.6667V3.5C69.9991 1.567 68.4321 0 66.4991 0H51.3324C50.6881 0 50.1657 0.522334 50.1657 1.16667V3.65983C45.5689 1.02506 40.3116 -0.23278 35.0201 0.0361667C31.2238 0.29947 27.452 0.840698 23.7349 1.6555C18.4744 2.7055 14.6512 4.55 12.0414 7.308C9.9827 9.51087 8.39094 12.1074 7.36189 14.9415C6.94174 16.161 6.59654 17.405 6.32822 18.6667L6.21156 19.159C5.96255 20.074 5.6286 20.9638 5.21406 21.8167C4.98072 22.3487 4.73805 22.8807 4.52922 23.4313C4.26071 24.0443 4.15463 24.7161 4.22122 25.382C4.45597 26.4276 5.05939 27.3536 5.92106 27.9907C6.49156 28.5133 6.86606 28.882 6.87072 29.2028C6.82898 29.3802 6.7622 29.5507 6.67239 29.7092C5.27528 32.6506 3.56393 35.4322 1.56822 38.0053C0.722389 39.0343 -0.164278 40.2348 0.0223884 41.4365C0.269861 42.3635 0.880535 43.1517 1.71639 43.6228ZM25.6657 12.8333C25.6657 12.189 26.1881 11.6667 26.8324 11.6667H40.8324V16.9167C40.8324 17.3586 41.0821 17.7625 41.4773 17.9602C41.8726 18.1578 42.3455 18.1151 42.6991 17.85C43.4614 17.3121 44.5085 17.4464 45.1106 18.1592C45.4496 18.5831 45.5741 19.1397 45.4477 19.6677C45.3108 20.2421 44.8903 20.7071 44.3324 20.9008C43.7762 21.096 43.1592 21.0001 42.6886 20.6453C42.3344 20.3859 41.8647 20.3472 41.4729 20.5452C41.0811 20.7432 40.8336 21.1443 40.8324 21.5833V26.8333H37.2927C37.3831 26.1893 37.3207 25.5331 37.1107 24.9177C36.6581 23.5849 35.5465 22.5823 34.1742 22.2693C32.9604 21.987 31.684 22.2744 30.7084 23.0498C29.7328 23.8252 29.1646 25.0037 29.1657 26.25C29.1663 26.4452 29.1803 26.6401 29.2077 26.8333H25.6657V12.8333ZM25.6657 43.1667V29.1667H30.9157C31.3576 29.1667 31.7616 28.917 31.9592 28.5217C32.1568 28.1265 32.1142 27.6535 31.8491 27.3C31.285 26.5439 31.4218 25.4768 32.1582 24.8873C32.5827 24.5485 33.1398 24.4245 33.6679 24.5513C34.2425 24.6874 34.7075 25.1083 34.8999 25.6667C35.0965 26.2225 35 26.84 34.6432 27.3093C34.383 27.6636 34.344 28.1341 34.5423 28.5265C34.7407 28.9188 35.1428 29.1663 35.5824 29.1667H40.8324V32.7087C39.2495 32.4799 37.6787 33.1963 36.8137 34.5415C35.9486 35.8868 35.9486 37.6132 36.8137 38.9585C37.6787 40.3037 39.2495 41.0201 40.8324 40.7913V44.3333H26.8324C26.1881 44.3333 25.6657 43.811 25.6657 43.1667ZM42.5182 38.0333C42.1209 37.8384 41.6477 37.8835 41.2944 38.15C40.5724 38.6915 39.5571 38.5951 38.9498 37.9275C38.3426 37.2599 38.3426 36.2401 38.9498 35.5725C39.5571 34.9049 40.5724 34.8085 41.2944 35.35C41.6479 35.6151 42.1209 35.6578 42.5161 35.4602C42.9114 35.2625 43.1611 34.8586 43.1611 34.4167V29.1667H48.4111C48.853 29.1667 49.2569 28.917 49.4546 28.5217C49.6522 28.1265 49.6095 27.6535 49.3444 27.3C48.8029 26.578 48.8992 25.5627 49.5668 24.9554C50.2344 24.3482 51.2543 24.3482 51.9219 24.9554C52.5895 25.5627 52.6859 26.578 52.1444 27.3C51.8792 27.6535 51.8366 28.1265 52.0342 28.5217C52.2318 28.917 52.6358 29.1667 53.0777 29.1667H58.3324V43.1667C58.3324 43.811 57.8101 44.3333 57.1657 44.3333H43.1657V39.0833C43.1677 38.6385 42.9166 38.2313 42.5182 38.0333ZM52.4991 2.33333H66.4991C67.1434 2.33333 67.6657 2.85567 67.6657 3.5V17.5H64.1237C64.1511 17.3068 64.1652 17.1118 64.1657 16.9167C64.1657 14.6615 62.3376 12.8333 60.0824 12.8333C57.8272 12.8333 55.9991 14.6615 55.9991 16.9167C55.9996 17.1118 56.0136 17.3068 56.0411 17.5H52.4991V13.9592C53.1437 14.051 53.8009 13.9891 54.4171 13.7783C55.7489 13.3247 56.7501 12.2127 57.0619 10.8407C57.3672 9.52674 57.0039 8.14681 56.0912 7.15356C55.1784 6.16031 53.8341 5.68192 52.4991 5.87533V2.33333Z" fill="#EC1744"/>
<path d="M13.027 20.7562L13.1436 20.2499C13.3507 19.2748 13.6132 18.3122 13.93 17.367C14.6318 15.4171 15.7239 13.6307 17.1395 12.117C18.0474 11.204 19.1255 10.4779 20.3128 9.97971C20.7063 9.8178 20.9804 9.45451 21.0282 9.0317C21.0759 8.60888 20.8897 8.19361 20.5422 7.94804C20.1947 7.70247 19.7411 7.66556 19.3585 7.85171C17.8903 8.4735 16.5594 9.37904 15.442 10.5164C13.8083 12.26 12.5479 14.3188 11.7378 16.5667C11.3857 17.6031 11.0947 18.6591 10.8663 19.7295L10.7496 20.2429C10.68 20.5454 10.7338 20.8632 10.8991 21.126C11.0644 21.3887 11.3276 21.5747 11.6305 21.6429C11.715 21.6623 11.8015 21.6721 11.8883 21.672C12.4357 21.6717 12.9093 21.2908 13.027 20.7562Z" fill="#EC1744"/>
<path d="M10.5 25.6666C11.1443 25.6666 11.6666 25.1443 11.6666 24.4999C11.6666 23.8556 11.1443 23.3333 10.5 23.3333C9.85565 23.3333 9.33331 23.8556 9.33331 24.4999C9.33331 25.1443 9.85565 25.6666 10.5 25.6666Z" fill="#EC1744"/>
</g>
<defs>
<clipPath id="clip0">
<rect width="70" height="70" fill="white"/>
</clipPath>
</defs>
</svg>
