<svg width="25" height="25" viewBox="0 0 25 25" fill="none" xmlns="http://www.w3.org/2000/svg">
<path d="M9.26826 12.8237L9.2732 12.8287M20.1843 14.641C19.7045 14.1325 19.1258 13.8607 18.5125 13.8607C17.9042 13.8607 17.3205 14.1275 16.821 14.6359L15.258 16.2217C15.1294 16.1512 15.0008 16.0858 14.8771 16.0203C14.6991 15.9297 14.5309 15.8441 14.3875 15.7535C12.9234 14.8071 11.5929 13.5738 10.3168 11.978C9.69857 11.1826 9.28309 10.5131 8.98138 9.83346C9.38696 9.4559 9.76287 9.06325 10.1289 8.68569C10.2674 8.54474 10.4059 8.39875 10.5444 8.2578C11.583 7.20065 11.583 5.83138 10.5444 4.77423L9.19406 3.39994C9.04073 3.24388 8.88246 3.08279 8.73408 2.9217C8.43731 2.60959 8.1257 2.28741 7.80421 1.98537C7.32444 1.5021 6.75069 1.24536 6.14726 1.24536C5.54384 1.24536 4.9602 1.5021 4.46559 1.98537C4.46064 1.9904 4.46064 1.9904 4.45569 1.99544L2.77402 3.72212C2.14091 4.36647 1.77985 5.15179 1.70071 6.06295C1.582 7.5329 2.00737 8.90216 2.33381 9.79822C3.13508 11.9981 4.33204 14.0369 6.11759 16.2217C8.28398 18.8545 10.8906 20.9335 13.8681 22.3985C15.0057 22.9472 16.5242 23.5966 18.2207 23.7073C18.3246 23.7123 18.4334 23.7174 18.5323 23.7174C19.6749 23.7174 20.6344 23.2996 21.3862 22.4689C21.3912 22.4589 21.4011 22.4538 21.406 22.4438C21.6632 22.1266 21.96 21.8397 22.2716 21.5326C22.4843 21.3262 22.7019 21.1097 22.9146 20.8832C23.4042 20.3647 23.6614 19.7606 23.6614 19.1414C23.6614 18.5172 23.3993 17.9181 22.8997 17.4147L20.1843 14.641Z" stroke="#EC1744" stroke-width="2.4"/>
</svg>
