<svg width="159" height="76" viewBox="0 0 159 76" fill="none" xmlns="http://www.w3.org/2000/svg">
<path d="M13.6639 75.9275C11.913 75.9275 11.0376 74.7827 11.0376 72.4931C11.0376 67.1058 17.1657 59.4288 21.6776 55.0516C21.6776 53.1661 21.6102 51.1458 21.5429 49.7316C20.3981 51.4152 18.6472 53.3007 17.031 53.3007C16.3576 53.3007 15.9535 52.964 15.7515 52.6947C15.5495 52.4253 15.4821 52.0886 15.4148 51.6845C14.5393 52.358 13.2599 52.8967 11.3743 53.3007C11.2396 53.3007 11.1723 53.3681 11.0376 53.3681C10.6335 55.0516 8.94999 57.2739 7.60316 57.2739C7.06443 57.2739 6.66038 56.9372 6.59304 56.3311C6.45835 55.1863 7.67051 53.3681 9.7581 52.4253C9.69076 52.0212 9.48872 51.4152 8.61328 51.4152C7.33379 51.4152 4.16874 54.2435 3.96672 58.0146C3.96672 58.3513 3.69736 58.5534 3.428 58.6207C3.09129 58.6881 2.82192 58.486 2.75458 58.1493C2.35053 56.6005 2.14851 55.1863 2.48522 51.5499C1.67712 52.4253 1.13838 52.8293 1.07104 52.8967C0.801675 53.0987 0.397613 53.0314 0.195588 52.762C-0.00643641 52.4926 0.0609134 52.0886 0.33028 51.8866C0.397621 51.8866 1.34041 51.0785 2.75458 49.2602C3.02395 47.3747 3.36064 44.9504 3.89937 41.9874C5.17886 34.4451 7.87253 27.0375 9.7581 25.8254C10.1621 25.556 10.4989 25.556 10.7009 25.6233C11.8457 25.9601 12.5191 28.3844 11.711 31.8188C9.42139 41.1119 6.25633 46.7013 3.96672 49.7316C3.69735 52.0212 3.56267 53.5701 3.56267 54.7149C4.77481 52.0886 7.13177 50.203 8.68063 50.203C10.0948 50.203 10.7682 51.1458 11.0376 52.0212C14.1353 51.3478 15.0781 50.5397 15.6168 49.1929C15.6842 48.8562 15.7515 48.6542 15.8188 48.5195C15.9535 48.1828 16.2902 48.0481 16.6269 48.1154C16.9637 48.1828 17.1657 48.5195 17.031 48.8562C16.9636 49.0582 16.8963 49.3276 16.829 49.5296C16.6269 50.405 16.4249 51.5499 16.7616 51.8866C16.7616 51.9539 16.829 52.0212 17.031 52.0212C18.5125 52.0212 21.0715 48.5195 21.4755 47.3073C21.5429 47.038 21.8796 46.8359 22.1489 46.8359C22.4857 46.8359 22.6877 47.1053 22.6877 47.442C22.6877 47.5094 22.8897 50.6744 22.9571 53.9741C27.3343 50.1357 28.3444 46.0952 28.3444 46.0952C28.4117 45.7585 28.7484 45.5565 29.0851 45.6238C29.4218 45.6911 29.6239 46.0278 29.5565 46.3646C29.4892 46.5666 28.4117 50.8091 23.6978 54.9843C23.4284 55.1863 23.1591 55.4557 22.8897 55.725C22.6877 61.7184 17.7717 75.9275 13.6639 75.9275ZM21.5429 56.9372C17.1657 61.3817 12.2497 68.0485 12.2497 72.4931C12.2497 74.5133 12.9905 74.648 13.5966 74.648C16.2902 74.648 20.8021 63.4693 21.5429 56.9372ZM9.35404 54.1088C8.54595 54.7149 8.07455 55.3883 7.93987 55.8597C8.34392 55.5903 8.95 54.8496 9.35404 54.1088ZM10.4315 26.8355C9.48873 27.5089 6.6604 33.1656 5.17888 42.122C4.90951 43.9403 4.64014 45.4891 4.43812 46.8359C6.39102 43.6709 8.74798 38.6876 10.4989 31.4821C11.1723 28.8557 10.7009 27.2395 10.4315 26.8355Z" fill="#EC1744"/>
<path d="M40.0615 54.7151C37.9739 54.7151 37.5025 53.3682 37.5025 52.2908C37.5025 49.3951 47.1997 37.947 54.1359 37.947C54.6073 37.947 55.0787 38.0817 55.4154 38.2164C55.6847 37.2062 55.8868 36.1288 55.8868 35.1187C55.8868 31.2128 53.3278 27.1724 49.0179 27.1724C44.0346 27.1724 37.4352 31.6169 34.1355 35.6574C32.4519 37.745 31.7112 39.6305 32.0479 40.9774C32.1152 41.3141 31.9132 41.6508 31.5765 41.7181C31.2398 41.7855 30.903 41.5835 30.8357 41.2467C30.4317 39.4959 31.2398 37.2736 33.1927 34.9166C36.6271 30.6068 43.6979 25.9602 49.0179 25.9602C54.1359 25.9602 57.1663 30.6068 57.1663 35.186C57.1663 36.5328 56.8969 37.8123 56.4928 39.1592C56.8295 39.5632 57.0316 40.1019 57.1663 40.4386C57.2336 40.7753 57.0316 41.1121 56.6949 41.1794C56.3582 41.2467 56.0215 41.0447 55.9541 40.708C52.5197 48.2503 43.0919 54.7151 40.0615 54.7151ZM54.1359 39.1592C48.0078 39.1592 38.782 49.8665 38.782 52.2908C38.782 53.2335 39.0514 53.5029 40.0615 53.5029C42.8898 53.5029 52.1157 46.9034 55.0113 39.4285C54.8093 39.2265 54.5399 39.1592 54.1359 39.1592Z" fill="#EC1744"/>
<path d="M40.3992 50.5398C40.3319 50.5398 40.2645 50.5398 40.1299 50.4725C40.0625 50.4725 38.5137 49.7317 38.5137 47.2401C38.5137 43.7383 42.0154 35.2533 42.2175 34.8493C42.3521 34.5125 42.6888 34.3779 43.0255 34.5125C43.3623 34.6472 43.4969 34.9839 43.3623 35.3206C43.2949 35.388 39.7932 43.9404 39.7932 47.1728C39.7932 48.789 40.6686 49.193 40.6686 49.193C41.0053 49.3277 41.14 49.7317 41.0053 50.0011C40.8706 50.4052 40.6013 50.5398 40.3992 50.5398Z" fill="#EC1744"/>
<path d="M59.9951 46.0956C59.9278 46.0956 59.8604 46.0956 59.7931 46.0282C59.5237 45.9609 59.3217 45.6242 59.389 45.3548L60.5338 36.6004C60.6012 36.2637 60.8705 35.9943 61.2746 36.0617C61.6113 36.129 61.8807 36.3984 61.8133 36.8024L61.0052 42.7958C62.6214 40.4389 64.9784 37.4758 66.5946 37.4758C67.268 37.4758 67.6047 37.8125 67.8067 38.0819C68.3455 38.8227 67.8741 40.0348 67.7394 40.2368C67.6047 40.5735 67.268 40.7082 66.9313 40.5735C66.5946 40.4389 66.4599 40.0348 66.5946 39.7654C66.7292 39.3614 66.7966 38.89 66.7293 38.8227C66.7293 38.8227 66.6619 38.8227 66.5946 38.8227C65.5171 38.8227 62.6214 42.4591 60.5338 45.8262C60.3991 45.9609 60.1971 46.0956 59.9951 46.0956Z" fill="#EC1744"/>
<path d="M73.2608 42.8626C73.1262 42.8626 72.9241 42.7952 72.7895 42.6606L72.0487 41.9871C71.7793 41.7178 71.7793 41.3137 72.0487 41.1117C72.3181 40.8423 72.7221 40.8423 72.9241 41.1117L73.6649 41.7851C73.9343 42.0545 73.9343 42.4585 73.6649 42.6606C73.5976 42.7952 73.4629 42.8626 73.2608 42.8626Z" fill="#EC1744"/>
<path d="M88.7504 44.816C86.6628 44.816 85.4506 43.6039 85.4506 41.5163C85.4506 37.9472 91.1073 32.7619 96.1579 30.3376C96.4946 30.2029 96.8313 30.3376 96.966 30.607C97.1007 30.9437 96.966 31.2804 96.6967 31.4151C91.5787 33.8394 86.6628 38.7553 86.6628 41.449C86.6628 42.7958 87.3362 43.4692 88.683 43.4692C91.7807 43.4692 100.805 32.0211 100.805 24.0075C100.805 19.8323 98.7169 17.6101 94.8111 17.6101C87.3362 17.6101 74.676 30.0009 74.676 32.6272C74.676 33.3006 75.3494 33.6374 75.3494 33.6374C75.6861 33.772 75.8208 34.1761 75.6187 34.5128C75.4841 34.8495 75.08 34.9842 74.8107 34.7822C74.2719 34.5128 73.3965 33.772 73.3965 32.6272C73.3965 29.1928 86.7974 16.3306 94.8111 16.3306C99.3903 16.3306 102.017 19.1589 102.017 24.0075C102.084 32.2232 93.1949 44.816 88.7504 44.816Z" fill="#EC1744"/>
<path d="M83.2269 45.7587C83.0248 45.7587 82.8228 45.6914 82.7555 45.4893C79.7251 41.5835 86.3919 24.6134 87.2 22.6605C87.3347 22.3238 87.6714 22.1891 88.0081 22.3238C88.3448 22.4585 88.4795 22.7952 88.3448 23.1319C85.3818 30.4048 81.7453 42.1896 83.6982 44.6812C83.9003 44.9506 83.8329 45.3546 83.5636 45.5567C83.4962 45.7587 83.3615 45.7587 83.2269 45.7587Z" fill="#EC1744"/>
<path d="M103.297 37.0041C103.23 37.0041 103.162 37.0041 103.095 36.9367C102.825 36.8694 102.623 36.5327 102.691 36.2633L103.836 27.2396C103.903 26.9028 104.172 26.6335 104.509 26.7008C104.846 26.7682 105.115 27.0375 105.048 27.3742L104.24 33.637C105.856 31.2127 108.28 28.115 109.829 28.115C110.435 28.115 110.772 28.3844 110.906 28.6537C111.445 29.3945 111.041 30.5393 110.974 30.7413C110.839 31.078 110.502 31.2127 110.166 31.1454C109.829 31.0107 109.694 30.674 109.762 30.3373C109.896 29.9332 109.896 29.4618 109.829 29.3945C109.829 29.3945 109.829 29.3945 109.762 29.3945C108.819 29.3945 105.856 33.1656 103.768 36.6674C103.701 36.8694 103.499 37.0041 103.297 37.0041Z" fill="#EC1744"/>
<path d="M114.676 33.435C114.205 33.435 112.656 33.233 112.656 30.6067C112.656 29.7986 112.926 29.1925 113.262 28.6538C113.06 28.3844 112.926 27.9804 112.926 27.5763C112.926 26.7682 113.801 25.8254 115.148 25.8254C116.158 25.8254 117.235 26.6335 117.572 28.1151C119.525 27.711 121.68 26.5662 122.421 26.0948C122.69 25.8928 123.094 25.9601 123.296 26.2295C123.498 26.4989 123.431 26.9029 123.162 27.1049C122.421 27.6437 119.996 28.9231 117.707 29.3945C117.505 31.2801 116.158 33.435 114.676 33.435ZM114.34 29.3272C114.138 29.6639 113.936 30.1353 113.936 30.6067C113.936 31.2128 114.003 32.1555 114.676 32.1555C115.283 32.1555 116.158 30.8761 116.36 29.5292C115.552 29.5292 114.879 29.4619 114.34 29.3272ZM115.35 28.2497C115.619 28.2497 115.956 28.3171 116.293 28.2497C116.091 27.4416 115.552 27.0376 115.148 27.0376C114.474 27.0376 114.205 27.3743 114.205 27.509V27.5763C114.34 27.4416 114.407 27.4416 114.407 27.3743C114.677 27.1723 115.081 27.2396 115.283 27.5763C115.417 27.8457 115.417 28.0477 115.35 28.2497Z" fill="#EC1744"/>
<path d="M123.162 33.7717C122.893 33.7717 122.691 33.637 122.556 33.3676C122.489 33.233 121.95 31.6168 121.95 25.6234C121.95 25.354 121.95 25.0846 121.95 24.7479C121.883 24.6132 121.883 24.4112 121.95 24.2765C122.287 20.6401 123.633 14.9161 124.778 10.8082C127.809 0.235595 129.223 0.235596 129.694 0.235596C130.233 0.235596 131.58 0.572304 131.58 3.8047C131.58 11.0776 124.307 22.8624 123.229 24.6806C123.229 25.0173 123.162 25.354 123.162 25.6234C123.162 27.1722 123.229 28.3844 123.229 29.3272C123.364 28.9904 123.566 28.7211 123.701 28.4517C124.913 26.4988 126.529 25.152 128.078 24.8153C129.29 24.5459 129.896 25.0173 130.233 25.4213C130.435 25.7581 130.57 26.1621 130.57 26.6335C130.839 26.5661 131.176 26.4988 131.445 26.4988C133.331 26.2968 134.88 24.6132 135.62 23.6705C135.62 23.6031 135.688 23.6031 135.688 23.5358C135.553 23.2664 135.486 22.997 135.486 22.7277C135.486 21.7176 136.496 20.9768 137.708 20.9768C138.785 20.9768 139.728 21.9196 139.93 23.1317C141.344 22.8624 143.365 22.3236 144.981 20.9095C145.25 20.7074 145.654 20.7074 145.856 20.9768C146.058 21.2462 146.058 21.6502 145.789 21.8522C143.903 23.4684 141.614 24.0745 139.997 24.3439C139.795 26.3641 138.651 28.5191 137.236 28.5191C136.024 28.5191 135.284 27.8456 135.082 26.7008C135.082 26.4988 135.014 26.2968 135.082 26.0948C134.139 26.9029 132.994 27.5763 131.647 27.711C131.176 27.7783 130.772 27.8456 130.435 27.9803C130.166 28.8558 129.694 29.7985 129.29 30.4046C128.549 31.4821 127.876 31.9535 127.203 31.8188C126.597 31.6841 126.192 31.1454 126.192 30.472C126.26 29.3945 127.337 27.8456 129.357 26.9702C129.425 26.7008 129.425 26.4988 129.357 26.2968C129.29 26.0948 129.223 25.8254 128.482 25.9601C127.27 26.2294 125.923 27.3742 124.913 29.0578C124.038 30.472 123.633 32.0208 123.836 32.8289C123.903 33.1656 123.768 33.5023 123.431 33.5697C123.297 33.7717 123.229 33.7717 123.162 33.7717ZM128.751 28.8558C128.28 29.1925 127.876 29.5965 127.674 30.0006C127.472 30.3373 127.405 30.5393 127.405 30.674C127.809 30.5393 128.347 29.7312 128.751 28.8558ZM136.765 24.4112C136.496 25.0846 136.226 26.2968 136.496 26.9029C136.563 27.1049 136.765 27.3742 137.304 27.3742C137.775 27.3742 138.583 26.0948 138.785 24.6132C138.516 24.6132 138.247 24.6132 138.112 24.6132C137.573 24.6806 137.102 24.6132 136.765 24.4112ZM137.371 23.3338C137.573 23.4011 137.843 23.4684 138.112 23.4684C138.179 23.4684 138.449 23.4684 138.785 23.4684C138.651 22.795 138.179 22.391 137.775 22.391C137.236 22.391 136.9 22.6603 136.832 22.795C136.967 22.795 137.102 22.9297 137.236 22.997C137.304 23.0644 137.304 23.1991 137.371 23.3338ZM129.829 1.58243C128.415 2.65989 124.846 14.2426 123.633 21.5829C126.058 17.4077 130.368 9.12468 130.368 3.8047C130.368 2.39053 130.031 1.64977 129.829 1.58243Z" fill="#EC1744"/>
<path d="M148.482 28.2496C145.182 28.2496 144.778 24.3438 144.778 20.9767C144.778 16.7342 146.327 11.6162 147.203 8.92255C148.28 5.7575 149.762 2.05371 150.772 2.05371C151.108 2.05371 152.119 2.1884 152.119 3.93928C152.119 7.7104 146.664 18.8218 145.99 20.1686C145.99 20.438 145.99 20.7073 145.99 20.9767C145.99 26.2967 147.27 26.9701 148.415 26.9701C149.492 26.9701 150.637 25.7579 150.974 25.2866C151.176 25.0172 151.58 24.9498 151.849 25.1519C152.119 25.3539 152.186 25.7579 151.984 26.0273C152.051 26.162 150.502 28.2496 148.482 28.2496ZM150.906 3.46789C149.964 4.88206 147.607 10.6734 146.597 16.1954C148.415 12.357 150.974 6.36357 150.974 3.93928C150.974 3.73725 150.906 3.60257 150.906 3.46789Z" fill="#EC1744"/>
<path d="M139.592 15.3199C139.323 15.3199 139.121 15.1852 138.986 14.9158C138.851 14.5791 138.986 14.2424 139.323 14.1077C139.794 13.9057 151.108 9.46114 157.438 8.98975C157.774 8.98975 158.111 9.19177 158.111 9.59582C158.111 9.93253 157.909 10.2692 157.505 10.2692C151.377 10.7406 139.862 15.2525 139.794 15.2525C139.727 15.3199 139.66 15.3199 139.592 15.3199Z" fill="#EC1744"/>
</svg>
