<svg width="144" height="144" viewBox="0 0 144 144" fill="none" xmlns="http://www.w3.org/2000/svg">
<path d="M32.657 112.114C32.6032 112.414 32.3947 112.781 32.1187 112.993C31.7215 113.35 31.2233 113.475 30.6239 113.368C30.1019 113.227 29.4788 112.853 28.9094 112.18L26.4772 109.555L31.2866 105.157L33.574 107.661C34.1097 108.257 34.4568 108.842 34.5042 109.374C34.5516 109.907 34.3767 110.351 34.057 110.675C33.8584 110.853 33.5487 110.988 33.3164 111.089C33.0505 111.113 32.7844 111.137 32.451 111.006C32.7307 111.437 32.7881 111.78 32.657 112.114ZM31.0237 111.535C31.3434 111.212 31.2859 110.868 30.8951 110.394L29.8576 109.28L28.8647 110.173L29.9023 111.287C30.3705 111.728 30.704 111.859 31.0237 111.535ZM31.7322 107.45L30.8167 108.309L31.6758 109.225C32.0666 109.699 32.4774 109.797 32.7971 109.473C33.1168 109.15 33.0594 108.806 32.5912 108.365L31.7322 107.45Z" fill="#231F20"/>
<path d="M41.0457 119.328L39.7705 121.266L38.2009 120.199L39.5535 118.228L39.8475 113.401L41.4508 114.546L41.2906 117.563L44.0443 116.272L45.5028 117.295L41.0457 119.328Z" fill="#231F20"/>
<path d="M58.7524 122.762L61.7831 123.377C62.4936 123.528 63.0492 123.747 63.5949 124.154C64.1069 124.483 64.4202 124.992 64.6562 125.534C64.8922 126.076 64.8959 126.719 64.7884 127.319C64.6809 127.918 64.3849 128.508 64.0215 128.943C63.658 129.377 63.1497 129.691 62.5403 129.772C61.9646 129.931 61.3215 129.935 60.611 129.783L57.5803 129.169L58.7524 122.762ZM60.6911 128.275C61.2131 128.416 61.7113 128.291 62.0647 128.045C62.4182 127.799 62.7042 127.398 62.8454 126.875C62.9865 126.353 62.8617 125.855 62.6158 125.502C62.3698 125.148 61.969 124.862 61.3696 124.755L60.2482 124.506L59.5698 128.026L60.6911 128.275Z" fill="#231F20"/>
<path d="M74.9448 129.067L73.9583 129.129L74.0568 130.836L72.1612 130.925L71.791 124.361L74.7843 124.255C75.3937 124.174 75.9156 124.315 76.3601 124.49C76.8047 124.664 77.2055 124.95 77.4514 125.304C77.6974 125.657 77.866 126.045 77.9134 126.577C77.927 127.031 77.8296 127.442 77.621 127.81C77.4124 128.177 77.0927 128.5 76.7056 128.669L78.2251 130.679L76.2521 130.801L74.9448 129.067ZM75.637 126.002C75.4584 125.804 75.1587 125.75 74.8153 125.807L73.8288 125.869L73.9172 127.765L74.9038 127.704C75.2809 127.723 75.5906 127.589 75.7891 127.41C75.9877 127.231 76.0752 127.009 76.0178 126.665C75.9604 126.322 75.8592 126.09 75.637 126.002Z" fill="#231F20"/>
<path d="M83.2751 129.586C83.0191 129.421 82.8405 129.223 82.7831 128.879C82.7256 128.535 82.8131 128.313 82.9006 128.091C83.0655 127.835 83.2979 127.733 83.6077 127.598C83.9512 127.541 84.1398 127.551 84.3958 127.716C84.6519 127.881 84.753 128.113 84.8879 128.423C84.9453 128.766 84.8578 128.989 84.7704 129.211C84.6054 129.467 84.3731 129.568 84.0633 129.703C83.7535 129.838 83.4537 129.785 83.2751 129.586Z" fill="#231F20"/>
<path d="M92.3136 120.304L95.111 118.901C95.7304 118.631 96.3835 118.439 97.0266 118.435C97.6697 118.431 98.1917 118.572 98.7036 118.902C99.2156 119.232 99.5727 119.629 99.8423 120.249C100.112 120.868 100.271 121.444 100.241 122.01C100.21 122.576 99.9919 123.132 99.551 123.6C99.1876 124.035 98.6356 124.459 98.0499 124.807L95.2525 126.209L92.3136 120.304ZM97.322 123.558C97.864 123.321 98.1837 122.998 98.3586 122.553C98.5334 122.109 98.5197 121.654 98.2064 121.146C97.9704 120.603 97.5696 120.317 97.1588 120.22C96.7143 120.045 96.216 120.17 95.7514 120.372L94.7012 120.922L96.3054 124.185L97.322 123.558Z" fill="#231F20"/>
<path d="M109.02 115.514L108.27 116.118L109.408 117.464L107.985 118.637L103.787 113.648L106.082 111.727C106.557 111.336 106.988 111.057 107.486 110.932C107.984 110.807 108.361 110.827 108.772 110.924C109.183 111.021 109.584 111.307 109.83 111.661C110.153 111.981 110.322 112.368 110.335 112.823C110.427 113.244 110.329 113.654 110.154 114.099L112.576 114.795L111.031 116.113L109.02 115.514ZM107.662 112.605C107.396 112.629 107.164 112.73 106.81 112.976L106.016 113.691L107.299 115.158L108.094 114.444C108.37 114.232 108.535 113.976 108.588 113.676C108.642 113.376 108.541 113.144 108.362 112.945C108.184 112.746 107.962 112.659 107.662 112.605Z" fill="#231F20"/>
<path d="M118.556 107.585C118.014 107.821 117.439 107.979 116.795 107.983C116.23 107.953 115.597 107.768 115.128 107.327C114.583 106.92 114.226 106.523 113.956 105.904C113.72 105.361 113.639 104.752 113.746 104.152C113.854 103.553 114.039 102.92 114.446 102.374C114.853 101.828 115.294 101.359 115.913 101.09C116.533 100.82 117.031 100.695 117.674 100.691C118.24 100.721 118.873 100.906 119.341 101.347C119.887 101.754 120.244 102.151 120.514 102.771C120.749 103.313 120.831 103.922 120.723 104.522C120.616 105.121 120.431 105.755 120.024 106.301C119.65 106.924 119.098 107.349 118.556 107.585ZM119.094 104.587C119.147 104.287 119.09 103.944 118.878 103.668C118.743 103.358 118.531 103.082 118.197 102.951C117.907 102.708 117.574 102.577 117.274 102.523C116.975 102.47 116.631 102.527 116.399 102.628C116.089 102.763 115.891 102.942 115.648 103.232C115.484 103.488 115.352 103.821 115.299 104.121C115.245 104.421 115.302 104.764 115.515 105.04C115.649 105.35 115.862 105.626 116.195 105.757C116.485 106 116.818 106.131 117.118 106.185C117.418 106.238 117.761 106.181 117.993 106.08C118.303 105.945 118.501 105.766 118.744 105.476C118.986 105.186 119.04 104.887 119.094 104.587Z" fill="#231F20"/>
<path d="M125.297 89.6317C125.64 89.5743 125.983 89.5168 126.351 89.7254C126.906 89.944 127.23 90.2637 127.311 90.8732C127.392 91.4828 127.284 92.0823 127.012 92.938L125.701 96.2731L119.588 93.8689L120.812 90.7561C121.118 89.9779 121.525 89.4321 121.956 89.1522C122.387 88.8724 122.919 88.825 123.364 88.9998C123.697 89.1309 123.876 89.3295 124.054 89.5281C124.233 89.7267 124.368 90.0365 124.314 90.3363C124.677 89.9016 124.987 89.7667 125.297 89.6317ZM121.588 92.5373L122.81 93.0181L123.291 91.7952C123.51 91.2394 123.418 90.8185 123.008 90.721C122.597 90.6236 122.287 90.7586 122.102 91.3918L121.588 92.5373ZM125.506 91.3829C125.062 91.2081 124.786 91.4204 124.523 92.0875L123.955 93.5327L125.178 94.0135L125.746 92.5683C126.008 91.9013 125.951 91.5578 125.506 91.3829Z" fill="#231F20"/>
<path d="M129.869 81.0982C129.539 81.6104 129.064 82.0014 128.522 82.2375C127.98 82.4736 127.371 82.5548 126.694 82.4811C126.017 82.4074 125.462 82.1889 125.027 81.8254C124.593 81.462 124.202 80.9873 123.932 80.3678C123.696 79.8257 123.659 79.105 123.732 78.428C123.806 77.751 123.991 77.1177 124.432 76.6493C124.762 76.1371 125.236 75.7462 125.778 75.5101C126.32 75.274 126.93 75.1927 127.606 75.2664C128.283 75.3401 128.839 75.5586 129.273 75.9221C129.708 76.2856 130.099 76.7602 130.368 77.3797C130.604 77.9218 130.642 78.6425 130.568 79.3195C130.494 79.9965 130.276 80.5524 129.869 81.0982ZM128.887 78.2092C128.753 77.8994 128.574 77.7008 128.318 77.5359C128.062 77.3711 127.729 77.2399 127.351 77.22C126.974 77.2 126.631 77.2575 126.365 77.2812C126.055 77.4161 125.857 77.5948 125.581 77.8071C125.416 78.0632 125.251 78.3193 125.231 78.6965C125.177 78.9963 125.235 79.3397 125.369 79.6495C125.504 79.9593 125.683 80.1579 125.939 80.3227C126.195 80.4876 126.528 80.6187 126.905 80.6387C127.282 80.6587 127.626 80.6012 127.892 80.5775C128.202 80.4425 128.4 80.2639 128.676 80.0516C128.841 79.7955 129.006 79.5394 129.026 79.1622C129.046 78.785 128.989 78.4415 128.887 78.2092Z" fill="#231F20"/>
<path d="M125.552 66.9481L125.785 68.9653L124.301 69.1515L123.624 63.3658L125.109 63.1796L125.343 65.1969L130.44 64.6346L130.683 66.4632L125.552 66.9481Z" fill="#231F20"/>
<path d="M16.0106 87.2121L17.4279 86.8711L16.669 84.0695L18.0864 83.7284L18.8453 86.53L20.9932 85.9628L21.5025 87.7677L15.1362 89.4355L13.8106 84.4855L15.2279 84.1444L16.0106 87.2121Z" fill="#231F20"/>
<path d="M17.7975 72.0627L17.8796 74.7907L19.1795 75.2379L19.268 77.134L12.6436 74.4L12.5889 72.5813L19.069 69.4821L19.08 71.4119L17.7975 72.0627ZM16.4812 72.6361L14.3907 73.5468L16.5023 74.3773L16.4812 72.6361Z" fill="#231F20"/>
<path d="M21.0222 57.6692L17.6245 56.8462L19.9993 59.1281L19.8045 59.95L16.7274 60.9219L20.014 61.7012L19.6242 63.345L13.2396 61.7964L13.6193 60.3412L17.814 58.9746L14.6475 55.932L15.0273 54.4768L21.412 56.0254L21.0222 57.6692Z" fill="#231F20"/>
<path d="M18.3174 46.5924L19.1617 44.9349L25.0218 47.8175L24.1774 49.475L18.3174 46.5924Z" fill="#231F20"/>
<path d="M23.4003 37.7466L24.5007 36.2539L28.5325 39.3801L30.4035 36.9069L31.5285 37.7987L28.5573 41.7646L23.4003 37.7466Z" fill="#231F20"/>
<path d="M36.7383 29.4493L38.2678 31.2703L36.8441 32.4432L35.3145 30.6222L30.6706 29.0524L32.138 27.7683L35.0375 28.7161L34.5546 25.7022L35.9009 24.563L36.7383 29.4493Z" fill="#231F20"/>
<path d="M51.1654 16.2537L54.0876 15.3492C54.7407 15.1568 55.4275 15.0419 56.0269 15.1493C56.6263 15.2566 57.1819 15.4752 57.6165 15.8387C58.051 16.2022 58.3644 16.7105 58.5566 17.3638C58.7489 18.017 58.7963 18.5491 58.6114 19.1824C58.4702 19.7045 58.1405 20.2167 57.6996 20.6851C57.225 21.0761 56.6394 21.4234 55.9862 21.6157L53.0641 22.5202L51.1654 16.2537ZM55.5344 20.1543C56.11 19.9957 56.4298 19.6721 56.7158 19.2712C56.9244 18.9039 56.9881 18.4156 56.8296 17.8397C56.671 17.2639 56.3476 16.9442 55.9805 16.7356C55.536 16.5607 55.0477 16.4971 54.5832 16.6994L53.4655 17.0942L54.5715 20.4816L55.5344 20.1543Z" fill="#231F20"/>
<path d="M71.2889 17.6227L71.3637 19.0641L66.0877 19.4278L65.6401 12.8976L70.7612 12.6014L70.836 14.0428L67.533 14.284L67.6278 15.3482L70.5099 15.1982L70.551 16.5622L67.6689 16.7122L67.7199 17.8876L71.2889 17.6227Z" fill="#231F20"/>
<path d="M85.4719 14.0239L84.3335 20.5079L82.8351 20.2394L80.584 16.3374L79.9493 19.7461L78.1511 19.4239L79.2894 12.94L80.7879 13.2084L83.0389 17.1104L83.6737 13.7017L85.4719 14.0239Z" fill="#231F20"/>
<path d="M94.3136 18.4636L92.5017 17.6868L93.1037 16.319L98.4619 18.6833L97.8599 20.0511L96.048 19.2742L94.0233 23.9334L92.3226 23.2002L94.3136 18.4636Z" fill="#231F20"/>
<path d="M105.058 22.626L106.628 23.6926L102.899 29.0937L101.33 28.0271L105.058 22.626Z" fill="#231F20"/>
<path d="M108.993 33.993C108.714 33.5621 108.623 33.1412 108.532 32.7202L109.959 32.1906C110.016 32.534 110.151 32.8438 110.32 33.231C110.488 33.6182 110.7 33.8943 110.99 34.1366C111.492 34.6549 111.826 34.7861 112.102 34.5737C112.223 34.4288 112.266 34.3176 112.165 34.0853C112.064 33.853 111.929 33.5432 111.683 33.1897C111.404 32.7588 111.235 32.3716 111.1 32.0619C110.965 31.7521 110.908 31.4086 110.928 31.0314C110.948 30.6542 111.157 30.2869 111.51 30.0409C111.752 29.7511 112.14 29.5824 112.483 29.5249C112.826 29.4675 113.315 29.5311 113.759 29.706C114.204 29.8808 114.638 30.2443 115.106 30.6852C115.43 31.0049 115.676 31.3584 115.922 31.7119C116.168 32.0654 116.336 32.4526 116.394 32.7961L114.966 33.3258C114.774 32.6725 114.427 32.0867 114.07 31.6895C113.78 31.4472 113.602 31.2486 113.413 31.2386C113.225 31.2286 113.036 31.2187 112.915 31.3635C112.794 31.5084 112.75 31.6196 112.851 31.8519C112.952 32.0843 113.087 32.394 113.333 32.7475C113.613 33.1784 113.781 33.5656 113.916 33.8754C114.051 34.1851 114.108 34.5287 114.088 34.9059C114.068 35.2831 113.937 35.6166 113.584 35.8627C113.341 36.1525 112.954 36.3211 112.611 36.3786C112.267 36.4361 111.779 36.3724 111.335 36.1975C110.89 36.0227 110.456 35.6592 110.021 35.2957C109.553 34.8548 109.196 34.4577 108.993 33.993Z" fill="#231F20"/>
<path d="M120.987 41.0232L119.946 39.2658L121.194 38.5375L124.217 43.5774L122.968 44.3057L121.961 42.6257L117.585 45.2689L116.611 43.6664L120.987 41.0232Z" fill="#231F20"/>
<path d="M95.1563 140.164L95.0789 140.198C78.0577 145.954 59.5687 145.164 43.0497 137.897C26.4195 130.585 13.3153 117.408 6.03437 100.681C-1.24655 83.9537 -1.96258 65.38 4.01585 48.22C9.95055 31.1712 21.9676 17.0923 37.7753 8.54801C38.4385 8.16701 39.2164 8.473 39.5635 9.0588C39.9443 9.72204 39.6383 10.5002 39.0526 10.8475C7.55831 27.7913 -5.8576 66.8004 8.40086 99.5579C22.693 132.393 60.345 149.064 94.1988 137.541C94.9293 137.315 95.6299 137.655 95.8558 138.385C96.1155 139.193 95.7757 139.894 95.1563 140.164Z" fill="#EC1744"/>
<path d="M105.798 135.62C105.179 135.89 104.435 135.661 104.087 135.076C103.707 134.412 104.013 133.634 104.598 133.287C136.315 116.431 149.886 77.354 135.526 44.3642C121.166 11.3743 83.3596 -5.22921 49.3847 6.43859C48.6541 6.6647 47.9537 6.32497 47.7277 5.59427C47.5018 4.86358 47.8415 4.16285 48.572 3.93674C65.6369 -1.93089 84.1696 -1.2522 100.8 6.05915C117.507 13.3368 130.723 26.5576 138.004 43.2849C145.285 60.0121 145.957 78.697 139.901 95.8907C133.889 112.973 121.794 127.086 105.876 135.586L105.798 135.62Z" fill="#EC1744"/>
<path d="M69.2394 74.7133L57.1609 79.9749C56.4641 80.2785 55.6862 79.9725 55.3828 79.2755C55.0794 78.5785 55.3854 77.8004 56.0823 77.4968L68.2382 72.2015C68.9351 71.8979 69.713 72.2039 70.0164 72.9009C70.2423 73.6316 69.9363 74.4098 69.2394 74.7133Z" fill="#EC1744"/>
<path d="M60.1555 97.6469C48.7738 102.605 36.1456 98.9857 31.9995 89.4604C30.0781 85.0463 30.2373 79.9101 32.5717 75.116C32.834 74.449 33.642 74.1892 34.3425 74.5289C35.0093 74.7912 35.269 75.5993 34.9292 76.3001C32.9345 80.3934 32.7817 84.6977 34.4334 88.4923C37.9727 96.6236 49.0789 99.7083 59.1443 95.3236C65.0287 92.7603 69.5147 88.0424 71.3135 82.6525L69.5944 78.703C69.291 78.0061 69.5971 77.2279 70.2939 76.9243C70.9908 76.6208 71.7687 76.9268 72.0721 77.6237L73.9934 82.0379C74.1283 82.3476 74.152 82.6137 74.0208 82.9472C72.1046 89.1252 66.9691 94.6788 60.1555 97.6469Z" fill="#EC1744"/>
<path d="M65.3002 65.6531C64.9905 65.788 64.536 65.8018 64.1689 65.5932C58.9756 62.9728 52.2785 63.0343 46.2392 65.6651C43.2196 66.9806 40.4696 68.9155 38.2653 71.2576C37.747 71.7598 36.949 71.831 36.3697 71.3464C35.8677 70.828 35.7966 70.0299 36.2812 69.4503C38.6504 66.8521 41.7538 64.6711 45.0831 63.2208C51.8966 60.2527 59.4591 60.2748 65.2418 63.1912C65.9423 63.5309 66.1683 64.2616 65.8285 64.9623C65.8859 65.3058 65.6099 65.5182 65.3002 65.6531Z" fill="#EC1744"/>
<path d="M98.8042 80.6285C90.7518 84.1362 85.6143 85.453 85.3483 85.4767C84.6952 85.6691 83.961 85.2519 83.735 84.5212C83.5428 83.868 83.9599 83.1335 84.6905 82.9074C84.7679 82.8737 89.9055 81.5569 97.7255 78.1504C107.791 73.7657 113.056 63.6417 109.55 55.5879C105.977 47.3791 95.2042 44.4255 84.9839 48.8777C76.7767 52.4529 72.7005 55.1498 72.623 55.1835C72.071 55.6082 71.172 55.4472 70.7912 54.7839C70.3667 54.2318 70.5278 53.3325 71.1135 52.9852C71.2684 52.9178 75.3883 50.1097 83.8278 46.4333C95.3644 41.4078 107.693 44.9734 111.873 54.576C116.096 64.0675 110.186 75.6704 98.8042 80.6285Z" fill="#EC1744"/>
<path d="M83.3118 80.3762C82.615 80.6798 81.837 80.3738 81.5337 79.6768L72.8707 59.7745C72.5673 59.0775 72.8734 58.2993 73.5702 57.9957C74.267 57.6922 75.045 57.9982 75.3483 58.6952L84.0113 78.5975C84.3146 79.2945 84.0086 80.0727 83.3118 80.3762Z" fill="#EC1744"/>
</svg>
