<svg width="77" height="74" viewBox="0 0 77 74" fill="none" xmlns="http://www.w3.org/2000/svg">
<path d="M30.6093 27.1393L38.5 2.8541L46.3907 27.1393C46.7254 28.1694 47.6853 28.8668 48.7684 28.8668H74.3034L53.6451 43.8759C52.7689 44.5125 52.4023 45.6409 52.737 46.671L60.6277 70.9562L39.9695 55.9471C39.0932 55.3105 37.9068 55.3105 37.0305 55.9471L16.3723 70.9562L24.263 46.671C24.5977 45.6409 24.2311 44.5125 23.3549 43.8759L2.69662 28.8668H28.2316C29.3147 28.8668 30.2746 28.1694 30.6093 27.1393ZM61.1032 72.4197C61.1031 72.4192 61.1029 72.4187 61.1027 72.4182L61.1032 72.4197Z" stroke="#EC1744" stroke-width="3"/>
</svg>
