<svg width="66" height="67" viewBox="0 0 66 67" fill="none" xmlns="http://www.w3.org/2000/svg">
<path d="M41.7842 4.64478C35.694 4.64478 30.757 9.57662 30.757 15.6604C30.757 21.7443 35.694 26.6761 41.7842 26.6761C47.8744 26.6761 52.8114 21.7443 52.8114 15.6604C52.8047 9.57949 47.8716 4.65152 41.7842 4.64478ZM41.7841 24.3882C36.959 24.3882 33.0473 20.4806 33.0473 15.6604C33.0473 10.8403 36.959 6.93267 41.7842 6.93267C46.6095 6.93267 50.5211 10.8402 50.5211 15.6604C50.5157 20.4784 46.6072 24.3828 41.7841 24.3882Z" fill="#EC1744" stroke="#EC1744" stroke-width="0.1"/>
<path d="M65.6521 33.4976L55.2627 23.1191C59.4093 15.6729 56.7414 6.2749 49.293 2.11365C41.8339 -2.05352 32.4055 0.608706 28.2341 8.05972C24.0627 15.5108 26.7276 24.9292 34.1865 29.0962C39.3636 31.9886 45.739 31.6696 50.6003 28.2779L60.7388 38.4057C61.186 38.8523 61.9108 38.8523 62.358 38.4057L65.6521 35.1151C66.0991 34.6684 66.0991 33.9443 65.6521 33.4976ZM41.7842 28.775C34.5365 28.7672 28.663 22.8999 28.6552 15.6598C28.6553 8.4165 34.5334 2.54461 41.7842 2.54461C49.0351 2.54461 54.9132 8.41653 54.9132 15.6598C54.9132 22.9031 49.0352 28.775 41.7842 28.775ZM61.5484 35.9794L52.3795 26.8201C52.9532 26.2752 53.4846 25.6874 53.9691 25.0619L63.2232 34.3064L61.5484 35.9794Z" fill="#EC1744" stroke="#EC1744" stroke-width="0.1"/>
<path d="M49.456 30.9451L49.4105 30.9328L49.3981 30.9783C48.571 34.0324 47.2975 36.9479 45.6189 39.6307V39.6308L45.206 40.2889L45.2059 40.289C45.1384 40.3976 45.0892 40.5164 45.0606 40.6412L45.0605 40.6412L40.2787 61.6504V61.6505C39.9304 63.1886 38.4 64.1532 36.8603 63.8053C35.7271 63.5493 34.8618 62.6335 34.6714 61.4886L31.3774 41.7518L31.3309 41.7595L31.3774 41.7518C30.9196 39.0129 28.3258 37.1631 25.5839 37.6206C23.4637 37.9742 21.8024 39.6337 21.4484 41.7518L18.1544 61.4886L18.2008 61.4963L18.1544 61.4886C17.8955 63.0442 16.4235 64.0956 14.8662 63.8371C13.7201 63.6467 12.8034 62.7825 12.5471 61.6505V61.6504L7.76522 40.6336L7.7652 40.6335C7.73658 40.5088 7.68736 40.39 7.61985 40.2814L7.61976 40.2812L7.20693 39.6231C4.00021 34.5021 2.30105 28.5829 2.3038 22.5426C2.30448 15.132 8.31886 9.12523 15.7371 9.12591C17.555 9.12605 19.354 9.49494 21.0251 10.21C22.2332 10.7275 23.5098 11.0681 24.8153 11.2216L24.862 11.227L24.8676 11.1802L25.1234 9.0019L25.1289 8.95514L25.0821 8.94965C23.9961 8.82212 22.9344 8.53839 21.9297 8.10747L21.9296 8.10746C13.9495 4.68969 4.70687 8.3814 1.28551 16.3531C0.446169 18.3089 0.0133534 20.4147 0.013491 22.5426C0.0111546 29.0114 1.83098 35.3502 5.26474 40.8346C5.26474 40.8346 5.26475 40.8346 5.26476 40.8346L5.57456 41.3302L10.314 62.1627C10.943 64.9328 13.701 66.669 16.4739 66.0407C18.5137 65.5785 20.0707 63.9295 20.4137 61.8682L23.7078 42.1315C23.9583 40.6384 25.3731 39.6311 26.8678 39.8813C28.0221 40.0748 28.9266 40.9783 29.1202 42.1315L32.4142 61.8683C32.8805 64.6702 35.5323 66.5641 38.3372 66.0983C40.4004 65.7557 42.0512 64.2003 42.5139 62.1627L47.2534 41.3302L47.5632 40.8346C49.359 37.9633 50.7223 34.8441 51.6094 31.5765L51.6217 31.5311L51.5762 31.5188L49.456 30.9451Z" fill="#EC1744" stroke="#EC1744" stroke-width="0.1"/>
<path d="M11.9646 13.4788L11.9552 13.4329L11.9092 13.4421C9.69694 13.8851 5.50281 16.2958 5.50281 22.2412V22.2883H5.54995H7.74597H7.79311V22.2412C7.79311 19.4751 8.89274 17.8472 10.0121 16.905C11.1334 15.9611 12.2778 15.7026 12.3677 15.6831L12.4131 15.6732L12.4038 15.6276L12.1842 14.5538L11.9646 13.4788Z" fill="#EC1744" stroke="#EC1744" stroke-width="0.1"/>
<path d="M16.5771 13.466V13.4189H16.53H14.334H14.2868V13.466V15.6601V15.7072H14.334H16.53H16.5771V15.6601V13.466Z" fill="#EC1744" stroke="#EC1744" stroke-width="0.1"/>
<path d="M42.1376 9.36338L42.1042 9.33008L42.0709 9.36338L36.0321 15.3959L35.9987 15.4292L36.0321 15.4625L37.5849 17.0137L37.6182 17.0469L37.6515 17.0137L43.6904 10.9811L43.7237 10.9479L43.6904 10.9145L42.1376 9.36338Z" fill="#EC1744" stroke="#EC1744" stroke-width="0.1"/>
<path d="M46.5307 12.6587L46.4974 12.6255L46.464 12.6587L38.7784 20.3363L38.7451 20.3696L38.7784 20.4029L40.3312 21.9541L40.3646 21.9874L40.3979 21.9541L48.0835 14.2765L48.1168 14.2432L48.0835 14.2099L46.5307 12.6587Z" fill="#EC1744" stroke="#EC1744" stroke-width="0.1"/>
</svg>
