<svg width="595" height="595" viewBox="0 0 595 595" fill="none" xmlns="http://www.w3.org/2000/svg">
<g clip-path="url(#clip0)">
<path d="M486.359 216.733C482.588 214.092 477.385 215.01 474.744 218.781C472.104 222.552 473.021 227.755 476.792 230.396C480.563 233.036 485.767 232.119 488.407 228.348C491.048 224.577 490.132 219.374 486.359 216.733Z" fill="#E8F2F2"/>
<path d="M511.267 194.473C478.043 150.735 431.473 141.038 408.424 139.017C398.644 118.048 373.61 77.6064 321.135 61.3409C251.637 39.8073 167.004 104.045 165.688 202.772C165.074 249.533 150.85 275.974 135.791 303.967C124.767 324.459 113.368 345.649 106.981 375.281C102.689 395.204 99.5265 419.217 113.081 428.706C113.203 428.791 113.329 428.877 113.454 428.961C124.533 436.334 140.884 431.675 166.47 413.85C179.51 404.762 192.48 392.346 205.024 380.34C227.601 358.729 250.947 336.383 263.996 345.385C264.019 345.401 264.042 345.417 264.065 345.433C276.907 354.425 263.877 384.007 251.276 412.615C244.254 428.553 236.993 445.035 232.922 460.382C224.908 490.567 226.11 507.542 236.818 515.423C236.94 515.512 237.061 515.599 237.185 515.685C250.71 525.156 272.226 513.952 289.506 503.086C314.028 487.666 330.112 469.829 345.668 452.579C367.568 428.293 388.254 405.353 431.634 388.881C525.094 353.388 554.541 251.431 511.267 194.473ZM425.712 373.287C378.565 391.189 355.543 416.719 333.279 441.408C317.805 458.568 303.189 474.776 280.627 488.964C253.86 505.793 247.464 502.52 246.727 502.004C246.719 501.998 246.712 501.993 246.705 501.989C246.446 501.798 240.47 496.956 249.045 464.66C252.783 450.568 259.777 434.692 266.541 419.339C274.133 402.104 281.305 385.824 284.441 371.394C288.454 352.93 284.826 339.606 273.655 331.784C273.593 331.741 273.53 331.696 273.467 331.653C262.195 323.878 248.361 325.058 232.351 335.165C219.87 343.043 207.056 355.307 193.492 368.291C181.407 379.858 168.911 391.819 156.935 400.166C129.576 419.227 122.966 415.256 122.698 415.078C122.078 414.66 116.572 409.97 123.289 378.798C129.179 351.474 139.526 332.238 150.483 311.872C165.831 283.342 181.701 253.84 182.369 202.996C183.554 113.998 258.61 59.4332 316.198 77.2762C366.274 92.7972 388.096 133.464 395.153 150.228C396.396 153.183 399.224 155.164 402.425 155.321C420.596 156.224 466.281 162.829 497.984 204.565C535.178 253.517 507.304 342.301 425.712 373.287Z" fill="#E8F2F2"/>
<path d="M494.23 279.801C496.521 271.806 497.73 263.82 497.825 256.064C497.882 251.457 494.194 247.678 489.588 247.623C484.982 247.566 481.204 251.254 481.148 255.86C481.071 262.13 480.077 268.639 478.196 275.206C471.168 299.733 453.247 321.545 429.03 335.05C425.006 337.293 423.564 342.372 425.807 346.396C428.051 350.419 433.13 351.861 437.153 349.618C465.193 333.982 485.998 308.535 494.23 279.801Z" fill="#E8F2F2"/>
<path d="M329.765 198.514L308.682 170.089L318.772 136.168C319.795 132.728 318.502 129.018 315.561 126.959C312.621 124.9 308.693 124.954 305.809 127.092L277.385 148.175L243.464 138.085C240.024 137.062 236.313 138.355 234.254 141.295C232.196 144.236 232.249 148.163 234.388 151.048L255.471 179.472L245.381 213.393C244.358 216.833 245.651 220.544 248.591 222.602C251.531 224.661 255.459 224.608 258.343 222.469L286.767 201.386L320.688 211.476C324.129 212.499 327.839 211.206 329.898 208.266C331.957 205.325 331.903 201.398 329.765 198.514ZM287.526 184.21C285.01 183.461 282.288 183.94 280.18 185.505L268.501 194.167L272.647 180.231C273.396 177.715 272.916 174.993 271.352 172.884L262.69 161.206L276.626 165.352C279.142 166.1 281.864 165.621 283.973 164.056L295.651 155.394L291.505 169.331C290.757 171.846 291.236 174.569 292.801 176.677L301.463 188.355L287.526 184.21Z" fill="#E8F2F2"/>
</g>
<defs>
<clipPath id="clip0">
<rect width="427" height="427" fill="white" transform="translate(245.161) rotate(35)"/>
</clipPath>
</defs>
</svg>
