<svg width="72" height="64" viewBox="0 0 72 64" fill="none" xmlns="http://www.w3.org/2000/svg">
<path d="M19.8576 38.9572L19.9132 38.8741C19.8596 38.8382 19.8028 38.8071 19.7439 38.7809L19.7437 38.7808C18.3305 38.1557 17.4622 37.1846 17.1472 35.8952L17.1471 35.8951L16.8871 34.8335C16.7394 34.23 16.202 33.8088 15.5809 33.8082H15.5808C14.959 33.8082 14.4223 34.2301 14.2741 34.8334L14.274 34.8335L14.0145 35.8952C13.6989 37.1846 12.8306 38.1557 11.4174 38.7808L11.4169 38.7811C11.3587 38.8072 11.3022 38.8381 11.2483 38.8738L11.2481 38.874C10.8608 39.1323 10.63 39.5641 10.63 40.029C10.63 40.4944 10.8607 40.9261 11.2479 41.184C11.302 41.2204 11.3589 41.2515 11.4174 41.2773C12.8306 41.9024 13.6989 42.874 14.0145 44.1629L14.274 45.2246L14.2741 45.2247C14.4223 45.8285 14.959 46.2499 15.5808 46.2499C16.2027 46.2499 16.7394 45.828 16.8871 45.2246L17.1471 44.1629L17.1472 44.1629C17.4622 42.874 18.3304 41.9025 19.7434 41.2774C19.8031 41.2513 19.86 41.2196 19.9131 41.184C20.3003 40.9262 20.5317 40.4945 20.5317 40.029C20.5317 39.5641 20.3003 39.1317 19.913 38.8739L19.8576 38.9572ZM19.8576 38.9572C20.217 39.1964 20.4317 39.5975 20.4317 40.029C20.4317 40.4611 20.217 40.8616 19.8576 41.1009L15.5808 33.9082C16.156 33.9087 16.6532 34.2986 16.7899 34.8572L17.05 35.9189C17.3737 37.2434 18.2666 38.2367 19.7032 38.8723C19.7572 38.8963 19.809 38.9246 19.8576 38.9572ZM17.3925 40.029C16.6299 40.5814 16.0208 41.2538 15.5808 42.031C15.1404 41.2539 14.5317 40.5818 13.769 40.029C14.5313 39.4767 15.1404 38.8043 15.5808 38.0275C16.0207 38.8043 16.6299 39.4767 17.3925 40.029Z" fill="#EC1744" stroke="#EC1744" stroke-width="0.2"/>
<path d="M58.9037 11.7339L58.9037 11.7338L58.6441 10.6727C58.6441 10.6727 58.6441 10.6727 58.6441 10.6727C58.3285 9.38318 57.4607 8.41216 56.0476 7.78702L56.0473 7.78692C55.9885 7.76069 55.9318 7.72973 55.8779 7.694L55.8776 7.69381C55.491 7.4355 55.2596 7.0038 55.2596 6.53827C55.2596 6.07274 55.491 5.64096 55.8783 5.38317L55.8784 5.38307C55.932 5.34758 55.9882 5.31646 56.0478 5.29049C57.4608 4.66481 58.3285 3.69381 58.6441 2.40491L58.6441 2.4049L58.9042 1.3433L58.9037 11.7339ZM58.9037 11.7339C59.0513 12.3372 59.5886 12.7591 60.2099 12.7591H60.2104C60.8317 12.7591 61.369 12.3378 61.5172 11.7339L61.5172 11.7338L61.7768 10.6727M58.9037 11.7339L61.4201 11.7101L61.6796 10.6489M61.4958 1.26699H61.4986L61.5172 1.34324L61.7768 2.40491C62.0924 3.69379 62.9606 4.6653 64.373 5.29045C64.4322 5.31627 64.4892 5.3474 64.5433 5.38384C64.9299 5.64163 65.1613 6.07333 65.1613 6.53827C65.1613 7.00305 64.9306 7.43532 64.5439 7.69319M61.4958 1.26699L64.4882 7.61012M61.4958 1.26699C61.3233 0.704324 60.8053 0.317969 60.2104 0.317969H60.2099C59.5887 0.317969 59.0514 0.739808 58.9042 1.3432L61.4958 1.26699ZM64.5439 7.69319C64.5438 7.69324 64.5438 7.69328 64.5437 7.69333L64.4882 7.61012M64.5439 7.69319C64.544 7.69314 64.5441 7.6931 64.5441 7.69305L64.4882 7.61012M64.5439 7.69319C64.4895 7.72985 64.432 7.76084 64.3735 7.78692L64.3733 7.78702C62.9607 8.41216 62.0924 9.38373 61.7768 10.6727M64.4882 7.61012C64.4391 7.64323 64.3868 7.67154 64.3328 7.69557C62.8967 8.3311 62.0038 9.32498 61.6796 10.6489M61.7768 10.6727L61.7768 10.6727L61.6796 10.6489M61.7768 10.6727L61.6796 10.6489M55.3596 6.53827C55.3596 6.10622 55.5743 5.70567 55.9337 5.46642L56.088 7.69557C56.0341 7.67154 55.9823 7.64323 55.9332 7.61066C55.5743 7.37086 55.3596 6.97032 55.3596 6.53827ZM62.0222 6.53829C61.2599 7.09069 60.6508 7.76313 60.2104 8.54028C59.7701 7.76317 59.1614 7.09113 58.3987 6.53833C59.1614 5.98635 59.7701 5.31392 60.2104 4.5368C60.6508 5.3139 61.2595 5.98593 62.0222 6.53829Z" fill="#EC1744" stroke="#EC1744" stroke-width="0.2"/>
<path d="M69.5588 13.9103L69.5588 13.9103C70.3541 14.7062 70.6562 15.8314 70.3644 16.9186L69.5777 19.8559C69.1916 21.2956 69.2959 22.8228 69.8799 24.2734C70.6896 26.2828 71.1 28.4087 71.1 30.5929V41.1224C71.1 43.3855 70.66 45.5835 69.7923 47.6546C69.2051 49.0572 69.0902 50.6068 69.4682 52.018L70.2122 54.7929L70.1156 54.8188L70.2122 54.7929C70.5034 55.8801 70.202 57.0053 69.4061 57.8012C68.8101 58.3972 68.0295 58.716 67.2178 58.716C66.9457 58.716 66.6705 58.6801 66.3978 58.6068C66.3978 58.6068 66.3977 58.6068 66.3977 58.6068L62.1323 57.4639C60.9618 57.1505 59.7553 57.1461 58.6437 57.4499C57.1936 57.8464 55.6899 58.0473 54.175 58.0473H33.0702C32.4456 58.0473 31.94 57.5411 31.94 56.9171C31.94 56.2931 32.4457 55.7875 33.0702 55.7875H54.175C55.4891 55.7875 56.7924 55.6129 58.0478 55.2698C59.5471 54.8601 61.1619 54.8641 62.7175 55.2808L62.6917 55.3774L62.7176 55.2808L66.983 56.4242C67.4117 56.5388 67.7012 56.3094 67.8077 56.2029C67.9143 56.0963 68.1437 55.8074 68.0291 55.3781L67.2852 52.6027C66.7778 50.7093 66.9282 48.6423 67.7077 46.7816C68.4587 44.9883 68.8401 43.0842 68.8401 41.1224V30.5929C68.8401 28.6995 68.4842 26.8574 67.7835 25.1177C67.0153 23.211 66.8804 21.1888 67.3946 19.2712L68.1813 16.3333L68.2779 16.3592L68.1813 16.3333C68.2964 15.9046 68.067 15.6152 67.9605 15.5086C67.8539 15.4021 67.5645 15.1727 67.1358 15.2878L67.1099 15.1912L67.1358 15.2878L62.787 16.4526C61.2212 16.8725 59.5987 16.8749 58.0945 16.4582C56.8242 16.1066 55.5055 15.9278 54.175 15.9278H53.9904C54.8997 18.1663 55.3845 20.5786 55.4008 22.9963C55.4363 28.1536 53.4552 33.0093 49.8219 36.6672C46.1891 40.3257 41.348 42.3407 36.1923 42.3407C33.8824 42.3407 31.6227 41.9343 29.4768 41.1333C29.4768 41.1333 29.4768 41.1333 29.4768 41.1333L29.5117 41.0396C28.9259 40.8212 28.536 40.2978 28.4938 39.6729L69.5588 13.9103ZM69.5588 13.9103C68.7629 13.115 67.6377 12.8129 66.5505 13.1047L62.2022 14.2695L62.2022 14.2695C61.0238 14.5856 59.8121 14.5883 58.698 14.2799C57.2312 13.8737 55.7093 13.6679 54.175 13.6679H52.8922C51.5778 11.3653 49.7785 9.325 47.6495 7.73472C47.1496 7.36086 46.4418 7.46348 46.0681 7.96377C45.6942 8.46364 45.7974 9.17197 46.2971 9.54516C50.5464 12.7197 53.1049 17.7544 53.141 23.0121C53.1723 27.5629 51.4241 31.8466 48.2182 35.0747C45.0124 38.3029 40.7414 40.0803 36.1923 40.0803C34.5832 40.0803 33.0025 39.8574 31.4778 39.4167C37.0707 35.9146 40.4948 29.7889 40.4948 23.1316C40.4948 16.4737 37.0712 10.3475 31.4783 6.84584C33.0724 6.3849 34.7282 6.16203 36.4116 6.18338C38.5788 6.21099 40.6885 6.64685 42.6815 7.47982C43.2581 7.7212 43.9195 7.44865 44.1603 6.87285L44.1603 6.87277C44.4005 6.29684 44.1287 5.63539 43.5533 5.3946L43.5533 5.39457C41.2914 4.44968 38.8979 3.95467 36.4397 3.92353L36.4385 4.02353L36.4397 3.92353C34.0488 3.89347 31.7091 4.29771 29.488 5.12504L29.488 5.12504C28.8597 5.35926 28.44 5.9197 28.3946 6.58716L28.3946 6.58724C28.3497 7.25407 28.6893 7.86575 29.2797 8.18225L29.3267 8.0945L29.2797 8.18225C31.7693 9.51633 33.832 11.4137 35.3488 13.6679H17.825C16.3165 13.6679 14.8198 13.8672 13.3762 14.2594L13.3762 14.2594C12.2656 14.5617 11.0612 14.5567 9.89392 14.2439L9.8939 14.2439L5.64174 13.1047C4.55462 12.8135 3.42939 13.1149 2.634 13.9103C1.83809 14.7062 1.53663 15.8315 1.82786 16.9186L1.92433 16.8927L1.82786 16.9186L2.55524 19.6332C2.93538 21.0533 2.81845 22.6119 2.22378 24.0225C1.34537 26.1049 0.9 28.3158 0.9 30.5929C0.9 31.2169 1.4057 31.7226 2.0302 31.7226C2.6542 31.7226 3.15986 31.2169 3.15986 30.5929C3.15986 28.6189 3.54549 26.7042 4.3061 24.9008C5.09525 23.0315 5.24895 20.9526 4.73833 19.0485C4.73833 19.0485 4.73833 19.0484 4.73833 19.0484L4.01095 16.3333L4.01093 16.3333C3.89596 15.9048 4.12493 15.6161 4.2318 15.5086C4.33832 15.4021 4.62719 15.1727 5.05699 15.2878C5.057 15.2878 5.057 15.2878 5.057 15.2878L9.30914 16.4269L69.5588 13.9103ZM29.2797 38.0804C28.6972 38.3926 28.3492 39.0204 28.394 39.6797L9.30916 16.4269C10.861 16.8431 12.4726 16.8477 13.9697 16.4407L13.9697 16.4407C15.2198 16.1007 16.5167 15.9283 17.825 15.9283H36.6309C37.6697 18.1422 38.2344 20.5932 38.2344 23.1316C38.2344 29.3923 34.8031 35.1204 29.2797 38.0804L29.327 38.1685L29.2797 38.0804Z" fill="#EC1744" stroke="#EC1744" stroke-width="0.2"/>
<path d="M30.2646 52.9082L30.2649 52.9083C30.3237 52.9345 30.3806 52.9655 30.4342 53.0015M30.2646 52.9082L30.4342 53.0015M30.2646 52.9082C28.5411 52.1458 26.3519 50.6318 25.644 47.74L25.2216 46.015C25.059 45.3507 24.4682 44.8872 23.7845 44.8872C23.1013 44.8872 22.51 45.3507 22.3474 46.015L22.3474 46.015M30.2646 52.9082L22.3474 46.015M30.4342 53.0015C30.8667 53.2897 31.1247 53.7716 31.1247 54.291C31.1247 54.8104 30.8667 55.2923 30.4342 55.5805M30.4342 53.0015V55.5805M30.4342 55.5805C30.4341 55.5806 30.434 55.5806 30.434 55.5807L30.3785 55.4974L30.4342 55.5805ZM22.3474 46.015L21.9255 47.74C21.2177 50.6323 19.0279 52.1458 17.3044 52.9082L17.3038 52.9085M22.3474 46.015L17.3038 52.9085M17.3038 52.9085C17.2457 52.9346 17.1891 52.9655 17.1352 53.0012L17.135 53.0014M17.3038 52.9085L17.135 53.0014M17.135 53.0014C16.7029 53.2896 16.4448 53.7715 16.4448 54.291C16.4448 54.8105 16.7029 55.2924 17.135 55.5806L17.1352 55.5808M17.135 53.0014L17.1352 55.5808M17.1352 55.5808C17.1891 55.6165 17.2458 55.6475 17.3047 55.6737L17.305 55.6738M17.1352 55.5808L17.305 55.6738M17.305 55.6738C17.3844 55.7089 17.4649 55.7457 17.5461 55.7841M17.305 55.6738L17.5461 55.7841M17.5461 55.7841C16.3493 55.7617 15.1626 55.5947 14.0158 55.2866L14.0158 55.2866C12.5237 54.8867 10.9208 54.8934 9.37913 55.3068C9.37912 55.3068 9.3791 55.3069 9.37909 55.3069L5.20979 56.4235L17.5461 55.7841ZM4.06709 55.3522L4.16368 55.3781C4.04864 55.8072 4.27842 56.0961 4.38507 56.2027C4.49153 56.3092 4.78094 56.5381 5.20974 56.4236L4.06709 55.3522ZM4.06709 55.3522L4.16368 55.3781L4.82645 52.9054L4.72986 52.8795L4.82645 52.9054C5.34784 50.9592 5.18118 48.84 4.35808 46.9368C3.56353 45.099 3.16039 43.1429 3.16039 41.1222V35.1183C3.16039 34.4938 2.65473 33.9881 2.0302 33.9881C1.4062 33.9881 0.9 34.4943 0.9 35.1183V41.1222C0.9 43.453 1.36578 45.7112 2.28341 47.8339L2.28341 47.8339M4.06709 55.3522L2.28341 47.8339M2.28341 47.8339C2.90556 49.2726 3.0325 50.8661 2.64336 52.3201L1.9806 54.7928L2.07719 54.8186M2.28341 47.8339L2.07719 54.8186M2.07719 54.8186L1.9806 54.7928C1.68937 55.8799 1.99083 57.0051 2.78674 57.801M2.07719 54.8186L2.78674 57.801M9.93799 57.3933L9.96386 57.4899L5.79455 58.6066L9.93799 57.3933ZM9.93799 57.3933L9.96387 57.4899C11.1237 57.1792 12.3218 57.1726 13.4299 57.4696M9.93799 57.3933L13.4299 57.4696M2.78674 57.801C3.38216 58.3965 4.16323 58.7158 4.97499 58.7158M2.78674 57.801L4.97499 58.7158M4.97499 58.7158C5.24655 58.7158 5.52174 58.6799 5.79447 58.6066L4.97499 58.7158ZM13.4299 57.4696C14.8569 57.8527 16.3353 58.0472 17.825 58.0472M13.4299 57.4696L17.825 58.0472M17.825 58.0472H20.5331H17.825ZM23.7845 59.2134C23.3716 58.1113 22.762 57.1183 21.9725 56.2479C21.9186 56.175 21.8563 56.1076 21.7861 56.0486C21.1477 55.3844 20.4017 54.7958 19.5508 54.291C21.5765 53.0901 23.0176 51.4181 23.7845 49.3691C24.552 51.4176 25.9929 53.0905 28.0181 54.291C25.9924 55.492 24.5519 57.1644 23.7845 59.2134Z" fill="#EC1744" stroke="#EC1744" stroke-width="0.2"/>
</svg>
