<svg width="31" height="20" viewBox="0 0 31 20" fill="none" xmlns="http://www.w3.org/2000/svg">
<path d="M15.6109 19.1232C13.7504 19.0921 11.8899 19.0688 10.0294 19.0242C8.92825 18.9989 7.82935 18.9465 6.72823 18.8902C5.83036 18.8436 4.93248 18.7756 4.04354 18.6436C2.81288 18.4611 1.87927 17.9076 1.25165 16.9678C0.988094 16.5737 0.863017 16.1387 0.76921 15.694C0.590528 14.8474 0.498954 13.9911 0.431949 13.1329C0.333674 11.8804 0.282303 10.6261 0.306872 9.36974C0.326973 8.22022 0.385045 7.07458 0.507888 5.92894C0.588295 5.17554 0.691037 4.42408 0.900987 3.68815C1.25612 2.45319 2.51135 1.45319 3.95644 1.24736C4.87888 1.11532 5.80802 1.04542 6.7394 0.994934C9.28561 0.853186 11.8341 0.796875 14.3825 0.796875C16.4731 0.796875 18.5659 0.829885 20.6564 0.86872C21.7308 0.888138 22.8051 0.944449 23.8794 1.00076C24.7862 1.04736 25.6886 1.12115 26.5864 1.24736C27.596 1.38911 28.4492 1.76387 29.0969 2.46679C29.5079 2.91145 29.7357 3.42407 29.8719 3.97359C30.0372 4.64544 30.1377 5.32311 30.2092 6.00661C30.37 7.53283 30.4303 9.061 30.4013 10.593C30.3812 11.7057 30.3209 12.8183 30.2003 13.927C30.1131 14.7251 30.0216 15.5251 29.7603 16.2979C29.3292 17.5678 28.3464 18.3504 26.8611 18.6183C26.2112 18.7348 25.5456 18.7892 24.8823 18.8358C22.0881 19.0358 19.2851 19.0727 16.482 19.0979C16.1916 19.0999 15.9013 19.0979 15.6109 19.0979C15.6132 19.1057 15.6132 19.1135 15.6109 19.1232ZM12.3522 13.8707C14.9699 12.562 17.572 11.263 20.1896 9.95421C17.572 8.63964 14.9677 7.33283 12.3522 6.02021C12.3522 8.64546 12.3522 11.2494 12.3522 13.8707Z" fill="white"/>
</svg>
